<svg id="visual" viewBox="0 0 960 540" width="960" height="540" xmlns="http://www.w3.org/2000/svg" xmlns:xlink="http://www.w3.org/1999/xlink" version="1.1"><rect x="0" y="0" width="960" height="540" fill="#ffffff"></rect><defs><linearGradient id="grad1_0" x1="43.8%" y1="0%" x2="100%" y2="100%"><stop offset="14.444444444444446%" stop-color="#efe1c6" stop-opacity="1"></stop><stop offset="85.55555555555554%" stop-color="#efe1c6" stop-opacity="1"></stop></linearGradient></defs><defs><linearGradient id="grad1_1" x1="43.8%" y1="0%" x2="100%" y2="100%"><stop offset="14.444444444444446%" stop-color="#efe1c6" stop-opacity="1"></stop><stop offset="85.55555555555554%" stop-color="#ffffff" stop-opacity="1"></stop></linearGradient></defs><defs><linearGradient id="grad2_0" x1="0%" y1="0%" x2="56.3%" y2="100%"><stop offset="14.444444444444446%" stop-color="#efe1c6" stop-opacity="1"></stop><stop offset="85.55555555555554%" stop-color="#efe1c6" stop-opacity="1"></stop></linearGradient></defs><defs><linearGradient id="grad2_1" x1="0%" y1="0%" x2="56.3%" y2="100%"><stop offset="14.444444444444446%" stop-color="#ffffff" stop-opacity="1"></stop><stop offset="85.55555555555554%" stop-color="#efe1c6" stop-opacity="1"></stop></linearGradient></defs><g transform="translate(960, 0)"><path d="M0 459C-62.6 456.1 -125.2 453.3 -175.7 424.1C-226.1 394.9 -264.5 339.3 -288.5 288.5C-312.5 237.7 -322.3 191.6 -348.3 144.3C-374.3 97 -416.7 48.5 -459 0L0 0Z" fill="#f7f0e2"></path><path d="M0 229.5C-31.3 228.1 -62.6 226.6 -87.8 212C-113.1 197.4 -132.2 169.7 -144.2 144.2C-156.3 118.8 -161.1 95.8 -174.2 72.1C-187.2 48.5 -208.3 24.2 -229.5 0L0 0Z" fill="#efe1c6"></path></g><g transform="translate(0, 540)"><path d="M0 -459C46 -415.3 91.9 -371.6 145.8 -352C199.7 -332.4 261.4 -336.8 311.8 -311.8C362.3 -286.9 401.4 -232.5 424.1 -175.7C446.7 -118.8 452.9 -59.4 459 0L0 0Z" fill="#f7f0e2"></path><path d="M0 -229.5C23 -207.7 46 -185.8 72.9 -176C99.8 -166.2 130.7 -168.4 155.9 -155.9C181.1 -143.4 200.7 -116.3 212 -87.8C223.4 -59.4 226.4 -29.7 229.5 0L0 0Z" fill="#efe1c6"></path></g></svg>