<svg id="visual" viewBox="0 0 960 540" width="960" height="540" xmlns="http://www.w3.org/2000/svg" xmlns:xlink="http://www.w3.org/1999/xlink" version="1.1"><rect x="0" y="0" width="960" height="540" fill="#212529"></rect><path d="M0 237L20 228.8C40 220.7 80 204.3 120 210C160 215.7 200 243.3 240 238C280 232.7 320 194.3 360 193.2C400 192 440 228 480 242.5C520 257 560 250 600 233.3C640 216.7 680 190.3 720 176.3C760 162.3 800 160.7 840 167.5C880 174.3 920 189.7 940 197.3L960 205L960 0L940 0C920 0 880 0 840 0C800 0 760 0 720 0C680 0 640 0 600 0C560 0 520 0 480 0C440 0 400 0 360 0C320 0 280 0 240 0C200 0 160 0 120 0C80 0 40 0 20 0L0 0Z" fill="#596585"></path><path d="M0 169L20 166.5C40 164 80 159 120 139.8C160 120.7 200 87.3 240 76C280 64.7 320 75.3 360 93.2C400 111 440 136 480 131.8C520 127.7 560 94.3 600 86C640 77.7 680 94.3 720 95C760 95.7 800 80.3 840 77.8C880 75.3 920 85.7 940 90.8L960 96L960 0L940 0C920 0 880 0 840 0C800 0 760 0 720 0C680 0 640 0 600 0C560 0 520 0 480 0C440 0 400 0 360 0C320 0 280 0 240 0C200 0 160 0 120 0C80 0 40 0 20 0L0 0Z" fill="#273047"></path></svg>