<svg id="visual" viewBox="0 0 900 600" width="900" height="600" xmlns="http://www.w3.org/2000/svg" xmlns:xlink="http://www.w3.org/1999/xlink" version="1.1"><rect x="0" y="0" width="900" height="600" fill="#212529"></rect><path d="M0 264L25 249C50 234 100 204 150 239.2C200 274.3 250 374.7 300 385.7C350 396.7 400 318.3 450 308.3C500 298.3 550 356.7 600 368.3C650 380 700 345 750 310C800 275 850 240 875 222.5L900 205L900 0L875 0C850 0 800 0 750 0C700 0 650 0 600 0C550 0 500 0 450 0C400 0 350 0 300 0C250 0 200 0 150 0C100 0 50 0 25 0L0 0Z" fill="#344161"></path></svg>