<svg id="visual" viewBox="0 0 960 540" width="960" height="540" xmlns="http://www.w3.org/2000/svg" xmlns:xlink="http://www.w3.org/1999/xlink" version="1.1"><path d="M0 195L32 187.8C64 180.7 128 166.3 192 164.7C256 163 320 174 384 167.7C448 161.3 512 137.7 576 142.2C640 146.7 704 179.3 768 183.8C832 188.3 896 164.7 928 152.8L960 141L960 0L928 0C896 0 832 0 768 0C704 0 640 0 576 0C512 0 448 0 384 0C320 0 256 0 192 0C128 0 64 0 32 0L0 0Z" fill="#212529"></path><path d="M0 287L32 279.8C64 272.7 128 258.3 192 262C256 265.7 320 287.3 384 282.8C448 278.3 512 247.7 576 248.5C640 249.3 704 281.7 768 287C832 292.3 896 270.7 928 259.8L960 249L960 139L928 150.8C896 162.7 832 186.3 768 181.8C704 177.3 640 144.7 576 140.2C512 135.7 448 159.3 384 165.7C320 172 256 161 192 162.7C128 164.3 64 178.7 32 185.8L0 193Z" fill="#232b34"></path><path d="M0 357L32 343.5C64 330 128 303 192 300.3C256 297.7 320 319.3 384 322.2C448 325 512 309 576 314.5C640 320 704 347 768 352.3C832 357.7 896 341.3 928 333.2L960 325L960 247L928 257.8C896 268.7 832 290.3 768 285C704 279.7 640 247.3 576 246.5C512 245.7 448 276.3 384 280.8C320 285.3 256 263.7 192 260C128 256.3 64 270.7 32 277.8L0 285Z" fill="#26313e"></path><path d="M0 417L32 412.5C64 408 128 399 192 405.3C256 411.7 320 433.3 384 436C448 438.7 512 422.3 576 420.5C640 418.7 704 431.3 768 435C832 438.7 896 433.3 928 430.7L960 428L960 323L928 331.2C896 339.3 832 355.7 768 350.3C704 345 640 318 576 312.5C512 307 448 323 384 320.2C320 317.3 256 295.7 192 298.3C128 301 64 328 32 341.5L0 355Z" fill="#29374a"></path><path d="M0 455L32 454C64 453 128 451 192 456.3C256 461.7 320 474.3 384 478C448 481.7 512 476.3 576 480C640 483.7 704 496.3 768 494.5C832 492.7 896 476.3 928 468.2L960 460L960 426L928 428.7C896 431.3 832 436.7 768 433C704 429.3 640 416.7 576 418.5C512 420.3 448 436.7 384 434C320 431.3 256 409.7 192 403.3C128 397 64 406 32 410.5L0 415Z" fill="#2d3c55"></path><path d="M0 541L32 541C64 541 128 541 192 541C256 541 320 541 384 541C448 541 512 541 576 541C640 541 704 541 768 541C832 541 896 541 928 541L960 541L960 458L928 466.2C896 474.3 832 490.7 768 492.5C704 494.3 640 481.7 576 478C512 474.3 448 479.7 384 476C320 472.3 256 459.7 192 454.3C128 449 64 451 32 452L0 453Z" fill="#344161"></path></svg>