<svg id="visual" width="960" height="540" xmlns="http://www.w3.org/2000/svg" version="1.1"><path fill="#fff" d="M0 0h960v540H0z"/><defs><linearGradient id="grad1_0" x1="43.8%" y1="0%" x2="100%" y2="100%"><stop offset="14.444%" stop-color="#efe1c6"/><stop offset="85.556%" stop-color="#efe1c6"/></linearGradient></defs><defs><linearGradient id="grad1_1" x1="43.8%" y1="0%" x2="100%" y2="100%"><stop offset="14.444%" stop-color="#efe1c6"/><stop offset="85.556%" stop-color="#fff"/></linearGradient></defs><defs><linearGradient id="grad2_0" x1="0%" y1="0%" x2="56.3%" y2="100%"><stop offset="14.444%" stop-color="#efe1c6"/><stop offset="85.556%" stop-color="#efe1c6"/></linearGradient></defs><defs><linearGradient id="grad2_1" x1="0%" y1="0%" x2="56.3%" y2="100%"><stop offset="14.444%" stop-color="#fff"/><stop offset="85.556%" stop-color="#efe1c6"/></linearGradient></defs><path d="M0 459c-62.6-2.9-125.2-5.7-175.7-34.9-50.4-29.2-88.8-84.8-112.8-135.6s-33.8-96.9-59.8-144.2C-374.3 97-416.7 48.5-459 0H0Z" fill="#f7f0e2" transform="translate(960)"/><path d="M0 229.5c-31.3-1.4-62.6-2.9-87.8-17.5-25.3-14.6-44.4-42.3-56.4-67.8-12.1-25.4-16.9-48.4-30-72.1-13-23.6-34.1-47.9-55.3-72.1H0Z" fill="#efe1c6" transform="translate(960)"/><path d="M0-459c46 43.7 91.9 87.4 145.8 107 53.9 19.6 115.6 15.2 166 40.2 50.5 24.9 89.6 79.3 112.3 136.1C446.7-118.8 452.9-59.4 459 0H0Z" fill="#f7f0e2" transform="translate(0 540)"/><path d="M0-229.5c23 21.8 46 43.7 72.9 53.5 26.9 9.8 57.8 7.6 83 20.1 25.2 12.5 44.8 39.6 56.1 68.1 11.4 28.4 14.4 58.1 17.5 87.8H0Z" fill="#efe1c6" transform="translate(0 540)"/></svg>