<svg id="visual" width="960" height="540" xmlns="http://www.w3.org/2000/svg" version="1.1"><path d="m0 50 22.8 5.3c22.9 5.4 68.5 16 114.2 22.2 45.7 6.2 91.3 7.8 137 3.3s91.3-15.1 137.2-16c45.8-.8 91.8 8.2 137.6 9 45.9.9 91.5-6.5 137.2-8.3 45.7-1.8 91.3 1.8 137 4.7C868.7 73 914.3 75 937.2 76l22.8 1V0H0Z" fill="#efe1c6"/><path d="m0 109 22.8 5.3c22.9 5.4 68.5 16 114.2 22.4 45.7 6.3 91.3 8.3 137 1.1 45.7-7.1 91.3-23.5 137.2-25.3 45.8-1.8 91.8 10.8 137.6 15.3 45.9 4.5 91.5.9 137.2-3.6 45.7-4.5 91.3-9.9 137-7.2s91.3 13.3 114.2 18.7L960 141V75l-22.8-1c-22.9-1-68.5-3-114.2-5.8-45.7-2.9-91.3-6.5-137-4.7-45.7 1.8-91.3 9.2-137.2 8.3-45.8-.8-91.8-9.8-137.6-9-45.9.9-91.5 11.5-137.2 16-45.7 4.5-91.3 2.9-137-3.3-45.7-6.2-91.3-16.8-114.2-22.2L0 48Z" fill="#f7f0e2"/><path d="m0 249 22.8 1c22.9 1 68.5 3 114.2 5.8 45.7 2.9 91.3 6.5 137-1.6 45.7-8.2 91.3-28.2 137.2-30 45.8-1.9 91.8 14.5 137.6 25.3 45.9 10.8 91.5 16.2 137.2 12.5 45.7-3.7 91.3-16.3 137-15.5 45.7.8 91.3 15.2 114.2 22.3L960 276V139l-22.8-5.3c-22.9-5.4-68.5-16-114.2-18.7-45.7-2.7-91.3 2.7-137 7.2s-91.3 8.1-137.2 3.6c-45.8-4.5-91.8-17.1-137.6-15.3-45.9 1.8-91.5 18.2-137.2 25.3-45.7 7.2-91.3 5.2-137-1.1-45.7-6.4-91.3-17-114.2-22.4L0 107Z" fill="#fff"/><path d="m0 374 22.8 4.5C45.7 383 91.3 392 137 401s91.3 18 137 18.8c45.7.9 91.3-6.5 137.2-12.8 45.8-6.3 91.8-11.7 137.6-16.2 45.9-4.5 91.5-8.1 137.2-5.5 45.7 2.7 91.3 11.7 137 19.9 45.7 8.1 91.3 15.5 114.2 19.1L960 428V274l-22.8-7.2c-22.9-7.1-68.5-21.5-114.2-22.3-45.7-.8-91.3 11.8-137 15.5-45.7 3.7-91.3-1.7-137.2-12.5-45.8-10.8-91.8-27.2-137.6-25.3-45.9 1.8-91.5 21.8-137.2 30-45.7 8.1-91.3 4.5-137 1.6C91.3 251 45.7 249 22.8 248L0 247Z" fill="#fff"/><path d="m0 438 22.8 4.5c22.9 4.5 68.5 13.5 114.2 19s91.3 7.5 137 6.7c45.7-.9 91.3-4.5 137.2-6.4 45.8-1.8 91.8-1.8 137.6-5.5 45.9-3.6 91.5-11 137.2-9.1 45.7 1.8 91.3 12.8 137 18.3s91.3 5.5 114.2 5.5H960v-45l-22.8-3.7c-22.9-3.6-68.5-11-114.2-19.1-45.7-8.2-91.3-17.2-137-19.9-45.7-2.6-91.3 1-137.2 5.5-45.8 4.5-91.8 9.9-137.6 16.2-45.9 6.3-91.5 13.7-137.2 12.8-45.7-.8-91.3-9.8-137-18.8s-91.3-18-114.2-22.5L0 372Z" fill="#f7f0e2"/><path d="M0 541h960v-72h-22.8c-22.9 0-68.5 0-114.2-5.5s-91.3-16.5-137-18.3c-45.7-1.9-91.3 5.5-137.2 9.1-45.8 3.7-91.8 3.7-137.6 5.5-45.9 1.9-91.5 5.5-137.2 6.4-45.7.8-91.3-1.2-137-6.7s-91.3-14.5-114.2-19L0 436Z" fill="#efe1c6"/></svg>