<svg width="284" height="284" fill="none" xmlns="http://www.w3.org/2000/svg"><path fill-rule="evenodd" clip-rule="evenodd" d="M245 141.8c0 56.9-46.3 103.2-103.3 103.2-56.9 0-103.2-46.3-103.2-103.2 0-57 46.3-103.3 103.2-103.3 57 0 103.3 46.3 103.3 103.3Zm-1 0c0-56.4-45.9-102.3-102.3-102.3-56.3 0-102.2 45.9-102.2 102.3 0 56.3 45.9 102.2 102.2 102.2 56.4 0 102.3-45.9 102.3-102.2Z" fill="url('#paint0_linear_6_275')"/><path fill-rule="evenodd" clip-rule="evenodd" d="M274 141.8c0 72.9-59.3 132.2-132.3 132.2C68.8 274 9.5 214.7 9.5 141.8c0-73 59.3-132.3 132.2-132.3 73 0 132.3 59.3 132.3 132.3Zm-29 0c0-57-46.3-103.3-103.3-103.3-56.9 0-103.2 46.3-103.2 103.3 0 56.9 46.3 103.2 103.2 103.2 57 0 103.3-46.3 103.3-103.2Z" fill="#050505"/><path d="M141.7 39.5c-56.3 0-102.2 45.9-102.2 102.3 0 56.3 45.9 102.2 102.2 102.2 56.4 0 102.3-45.9 102.3-102.2 0-56.4-45.9-102.3-102.3-102.3Z" fill="#050505"/><path fill-rule="evenodd" clip-rule="evenodd" d="m258.2 154.1-6.8 5.1 4.4 7.1-7.3 4.3 3.7 7.5-7.7 3.6 2.8 7.9-8.1 2.7 2 8.1-8.3 1.8 1 8.3-8.4 1 .1 8.4h-8.5l-.7 8.4-5.7-.6c.4 1.3 1 3.6 2.7 3.6-2 0-7.2-.1-7.6-1.8 1.6 7.2-1.1 10.9-4.8 13.8-1-1.3-.7-3.2-1.7-4.7-.3 2.1-2.8 3-4.8 4.5-2.7 2-4 4.7-3.6 7.3-2.2-1-3.3-2.8-2.9-4.4-2.3 1-3.3 2.1-4 3.7-.5 1-1.4 4.3.5 5.6-3.7-.7-4.8-3.3-6.4-5.3-1.6 1.5-2.3 3.5-2.2 5.3-1.7-.5-3.1-1.3-3.8-2.3.1 0-4.9 5.4-5.4 5.9-1.8 1.8-5 3.1-8.4 3.4 3.5-1.5 4.8-4.5 2.9-6.8-.4 1.5-1.7 2.3-3.1 3.4-.8.6-1.5 1.1-2.4 1.6-.4.3-2.4.9-2.5 1.2.6-1.4 0-3-1.5-4.1-.5 1.8-2.4 3.3-4.3 4.8-1.6 1.2-2.2 2.5-3.2 3.9-1-.7-1.4-2.2-1.2-3.1.2-.7.1-4.4-2.1-5.5-3 1.7-3.4 5.3-3.3 5.6-1.4.1-3-.9-3.7-1.5-.6-.6-1-1.2-1.5-1.8-1-1.2-2.5-1.8-4-2.7-.5.5-1.4 3.2-.2 3.5-3.8-.8-6.9-2.9-7.6-5.3-1.8 2.3-.5 5.3 2.9 6.8-3.4-.3-6.6-1.6-8.4-3.4-.5-.5-5.5-5.9-5.4-5.9-.7 1-2.1 1.8-3.8 2.3.1-1.8-.6-3.8-2.2-5.3-1.6 2-2.7 4.6-6.4 5.3 1.9-1.3 1-4.6.5-5.6-.6-1.6-1.6-2.7-4-3.7.4 1.6-.7 3.4-2.9 4.4.5-2.6-.9-5.3-3.6-7.3-2-1.5-4.5-2.4-4.8-4.5-1 1.5-.6 3.4-1.7 4.7-3.6-2.8-6.2-6.3-5-13.1-1.2 1.2-5.4 1.3-7.2 1.2 1.7.1 2.4-2.3 2.7-3.5l-4.2.4-.7-8.4h-8.5l.1-8.4-8.4-1 1-8.3-8.3-1.8 2-8.1-8.1-2.7 2.8-7.9-7.7-3.6 3.7-7.5-7.3-4.3 4.4-7.1-6.8-5.1 5.2-6.6-6.2-5.7 6.2-5.8-5.2-6.6 6.8-5-4.4-7.2 7.3-4.3-3.7-7.5 7.7-3.6-2.8-7.8 8.1-2.7-2-8.2 8.3-1.8-1-8.3 8.4-1-.1-8.4h8.5l.7-8.4 5.6.6c-.3-1.3-.9-3.6-2.6-3.6 2 0 7.2.1 7.5 1.8-1.5-7.2 1.2-10.9 4.9-13.8 1 1.3.6 3.2 1.7 4.7.3-2.1 2.7-3 4.8-4.5 2.7-2 4-4.7 3.6-7.3 2.1 1 3.3 2.8 2.9 4.4 2.3-1 3.3-2.1 4-3.7.5-1 1.3-4.3-.5-5.6 3.7.8 4.8 3.3 6.4 5.3 1.6-1.5 2.3-3.5 2.2-5.3 1.7.5 3 1.3 3.8 2.3-.1 0 4.8-5.4 5.3-5.9 1.9-1.8 5-3.1 8.5-3.4-3.5 1.5-4.8 4.5-2.9 6.8.4-1.5 1.7-2.2 3.1-3.4.8-.6 1.4-1.1 2.4-1.6.4-.3 2.4-.9 2.5-1.2-.6 1.4-.1 3 1.4 4.1.6-1.8 2.4-3.3 4.3-4.8 1.7-1.2 2.3-2.5 3.2-3.9 1.1.7 1.5 2.2 1.2 3.1-.1.7 0 4.4 2.2 5.5 3-1.7 3.4-5.3 3.2-5.6 1.5-.1 3.1.9 3.8 1.5.6.6 1 1.2 1.5 1.8 1 1.2 2.4 1.8 4 2.7.4-.5 1.4-3.2.1-3.5 3.9.8 7 2.9 7.7 5.3 1.8-2.3.5-5.3-2.9-6.8 3.4.3 6.6 1.6 8.4 3.4.5.5 5.4 5.9 5.4 5.9.7-1 2.1-1.8 3.7-2.3 0 1.8.6 3.8 2.2 5.3 1.6-2 2.8-4.5 6.4-5.3-1.8 1.3-.9 4.6-.5 5.6.7 1.6 1.7 2.7 4 3.7-.3-1.6.8-3.4 3-4.4-.5 2.6.9 5.3 3.6 7.3 2 1.5 4.5 2.4 4.8 4.5 1-1.5.6-3.4 1.6-4.7 3.7 2.8 6.2 6.3 5 13.1 1.3-1.2 5.5-1.3 7.2-1.2-1.7 0-2.3 2.3-2.6 3.5l4.2-.4.7 8.4h8.5l-.1 8.4 8.4 1-1 8.3 8.3 1.8-2 8.2 8.1 2.7-2.8 7.8 7.7 3.6-3.7 7.5 7.3 4.3-4.4 7.2 6.8 5-5.3 6.6 6.3 5.8-6.3 5.7 5.3 6.6Zm-7.4 4.9 6.7-5-5.2-6.6 6.2-5.7-6.2-5.6 5.2-6.6-6.7-5 4.4-7.1-7.3-4.3 3.7-7.5-7.7-3.5 2.8-7.8-8-2.7 1.9-8.1-8.2-1.8 1-8.3-8.4-1 .2-8.3h-8.5l-.7-8.3-5 .5h-.7l-.7.1h-.1c-.8-.7-1.6-1.4-2.4-2-18.2-14.5-38.9-21.8-64.1-21.8-25.5 0-49 9-67.4 23.9l-1.5-.1-6.4-.6-.8 8.3h-8.4l.1 8.3-8.4 1 1.1 8.3-8.3 1.8 2 8.1-8 2.7 2.8 7.8-7.7 3.5 3.6 7.5-7.2 4.3 4.4 7.1-6.8 5 5.2 6.6-6.1 5.6 6.1 5.7-5.2 6.6 6.8 5-4.4 7.1 7.2 4.3-3.6 7.5 7.7 3.5-2.8 7.8 8 2.7-2 8.1 8.3 1.8-1.1 8.3 8.4.9-.1 8.3 8.4.1.8 8.3 4.9-.5h.1l.7-.1h.7c.9.6 1.7 1.3 2.5 2 18.1 14.4 38.9 21.7 64.1 21.7 25.5 0 49-8.9 67.4-23.9l1.5.2 6.4.6.7-8.3 8.5-.1-.2-8.3 8.4-.9-1-8.3 8.2-1.8-1.9-8.1 8-2.7-2.8-7.8 7.7-3.5-3.7-7.5 7.3-4.3-4.4-7.1Z" fill="#FEFEFE"/><path d="M88.337 127.827c1.88-1.277 4.026-2.288 6.066-2.989l-.11.143c-.979 1.281-1.83 2.954-2.46 5.361-1.139 4.165-1.936 8.483-2.72 12.73l-.359 1.932c-.912 4.887-1.876 9.647-3.4 14.07v.001c-.514 1.496-1.042 2.34-1.441 2.922l-.152.217c-.149.213-.307.438-.421.636-.176.302-.34.68-.34 1.15 0 .551.238 1.058.696 1.394.419.307.93.406 1.404.406h.025l.025-.001c.678-.034 1.429-.285 2.115-.566.706-.289 1.454-.659 2.141-.999l.035-.017c.691-.343 1.314-.652 1.844-.867.267-.109.484-.183.653-.224.153-.038.216-.036.216-.037l-.006-.001c.863.133 1.813.415 2.898.737.45.133.923.274 1.423.413 1.63.455 3.465.871 5.29.76 8.762-.521 16.96-6.725 16.641-16.424-.09-4.491-3.383-8.072-7.298-9.637 4.67-2.185 8.41-6.749 8.498-12.121v-.004c.028-2.287-.698-4.098-1.947-5.475-1.229-1.354-2.904-2.223-4.685-2.768-3.545-1.085-7.78-.969-10.701-.56-5.144.656-13.058 2.198-19.742 5.336-6.641 3.118-12.416 7.99-12.525 15.44v.015c0 4.784 3.897 8.339 8.573 7.997h.002c2.208-.165 4.63-1.118 6.57-2.509 1.921-1.378 3.544-3.317 3.846-5.554l.009-.067v-.067c0-.352-.088-.8-.42-1.169-.348-.387-.825-.531-1.28-.531h-.123l-.12.03c-.15.038-.337.103-.49.157l-.016.006-.025.009c-.17.059-.348.122-.538.181-.416.131-.796.217-1.088.217h-.028l-.028.001c-.708.04-1.127-.142-1.37-.38-.248-.24-.471-.691-.474-1.507.093-3.015 2.242-5.683 5.337-7.787Zm9.661 29.835v-.005c.225-3.97 1.133-8.21 2.047-12.475.231-1.074.461-2.15.681-3.223 2.949.025 5.274 2.146 5.274 5.141 0 2.122-.341 5.192-1.322 7.769-.995 2.614-2.51 4.399-4.686 4.637l-.009.001c-1.07.126-2.047-.857-1.985-1.845Zm3.914-22.056c.208-1.111.567-2.582 1.035-4.174.895-3.046 2.146-6.388 3.415-8.456.537.036.939.297 1.259.731.437.592.731 1.54.779 2.712-.005.982-.427 2.127-1.17 3.349-.739 1.215-1.742 2.419-2.774 3.487-.9.932-1.805 1.744-2.544 2.351Z" fill="#FEFEFE" stroke="#fff" stroke-width="2"/><path d="M177.496 136.39a4.1 4.1 0 0 0 .004-.19c0-.832-.291-1.639-1.034-2.149-.686-.472-1.571-.556-2.477-.445-2.076.209-4.122.703-5.678 1.36-.775.328-1.478.716-2.004 1.166-.504.43-1.007 1.058-1.007 1.868 0 .679.178 1.105.308 1.414l.019.046c.097.233.173.421.173.84 0 .803-.16 2.001-.422 3.447-.258 1.429-.604 3.036-.954 4.637-.151.677-.539 1.328-1.076 1.956-.945 1.05-1.29 1.402-2.031 1.464a.893.893 0 0 1-.758-.307c-.205-.23-.399-.655-.361-1.341l.001-.016.001-.015c.046-1.91.56-3.87 1.127-5.949l.067-.246c.534-1.956 1.1-4.025 1.204-6.065.069-.882-.238-1.703-.981-2.214-.684-.47-1.569-.559-2.443-.443-2.119.259-4.187.778-5.754 1.447-.78.334-1.485.725-2.012 1.176-.504.43-1.008 1.059-1.008 1.869 0 .632.182 1.044.305 1.322l.028.064c.09.208.167.394.167.814 0 2.902-1.042 6.34-2.38 8.826h-.001l-.003.006c-.797 1.505-2.253 2.623-3.432 2.775a.458.458 0 0 1-.367-.116c-.076-.073-.142-.194-.122-.391l.003-.027.001-.026c.094-2.023.661-4.165 1.267-6.439l.016-.058c.589-2.209 1.212-4.546 1.317-6.803l.001-.024v-.023c0-.873-.345-1.665-1.083-2.157-.688-.459-1.563-.551-2.443-.435-2.118.259-4.19.778-5.761 1.463-.782.341-1.49.744-2.019 1.214-.515.458-.994 1.101-.994 1.915 0 .658.224 1.094.357 1.352l.036.07c.085.171.139.281.111.587l-.001.015-.001.015c-.094 1.552-.449 3.202-.884 4.915-.136.536-.281 1.083-.427 1.634-.291 1.097-.586 2.209-.82 3.279a2.283 2.283 0 0 0-.081.129l-.054.054c-.937.939-1.19 1.192-1.915 1.253-.393.03-.648-.09-.808-.265-.17-.186-.354-.569-.315-1.282l.002-.023v-.022c.048-4.437 1.327-8.855 2.683-13.4l.12-.402c1.304-4.367 2.646-8.86 2.796-13.376l.001-.016v-.017c0-1.947-.699-3.549-2.05-4.562-1.324-.994-3.115-1.301-5.081-1.029-2.174.273-4.24 1.162-5.769 2.168-.766.504-1.428 1.058-1.911 1.609-.444.507-.889 1.182-.889 1.914 0 .442.138.991.628 1.368.462.355 1.027.391 1.508.323.49-.064.862.071 1.107.316.25.25.499.747.458 1.648l-.001.011v.011c-.096 4.245-1.327 8.467-2.622 12.853l-.046.155c-1.266 4.289-2.578 8.736-2.731 13.281l-.001.008c-.119 4.656 3.966 7.269 8.009 6.82 1.562-.168 3.263-.771 4.799-1.618a14.466 14.466 0 0 0 2.929-2.114c1.107 1.643 3.113 2.616 5.634 2.435l.016-.001.015-.001c3.659-.376 7.264-2.214 10.004-4.636.172.311.393.643.674.969 1.088 1.261 2.965 2.297 6.017 1.967 2.644-.229 4.802-1.339 6.443-2.63.082.537.298 1.039.743 1.4.573.464 1.281.489 1.822.429.442-.044 1.182-.173 2-.316l.602-.105c1.073-.185 2.245-.376 3.244-.473.59-.007 1.268-.13 1.781-.643.523-.522.666-1.241.668-1.943.097-3.701 1.432-7.749 2.917-11.315.71-1.557 1.469-2.621 2.14-3.292.696-.696 1.215-.891 1.434-.911l.008-.001c.146-.015.26.031.367.156.119.139.228.389.234.723-.094 1.553-.574 3.082-1.103 4.765l-.039.124c-.532 1.698-1.103 3.55-1.158 5.509v.028c0 1.837.75 3.453 2.12 4.564 1.356 1.1 3.237 1.643 5.422 1.535 2.826-.097 5.965-1.673 8.051-3.809 1.348 2.049 3.766 3.392 7.062 3.208h.015c4.721-.33 8.958-3.797 11.544-7.417l.009-.013.009-.013c.511-.767.668-1.461.668-2.055 0-.802-.609-1.9-1.9-1.9-.484 0-.863.193-1.154.406-.25.184-.498.432-.72.654l-.016.016-.274.251c-.48.44-.956.877-1.456 1.235-.611.438-1.098.638-1.48.638h-.029l-.03.002c-.698.041-1.071-.114-1.281-.318-.216-.211-.46-.671-.46-1.684 0-2.247.861-5.924 1.464-8.135.226-.81.474-1.179.718-1.377.238-.195.612-.342 1.353-.388.813-.014 1.47-.514 1.882-1.098.431-.611.683-1.417.683-2.302 0-.516-.174-1.038-.555-1.42a1.684 1.684 0 0 0-1.423-.48c-.478-.003-.809-.032-1.038-.076a1.256 1.256 0 0 1-.263-.073 2.15 2.15 0 0 1-.021-.351c0-.205.042-.549.126-1.031.07-.402.16-.85.256-1.329l.049-.244c.218-1.091.469-2.375.469-3.296 0-.448-.11-.988-.461-1.439-.38-.49-.958-.761-1.639-.761-.607 0-1.132.261-1.573.649-.427.376-.816.904-1.191 1.547l-.004.008-.005.008c-.917 1.641-2.108 3.324-3.509 4.632-1.393 1.3-2.936 2.177-4.581 2.357-1.008.035-1.533.903-1.751 1.393a4.724 4.724 0 0 0-.386 1.806c0 .62.251 1.126.699 1.46.363.27.792.371 1.016.425l.005.001.116.027.041.009c-.131 1.708-.551 3.399-1.009 5.194l-.043.171c-.444 1.739-.913 3.576-1.093 5.491-.769.833-1.216 1.167-1.915 1.226-.357.029-.626-.077-.797-.248-.167-.167-.36-.514-.322-1.2l.001-.013.001-.013c.045-1.506.481-3.085.964-4.825l.005-.02c.467-1.683.976-3.518 1.03-5.352.058-1.581-.443-3.055-1.628-4.058-1.173-.995-2.853-1.388-4.877-1.169m0 0h.001l.105.994-.107-.994h.001Z" fill="#FEFEFE" stroke="#fff" stroke-width="2"/><path d="M99.9 141c-1.1 5.5-2.6 11.3-2.9 16.6-.1 1.6 1.4 3.1 3.1 2.9 5.5-.6 6.9-9 6.9-13.4 0-3.9-3.3-6.5-7.1-6.1ZM105.8 122c-2.9 4.3-5.6 14.9-5 15.6.2.2 8.6-6.2 8.6-11.2-.1-2.6-1.3-4.7-3.6-4.4Z" fill="#EFA5A9"/><path fill-rule="evenodd" clip-rule="evenodd" d="M219.7 147.5c0 2-.7 4-1.9 5.8-4.3 5.8-10.3 9.5-16.3 9.9h-1c-2.4 0-4.7-.5-6.7-1.5a15.822 15.822 0 0 1-3.3 1.4l-4.9.8h-.1c-2.9 0-5.5-.8-7.7-2.2-1.5 1.6-3.6 2.7-6 2.9-1 0-2.3.3-3.3.5-1 .1-1.9.3-2.6.3-.267.067-.567.1-.9.1-1 0-1.967-.167-2.9-.5-1.6.667-3.3 1.1-5.1 1.3h-1.6c-2.3 0-4.3-.5-6-1.3-3 1.6-6.1 2.6-9.2 2.9-.4.067-.833.1-1.3.1-1.8 0-3.5-.4-5-1-2.2 1.2-4.6 2-7 2.2-.467.067-.967.1-1.5.1-3.4 0-6.6-1.2-9.1-3.3-3.9 3-8.8 4.9-14.1 5.2-.333.067-.7.1-1.1.1-2.9 0-5.5-.8-7.6-1.4a7.196 7.196 0 0 0-.9-.3 1.165 1.165 0 0 0-.3.2c-2.1 1-4.4 2.2-7 2.2H85c-4.6 0-8.3-3.5-8.3-8 0-2.7 1.3-4.5 1.9-5.4.3-.4.5-.7.9-1.6.4-1.333.8-2.733 1.2-4.2-.533.133-1.067.2-1.6.2-.4.067-.766.1-1.1.1-3.9 0-7.5-1.5-10.2-4.2-2.6-2.7-4.1-6.4-4-10.2.1-6.2 2.9-14.8 16.1-21 7.8-3.7 16.8-5.3 21.5-5.9 1.6-.2 3.4-.3 5-.3 6.4 0 11.6 1.6 15 4.8 2-1 4.2-1.7 6.3-2 .733-.133 1.467-.2 2.2-.2 3.5 0 6.6 1.3 8.8 3.5 2.1 2.2 3.3 5.3 3.2 8.6-.067 1.667-.2 3.3-.4 4.9a10.6 10.6 0 0 1 1.4-.3h1.4c1.7 0 3.3.4 4.7 1.1 2.3-1.5 5.5-2.5 9.4-2.9.467-.067.933-.1 1.4-.1 1.6 0 3.1.4 4.5 1.1.467-.267.967-.533 1.5-.8 2.2-.9 4.9-1.6 7.6-1.8.4-.067.8-.1 1.2-.1 1.4 0 2.8.3 4 .8 2-.9 4-1.6 6.1-1.8.6-.067 1.167-.1 1.7-.1 1.9 0 3.5.4 4.8.9 1-.6 2.2-1 3.4-1.1.5-.1 1.9-1.2 3.4-3.9 2.5-4.2 5.6-5.2 7.9-5.3h.4c4.6 0 8.3 3.6 8.3 8.4 0 .733-.067 1.5-.2 2.3.067.067.167.133.3.2 1.5 1.6 2.3 3.7 2.3 5.9-.1 2.5-.9 4.7-2.3 6.4 2.9 1.2 5 4.1 5 7.5Zm-112.3-8.4c5.8-1.1 11.1-6.2 11.2-12.3.1-8.2-10.5-8.6-16.2-7.8-10.2 1.3-31.2 6.1-31.4 19.8 0 4.2 3.4 7.3 7.5 7 4-.3 9-3.5 9.5-7.2 0-.4-.2-.7-.7-.7-.4.1-1.5.6-2.4.6-1.8.1-2.9-.9-2.9-2.9.2-7 9.9-11.7 15.9-12.7-1.9 1.5-3.9 3.1-5.1 7.7-2.6 9.5-3.4 19.8-6.5 28.8-1.1 3.2-2.3 3.7-2.3 4.6 0 .5.4.8 1.1.8 2-.1 5.9-2.9 7.2-2.7 2.6.4 6.1 2.1 9.4 1.9 8.4-.5 16-6.4 15.7-15.4-.1-5.2-5.1-9.2-10-9.5Zm105 8.4c0-.4-.3-.9-.9-.9-.4 0-.7.3-1.2.8-1.1 1-2.5 2.4-3.9 2.4-1.7.1-2.8-.7-2.8-3 0-2.4.9-6.2 1.5-8.4.5-1.8 1.3-2.4 3-2.5.8 0 1.6-1 1.6-2.4 0-.6-.4-1-.9-.9-2.2 0-2.4-.5-2.4-1.5 0-1.2.9-4.3.9-5.9 0-.6-.3-1.2-1.1-1.2-.6 0-1.2.5-1.9 1.7-1.9 3.4-5 7.1-8.9 7.5-.8 0-1.2 1.4-1.2 2.2 0 1.3 1.9.6 1.9 1.6-.2 3.9-1.9 7.6-2.2 11.6-.9 1-1.6 1.7-2.8 1.8-1.2.1-2.3-.7-2.2-2.5.1-3.3 1.9-6.8 2-10.2.1-2.7-1.7-4.6-5.4-4.2-3.8.4-7.2 3.1-9.6 6 0 0 .6-2.1.6-3.3 0-1.2-.8-1.8-2.4-1.6-4 .4-7.8 1.9-7.8 3.4 0 1 .5 1.1.5 2.3 0 1.8-.7 5.1-1.4 8.3-.2.9-.7 1.7-1.3 2.4-.9 1-1.5 1.7-2.7 1.8-1.2.1-2.3-.9-2.2-2.7.1-4.1 2.2-8.3 2.4-12.3.1-1.2-.8-1.8-2.3-1.6-4.1.5-7.9 2-7.9 3.5 0 .9.5 1 .5 2.2 0 3.1-1.1 6.7-2.5 9.3-.9 1.7-2.6 3.1-4.2 3.3-.9.1-1.7-.6-1.6-1.6.2-4.3 2.4-9 2.6-13.3 0-1.2-.9-1.8-2.4-1.6-4.1.5-7.9 2-7.9 3.6 0 .9.6 1 .5 2.1-.2 3.3-1.5 6.9-2.2 10.2a1.175 1.175 0 0 0-.2.3c-1 1-1.5 1.6-2.7 1.7-1.3.1-2.3-.8-2.2-2.6.1-9.2 5.3-18.2 5.6-27.2 0-3.4-2.4-5.1-6-4.6-4 .5-7.7 3.3-7.7 4.7 0 .5.3.8 1 .7 1.5-.2 2.8.8 2.7 3-.2 8.8-5.1 17.4-5.4 26.3-.1 3.9 3.3 6.2 6.9 5.8 2.8-.3 6.3-2.2 8.1-4.5.6 2 2.5 3.4 5.3 3.2 3.9-.4 7.8-2.6 10.5-5.4 0 0 .7 4.3 6.2 3.7 3.5-.3 6.1-2.3 7.7-4.1-.1.8-.2 1.4-.2 1.9 0 1.2.6 1.5 1.5 1.4 1-.1 3.8-.7 5.9-.9 1 0 1.5-.4 1.5-1.6.1-3.9 1.5-8.1 3-11.7 1.5-3.3 3.3-4.7 4.4-4.8 1-.1 1.7.8 1.7 1.9-.2 3.5-2.2 6.8-2.3 10.4 0 3.1 2.5 5.3 6.5 5.1 3-.1 6.5-2.1 8.3-4.6.9 2.4 3.2 4.2 6.8 4 4.3-.3 8.3-3.5 10.8-7 .4-.6.5-1.1.5-1.5Z" fill="#EFA5A9"/><path d="m85 214 3.6-4.9.9.6-1.1 3.9 3.3-2.3.9.7-3.6 4.9-.7-.4 3.2-4.2-3.5 2.3-.6-.5 1.2-3.8v-.1l-3.1 4.1-.5-.3ZM93.8 220.1l3.1-5.2 3.6 2-.4.6-2.7-1.6-1 1.6 2.3 1.4-.3.6-2.3-1.4L95 220l2.9 1.7-.3.6-3.8-2.2ZM102.8 224.9l2.4-5.5 3.8 1.7-.3.6-2.9-1.3-.7 1.7 2.4 1.1-.3.6-2.4-1.1-.9 2 3.1 1.4-.3.6-3.9-1.8ZM117.6 224.2l-.2.8c-.6-.467-1.167-.766-1.7-.9-.8-.266-1.267-.133-1.4.4a.92.92 0 0 0 0 .6c.133.2.367.433.7.7l.5.4.5.3c.733.6 1 1.234.8 1.9-.2.534-.533.9-1 1.1-.533.2-1.167.167-1.9-.1-.533-.133-1.167-.433-1.9-.9l.3-.9c.667.6 1.267 1 1.8 1.2.467.133.833.167 1.1.1.333-.133.567-.333.7-.6.067-.267.033-.467-.1-.6-.133-.2-.4-.466-.8-.8l-.5-.4c-.533-.4-.9-.766-1.1-1.1-.133-.266-.133-.6 0-1 .133-.533.433-.866.9-1 .467-.2 1-.2 1.6 0 .533.134 1.1.4 1.7.8ZM123.4 231.8l1-5.3-2.2-.5.1-.7 5.5 1.1-.1.7-2.3-.4-1.1 5.3-.9-.2ZM132.1 233.1l.5-6 4.1.3-.1.7-3.2-.3-.1 1.9 2.7.2-.1.7-2.7-.2-.2 2.1 3.4.3v.7l-4.3-.4ZM142.2 233.6l-.1-.8.3.1c.467.133.833.167 1.1.1.4 0 .7-.1.9-.3.2-.267.267-.7.2-1.3l-.1-3.2h-2.1v-.7l3-.1.1 3.5c.067.6.067 1.067 0 1.4-.067.267-.2.533-.4.8-.333.4-.833.6-1.5.6-.4.067-.867.033-1.4-.1ZM151.2 227l1-.1.5 3.7c.067.6.233 1.033.5 1.3.2.267.533.367 1 .3.467-.067.8-.267 1-.6.133-.267.167-.733.1-1.4l-.5-3.7.8-.1.5 3.5c.067.8.033 1.367-.1 1.7-.267.733-.833 1.167-1.7 1.3-.733.133-1.333 0-1.8-.4-.4-.333-.667-.933-.8-1.8l-.5-3.7ZM160.6 225.5l.9-.3.9 3.6c.2.6.433 1.033.7 1.3.267.2.6.267 1 .2.467-.133.767-.367.9-.7.133-.333.133-.833 0-1.5l-.9-3.5.8-.2.9 3.4c.133.733.167 1.3.1 1.7-.2.733-.733 1.233-1.6 1.5-.733.133-1.333.067-1.8-.2-.467-.333-.8-.933-1-1.8l-.9-3.5ZM172 228.5l-2.2-5.7.9-.3 1 2.8 1.4-3.7.9-.3-1.3 3.5 3.9 2-1.1.4-3.8-1.9 1.1 2.9-.8.3ZM182.2 217.5l.4.7c-.733.133-1.333.3-1.8.5-.733.4-1 .867-.8 1.4.133.2.3.3.5.3.2.067.533.067 1 0h.6l.6-.1c.933-.133 1.567.133 1.9.8.267.467.267.967 0 1.5-.267.467-.733.9-1.4 1.3-.467.2-1.1.4-1.9.6l-.5-.8c.933-.067 1.633-.233 2.1-.5.467-.2.767-.433.9-.7.133-.333.133-.633 0-.9a.602.602 0 0 0-.4-.4c-.2 0-.6.033-1.2.1l-.6.1c-.667.067-1.167.033-1.5-.1a1.626 1.626 0 0 1-.8-.7c-.2-.467-.2-.933 0-1.4.2-.4.6-.767 1.2-1.1.467-.267 1.033-.467 1.7-.6ZM186.9 214.7l.7-.5 2.1 3.1c.333.533.667.867 1 1 .333.133.7.067 1.1-.2.4-.267.6-.567.6-.9 0-.4-.167-.867-.5-1.4l-2-3.1.6-.4 2 2.9c.4.667.633 1.167.7 1.5.067.8-.267 1.467-1 2-.667.4-1.267.533-1.8.4-.533-.133-1.033-.567-1.5-1.3l-2-3.1Z" fill="#FEFEFE"/><path fill-rule="evenodd" clip-rule="evenodd" d="m198.7 213.8-3.9-4.7 1.3-1.1c.533-.4.933-.667 1.2-.8.6-.133 1.1.033 1.5.5.267.333.433.667.5 1 0 .333-.1.733-.3 1.2l3.4.8-.9.8-3.1-.8-.6.6 1.6 1.9-.7.6Zm-1.4-3.1.4-.3c.4-.333.633-.667.7-1 .067-.333 0-.667-.2-1-.267-.267-.5-.367-.7-.3-.267 0-.633.2-1.1.6l-.4.4 1.3 1.6ZM88.4 66.1c.467.133.767.267.9.4l.3.3.1.2c.533.733.6 1.6.2 2.6l-.3 1h1.1c.133-.067.533-.067 1.2 0 .467.067.933.433 1.4 1.1.533.8.633 1.8.3 3a4.802 4.802 0 0 1-1 1.8l-1.4 1.1-1.5 1.2-2.6 1.7 5.3-3.9c.467-.6.8-1.233 1-1.9.267-.733.3-1.4.1-2l-.3-.9c-.267-.4-.567-.7-.9-.9a1.57 1.57 0 0 0-1.1-.2c.067 0 .133.033.2.1.067 0 .133.034.2.1.133 0 .233.033.3.1.067 0 .133.033.2.1l.3.2.2.4c.533.733.633 1.633.3 2.7-.333 1.2-1.533 2.5-3.6 3.9l-.8.6-.8.5-.6.4-.7.6c-.733 0-1.233-.1-1.5-.3l.3-1.1-5.9-8.2h-.6c-.4-.067-.633-.167-.7-.3.6-.4 1.167-.833 1.7-1.3l1.8-1.2c.8-.667 1.7-1.2 2.7-1.6.4-.2.833-.333 1.3-.4.467-.067.933-.1 1.4-.1.667.067 1.167.133 1.5.2ZM79 70l-.3.2-.3.3.6.1c.133 0 .267.033.4.1l6 8.2-.2.9 5.5-3.9c.4-.4.733-.867 1-1.4.267-.6.333-1.133.2-1.6-.067-.4-.2-.733-.4-1-.533-.8-1.433-1.133-2.7-1a5.735 5.735 0 0 0-2 .6l-.1-.1c.2-.2.367-.4.5-.6.133-.133.267-.3.4-.5.2-.2.367-.467.5-.8.2-.4.267-.8.2-1.2-.067-.467-.2-.833-.4-1.1l-.3-.3c-.867-.533-1.833-.667-2.9-.4-.8.2-1.7.667-2.7 1.4l-1 .7c-.067.067-.133.1-.2.1l-.3.3-.2.2c-.067 0-.133.033-.2.1l-.6.4-.2.1-.3.2Zm6.2-3.1c-.133.067-.4.167-.8.3-.2 0-.367.033-.5.1-.133 0-.233.034-.3.1l-.6.3-.8.5-1.7 1.3c.067.067.167.233.3.5a1.165 1.165 0 0 1-.3.2l-.6.4c-.067-.133-.2-.233-.4-.3-.133 0-.233-.033-.3-.1h-.1c.067-.067.167-.133.3-.2l.2-.2c.133-.133.3-.266.5-.4.2-.133.433-.3.7-.5l1.3-1c.467-.4 1.033-.733 1.7-1l.8-.2c.267-.067.567-.1.9-.1a.654.654 0 0 1-.3.3ZM81 70.6l-.4.5c-.2.067-.367.033-.5-.1-.067-.133-.067-.233 0-.3l.3-.2.5-.3.3.4H81Zm.2.6-.3.2v.1h-.2l-.1.1-.1-.1-.2-.2.2-.2.3-.3a.5.5 0 0 1 .6 0c0 .2-.067.333-.2.4Zm.6.2v.2l-.8.6-.2-.2-.1-.2.2-.2.3-.2.3-.1c.067-.067.133-.067.2 0l.1.1Zm4.9-1.7c0 1-.567 1.867-1.7 2.6l-1.5.9-.6-.8-.7-.9-.7-1-.6-1c.467-.4.933-.766 1.4-1.1.533-.4 1.033-.7 1.5-.9.267-.067.567-.1.9-.1.6.067 1.1.4 1.5 1 .267.4.433.833.5 1.3Zm-4.6 2.2.1.1c-.133.2-.267.334-.4.4l-.2.1-.1.1c-.067 0-.1.033-.1.1l-.3-.4.9-.6.1.2Zm.4.6c0 .067-.033.167-.1.3l-.2.1-.2.2c-.2.067-.333.033-.4-.1v-.2l.3-.2.2-.2c.133-.067.233-.1.3-.1.133.067.167.133.1.2Zm0 .9c-.2.067-.367.133-.5.2 0-.067-.033-.133-.1-.2l.5-.5c.2-.2.367-.2.5 0-.133.2-.267.367-.4.5Zm.6.1-.2.2-.3.2c-.133.067-.233.1-.3.1-.067-.133 0-.3.2-.5l.3-.1.3-.2.1.1c0 .067-.033.133-.1.2Zm1.2-1.1.2-.1.1-.1-1.8-2.5.1-.2 1.1-.8c.067-.133.133-.2.2-.2l.2-.2c.067 0 .133-.033.2-.1h.2c.133-.133.333-.233.6-.3-.533 0-1.133.233-1.8.7l-.3.2c-.067.067-.133.1-.2.1l-.2.2-.3.2-.1.1c-.067.067-.133.1-.2.1l2 2.9Zm-.7 1.4c0 .067-.033.133-.1.2l-.3.3-.2.1-.2.1-.2-.1v-.2l1.9-1.3c.133-.067.267-.167.4-.3.133-.067.333-.2.6-.4.2-.133.367-.233.5-.3.2-.133.333-.233.4-.3l.1.1-2.9 2.1Zm.2.6-.1.2c-.067 0-.133.033-.2.1l-.2.2c-.133.067-.233.067-.3 0 .067-.2.2-.367.4-.5l.3-.2c.133.067.167.133.1.2Zm-.6-4.8 1.7 2.5c1.333-.933 1.8-1.967 1.4-3.1 0-.067-.033-.167-.1-.3-.067-.067-.1-.133-.1-.2l-.3-.3c-.333 0-.667.133-1 .4l.1.1c.067.133.033.233-.1.3l-.2.2-.2.1a1.3 1.3 0 0 0 0 1c.067.4.2.733.4 1 .067.133.133.233.2.3l.2-.1v-.1c-.2-.6-.033-1.2.5-1.8.133-.067.233-.033.3.1 0 .067-.067.133-.2.2l-.2.2c-.2.2-.3.433-.3.7l.1.8-.2.2a.425.425 0 0 1-.4 0l-.6-1c-.333-1.067-.233-1.767.3-2.1l-1.3.9Zm.7 5.4c-.133.133-.3.233-.5.3 0-.133.067-.266.2-.4.2-.133.333-.2.4-.2.067-.067.133-.1.2-.1v.1l-.3.3Zm.3.4-.2.1c-.067.067-.167.1-.3.1 0-.133.067-.233.2-.3l.4-.3v.1h.1l-.2.3Zm.2.4c-.133.133-.267.2-.4.2.067-.133.2-.267.4-.4.067-.067.133-.1.2-.1l.1.1-.3.2Zm5-3.2.4.6c.2.267.367.533.5.8.2.6.133 1.067-.2 1.4-.133.2-.3.367-.5.5l-.7.4-2 1.4-2.9-4 .1-.1.5-.3.4-.3.6-.4c.667-.467 1.2-.733 1.6-.8.533-.133 1.067-.033 1.6.3l.6.5ZM85.1 76l-.4.2c-.067.067-.167.1-.3.1 0-.067.067-.167.2-.3a.887.887 0 0 1 .4-.1l.1.1Zm0 .6c-.067.067-.133.1-.2.1h-.1c-.067-.067-.067-.133 0-.2l.2-.1.1-.1.1.1c0 .067-.033.133-.1.2Zm1.6-10.1-.6.5c-.2.2-.4.2-.6 0l-.1-.1.3-.2.2-.3c.133-.067.233-.1.3-.1.133-.067.3-.033.5.1v.1Zm-1 7.4 1.5 2.2h.1c0 .2.033.333.1.4l.4.4.3-.2-1.9-2.6v-.3l.4-.2.4-.3c.2-.2.467-.367.8-.5s.6-.233.8-.3c-.467-.133-.967 0-1.5.4l-.4.3-.3.2-.1.1-.1.1-.2.1c-.067.067-.133.1-.2.1h-.1v.1Zm1.7-7.1c-.067.067-.2.167-.4.3l-.3.3a.5.5 0 0 1-.6 0c-.067-.067-.067-.133 0-.2l.2-.2.2-.1.1-.1.2-.1c.2-.133.367-.133.5 0l.1.1Zm0 8.4c0 .067.033.167.1.3.133.067.233.2.3.4l.3.3c.067.133.133.233.2.3l1-.6c.533-.333.833-.733.9-1.2 0-.467-.167-.933-.5-1.4-.2-.267-.433-.5-.7-.7-.533.067-1.1.334-1.7.8l-.4.3-.4.3.9 1.2Zm-.2-7.5-.4.2c-.067 0-.133-.033-.2-.1-.067-.133-.067-.233 0-.3l.2-.1.5-.3c.2-.2.367-.2.5 0 0 .133-.2.333-.6.6Zm-.3 3-.1.1c0-.2.133-.4.4-.6l.2-.1a.895.895 0 0 1-.5.6Zm1.7 3c.067.133.033.233-.1.3l-.2.1H88c-.133.067-.267.033-.4-.1l-.5-.3c-.067.067-.1.133-.1.2v.1l.1.1c.2.333.5.533.9.6.333.133.7.167 1.1.1h.2c.2-.133.3-.333.3-.6l-.2-.2.1-.1v.1l.2.1c.133.133.133.333 0 .6l-.2.2a.887.887 0 0 1-.4.1l-.4.1c-.8-.133-1.367-.433-1.7-.9-.133-.2-.2-.367-.2-.5l.1-.1c.133-.067.367-.033.7.1.333.2.567.267.7.2.067-.067.1-.133.1-.2h.2Zm-1.7-5.6.2-.1.3-.2.3-.2.3-.1c.133.133.133.3 0 .5-.067 0-.233.067-.5.2-.2.2-.367.3-.5.3 0-.067-.033-.133-.1-.2v-.2Zm.5 3.2c-.067.067-.133.1-.2.1l-.3.1a1.16 1.16 0 0 1 .2-.3l.3-.1c.067-.067.167-.1.3-.1a.654.654 0 0 1-.3.3Zm.5-2.5-.3.1c0 .067-.033.1-.1.1l-.1.1-.2.1h-.1c-.067-.267.033-.5.3-.7l.4-.2.3-.2c.067.333 0 .567-.2.7Zm-.1.7-.6.4c-.133-.133-.133-.3 0-.5.067 0 .133-.033.2-.1l.4-.2.1-.2c.133.2.1.4-.1.6Zm.6 1.6a4.89 4.89 0 0 1-.5.3l-.2-.1.2-.1.3-.3.2-.1h.3a.654.654 0 0 1-.3.3Zm1.1-.2-.2.1-.4.4-.3.1c-.067.067-.133.067-.2 0l.2-.1.2-.2.2-.1c.067-.133.133-.2.2-.2.067-.067.167-.067.3 0Zm-.7-4.7.3.4.2.3.2.2c.333.733.133 1.767-.6 3.1h.2l.2-.1c.6-1 .8-1.933.6-2.8-.067-.2-.167-.4-.3-.6a2.4 2.4 0 0 0-1.2-.8c.2.067.333.167.4.3Zm.8 5.2-.3.2-.3.2-.1-.2 1.1-.7h.1l-.5.5Zm1.1-.2-.3.1-.4.3-.3.3a1.165 1.165 0 0 1-.3.2l-.1-.1.1-.1c.267-.2.667-.467 1.2-.8l.1.1Zm.2.4c-.067.133-.133.2-.2.2l-.1.1-.2.2-.2.1c-.133.133-.233.133-.3 0l1.1-.7c.067.067.033.1-.1.1Zm.4.4-.2.1-.2.2c-.067 0-.133.034-.2.1l-.1.1a.888.888 0 0 1-.4.1l.3-.3.8-.5v.2ZM94.3 62.8c.067.6.167 1.233.3 1.9l.2 2c.067.133.1.333.1.6 0 .2.033.467.1.8.067.733.1 1.567.1 2.5-.067.2-.2.367-.4.5h-.1l-.1-.1c-.067-.067-.033-.167.1-.3l.3-.3.1-1.3c-.067-.133-.133-.433-.2-.9 0-.467-.067-1.1-.2-1.9l-.3-2.8-.4-2-.1.1c-.133.067-.2.233-.2.5v.6c-.2 1.666-.667 2.666-1.4 3-.067 0-.133-.033-.2-.1l.1-.2c.067 0 .133-.033.2-.1l.1-.1c.4-.2.7-.767.9-1.7.067-.533.1-1.133.1-1.8l.5-.4h.3c.067.4.1.9.1 1.5Zm-.3 0V64l-.2.2c0 .066.067.133.2.2.067 0 .1.033.1.1s-.033.133-.1.2c-.067 0-.1.033-.1.1h-.1l.2.3-.3 1.3c-.133.533-.367.9-.7 1.1h-.1l-.1-.1c-.067-.067 0-.167.2-.3.2-.2.3-.334.3-.4.133-.133.233-.433.3-.9l.1-.7-.2-.2c0-.067.033-.134.1-.2l.2-.1c0-.067-.033-.1-.1-.1l-.2-.2c.2-.267.3-.667.3-1.2-.067-.733-.067-1.167 0-1.3.067.267.133.6.2 1Zm11.5 5.1 1 .5-3.7 2-1.3-.4c0-.133.033-.333.1-.6.067-.133.1-.233.1-.3l.1-.2-1.3-1.3-1.8 1c.067.2.267.3.6.3.2-.067.333-.2.4-.4l.2-.5a.657.657 0 0 1 .3.3l.2.3.3.9V69.8c.067.467-.133.8-.6 1-.267.067-.467.067-.6 0l-.1-.2c0-.067.067-.1.2-.1l.3.1h.2c.267-.2.4-.6.4-1.2l-.2-.7a.656.656 0 0 0-.3-.3c-.067.2-.2.367-.4.5-.2.067-.4.1-.6.1v.2c.2.4.433.533.7.4l.1-.1c.067-.067.133-.033.2.1 0 .067-.067.133-.2.2l-.1.1h-.1c-.333-.133-.733-.534-1.2-1.2h-.1c.133.266.2.7.2 1.3 0 .6.067 1.033.2 1.3.067.133.2.267.4.4.067.066.233.133.5.2l-.4.3-1.2.6c-.067.067-.167.1-.3.1l-.2.2c-.533.267-1.1.3-1.7.1l-.3-.1-.1-.1c0-.067.033-.133.1-.2l.5-1.5-1.6-11c.133-.2.3-.333.5-.4.2-.133.533-.167 1-.1.2 0 .4.033.6.1h.6l8.4 8Zm-10.6-6.5h.2l.5-.3c.133-.067.233-.1.3-.1.067-.067.133-.067.2 0l.3.2v.2l-.3.1-.6.4c-.267.133-.467.133-.6 0l.1.6v-.3l.4-.2.5-.2.5-.3h.2l.1.1.1.1c.067.066.067.133 0 .2l-.2.2h-.2l-.8.4c-.2.067-.333.167-.4.3-.133-.067-.2-.133-.2-.2v.5l.1-.2c.067-.067.133-.1.2-.1.067-.067.133-.067.2 0 .067 0 .1.1.1.3 0 .2-.067.3-.2.3l.2.1.1.2v.2l-.2.1c-.133.067-.233.033-.3-.1-.067 0-.1-.067-.1-.2l.2-.2-.2-.1 1.1 8-.2.6c-.133.333-.2.567-.2.7l2.2-1.1a3.88 3.88 0 0 0-.5-.2l-.7-.2c0-.2-.1-.8-.3-1.8-.133-.733-.167-1.3-.1-1.7l2.8-1.4h.2l1.4 1.3 1.2 1.2-.2.9 3-1.5-1.1-.2c0-.067-.1-.167-.3-.3a5.765 5.765 0 0 0-.6-.5l-1.8-1.7-4-3.9a7.506 7.506 0 0 1-.8-.7l-.9-.9c-.2.067-.333.1-.4.1-.267.133-.333.433-.2.9.133.4.167.633.1.7l.1-.3Zm.3-1.2a.654.654 0 0 1 .3.3l.3.3-.4.3-.2.1h-.3c0-.067-.033-.2-.1-.4s-.067-.333 0-.4l.3-.2h.1Zm.5 4a.426.426 0 0 1 0 .4h-.3l-.1-.1c-.067-.133 0-.234.2-.3l.1-.1.1.1Zm.1.8c0 .133-.033.2-.1.2h-.3c-.067-.133-.033-.267.1-.4h.2l.1.2Zm0 .5c.067.133.067.233 0 .3-.133.067-.233.067-.3 0 0-.067.033-.133.1-.2 0-.133.067-.2.2-.2v.1Zm-.1.9c-.067 0-.133-.033-.2-.1v-.2l.1-.1c.067-.067.133-.033.2.1.067.067.067.1 0 .1 0 .066-.033.133-.1.2Zm-.1.5c-.067-.067-.033-.167.1-.3.133-.067.2-.033.2.1.067 0 .067.033 0 .1 0 .067-.067.133-.2.2-.067 0-.1-.033-.1-.1Zm.4.3c.067.133.033.233-.1.3h-.2c-.067-.067-.067-.133 0-.2 0-.133.067-.2.2-.2l.1.1Zm1.4-2.7.5.5.7.7-.2.2-.3.2-.4.2a1.161 1.161 0 0 0-.3.2l-1.2.5a3.286 3.286 0 0 1-.1-.8c-.067-.334-.133-.7-.2-1.1l-.2-2.1h.2l1.5 1.5ZM96 68c-.133.067-.2.067-.2 0v-.1l.1-.1h.2c.067.067.033.133-.1.2Zm1.3-5.6-.1.2c.2-.067.367-.034.5.1.067.066.067.133 0 .2l-.2.1-.2.1-.2.1c-.067 0-.1.033-.1.1-.067 0-.1.033-.1.1-.267.133-.467.067-.6-.2l.2-.3c-.333.2-.567.167-.7-.1 0-.067.033-.133.1-.2l.2-.1.5-.3c.267-.134.467-.134.6 0 .067.066.1.133.1.2Zm-1.2 6v.1H96l-.1-.1c.067-.067.133-.1.2-.1.067.067.067.1 0 .1Zm.1.6H96c-.067-.067-.067-.1 0-.1h.1l.1.1Zm.1.4-.1.1-.1-.1c.067-.067.133-.1.2-.1v.1Zm2.8-3.2-.7.4-.9.5-.5.3-.6.3c-.067 0-.1-.033-.1-.1l-.1-.1.2-.2 2.5-1.3c.133.067.2.133.2.2Zm-1.5-2.4c-.2.133-.433.133-.7 0-.067-.133-.067-.233 0-.3l.4-.1.2-.1.2-.2c.267-.133.467-.033.6.3l-.7.4Zm-.2 2.5.2-.1c.067 0 .1-.033.1-.1l-.2-1.1a.601.601 0 0 0-.4-.4l.3 1.7Zm1.2 6.9c-.067.066-.133.1-.2.1l-.4.2a1.165 1.165 0 0 1-.3.2l-.2.1-.1-.1.5-.2 1.7-.9.4-.3-.2-.2.3.1c.067 0 .133.067.2.2l-1.7.8Zm0-9.4-.3.2-.3.1-.2.2h-.2l-.1-.1c-.067-.067-.067-.133 0-.2l.2-.2.4-.2c.133-.067.233-.133.3-.2h.2l.1.1c0 .133-.033.233-.1.3Zm7.6 4.1h-.1l-8.5-8 .2-.1 8.4 8.1Zm-8.4 2.3c.067.066.1.2.1.4.067.267.1.433.1.5.067.133.2.2.4.2l-.3-2.5.9-.6.6-.3.5-.2c.067-.067.1-.133.1-.2l-.2-.1-2.3 1.2.1 1.6ZM99 64v.2l-.2.1-.6.3c-.133.133-.3.166-.5.1-.067-.133 0-.267.2-.4l.3-.1c.067 0 .1-.033.1-.1l.2-.1.2-.1h.2l.1.1Zm-1.2 1.8c0 .067.033.133.1.2l.2-.1.2-.1-.6-.4.1.4Zm3.8-4.7c.133.067.233.1.3.1a1.73 1.73 0 0 0 1 .1v.1c.067 0 .067.033 0 .1-.333.067-.7.033-1.1-.1l-.9-.4-1.2-.7c-.667-.333-1.1-.533-1.3-.6l.4.4.7.7 1 .9h.3c.133 0 .233.033.3.1v.2l.2-.1c.133 0 .233.033.3.1v.2l-.1.3c.2-.067.3-.033.3.1l.2.3.9.5c.467.267.833.333 1.1.2l.1.1.1.1-.2.2h-.2c-.667-.2-1.367-.6-2.1-1.2h-.4c-.067 0-.1-.033-.1-.1v-.2c-.2 0-.333-.067-.4-.2-.067-.067-.067-.133 0-.2V62l.1-.1h-.4l-.4-.4c-.2-.2-.467-.433-.8-.7-.267-.2-.5-.4-.7-.6l-.6-.6c.333-.067.7-.034 1.1.1l.4.2.6.4c.4.333.7.533.9.6.267.067.467.133.6.2Zm-2.3 3.6-.3.2-.3.1-.3.1c-.133 0-.2-.033-.2-.1.267-.267.467-.433.6-.5.2-.067.4-.1.6-.1l.1.1-.2.2Zm-.1.6c-.067.067-.167.1-.3.1-.067.067-.133.1-.2.1l-.1-.1c0-.067.067-.134.2-.2.067 0 .133-.033.2-.1l.4-.2c.267-.133.433-.133.5 0l-.7.4Zm.7.3-.3.1-.2.1-.2.1-.1-.1v-.1l.3-.2.3-.1.3-.2h.3c-.067.2-.2.333-.4.4Zm.2.4c-.2.133-.4.2-.6.2 0-.067.033-.1.1-.1 0-.067.033-.133.1-.2h.1c.067 0 .133-.033.2-.1l.3-.2c.133-.067.233-.033.3.1-.133.133-.3.233-.5.3Zm.6.2-.3.2a.888.888 0 0 1-.4.1l.3-.2.3-.2c.067-.067.167-.1.3-.1l-.2.2Zm.2.5-.2.1h-.1l-.1-.1.2-.1.3-.1c.133-.067.233-.1.3-.1-.067.133-.2.233-.4.3Zm.1.4v-.2l.3-.1c.133-.067.2-.067.2 0l-.5.3Zm4 2.9-.8.4a3.911 3.911 0 0 1-.8.3l.2-.2 3.6-1.7v.1L105 70ZM115.4 55.3c.133.2.233.4.3.6l.1.2c.133.533.133 1.033 0 1.5a3.655 3.655 0 0 1-.8 1.5c-.067 0-.233.133-.5.4l-.3.3c.8.8 1.433 1.367 1.9 1.7l2.3 2h-.2l-.7-.5-.3-.3c-.133-.067-.3-.2-.5-.4l-1.4-1.3-1.4-1.3c1.067-.667 1.667-1.467 1.8-2.4.067-.467.033-.9-.1-1.3-.2-.667-.667-1.167-1.4-1.5l.6.8c.2.267.333.533.4.8.133.333.133.667 0 1-.133.933-.8 1.767-2 2.5v.2l2.7 2.3c.4.4.833.767 1.3 1.1.467.333.933.633 1.4.9l-.1.2-3.9 1.2-1.2-.6c0-.067.1-.233.3-.5.133-.267.2-.467.2-.6a121.77 121.77 0 0 1-.3-.3l-2.4-2.1h-.3l-.2.2-.1.2 1.6 4.5.6.4-.6.2-.7.3-1.6.5h-.1c-.067 0-.1.033-.1.1v-.1l2.8-1-.6-.3-.3.1-.4.1-.7.3-.9.3c-.267.133-.6.2-1 .2a2.254 2.254 0 0 1-.8-.4c-.133-.133-.167-.3-.1-.5l.3-.6-3.3-9.5-1-.7 2.6-.9c.133-.067.3-.1.5-.1.133-.067.3-.133.5-.2.267-.067.467-.133.6-.2.2-.067.333-.1.4-.1.667-.2 1.267-.367 1.8-.5a3.89 3.89 0 0 1 1.5-.1c.2.067.467.133.8.2.4.067.833.167 1.3.3.8.333 1.367.733 1.7 1.2Zm-7.6-1a1.175 1.175 0 0 0-.3.2c-.133 0-.233.033-.3.1a9.56 9.56 0 0 1-.7.2 3.906 3.906 0 0 1-.8.3l-1.6.7.8.4 2.9 8.6v.1c.067.067.1.133.1.2l.2.5c.133.4.067.767-.2 1.1l1.4-.4 1.4-.5c-.067-.067-.2-.133-.4-.2a1.175 1.175 0 0 1-.3-.2h-.1l-1.6-4.6.3-.2.4-.1c.133-.067.3-.133.5-.2h.5l.4.2.2.2v.2l-.8.3 1.5 4.5.5.3-1.5-4.3c.067-.2.2-.333.4-.4.133-.067.3-.1.5-.1l2.6 2.3.2.2c.067.133.033.333-.1.6-.2.267-.267.433-.2.5l3-1-.9-.4-4.2-3.8-.1-.3c.467-.133 1-.467 1.6-1 .933-.867 1.233-1.8.9-2.8-.133-.4-.333-.7-.6-.9l-1-.6c-1.333-.333-2.867-.233-4.6.3Zm4 .2h.2l.2-.1.2-.1.5.3c-.267.2-.533.367-.8.5-.2 0-.4.033-.6.1l-.3-.4.1-.1c.133-.067.2-.133.2-.2-.267.133-.7.133-1.3 0-.667-.067-1.133-.033-1.4.1l-.3.1-2.2.8v.3l.1.1v.2l-.4.2-.3.1-.2.1a.602.602 0 0 0-.4-.4l-.5-.3.4-.2.5-.2.5-.1.9-.3.2-.2c.6-.2 1.1-.333 1.5-.4l.9-.3c.933-.133 1.767-.1 2.5.1l-.2.3Zm-5.2 2.2c.067.133.033.2-.1.2h-.2l-.2.1-.1.1c-.067 0-.1.033-.1.1-.2.066-.333 0-.4-.2v-.1c0-.067.033-.133.1-.2l.3-.2c.2-.067.433-.067.7 0v.2Zm.3.7c0 .067-.067.133-.2.2l-.2.1-.3.1c-.2.067-.367 0-.5-.2-.067-.133 0-.233.2-.3l.4-.1.2-.1c.2-.067.3 0 .3.2l.1.1Zm-.2.8-.2.1h-.2l-.2.1-.2-.2v-.1c.133-.133.267-.2.4-.2l.4-.2h.2l.1.1c0 .2-.1.333-.3.4Zm.1.6c-.267.133-.467.167-.6.1-.067-.067-.1-.167-.1-.3.067-.067.133-.1.2-.1s.167-.033.3-.1l.3-.1h.3l.1.2c-.133.133-.3.233-.5.3Zm.4.4-.3.2-.5.1-.1-.1c0-.067.033-.167.1-.3h.2l.3-.1c.2-.133.367-.133.5 0 0 .067-.067.133-.2.2Zm.3.6-.4.2h-.3l-.1.1c-.067 0-.1-.033-.1-.1l-.1-.1c.2-.133.367-.233.5-.3.267-.067.467-.067.6 0 0 .067-.033.133-.1.2Zm4.3-3.5c.133.333.2.6.2.8-.133.6-.233.966-.3 1.1-.133.4-.367.667-.7.8l-1.1.5-1.8.6-1.5-4.3.2-.2.3-.1.3-.1.2-.1.3-.1c.733-.267 1.333-.4 1.8-.4.467-.067.933.067 1.4.4.333.333.567.7.7 1.1Zm-4.4 4.2-.4.1h-.1l-.2-.1c0-.067.033-.133.1-.2h.2l.4-.2c.2-.067.333-.034.4.1-.067.133-.2.233-.4.3Zm1.8-.2c-.267.067-.5.167-.7.3a3.577 3.577 0 0 0-.9.3c-.2.067-.367.133-.5.2s-.2 0-.2-.2l.5-.2.4-.2.6-.1.5-.2.7-.3.2.1c-.2.133-.4.233-.6.3Zm-2 1.3-.1-.2.9-.2v.2l-.8.2Zm.7.3h-.1c-.2.067-.367.1-.5.1.067-.133.2-.233.4-.3.133-.067.233-.1.3-.1h.1l.1.1a1.173 1.173 0 0 0-.3.2Zm.1.5-.4.1-.1-.1.2-.1.3-.1h.3a1.178 1.178 0 0 1-.3.2Zm-.3.6v-.2h.2l.3-.2c.067 0 .133.033.2.1l-.7.3Zm.6.4-.3.1-.1-.1c.133-.067.233-.1.3-.1l.2-.1c0 .066-.033.133-.1.2Zm.5-5 .4 1.1h.2l.1-.1-.9-2.6.1-.2.9-.3.6-.2.2-.1h.2c0-.067.033-.1.1-.1h.5c-.467-.267-1.1-.267-1.9 0l-1.2.5.7 2Zm-.3 5.4-.3.1c0-.067.067-.133.2-.2h.1v.1Zm2.3-7.6-.5.1-.3.1c-.133.067-.233.1-.3.1l-.1.1-.7.3.8 2.4.5-.1c.067 0 .133-.167.2-.5.067-.267.167-.467.3-.6l.2-.2c0-.067.067-.1.2-.1h.2v.2c-.267.067-.433.167-.5.3v.1l-.1.1-.2.6.3-.2c.133-.067.2-.133.2-.2.667-.534.833-1.333.5-2.4l-.2-.1h-.5Zm-.4.5.3-.1c.067 0 .1.033.1.1 0 .066-.033.133-.1.2h-.3l-.2.2-.1.4.1.1c.067.067.1.133.1.2l-.4.2c0 .067.033.1.1.1.133 0 .233.033.3.1-.133.066-.2.2-.2.4 0 .267-.033.433-.1.5v-.2l-.1-.4c0-.133.067-.233.2-.3h-.2l-.2-.2v-.1l.1-.1h.2v-.1c-.067-.2-.033-.4.1-.6l.3-.4Zm.7 3.2-.2.1-.3.1c-.2.067-.367 0-.5-.2l.2-.1.3-.2c.2-.067.367-.034.5.1v.2Zm.1.5-.4.2-.1-.1c-.067 0-.1-.033-.1-.1v-.1h.2l.3-.1a.425.425 0 0 1 .4 0c0 .133-.1.2-.3.2Zm.3 1.9.7.7c.333.4.7.7 1.1.9v.1h-.3l-1.9-1.9v.3l.1.2c.067.267.233.4.5.4.067.067.033.167-.1.3l-.1.1c.2-.067.3-.033.3.1l.1.3v.2c0 .067.033.133.1.2.133.333.5.7 1.1 1.1 0 .067-.067.133-.2.2-.333-.333-.633-.767-.9-1.3a1.163 1.163 0 0 1-.2-.3c0-.067-.033-.133-.1-.2 0-.134-.067-.167-.2-.1-.133 0-.2-.033-.2-.1l.2-.5c-.067.067-.133.067-.2 0l-.2-.3-.1-.3-.1-.4h.3l.3.3Zm.3-1.6-.3.2c-.2.067-.333.067-.4 0s-.067-.1 0-.1l.1-.1c.267-.134.467-.167.6-.1v.1Zm-.1-1.8-.4.2c0-.067.033-.133.1-.2l.2-.2h.4c0 .066-.1.133-.3.2Zm.5 2.1-.7.3c0-.133.1-.233.3-.3a.425.425 0 0 1 .4 0Zm1.1-5.7-1.4.5-.2-.1v-.3l.2-.1.5-.2c.267-.067.5-.1.7-.1.067.067.133.167.2.3Zm-.3 2.5-.3.3h-.2l-.3.2c-.2.067-.367.033-.5-.1.067-.134.233-.267.5-.4l.5-.1.3-.1c.067.067.067.133 0 .2Zm.4-1.9-.8.4c-.267.067-.467.033-.6-.1l-.1-.2.3-.1.4-.2.8-.2.1.4h-.1Zm-.9 5.5c-.133.067-.233.1-.3.1h-.1l-.1-.1.3-.1a.887.887 0 0 1 .4-.1c-.067.133-.133.2-.2.2Zm.4-4.1-.5.2-.2.1-.1-.1c-.067-.2.1-.367.5-.5l.5-.2h.4c0 .267-.2.433-.6.5Zm.7-1v.2l-1.4.5a.423.423 0 0 1 0-.4c0-.133.1-.2.3-.2l1.1-.4v.3Zm-1.2 5.5.2-.1.1-.1h.2c0 .067-.033.1-.1.1l-.1.1c-.067-.067-.167-.067-.3 0Zm.8.3-.1.1-.1-.1.3-.1-.1.1Zm2.2 3.8h-.1l3.8-1.3-.1.2-3.6 1.1ZM128.9 51.5c.333.267.533.533.6.8l.2.4v.1c.2.933-.1 1.8-.9 2.6l-.7.7 1 .5c.2-.067.567.1 1.1.5.4.267.667.767.8 1.5.2.933-.1 1.867-.9 2.8a4.023 4.023 0 0 1-1.7 1.3l-1.7.5-1.8.4-3.1.6v-.1l6.4-1.4a6.872 6.872 0 0 0 1.8-1.3 3.834 3.834 0 0 0 .9-1.8v-1c-.067-.4-.2-.767-.4-1.1a4.668 4.668 0 0 0-.9-.7c0 .067.033.133.1.2l.2.2.2.2c0 .067.033.1.1.1l.1.4.1.4c.2.867-.067 1.733-.8 2.6-.8.934-2.433 1.633-4.9 2.1l-1 .2-.9.2-.7.1-.9.2c-.667-.267-1.1-.567-1.3-.9l.7-.8-2-10-.5-.2c-.333-.2-.5-.367-.5-.5.667-.133 1.367-.3 2.1-.5l2.1-.4c1-.267 2.067-.367 3.2-.3.4 0 .833.067 1.3.2.4.067.8.2 1.2.4.6.333 1.067.6 1.4.8Zm-10.2-.2h-.4c-.067 0-.167.067-.3.2l.4.2c.2.133.333.233.4.3l2.1 10-.5.7 6.6-1.3c.467-.2.933-.5 1.4-.9.533-.467.833-.933.9-1.4.067-.4.067-.733 0-1-.133-1-.8-1.7-2-2.1a5.51 5.51 0 0 0-2.1-.2v-.1c.2-.133.433-.233.7-.3.2-.133.367-.233.5-.3.267-.133.533-.333.8-.6.333-.267.567-.6.7-1 .133-.467.133-.867 0-1.2l-.1-.4c-.533-.867-1.367-1.367-2.5-1.5-.733-.133-1.733-.1-3 .1l-1.2.3h-.2a.889.889 0 0 0-.4.1c-.133.067-.233.1-.3.1h-.2l-.7.2h-.2l-.4.1Zm6.9-.3c-.133 0-.4-.033-.8-.1a2.747 2.747 0 0 0-.6-.1c-.133-.067-.233-.067-.3 0h-.7l-.9.2-2 .4v.6a.889.889 0 0 1-.4.1l-.7.1c0-.2-.067-.333-.2-.4a1.175 1.175 0 0 1-.3-.2c0-.067-.033-.1-.1-.1a.887.887 0 0 1 .4-.1c.067 0 .133-.033.2-.1.267 0 .5-.033.7-.1l.8-.2 1.6-.4c.6-.133 1.267-.2 2-.2.267 0 .533.033.8.1.333.067.633.167.9.3-.133.133-.267.2-.4.2Zm-5.3 1.7-.7.2c-.2 0-.3-.1-.3-.3-.067-.133-.033-.233.1-.3h.4l.5-.1.1.4-.1.1Zm-.1.8h-.5l-.2.1-.1-.2v-.2l.3-.2h.3c.267-.067.467 0 .6.2-.067.133-.2.233-.4.3Zm.5.3v.2l-.1.1-.9.1-.1-.1-.1-.3.3-.1.4-.1h.3c.067 0 .133.033.2.1v.1Zm.1.6v.1c-.2.133-.4.2-.6.2l-.2.1H119.7v-.4l1-.2.1.2Zm.1.7a1.175 1.175 0 0 1-.3.2l-.2.1h-.2c-.2.067-.333.033-.4-.1 0-.067.033-.167.1-.3l.4-.1H120.9v.2Zm-.4.8h-.6c.067-.066.067-.167 0-.3l.7-.2c.267 0 .433.1.5.3l-.6.2Zm.5.4-.3.1-.3.1h-.3c-.067-.267.033-.4.3-.4l.4-.1h.3l.1.2c0 .067-.067.1-.2.1Zm.3.4c0 .067-.067.133-.2.2l-.3.1-.3.1h-.2l-.1-.2.1-.2 2.3-.4c.067 0 .2-.033.4-.1.2 0 .433-.033.7-.1.267-.067.467-.1.6-.1.2-.067.367-.1.5-.1v.1l-3.5.7Zm0 .6-.2.2h-.2l-.3.1c-.133 0-.233-.033-.3-.1.133-.133.333-.233.6-.3h.4c.067.067.067.1 0 .1Zm-.3.7c-.133.067-.3.067-.5 0 0-.133.1-.2.3-.2.2-.067.367-.1.5-.1.067 0 .133.033.2.1-.2.133-.367.2-.5.2Zm.2.4-.3.1c-.067.067-.167.067-.3 0 .067-.133.167-.2.3-.2l.5-.1.1.1-.3.1Zm4.6-4.1c-.333.867-1.167 1.4-2.5 1.6l-1.7.3-.3-1-.2-1.2-.2-1.1-.2-1.2c.6-.2 1.167-.367 1.7-.5a9.277 9.277 0 0 1 1.8-.2c.267.067.533.167.8.3.533.333.867.833 1 1.5.067.533 0 1.033-.2 1.5Zm-4.7 4.6h-.3c.067-.133.2-.2.4-.2h.3v.1l-.4.1Zm.5.4-.4.1h-.3c0-.133.1-.2.3-.2a.425.425 0 0 1 .4 0v.1Zm-.3.5c-.067.067-.133.067-.2 0h-.1c0-.067.033-.1.1-.1l.2-.1h.2v.1c0 .067-.067.1-.2.1Zm5.6-1.8.2.8c.067.333.1.633.1.9-.067.6-.3 1-.7 1.2a9.56 9.56 0 0 1-.7.2l-.8.1-2.3.5-1.1-4.8.1-.2h.6l.5-.1.8-.1c.733-.2 1.3-.233 1.7-.1.6.067 1.033.4 1.3 1l.3.6Zm-4.3-2.3.2-.1h.2l-.6-3.1v-.1l1.4-.3.2-.1h.5c.067-.067.133-.1.2-.1.2 0 .433.033.7.1-.467-.267-1.1-.3-1.9-.1h-.4c-.067.067-.133.1-.2.1s-.133.033-.2.1h-.4c-.067 0-.133.033-.2.1h-.2l.7 3.5Zm.1-3.1.6 3c1.6-.333 2.433-1.067 2.5-2.2v-.6l-.1-.4c-.267-.133-.633-.167-1.1-.1l.1.2a.657.657 0 0 1-.3.3h-.3l-.1.1c-.267.2-.433.5-.5.9a2.513 2.513 0 0 0 0 1c0 .2.033.333.1.4h.1l.1-.1c.067-.667.467-1.167 1.2-1.5.133.067.2.167.2.3l-.2.1h-.3a.895.895 0 0 0-.5.6l-.3.8h-.2c-.2.067-.333.033-.4-.1l-.1-1.2c.133-1.067.5-1.667 1.1-1.8l-1.6.3Zm.5 5 .5 2.6.1.1a.883.883 0 0 0-.1.4l.2.4h.3l-.6-3.1.1-.3h.4l.5-.1 1-.2c.333 0 .633.033.9.1-.4-.333-.933-.433-1.6-.3l-.5.1-.3.1h-.1c-.067 0-.133.033-.2.1H123.2v.1Zm1 1.9c0 .067.033.167.1.3 0 .133.033.3.1.5 0 .133.033.267.1.4v.4l1.2-.2c.6-.066 1.033-.3 1.3-.7.2-.467.233-.967.1-1.5a3.596 3.596 0 0 0-.3-.9c-.533-.133-1.167-.133-1.9 0l-.5.1-.5.1.3 1.5Zm1.7-.8c0 .067-.067.133-.2.2h-.2l-.3-.1c-.133 0-.267-.1-.4-.3l-.3-.4c-.067 0-.1.033-.1.1v.2c.067.334.233.667.5 1 .267.2.6.367 1 .5h.2c.267 0 .433-.133.5-.4l-.1-.2c0-.067.033-.1.1-.1l.1.1.1.1c0 .2-.1.4-.3.6l-.2.1h-.4l-.5-.2c-.667-.4-1.033-.9-1.1-1.5-.067-.2-.1-.367-.1-.5h.2c.133-.066.333.067.6.4.2.267.4.4.6.4.067-.067.133-.1.2-.1s.1.033.1.1Zm-.1-2.7h-.2l-.3-.1c.067-.066.167-.1.3-.1h.6c-.067.133-.2.2-.4.2Zm-.2-.7h-.2a.969.969 0 0 1 .6-.4h.3c-.133.2-.367.333-.7.4Zm1.6-4.1-.8.2c-.267.067-.467 0-.6-.2l-.1-.2.4-.1.3-.1h.4c.133 0 .233.1.3.3l.1.1Zm-.4 5c-.2.067-.367.067-.5 0l-.2-.2h.3l.3-.1h.3c.067 0 .133.033.2.1-.067.133-.2.2-.4.2Zm.1-1.7h-.7c0-.133.1-.233.3-.3l.2-.1h.5l.1-.1c.067.2-.067.367-.4.5Zm.8-2.7c-.067 0-.2.034-.4.1l-.4.1c-.267.067-.433 0-.5-.2-.067-.133-.067-.2 0-.2l.3-.1h.2l.2-.1h.2c.2-.066.333 0 .4.2v.2Zm-.3 2.1h-.7l-.1.1-.1-.1c0-.267.167-.4.5-.4l.4-.1h.4c-.067.267-.2.434-.4.5Zm-.3-1.3-.4.1c-.067-.067-.1-.167-.1-.3-.067-.066-.033-.133.1-.2h.2l.5-.1c.267-.067.433 0 .5.2-.067.133-.333.233-.8.3Zm-.4.3.2-.1.4-.1h.7c0 .267-.1.433-.3.5h-.5c-.267.067-.467.067-.6 0v-.1c0-.133.033-.2.1-.2Zm1.2 3.6h-.2l-.5.2h-.3c-.067 0-.167-.067-.3-.2h.5l.3-.1c.133-.066.233-.1.3-.1.067 0 .133.034.2.1v.1Zm-.1.6h-.7v-.2l1.3-.2.1.1c-.267.133-.5.233-.7.3Zm1.1.2h-.3l-.5.2h-.4c-.067.067-.167.1-.3.1l-.1-.1.1-.1c.333-.066.833-.133 1.5-.2v.1Zm0 .5c-.133.067-.233.1-.3.1h-.2l-.2.1h-.2c-.2.067-.3.033-.3-.1l1.3-.2c0 .067-.033.1-.1.1Zm.3-5.8.2.5v.4l.1.3c0 .733-.6 1.567-1.8 2.5l.2.1.2.1c.933-.733 1.5-1.533 1.7-2.4 0-.2-.033-.433-.1-.7-.067-.533-.3-.933-.7-1.2.133.133.2.267.2.4Zm-.1 6.3h-.2l-.3.1H128.3c-.2.067-.367.067-.5 0l.4-.2.9-.1v.2ZM140.8 48.8c.067.067.167.133.3.2a.657.657 0 0 0 .3.3c.133.333.233.633.3.9.067.333.167.633.3.9.133.467.367.867.7 1.2 0-.067-.033-.167-.1-.3 0-.133-.033-.3-.1-.5l-.1-.2c0-.067-.033-.2-.1-.4a3.945 3.945 0 0 1-.3-.8c-.067-.2-.1-.4-.1-.6h.1c.333.933.667 1.967 1 3.1-.333-.067-.733-.3-1.2-.7-.333-.267-.6-.5-.8-.7a4.919 4.919 0 0 0-.5-.3c-.4-.133-1.1-.2-2.1-.2l-1.6.2c-.067.2-.1.433-.1.7v2.2l.5.1c.667-.066 1.233-.433 1.7-1.1.4.067.667.233.8.5.2.333.3.7.3 1.1V56.3c.067.067.1.167.1.3l.2.2.2.2V55.2l-.1-.5v-.6l.2.2v.9l.1 1.2V57.3c-.2-.067-.467-.233-.8-.5-.333-.333-.567-.533-.7-.6l-2.3.2.1 3.1c.333.067.633.1.9.1 1.267-.067 2.567-.9 3.9-2.5.2.067.367.2.5.4l.4.4-.6 3.1-.2.2-8.5.5-.5-.5-.5-.5.9-1c0-.2-.033-.467-.1-.8v-1.1l-.1-1.3-.2-6.8-.9-.8.1-.1 8.1-.4.6.4Zm-8.3.3c.067.067.167.133.3.2.2.133.3.267.3.4l.1 3.2.3 7-.6.6 4.1-.2h.8c.4 0 .8-.033 1.2-.1l2.1-.1.6-2.5-.8.8c-.133.2-.3.333-.5.4-.533.6-1.467.9-2.8.9l-1.9.1a.889.889 0 0 0-.4.1l-.1-.2-.2-4.7v-.1l.6-.1h.5c.8-.067 1.433 0 1.9.2.4.133.733.333 1 .6l-.1-2.3c-.467.4-.9.6-1.3.6l-.6.1c-.2 0-.333-.033-.4-.1 0-.267-.033-.467-.1-.6v-1.4c0-.267.033-.5.1-.7v-.5h.9l.8-.1h1.9a9.853 9.853 0 0 0-1.7-.3h-1.1c-.067.067-.167.1-.3.1l-1 .1.1 3.5c-.133.133-.333.2-.6.2-.267 0-.5-.033-.7-.1v-4.6l1.6-.1h.2c.933-.066 1.733-.033 2.4.1.667.2 1.233.6 1.7 1.2l-.8-2.1-7.6.3c0 .067.033.133.1.2Zm7.6.3c.133.2.167.333.1.4v.2a2.401 2.401 0 0 0-1.3-.8 4.781 4.781 0 0 0-1.7-.1l-2.5.2c-.067 0-.1.034-.1.1v.5c-.133 0-.3.033-.5.1h-.4l-.3-.1c0-.066-.033-.133-.1-.2 0-.067-.033-.133-.1-.2l-.2-.2c0-.067-.033-.133-.1-.2l6.9-.3.3.6Zm-5.5 1.1-1.2.1-.1-.2c0-.267.133-.4.4-.4h.2c.4 0 .633.067.7.2v.3Zm.1.4c0 .133-.033.233-.1.3-.133.067-.233.1-.3.1-.133 0-.2-.033-.2-.1l-.3.1h-.3c-.067 0-.1-.067-.1-.2v-.2l.2-.2h.8l.1-.1.2.2v.1Zm-.4 1h-.2l-.2-.1-.3.1c-.067 0-.133-.1-.2-.3 0-.067.033-.133.1-.2l.3-.1.2.1.4-.1c.133 0 .233.067.3.2 0 .2-.133.334-.4.4Zm0 1.2h-.4a.887.887 0 0 1-.4-.1l-.1-.1c0-.133.133-.233.4-.3h.6c.067 0 .167.033.3.1 0 .267-.133.4-.4.4Zm.3-.7-.2.1H133.6c-.067 0-.1-.033-.1-.1v-.2c0-.133.033-.2.1-.2h.2l.5-.1c.2 0 .333.067.4.2 0 .133-.033.233-.1.3Zm-1.1 1c.2-.066.4-.1.6-.1.333-.067.533-.033.6.1 0 .2-.133.3-.4.3h-.7c-.067 0-.1-.033-.1-.1v-.2Zm1.2.7c-.2.067-.4.1-.6.1-.133 0-.3-.033-.5-.1v-.2h1.1v.2Zm1.2.4h-.7c-.067.067-.167.1-.3.1-.067.067-.133.1-.2.1l-.6.1h-.4c-.067 0-.1-.033-.1-.1v-.2l.2-.1h2.3c.467 0 .933-.067 1.4-.2.4-.133.767-.3 1.1-.5h.1V55c-.533-.4-1.467-.567-2.8-.5Zm-1.3.8h-1c0-.2.133-.3.4-.3h.7c.067.133.033.233-.1.3Zm-.3.5h-.7c.067-.2.233-.3.5-.3H134.7v.2l-.4.1Zm-.2.5h-.3c.067-.133.167-.2.3-.2h.3l.3.1c-.267.067-.467.1-.6.1Zm.1.5h-.2l-.2-.1c.067-.067.2-.1.4-.1h.4c-.067.133-.2.2-.4.2Zm-.3.4c0-.067.067-.1.2-.1h.4v.1h-.6Zm.5.5h-.4v-.1c.067-.067.2-.1.4-.1h.1c0 .067-.033.133-.1.2Zm8.8 1.3c-.067.2-.1.4-.1.6l-.5 1.9-.2.2-4.2.1c-.2 0-.5.034-.9.1h-1.2l-2 .1 8.3-.6c.133-.333.267-.833.4-1.5.133-.733.267-1.267.4-1.6h.1c-.067.267-.1.5-.1.7Zm-6.7.5h.4l-.1-1.8v-1.6l2.3-.2c-.467-.2-1-.267-1.6-.2h-.5l-.6.1.1 3.7Zm3.4-8c-.067 0-.133-.033-.2-.1-.067 0-.1-.033-.1-.1l-.2-.2-.1-.1h-.2c-.133 0-.333.067-.6.2-.333.2-.533.3-.6.3l.1.3v.1l-.5.1.1.1c-.067.067-.133.2-.2.4l-.1.4c-.067.2-.067.367 0 .5.6-.867 1.2-1.333 1.8-1.4 0 .067.033.167.1.3l-.3-.1c-.2 0-.367.067-.5.2l-.5.4c-.267.533-.533.767-.8.7l-.1-.3c0-.467.133-.833.4-1.1v-.3l.1-.1.3.1-.2-.3c0-.067.067-.1.2-.1h.2c.333-.267.7-.4 1.1-.4.333-.067.6 0 .8.2v.3Zm-1.4 5.8c.133.067.267.1.4.1h.2l.1-.1.1-.1h.1c.067.067.1.133.1.2v.1c-.067.067-.167.1-.3.1h-.5a.97.97 0 0 1-.6-.4l-.6-.7c-.067.133-.1.233-.1.3.067.133.1.233.1.3l.1.2c0 .067.067.133.2.2.067 0 .133.033.2.1l-.3.3.5.1v.1l-.1.2.5.3c.2.133.4.2.6.2l.2-.3h.2v.2c-.133.133-.267.2-.4.2h-.2l-.4-.1c0-.133-.133-.233-.4-.3-.2 0-.3-.033-.3-.1v-.2l-.3-.1V58c-.067-.067-.067-.133 0-.2l.1-.2-.2-.2-.2-.8c0-.133.067-.2.2-.2.267 0 .4.133.4.4l.6.5ZM156.3 52.5c.067.267.067.5 0 .7v.2c-.067.6-.267 1.067-.6 1.4-.333.4-.767.733-1.3 1-.067 0-.267.067-.6.2l-.4.2c.4 1 .733 1.767 1 2.3l1.4 2.7-.2-.1-.4-.7a1.163 1.163 0 0 1-.2-.3 2.55 2.55 0 0 0-.3-.6l-.8-1.8-.7-1.7c1.2-.2 2.033-.733 2.5-1.6.267-.4.433-.767.5-1.1.067-.733-.167-1.4-.7-2l.2 1c.067.333.1.6.1.8-.067.4-.2.733-.4 1-.533.8-1.5 1.3-2.9 1.5l-.1.1L154 59c.267.467.533.967.8 1.5.267.467.567.934.9 1.4l-.1.1-4.1-.4-.9-1.1c.067 0 .233-.1.5-.3.267-.2.4-.367.4-.5s-.033-.233-.1-.3l-1.4-2.9c-.067-.067-.167-.1-.3-.1h-.2l-.2.2-.3 4.7.4.6H148l-1.7-.2h-.2v-.1l3 .2-.4-.4-.4-.1-.4-.1h-1.6a3.556 3.556 0 0 1-1-.3c-.267-.133-.5-.367-.7-.7 0-.2.067-.367.2-.5l.5-.4.8-10-.7-1.1 2.7.3h.5c.133 0 .333.033.6.1h.5-.7c-.2 0-.433-.033-.7-.1h-2.6l.6.7-.8 9v.9c0 .4-.2.7-.6.9l1.4.2 1.5.1c0-.133-.1-.267-.3-.4l-.2-.2-.1-.1.4-4.8.3-.1h.5c.133 0 .267.033.4.1.2 0 .4.034.6.1l.2.4c.067.067.1.167.1.3l-.1.1h-.8l-.4 4.7.4.5.3-4.6c.067-.133.233-.167.5-.1.133 0 .3.033.5.1l1.4 3.1c.133.067.2.167.2.3 0 .133-.133.3-.4.5-.2.133-.333.233-.4.3l3.2.3-.6-.7L151 55l.1-.4c.533.067 1.133-.033 1.8-.3 1.267-.4 1.933-1.133 2-2.2.067-.4 0-.767-.2-1.1l-.7-.9c-1-.8-2.4-1.3-4.2-1.5.2.067.333.1.4.1.667 0 1.267.067 1.8.2.6.067 1.1.233 1.5.5.133.133.367.3.7.5.267.2.6.467 1 .8.6.6.967 1.2 1.1 1.8Zm-3-2.2c0 .067.067.1.2.1h.4l.3.5a3.72 3.72 0 0 1-.9.1c-.133 0-.3-.067-.5-.2l-.2-.4c0-.066.067-.1.2-.1h.2c-.267-.067-.667-.267-1.2-.6-.533-.267-.967-.433-1.3-.5h-.3l-2.3-.1c-.067.067-.1.133-.1.2v.2c-.067.067-.1.133-.1.2h-1c.067-.2.033-.367-.1-.5l-.4-.5h1.4l1 .1h.3c.6.067 1.1.133 1.5.2.4 0 .733.033 1 .1.933.2 1.667.567 2.2 1.1l-.3.1Zm-7.1 6.1v-.1H146.8c.067 0 .1.067.1.2l-.7-.1Zm.4-.4-.4-.1v-.1h.5c.133.067.233.1.3.1-.067.067-.2.1-.4.1Zm.2-.5h-.2c-.2 0-.333-.067-.4-.2.067-.067.2-.1.4-.1.133.067.233.1.3.1h.1c.067.067.1.133.1.2h-.3Zm-.3 1.4h-.2l-.1-.1h.4c.067.067.133.1.2.1-.067.067-.167.067-.3 0Zm2.1-2.4h-.8a4.626 4.626 0 0 0-.9-.1h-.6c-.067 0-.1-.1-.1-.3h.5l.6.1h.5l.6.1h.8v.2h-.6Zm-2 2.9-.4-.1c.067-.067.167-.1.3-.1.067 0 .1.033.1.1v.1Zm-.3-2.5v-.2l.8.1v.2l-.8-.1Zm.7-1H146.4l-.1-.2c0-.067.067-.133.2-.2l.2.1h.3c.267 0 .4.067.4.2-.067.133-.2.167-.4.1Zm.2-.5h-.3c-.133 0-.233-.033-.3-.1h-.2V53h.6c.2 0 .367.067.5.2a1.175 1.175 0 0 1-.3.2Zm.1-.7h-.8c-.067-.067-.1-.133-.1-.2s.033-.133.1-.2l.2.1h.4c.267 0 .4.067.4.2-.067.067-.133.1-.2.1Zm-.3-.5c-.2 0-.4-.067-.6-.2 0-.133.033-.2.1-.2.067-.067.167-.1.3-.1 0 .067.067.067.2 0l.4.1h.2v.3c-.2.067-.4.1-.6.1Zm.2-.6-.2-.1h-.4c-.067-.067-.1-.167-.1-.3v-.1h.5l.4.1h.2v.2c0 .133-.133.2-.4.2Zm.5-.7c-.067.067-.133.1-.2.1h-.6c-.267 0-.4-.133-.4-.4.067-.133.167-.2.3-.2l.4.1.2-.1c.267.067.367.2.3.4v.1Zm0-.7c0 .067-.067.1-.2.1h-.7c-.2 0-.267-.1-.2-.3v-.2l.2-.1h.3c.267 0 .5.067.7.2 0 .133-.033.233-.1.3Zm4.9 1.7c0 .267-.067.533-.2.8-.267.467-.467.767-.6.9a1.745 1.745 0 0 1-.9.5l-1.2-.1-2-.1.3-4.6.3-.1h.4l.2.1h.6c.733.067 1.333.167 1.8.3.467.2.833.533 1.1 1 .2.4.267.834.2 1.3Zm-3.5.6-.1 1.3h.2c.067 0 .133-.033.2-.1l.1-2.7.2-.1.9.1H151.7l.1.1c.133 0 .3.033.5.1-.333-.4-.9-.633-1.7-.7h-1.4l-.1 2Zm1.1 4.6.3.9c.2.533.433.933.7 1.2v.2l-.3-.1-1-2.5-.1.3v.2c-.067.267.033.433.3.5 0 .133-.067.2-.2.2l-.2.1c.2.067.3.133.3.2l-.1.3v.5c0 .267.2.733.6 1.4-.067.067-.133.1-.2.1-.267-.467-.4-1-.4-1.6v-.5c0-.133-.067-.2-.2-.2-.067-.067-.1-.133-.1-.2l.3-.3-.2-.2V57l.1-.4h.2c.067.133.133.3.2.5Zm1.7-5.9-.6-.1h-1.4l-.2 2.6.4.1c.067 0 .2-.133.4-.4.2-.2.367-.333.5-.4l.3-.1c0-.066.067-.1.2-.1.067 0 .133.034.2.1v.1l-.1.1c-.267-.067-.433-.033-.5.1h-.1c0 .067-.033.1-.1.1l-.4.5h.3c.133 0 .233-.033.3-.1.8-.267 1.267-.967 1.4-2.1l-.2-.2-.4-.2Zm-1.2 3.5h-.5c-.2 0-.3-.1-.3-.3l.2-.1h.3c.2 0 .333.1.4.3l-.1.1Zm.6-3.2h.2c.067.067.1.133.1.2h-.1l-.3-.1a1.178 1.178 0 0 0-.3.2l-.2.2v.4h-.4c-.067.067-.067.133 0 .2l.2.2c-.133 0-.233.1-.3.3-.133.267-.233.433-.3.5l.1-.3.1-.4c0-.066.067-.1.2-.1l-.1-.2c-.067-.067-.1-.133-.1-.2v-.1l.2-.1c0 .067.067.1.2.1v-.1c0-.2.1-.367.3-.5l.5-.2Zm-.7 3.8-.4-.1-.1-.1v-.2l.2.1h.3c.2 0 .3.067.3.2 0 .067-.1.1-.3.1Zm.5.5h-.4c-.2 0-.333-.067-.4-.2l.1-.1h.1c.267 0 .467.033.6.1v.2Zm.2.5h-.7c.067-.133.2-.2.4-.2.133 0 .267.067.4.2h-.1Zm-.1.5h-.2l-.1-.1v-.1h.3c.067 0 .167.033.3.1-.067.067-.167.1-.3.1Zm-.1.4.1-.1h.4l-.1.1h-.2c-.067-.067-.133-.067-.2 0Zm.5-3.1h-.4c0-.067.067-.1.2-.1l.2-.1h.2l.2.1c-.067.067-.2.1-.4.1Zm.1 3.6h-.2v-.1h.3c0 .067-.033.1-.1.1Zm1.5-4.1-.3.2H152.3c-.2-.067-.333-.167-.4-.3.133-.133.333-.2.6-.2l.5.1.3.1c.067.067.033.1-.1.1Zm-1.1 8.5-.1-.1 4.1.3-.2.2-3.8-.4Zm1.1-8.9h-.5l-.2-.1V53c0-.133.167-.2.5-.2h.6c.133 0 .267.034.4.1-.133.267-.4.367-.8.3Zm1.1-.7-.1.2-1.4-.1a.423.423 0 0 1 0-.4.425.425 0 0 1 .4 0l1.1.1c.067.067.067.133 0 .2Zm.1-1-1.4-.1-.1-.2c-.067-.067-.067-.167 0-.3h.8c.333.067.567.133.7.2a.423.423 0 0 1 0 .4Zm-.1.6h-.9c-.267-.067-.433-.2-.5-.4v-.1h.7l.8.1v.4h-.1ZM167.2 51.9l.6-.1 1 1.1c0 1 .1 1.967.3 2.9l.2.2c0-.6-.033-1.067-.1-1.4v-.9c-.067-.2-.067-.367 0-.5h.1l.3 3.2h-.1a5.26 5.26 0 0 1-.8-.5 6.556 6.556 0 0 1-.8-1c-.867-1-1.333-1.567-1.4-1.7-.333-.334-.833-.6-1.5-.8-1-.2-1.767 0-2.3.6-.133.2-.233.367-.3.5 0 .2.033.4.1.6.2.467.5.8.9 1l-.3-.5a.68.68 0 0 1-.2-.5v-.3l.1-.3.3-.4c.533-.267 1.133-.333 1.8-.2.333.067.633.166.9.3.133.133.267.2.4.2l.2.2c.133 0 .233.033.3.1h-.1l-.2-.1h-.1c0-.067-.033-.1-.1-.1-.333-.133-.6-.233-.8-.3-.067 0-.167-.033-.3-.1h-.2c-.067 0-.167-.033-.3-.1h-.2c-.4 0-.767.066-1.1.2-.2.2-.333.4-.4.6-.067.133-.033.367.1.7.067.333.567.767 1.5 1.3 1.067.733 1.667 1.167 1.8 1.3.4.333.733.667 1 1 .267.333.5.667.7 1 .467.8.633 1.633.5 2.5-.267 1.067-1.067 1.9-2.4 2.5-.933.333-1.967.4-3.1.2-.667-.2-1.2-.367-1.6-.5l-1.7-.8-.4-.1h-.4l-.2-.1c.2-.133.4-.167.6-.1l.6.3c.267.133.533.233.8.3.2.133.367.233.5.3.533.2 1.067.367 1.6.5 1.6.333 2.867.167 3.8-.5.467-.267.833-.567 1.1-.9.333-.4.5-.8.5-1.2l.1-.4v-.9a.68.68 0 0 0-.2-.5 3.33 3.33 0 0 1-.1 1.4c-.2 1-.733 1.733-1.6 2.2-1 .6-2.267.733-3.8.4-1.067-.267-2.167-.733-3.3-1.4l-.9-.1a1.945 1.945 0 0 1-.7-1.3c-.067-.267-.067-.7 0-1.3v-1.5c.4.2.933.7 1.6 1.5.6.8 1.067 1.3 1.4 1.5.333.2.7.367 1.1.5.6.133 1.233.1 1.9-.1.6-.333.967-.733 1.1-1.2 0-.4-.133-.733-.4-1-.4-.4-.8-.7-1.2-.9l-1.9-.9c-.667-.333-1.067-.867-1.2-1.6-.4-.533-.7-1.067-.9-1.6-.2-.6-.233-1.133-.1-1.6l.1-.4.3-.6c.2-.334.533-.633 1-.9.8-.467 1.833-.567 3.1-.3.267.067.5.133.7.2.2.133.433.233.7.3l2 .9Zm-.1.2a6.505 6.505 0 0 0-.7-.4 12.085 12.085 0 0 1-.9-.4c-.6-.267-1.133-.433-1.6-.5l-.8-.2a1.627 1.627 0 0 0-.8 0c-.6 0-1.133.167-1.6.5-.6.333-1 .867-1.2 1.6-.133.6-.067 1.167.2 1.7.333.733.933 1.333 1.8 1.8.333.2.6.367.8.5.2.133.333.2.4.2l1.3.6c.8.6 1.233 1.367 1.3 2.3l-.1.3c-.133.8-.667 1.367-1.6 1.7a5.65 5.65 0 0 1-1.5 0c-.467-.133-.967-.367-1.5-.7-.333-.267-.7-.567-1.1-.9-.467-.4-.933-.867-1.4-1.4v2.1l1 .2 1.6.7c1.067.467 1.833.733 2.3.8l.8.2c.267 0 .6-.033 1-.1.2 0 .4-.033.6-.1.267-.133.5-.267.7-.4.133-.133.3-.267.5-.4l.4-.6c.133-.2.233-.467.3-.8.067-.067.1-.133.1-.2V60a2.57 2.57 0 0 0-.2-1.4c-.267-.933-.8-1.6-1.6-2l-2.4-1.4c-.8-.4-1.367-.933-1.7-1.6a2.92 2.92 0 0 1-.1-.7c.067-.133.167-.3.3-.5.467-.6 1.067-.9 1.8-.9.333 0 .633.033.9.1 1.4.333 2.533 1.2 3.4 2.6l-.1-1.8c.067-.2 0-.3-.2-.3h-.4Zm-7.7 4.3c-.067.067-.033.167.1.3.067.2.267.433.6.7a.657.657 0 0 0 .3.3l.3.3.2-.2h.3l.1.1v.4l.3-.1h.2l.1.1c.067.2.267.4.6.6.2.067.333.133.4.2.133.133.233.2.3.2.267.4.4.8.4 1.2-.067.267-.267.5-.6.7l-.2-.1c-.067 0-.1-.033-.1-.1 0-.133.1-.2.3-.2.133.067.233.033.3-.1l.1-.1c.067-.267 0-.533-.2-.8-.133-.267-.433-.5-.9-.7-.467.067-.8.2-1 .4 0 .067.033.133.1.2v.2c0 .067-.033.133-.1.2l-.1-.1-.1-.2v-.2c0-.067.033-.133.1-.2l.5-.4h.7c0-.067-.1-.133-.3-.2-.2-.133-.3-.3-.3-.5-.067 0-.133.067-.2.2-.133.067-.233.1-.3.1-.133-.067-.2-.167-.2-.3.067-.133.067-.233 0-.3-.067 0-.133.033-.2.1 0 .067-.033.1-.1.1a4.933 4.933 0 0 1-.5-.3c-.133-.2-.267-.333-.4-.4-.533-.467-.733-.967-.6-1.5 0-.067.033-.1.1-.1s.133.067.2.2l-.2.3Zm1.7-2.4c.333.067.533.267.6.6l-.5-.1h-.4a12.003 12.003 0 0 1-.9-.4v-.3h.5c.067 0 .133.033.2.1h.3l-.6-.2c-.267-.067-.467-.167-.6-.3l.1-.2v-.1l.2.1h.1l.6.1c.2 0 .333.067.4.2.133.067.167.2.1.4l-.1.1Zm.1-1.6c0 .133-.067.233-.2.3l-.3-.1h-.2l-.3-.1.8.4v.4l-.3-.1h-.2c-.333-.067-.567-.167-.7-.3-.067-.133-.033-.233.1-.3.067-.067.167-.1.3-.1-.2 0-.267-.1-.2-.3l.1-.2a.425.425 0 0 1 .4 0c.133 0 .267.033.4.1l.3.1v.2Zm-.9 2.5-.2-.3.1-.1.6.2.9.2h.4c.067.067.167.133.3.2.2.067.333.2.4.4l-2.5-.6Zm1-2.8-.6-.2h-.2c-.067-.067-.1-.133-.1-.2a.656.656 0 0 1 .3-.3l.5.1c.2.067.333.1.4.1l.2.2c-.067.2-.233.3-.5.3Zm1.3 5.8c1.133.533 1.833.967 2.1 1.3-.267-.4-.933-.9-2-1.5-1.2-.667-1.867-1.1-2-1.3.267.467.9.967 1.9 1.5Zm2.3-1.2-3.9-1.1-.2-.2.1-.1 1.7.3c1 .2 1.767.533 2.3 1v.1Zm2.4-4.3h.2l.2.7v.6l-1.1-1.1c-.333-.333-.667-.567-1-.7-.333-.2-.7-.367-1.1-.5-.4-.067-.8-.1-1.2-.1-.4.067-.8.167-1.2.3l-.6-.1c-.2 0-.333-.067-.4-.2.4-.2.867-.333 1.4-.4.467 0 1 .067 1.6.2.2 0 .4.033.6.1.133.066.3.133.5.2l1.8 1h.3Zm-1.4 4.8v.2l-.1.1-.8-.3-1.3-.2c-.733-.2-1.3-.467-1.7-.8l.1-.1 3.6 1 .2.1Zm-1.2-3.6h-.2c-.2-.067-.333-.067-.4 0l-.1.2c-.067.333.1.667.5 1 .2.133.367.233.5.3h.8c.333-.067.5-.167.5-.3v-.1c-.067-.067-.1-.133-.1-.2-.067-.067-.133-.1-.2-.1v-.1c0-.067.067-.133.2-.2.133 0 .2.067.2.2l.1.2c0 .4-.3.633-.9.7h-.7l.6.3c.067.067.167.1.3.1.067.067.167.133.3.2.133.067.233.067.3 0h.3c.067.067.1.133.1.2v.3c.133-.2.3-.267.5-.2l.2.1v.2l-.1.3h.2c.267.067.5.267.7.6l.5.8v.3c-.067.133-.133.2-.2.2s-.1-.033-.1-.1l-.1-.1c0-.067.033-.1.1-.1v-.1c.067-.067.067-.133 0-.2 0-.067-.033-.167-.1-.3-.267-.467-.567-.733-.9-.8h-.2c-.067-.067-.1-.167-.1-.3v-.1l.1-.2-.2.2c-.133.067-.233.1-.3.1l-.1-.1c-.133 0-.167-.133-.1-.4a4.34 4.34 0 0 1-1.6-.7c-.533-.267-.9-.633-1.1-1.1-.067-.2-.067-.333 0-.4 0-.2.067-.367.2-.5l.2-.1h.3c.067 0 .133.067.2.2l-.1.1Zm1.6 4.5h-.2c-.067-.067-.133-.1-.2-.1h-.1l-.4-.1-.4-.1-.7-.2a1.566 1.566 0 0 1-.4-.3l.1-.1 2.3.6.2.3h-.2Zm.5.5v.1h-.2l-.8-.2-.2-.1-.6-.3V58l1 .2c.267.067.533.167.8.3v.1Zm-1.3.3v-.2l.3.1.6.1c.333.067.5.167.5.3l-1.4-.3Zm1.5.8-.6-.1h-.3l-.3-.1v-.2l.3.1h.3l.4.1c.067 0 .133.067.2.2Zm-1.1.2v-.1l1 .2v.1l-1-.2Zm.1.5c.067-.067.2-.1.4-.1l.3.1.1.1h.1v.1l-.9-.2ZM184 58.2c-.267.067-.4.133-.4.2l-3.7 9.7.1.3c0 .133.067.233.2.3l3.8-10 .2-.1c.067-.067.167-.067.3 0 0 .067-.067.1-.2.1l-.2.1-3.9 10.3.2.4c.067.267.1.467.1.6l-1-.4-.6-.2c-.067-.067-.133-.1-.2-.1-.133-.067-.233-.1-.3-.1l-.6-.2-.1-.1h-.1c-.2-.067-.433-.2-.7-.4l.1-.1h.1l3.1 1.2c.067-.133 0-.267-.2-.4l-3.3-1.3-.5-1.2c.667-.133 1.167-.533 1.5-1.2 0-.067.033-.167.1-.3 0-.133.067-.367.2-.7l.2-.7c0-.2.067-.367.2-.5a.97.97 0 0 0-.6-.4c-.2-.067-.4-.1-.6-.1.067.6.233 1.033.5 1.3 0 .067-.067.1-.2.1-.133-.067-.267-.366-.4-.9-.067-.4-.2-.667-.4-.8L175 62l-1.7 4.3c0 .133.033.3.1.5.133.267.2.467.2.6l-3.4-1.3V66l.2-.1 2.8 1.1c.067-.067.067-.133 0-.2v-.2l-3.4-1.4-.4-1.1 1-.5 1.2-3.1 2.3-6.4-.3-.5-.2-.7 3.5 1.4c0 .067.067.2.2.4.133.267.2.433.2.5l-.2.2-.5.2-1.4 3.8c-.067.133-.2.133-.4 0l-.3-.1-.3-.2V59l1.5-4.2c.067-.133.2-.233.4-.3l.4-.1-.2-.2-2.6-1 .4 1-3.4 9.4c-.067.067-.2.167-.4.3-.267.134-.433.233-.5.3l2.8 1-.4-.9 1.7-4.4 5.2 1.9-.1.5c-.067.2-.167.333-.3.4l-4.1-1.5-1.7 4.2.1.2c.067.133.167.2.3.2l1.6-4 3.7 1.4-.2.6-.2.7-.8 1.8c-.067.067-.2.167-.4.3l-.3.1.8.4 1 .5.9.3h.1l-.4-.8 3.6-9.5c0-.067.1-.133.3-.2l.6-.3-.3-.2.1-.1h.2c.2.067.367.233.5.5.067.333.133.567.2.7 0 .067-.1.133-.3.2Zm-11.9 3.9-.3-.1c0-.067.1-.1.3-.1l.1.1.2.1c-.067.067-.167.067-.3 0Zm.2-.4-.4-.2v-.1l.4.2h.2l.1.1c-.067.067-.167.067-.3 0Zm.4-.3-.2-.1c-.133 0-.233-.033-.3-.1l-.2-.1c.067-.133.2-.167.4-.1.2.133.367.267.5.4h-.2Zm-.1-.6-.3-.1h-.1c0-.067-.033-.1-.1-.1l.1-.2.3.1.2.1a.657.657 0 0 1 .3.3c-.067 0-.2-.033-.4-.1Zm.3-.4-.3-.1c-.067-.067-.2-.133-.4-.2.067-.133.233-.167.5-.1l.2.1c.067 0 .133.033.2.1h.1l.1.2h-.4Zm.5-.5c-.067.133-.167.167-.3.1-.067 0-.1-.033-.1-.1l-.4-.1a1.173 1.173 0 0 1-.3-.2c.067-.133.167-.167.3-.1l.2.1h.2l.4.2v.1Zm.3-.3c-.067 0-.167-.033-.3-.1h-.3l-.4-.2-.2-.1c-.067 0-.067-.033 0-.1v-.2l6.6 2.6.1.1-5.5-2Zm-.5-.7-.6-.2v-.1l.1-.2.2.1h.3l.2.1.3.1.2.1-.1.1v.1c-.2 0-.4-.033-.6-.1Zm.9-.9c0 .067-.067.067-.2 0 .133.067.167.2.1.4l-.1.2-.5-.2-.3-.1-.2-.1c-.067-.067-.067-.167 0-.3 0-.133.067-.2.2-.2-.133-.067-.167-.133-.1-.2.067-.133.133-.2.2-.2l.3.1.3.1.2.1.2.1v.1c0 .133-.033.2-.1.2Zm.1-.5-.2-.1-.5-.2c-.2-.067-.3-.133-.3-.2l.1-.3.2-.1.3.2c.333.133.567.267.7.4a.657.657 0 0 1-.3.3Zm.4-1.8.3.1v.2l-.1.2c0 .067-.033.1-.1.1h-.2c.133.133.167.267.1.4v.1l-.1.1-1-.4c-.067-.067-.1-.133-.1-.2l.2-.2.3.1.3.1.3.1c0-.066-.067-.133-.2-.2l-.2-.1-.2-.1c-.267-.067-.367-.167-.3-.3.067-.133.133-.233.2-.3l.3.1c-.2-.067-.267-.233-.2-.5l.1-.1h.2l.3.1.5.2c.067.067.1.167.1.3-.067.133-.233.2-.5.2Zm.9-1a1.583 1.583 0 0 0-.3.4l-.4-.1-.3-.1-.4-.2c.067-.133.1-.3.1-.5l-.1-.5h.2l1.6.7-.4.3Zm1.2 8.7c0 .067-.033.1-.1.1v.1l.1.1c.133 0 .2.067.2.2-.067 0-.1.033-.1.1H176.5l.3.4-.1.1c0 .067-.033.1-.1.1a.883.883 0 0 1-.1.4c-.067.2-.133.334-.2.4l-.5.5c-.2.133-.433.167-.7.1l-.3-.2c-.133-.067-.167-.167-.1-.3l.1-.2h.2v.1c.067.067.1.133.1.2.067.067.1.133.1.2h.2c.067.067.133.067.2 0 .267-.067.5-.333.7-.8l.1-.2c-.067-.067-.067-.167 0-.3l.2-.2-.3-.1V64c.067 0 .133-.033.2-.1-.067-.066-.133-.2-.2-.4l.2-.1-.3-.4h-.1c0 .267-.033.467-.1.6-.067.267-.167.467-.3.6-.267.2-.5.233-.7.1l-.2-.1v-.1c0-.067.133-.1.4-.1.2 0 .367-.067.5-.2l.2-.2v-.5l.1-.3h.2c.067.067.167.1.3.1-.067.133-.067.2 0 .2l.2.2v.1Zm5.8-6.6-.1-.1-1-.4a7.067 7.067 0 0 0-.9-.3l.3.9-1.6 4.3-.1.1-3.7-1.5 1.3-3.8c.2-.2.433-.3.7-.3l-.5.3-1.3 3.6.4.3h.2l.2.1c.067-.133.033-.3-.1-.5l-.2-.5c.133.067.233.2.3.4l.2.7 2.5.9 1.6-4.1-.7-1.2.1-.1 1 .4.8.3.3.2c.067 0 .2.067.4.2l-.1.1Zm-4.1-.7.3.1c.333.133.533.333.6.6a.423.423 0 0 1 0 .4c0 .133-.033.233-.1.3-.067.133-.2.167-.4.1-.067 0-.067-.033 0-.1 0-.067.067-.167.2-.3l.2-.2c0-.067-.033-.133-.1-.2 0-.067-.033-.133-.1-.2l-.2-.2c-.133 0-.2-.033-.2-.1h-.3c-.267-.067-.633.1-1.1.5l-.1.2-.2.3v.3l.1.3c0 .067.033.133.1.2 0 .067-.067.133-.2.2l-.1-.1h-.1v.1c0 .067.033.1.1.1l.2.1c.133 0 .167.067.1.2l-.2.1c.067.067.1.267.1.6.067.267.133.434.2.5l.1-.4.2-.7c.067-.2.167-.367.3-.5.133-.133.3-.2.5-.2l.3.1c-.067.133-.2.2-.4.2-.133 0-.233.033-.3.1l-.2.2-.1.2-.2.6v.7c-.133 0-.233-.033-.3-.1-.067 0-.133-.033-.2-.1.067-.133.067-.333 0-.6-.133-.267-.167-.467-.1-.6.067-.067.1-.133.1-.2-.067 0-.167-.033-.3-.1-.133-.067-.167-.133-.1-.2 0-.133.033-.2.1-.2h.3c-.2-.2-.233-.467-.1-.8l.2-.3v-.1c.467-.6.933-.867 1.4-.8Zm.6 8.8h-.2c-.133-.067-.2-.133-.2-.2l.6.2h-.2Zm0-.5a.887.887 0 0 1-.4-.1c.133-.067.3-.067.5 0 .133.067.233.133.3.2l-.4-.1Zm.6-.2-.4-.2-.5-.2v-.1l.7.2.3.1-.1.2Zm-.2-.5-.5-.3c0-.133.133-.167.4-.1l.2.1.1.1c.067 0 .133.033.2.1v.1h-.4Zm.3-.5c-.133-.067-.233-.1-.3-.1-.2-.067-.333-.167-.4-.3h.3l.3.1.3.2h.1v.2l-.3-.1Zm.5-.4c-.2 0-.4-.033-.6-.1h-.1l-.1-.1h-.1l-.2-.1c.067-.133.133-.2.2-.2l.3.1h.1l.2.1.3.1v.2Zm-.2-.5-.3-.1-.2-.2h-.2v-.2c0-.067.067-.133.2-.2l.2.1.2.1.2.1c.133 0 .233.033.3.1 0 .067.033.133.1.2-.133.133-.3.167-.5.1Zm.2-.5-.2-.2h-.2c0-.067-.033-.1-.1-.1h-.2c-.067-.133-.067-.233 0-.3l.1-.1h.3l.3.1.2.2.3.1v.1c-.067.2-.233.267-.5.2Zm.7-.6c0 .133-.1.167-.3.1l-.1-.1-.3-.1h-.2a1.175 1.175 0 0 1-.3-.2l-.1-.2c.067-.067.167-.1.3-.1h.3l.2.2h.2c0 .067.033.1.1.1l.2.1.1.1-.1.1Zm.2-.9v.3c-.067.067-.1.133-.1.2l-.6-.2c-.267-.067-.467-.167-.6-.3l.1-.3c.067-.067.133-.067.2 0l.2.1c.067 0 .133-.033.2-.1l-.3-.1c-.133-.066-.167-.167-.1-.3v-.2c.067-.066.133-.1.2-.1l.2.1.5.2c.2.067.3.2.3.4a1.163 1.163 0 0 1-.2.3Zm.9-2.1c-.067.2-.233.233-.5.1h-.1c0 .067.033.1.1.1l.2.1c.067.067.1.167.1.3l-.2.3V59.4c-.067.2-.233.267-.5.2l-.1-.1h-.1l-.4-.2c-.267-.067-.333-.2-.2-.4.067 0 .133-.067.2-.2v-.4c0-.067.033-.1.1-.1h.3l-.2-.2c-.067-.067-.067-.133 0-.2l.1-.2c0-.067.067-.1.2-.1l.3.1.2.1c.2.067.3.133.3.2.133 0 .2.067.2.2v.1Zm.3-.7c-.2.267-.4.333-.6.2l-.2-.1-.2-.1c-.333-.067-.467-.2-.4-.4l.1-.2c0-.066-.033-.167-.1-.3v-.2l.7.2.5.2c.067 0 .167.034.3.1.067.067.167.133.3.2-.067 0-.2.133-.4.4Zm.4-.6c0-.066-.033-.1-.1-.1l.1-.1.2.1c-.067.067-.133.1-.2.1ZM196.1 67.1a5.5 5.5 0 0 1-.2 2.1c-.133.533-.3 1-.5 1.4-1.2 2.067-3.233 3.267-6.1 3.6-1.067 0-2.033-.267-2.9-.8-.267-.133-.633-.4-1.1-.8-.467-.467-.767-1.2-.9-2.2l-.5-2.7c0-1.2.333-2.4 1-3.6.467-.8 1.133-1.5 2-2.1.867-.6 1.8-.967 2.8-1.1 1-.2 1.933-.067 2.8.4 1.333.8 2.3 2.1 2.9 3.9.4.533.633 1.167.7 1.9Zm-3.6-5.5c1 .6 1.6 1.333 1.8 2.2 0 .067-.033.1-.1.1-.467-.267-.7-.533-.7-.8-.2-.467-.567-.833-1.1-1.1-.467-.267-.833-.433-1.1-.5-.267.067-.533.1-.8.1-.4 0-.667-.033-.8-.1l-.2-.2c.133-.133.3-.2.5-.2-.8.067-1.667.333-2.6.8-.867.4-1.667 1.233-2.4 2.5-.6 1-.867 2.067-.8 3.2 0 .867.2 1.7.6 2.5.4.8.967 1.4 1.7 1.8.8.467 1.667.7 2.6.7s1.833-.233 2.7-.7c.4-.2.8-.533 1.2-1 .467-.4.833-.867 1.1-1.4a6.775 6.775 0 0 0 .9-4.1 4.909 4.909 0 0 0-.7-2.1c-.467-.733-1-1.267-1.6-1.6a3.08 3.08 0 0 0-1.2-.5c.4.133.733.267 1 .4Zm-2.3-.5h.8a2.046 2.046 0 0 0-.9 0h.1Zm-4.5 5.9-.8-.3a.657.657 0 0 1-.3-.3c.067-.067.2-.033.4.1l.2.1c.067 0 .133.033.2.1l.2.1c.067.067.133.1.2.1l-.1.1Zm-.5.3-.3-.1a.657.657 0 0 1-.3-.3h.2l.2.1.2.2c.133.067.233.1.3.1v.1l-.3-.1Zm.1-.9-.4-.3-.3-.1.1-.2 1 .5.2.1v.1l-.6-.1Zm-.3 1.4-.2-.1-.2-.1.1-.1h.1l.3.1.3.2c-.067.133-.2.133-.4 0Zm.8-1.7-.3-.1-.5-.3-.2-.1c-.067-.067-.067-.1 0-.1v-.1l.5.2.5.2.3.3c-.067.067-.167.067-.3 0Zm.1-.5-.5-.2-.2-.1-.2-.2V65c0-.067.033-.1.1-.1.267.067.5.167.7.3.133.067.233.133.3.2.067.067.167.133.3.2-.133.067-.3.067-.5 0Zm9.9 2.4-.2 1c-.133.4-.333.8-.6 1.2-.6 1.133-1.567 2.067-2.9 2.8-1.333.733-2.633.967-3.9.7a4.007 4.007 0 0 1-1.7-.6c-.6-.333-1.067-.733-1.4-1.2.2.2.367.4.5.6.133.133.233.267.3.4.2.2.4.333.6.4.933.6 2.033.8 3.3.6 1.133-.133 2.233-.533 3.3-1.2.933-.6 1.633-1.3 2.1-2.1.267-.533.467-1.1.6-1.7a3.67 3.67 0 0 0 0-1.7c.067.333.067.6 0 .8Zm-9.2-2.8c-.067.133-.2.133-.4 0l-.2-.1-.3-.1c0-.067-.033-.1-.1-.1l-.1-.1a1.175 1.175 0 0 1-.3-.2c.067-.133.167-.2.3-.2l.1.1.9.4.1.1v.2Zm-.4-.6-.2-.1-.3-.2-.2-.1.1-.3.6.2.4.2c.133.067.267.167.4.3v.2c-.2.067-.467 0-.8-.2Zm7.2 1.4c-.133.467-.3.9-.5 1.3-.133.4-.3.767-.5 1.1l-.6.9a1.163 1.163 0 0 0-.2.3 5.89 5.89 0 0 0-.5.6c-1.133 1.2-2.233 1.767-3.3 1.7-.267 0-.567-.1-.9-.3-.6-.333-1-.867-1.2-1.6-.133-1.467.267-3.033 1.2-4.7.133-.267.3-.533.5-.8.2-.2.4-.433.6-.7.067-.067.133-.167.2-.3.067-.067.167-.2.3-.4.333-.4.8-.733 1.4-1 .6-.333 1.133-.4 1.6-.2a1.113 1.113 0 0 1 .8.3c.533.333.933.833 1.2 1.5.133.733.1 1.5-.1 2.3Zm-4.9-3.3c-.133.2-.267.3-.4.3.067.067.067.133 0 .2l-.2.2c-.067 0-.167-.033-.3-.1l-.3-.1c-.133-.067-.2-.067-.2 0l.4.2c.067.067.133.167.2.3-.067.2-.2.267-.4.2.067.067.067.133 0 .2l-.1.2h-.3l-.3-.1-.4-.3-.3-.1c-.067-.067-.067-.133 0-.2v-.1l.1-.1h.3c-.067-.067-.067-.133 0-.2l.1-.2c.067-.067.167-.067.3 0 .133.067.267.1.4.1l-.3-.2c-.067 0-.1-.033-.1-.1.133-.267.3-.367.5-.3 0-.067.033-.133.1-.2l.1-.1.2-.1c.067 0 .167.033.3.1l.2.1.2.1.3.2-.1.1Zm2.6.2c-.533.067-.967.233-1.3.5-.667.667-1.267 1.467-1.8 2.4a10.82 10.82 0 0 0-1.2 2.7l-.2 1.4c-.067.467.033.933.3 1.4-.067-1.133 0-2.067.2-2.8 0-.2.033-.367.1-.5s.1-.233.1-.3l.5-1.1.4-.8c.933-1.6 2-2.5 3.2-2.7.467 0 .867.133 1.2.4.2.067.4.233.6.5-.067-.333-.3-.6-.7-.8-.4-.267-.867-.367-1.4-.3Zm-.6.7-.6.6-.6.6c-.4.4-.733.867-1 1.4-1.067 1.8-1.433 3.567-1.1 5.3l.9.2c.4 0 .8-.1 1.2-.3l.3-.3c.2-.067.433-.2.7-.4a11.78 11.78 0 0 0 1.9-2.5c.733-1.267 1.133-2.5 1.2-3.7l-.6-.5c-.2-.2-.367-.333-.5-.4l-.2-.1c-.467-.267-1-.233-1.6.1Zm.9 3.6-.2.4-.3.4-.5 1-.4.6c-.2.467-.5.833-.9 1.1-.333.267-.767.333-1.3.2l-.3-.2c-.067-.067-.1-.133-.1-.2v-.1l.2-.1c.067.2.2.367.4.5h.3l.4-.1-.1-.1-.2-.1c-.067-.067-.067-.133 0-.2.133.067.267.1.4.1a.889.889 0 0 0 .4-.1l.2-.2c.133-.333.133-.8 0-1.4-.133-.333-.4-.7-.8-1.1h-.3c-.2 0-.3-.033-.3-.1-.067-.067-.067-.133 0-.2.067-.133.2-.133.4 0 .867.467 1.3 1.267 1.3 2.4l.3-.3.2-.3.1-.2c.067-.133.133-.333.2-.6l.4-.7c.067-.2.233-.4.5-.6.2-.133.433-.2.7-.2l.2.2v.2c-.4-.2-.7-.2-.9 0Zm-2.2-5.2-.1-.1v.2l-.2.2-.1.1c-.133 0-.3-.033-.5-.1l-.4-.3v-.1l.2-.1.2-.1.3.1v-.2c.067-.067.167-.1.3-.1l.4-.1.2.1.3.1c-.067.333-.267.467-.6.4Zm3.4 3.3c-.067.067-.133.1-.2.1-.067-.067-.067-.167 0-.3v-.5l-.2-.2c-.133-.067-.233-.1-.3-.1l-.3-.1c-.4 0-.733.233-1 .7-.133.2-.2.333-.2.4l-.2.5c.067.133 0 .3-.2.5l-.1.1-.1.1c.067 0 .167.033.3.1l.2.1c.133.067.2.133.2.2s-.033.133-.1.2c0 .067-.1.1-.3.1-.2-.067-.333-.067-.4 0 .067.067.167.1.3.1l.2.1c.067.067.1.133.1.2l-.3.3-.1 1-.1.1v-.6c.067-.267.033-.467-.1-.6l.3-.2-.2-.1h-.2a1.163 1.163 0 0 1-.2-.3l.1-.1.1-.1h.6c0-.067-.033-.133-.1-.2l-.4-.2c-.133-.067-.167-.133-.1-.2l.1-.2.2-.1.2-.8.3-.5c.133-.333.4-.567.8-.7a.889.889 0 0 1 .4-.1l.5.1c.267.133.467.4.6.8l-.1.4Zm-1.7.4c-.067 0-.133.033-.2.1l-.2.4c-.067.067-.133.1-.2.1l.1-.4.1-.2c.067-.2.233-.3.5-.3l.2.1c.067 0 .067.067 0 .2h-.3Zm.8 5.7-.3-.1-.1-.1-.3-.2.2.1.4.1.3.2h-.2Zm.3-.3-.5-.2-.2-.2-.1-.1.1-.1 1 .6c-.067.067-.167.067-.3 0Zm.4-.4-.3-.1-.3-.2-.3-.1.1-.1.4.2.4.1a.657.657 0 0 1 .3.3l-.3-.1Zm.2-.3-.3-.2-.3-.2c-.067 0-.133-.067-.2-.2.067-.067.167-.067.3 0l.1.1c.067 0 .133.033.2.1l.2.1.2.1c.2.067.267.167.2.3l-.4-.1Zm0-.5c-.2-.067-.4-.2-.6-.4 0-.067.067-.1.2-.1h.2l.2.2c.067.067.133.1.2.1l.5.3-.1.2c-.2-.067-.4-.167-.6-.3Zm.7-.2-.4-.2-.6-.4c0-.133.067-.2.2-.2l.2.1.2.1.3.2.3.1c.133.067.2.2.2.4a.887.887 0 0 1-.4-.1Zm.6-.3c-.067 0-.133-.033-.2-.1l-1.2-.7.1-.1c.067-.133.2-.133.4 0l.2.1.5.3a.657.657 0 0 1 .3.3l-.1.2Zm.2-.5h-.3l-.3-.2-.3-.2-.2-.1a1.164 1.164 0 0 1-.2-.3c0-.067.033-.1.1-.1h.2l.2.2h.1l.5.2c.2.133.3.267.3.4 0 .067-.033.1-.1.1Zm.1-.5c-.067-.067-.133-.1-.2-.1l-.3-.1-.6-.4V67.5c.067-.067.167-.1.3-.1v.1c.067 0 .133.033.2.1l.3.2.3.1c.2.067.233.233.1.5h-.1Zm-.8-1.6.4.1.4.2c.267.2.367.4.3.6-.067.067-.133.067-.2 0l-.3-.1-.6-.3-.1-.1c-.067-.067-.067-.133 0-.2l.1-.2Zm.9.3c-.2-.067-.333-.1-.4-.1l-.1-.1-.2-.1c-.133-.133-.167-.267-.1-.4v-.1l.8.3c.2.133.3.267.3.4-.067.133-.167.167-.3.1Zm.3-.6a.888.888 0 0 1-.4-.1l-.4-.2c-.2-.133-.267-.3-.2-.5.067-.067.2-.067.4 0l.2.1.2.1c.133 0 .2.067.2.2a.423.423 0 0 1 0 .4Zm-.3-1.5-.1-.1v.1h.1c.2.133.3.367.3.7-.067.067-.133.067-.2 0l-.3-.1-.2-.1c-.133-.067-.2-.167-.2-.3v-.3l.1-.1h.1a1.164 1.164 0 0 1-.2-.3v-.4c.067-.067.167-.067.3 0l.2.1.1.1.2.6-.2.1ZM207.3 71.9c.2.4.4.833.6 1.3.2.467.3.867.3 1.2.133.4.167.833.1 1.3-.067.467-.2.833-.4 1.1-.733.933-1.767 1.367-3.1 1.3-.867 0-1.767-.267-2.7-.8-.6-.333-1.367-.9-2.3-1.7l-.3.1-2.6 3.5c-.133.133-.167.333-.1.6l.1.6-2.1-1.6-.4-.3-.4-.4c.067.067.167.133.3.2.133.133.3.267.5.4l.8.6 1 .7-.1-.6-.4-.3-.8-.6-.9-.6c-.667-.467-.933-1.1-.8-1.9.133-.067.333-.1.6-.1.267-.067.467-.1.6-.1l6.3-8-.2-.9v-.3l3.7 2.8c.067.067.167.133.3.2l.4.4c.2.133.333.267.4.4.133.067.233.133.3.2.267.2.7.634 1.3 1.3Zm.3 2.3c0-.733-.133-1.4-.4-2-.4-.533-.8-.966-1.2-1.3a4.527 4.527 0 0 0-.8-.8 5.778 5.778 0 0 1-.6-.5l-1.5-1.1c-.4-.267-.767-.533-1.1-.8-.333-.267-.633-.5-.9-.7l.1.9-2.1 2.7c-.267.4-.5.733-.7 1-.2.2-.367.4-.5.6l-3 3.8h-.4c-.2.067-.333.133-.4.2l2.4 1.8-.2-1 2.9-3.7.3-.1.4.3 1.2 1c.933.733 1.7 1.233 2.3 1.5.333.133.667.233 1 .3.333.067.667.067 1 0 .333-.067.633-.2.9-.4.267-.133.5-.333.7-.6.267-.333.467-.7.6-1.1ZM197 75l-.2-.1-.2-.2c.067-.067.167-.067.3 0l.1.1.2.1c-.067.067-.133.1-.2.1Zm10.2 2.3.4-.4c.333-.467.5-.933.5-1.4-.067.333-.2.633-.4.9-.4.467-.933.8-1.6 1-.667.133-1.3.133-1.9 0-.8-.2-1.6-.533-2.4-1a5.216 5.216 0 0 1-.9-.6 48.32 48.32 0 0 1-1.2-1l-2.9 3.6v.3l2.7-3.3.2-.1 1.9 1.5c.733.533 1.7.9 2.9 1.1 1 .133 1.9-.067 2.7-.6Zm-9.8-2.6h-.1l-.3-.2c-.067-.067-.1-.167-.1-.3.067-.067.167-.033.3.1l.3.3-.1.1Zm2.6 3.5-.1-.1c-.067-.067-.133-.1-.2-.1h-.2c-.133 0-.233.033-.3.1l-.1.1v.1c0 .267.067.467.2.6l.2.1c.267-.333.533-.333.8 0l.3.2.3.3c.067.067.133.1.2.1.267.467.367.867.3 1.2-.067.067-.2.1-.4.1 0-.067.033-.233.1-.5 0-.267-.033-.467-.1-.6-.067-.2-.167-.333-.3-.4-.133-.067-.4-.133-.8-.2s-.633-.133-.7-.2a.657.657 0 0 1-.3-.3 3.29 3.29 0 0 0-.8.1c-.267.133-.467.3-.6.5l-.1.1a39.909 39.909 0 0 0 .2.4l-.2.1h-.2l-.1-.1v-.2c0-.133.067-.3.2-.5l.3-.3c.067-.067.233-.133.5-.2.067-.067.2-.1.4-.1.2-.067.333-.133.4-.2s.1-.167.1-.3c.2-.267.467-.333.8-.2l.1.1c.133.133.3.167.5.1h.5c.133-.067.233-.133.3-.2.067-.067.1-.133.1-.2l.1-.2c0-.067.067-.033.2.1l-.1.3c-.267.333-.767.467-1.5.4Zm-2.6-4a.657.657 0 0 1-.3-.3c.133-.133.267-.133.4 0l.3.3c.067.067.067.133 0 .2-.133 0-.267-.067-.4-.2Zm.1.9-.1-.1.1-.1c.067 0 .1.033.1.1l-.1.1Zm.4-1.2-.1-.1-.1-.1a.657.657 0 0 1-.3-.3c.2 0 .367.067.5.2.2.2.3.367.3.5l-.3-.2Zm.4-.3c-.067-.067-.133-.1-.2-.1l-.5-.4c.133-.133.3-.133.5 0l.3.3.1.1.1.1c-.067.067-.167.067-.3 0Zm-.2-.7c-.133-.067-.2-.167-.2-.3.067-.067.167-.1.3-.1l.3.2.2.2.1.1c.067.067.133.1.2.1l-.2.2-.7-.4Zm3.9 2.2-1-.8-1.8-1.4-.3-.2c-.133 0-.267-.067-.4-.2l-.2-.2c-.067-.067-.067-.133 0-.2l.1-.1.1-.1v.1l2.8 2.2 1.9 1.5v.1c-.4-.267-.8-.5-1.2-.7Zm-2.8-2.7-.3-.2-.4-.4.2-.2c.067-.067.133-.067.2 0l.5.4c.133.067.2.167.2.3-.133.133-.267.167-.4.1Zm.3-.5-.3-.2-.2-.3c-.067 0-.1-.067-.1-.2.067-.067.167-.1.3-.1l.2.1.6.6-.3.3-.2-.2Zm.8-.4c0 .067-.033.067-.1 0-.067 0-.167-.033-.3-.1l-.1-.1-.2-.1-.1-.1c-.133-.133-.2-.267-.2-.4.2-.133.433-.1.7.1.267.2.4.4.4.6l-.1.1Zm-.2-.7-.4-.3c0-.133.033-.267.1-.4l.1-.1c.267.133.433.233.5.3.2.2.333.367.4.5-.133.267-.367.267-.7 0Zm4.7 3.4-.5.5c-.667.467-1.567.267-2.7-.6l-.5-.4-.4-.4-.3-.2a1.175 1.175 0 0 0-.3-.2c-.067 0-.167-.033-.3-.1v-.2l3-3.7.2.2.1.1c.133.133.267.233.4.3.133.133.267.233.4.3l.8.5c.267.267.533.567.8.9.267.333.367.767.3 1.3a3.11 3.11 0 0 1-.5 1.3c-.2.2-.367.333-.5.4Zm-2.1 5.4c-.067.067-.133.1-.2.1-.133-.067-.2-.166-.2-.3l.1-.2h-.1l-.1.1-.1.1c0 .067-.033.1-.1.1l-.2-.2V79l-1.7-.5c.2-.067.5-.033.9.1.467.133.767.2.9.2l.1.1v.2l.2-.1c.067-.133.133-.166.2-.1.067.133.133.233.2.3l.2.1.3.2.1.1c.6.267 1.133.333 1.6.2.133 0 .233-.067.3-.2l.2-.2c0-.067.067-.1.2-.1.2.067.2.2 0 .4l-.1.1-.1.1c-.6.267-1.467.167-2.6-.3Zm-2.1-9.3-.3-.2-.2-.2v-.2l.1-.1.2-.1c0 .067.1.167.3.3l.4.2c.133.133.167.267.1.4l-.2.1-.4-.2Zm1-.5-.2.3-.2-.1-.3-.2-.4-.3.1-.2.1-.2.2.1c.067.067.167.133.3.2l.2.2.2.2Zm.9 1.4-.6.7c-.4.533-.733 1-1 1.4l.2.2.9-1.2.6-.8c.133-.133.333-.3.6-.5l1.4 1.1.4.4c.2.133.333.267.4.4a2.24 2.24 0 0 0-.3-.7c-.2-.267-.4-.5-.6-.7l-.7-.5-.8-.5-.5.7Zm-.7-1.6c-.067 0-.1-.033-.1-.1h-.1l-.1-.2-.2-.2-.2-.1c-.067 0-.1-.033-.1-.1s.033-.167.1-.3h.3l.3.3.2.1.2.2-.1.3c-.067.067-.133.1-.2.1Zm-.3 3.9.1-.1.4-.3c.533-.267.967-.433 1.3-.5.467-.133.9-.067 1.3.2.133.2.167.367.1.5-.067 0-.133-.033-.2-.1l-.2-.1-.1-.2-.2-.1c-.467-.067-.9 0-1.3.2s-.767.5-1.1.9c.467.334.767.533.9.6.4.267.767.367 1.1.3.6-.2 1.1-.567 1.5-1.1l.2-.3c-.2-.467-.5-.833-.9-1.1l-1.2-.9-1.7 2.1Zm-.1.1.1-.1-.1.1Zm5.5-.9-.5-.5c-.4-.2-.567-.5-.5-.9a1.58 1.58 0 0 1-.3-.4l-.3-.3-.7-.6-1.9-1.4-.4.4-.4-.3-.3-.2c-.2-.133-.233-.3-.1-.5v-.3c-.067-.133-.067-.233 0-.3l3.3 2.6.6.5c.067 0 .133.033.2.1l.2.2.3.3.5.5.5.7c.133.2.167.4.1.6l-.3-.2Zm-3.4 1 .2.2c.067.067.1.133.1.2l-.1.1h-.1l-.1-.2-.1-.1c-.067 0-.1-.033-.1-.1h-.1a.889.889 0 0 0-.4.1h-.3l-.5.1c.467-.333.967-.433 1.5-.3Zm.7 2.4-.2-.1-.9-.7c.133-.067.333-.033.6.1l.1.1c.067 0 .133.033.2.1l.2.2.1.1c.067 0 .1.033.1.1s-.067.1-.2.1Zm1.1 0h-.2l-.3-.1-1-.8c.067-.067.133-.1.2-.1h.3l1 .8v.2Zm.8-.3-.3.2-1-.7-.2-.3c.2-.267.433-.267.7 0l.6.6.2.1v.1Zm.6-.6-.3.3c-.067 0-.167-.033-.3-.1l-.3-.3-.3-.2-.3-.3c-.067-.067-.067-.1 0-.1l.1-.2c.2.067.467.2.8.4l.4.4.2.1Zm.4-.5-.2.3v.1l-.4-.2-.9-.7c0-.2.067-.333.2-.4.067 0 .133.034.2.1.067.067.167.133.3.2l.4.3.4.3Zm.1-.2c-.067-.067-.233-.167-.5-.3l-.4-.3c-.2-.2-.267-.4-.2-.6.067-.133.167-.167.3-.1l.1.1.3.2.1.1c.067 0 .1.033.1.1a.657.657 0 0 1 .3.3c.067.067.1.167.1.3l-.2.2Zm-.2-1-.3-.2-.6-.5.1-.4.5.3.4.2c.267.2.333.467.2.8l-.3-.2ZM135 90.5l-81-.4c0-.133.033-.233.1-.3l80.9-.4a3.11 3.11 0 0 1-.5-1.3 3.729 3.729 0 0 1 .1-1.5c.2-.6.5-1 1-1.3.4-.3 1-.4 1.5-.3.267 0 .5.067.7.2.267.133.467.3.6.5.3.5.4 1.1.1 1.5a.895.895 0 0 1-.5.6c-.133.067-.3.1-.5.1h-.1c-.3 0-.5-.2-.5-.6 0-.3.2-.5.5-.5s.6.2.6.5a.68.68 0 0 1-.2.5l.1-.1c.267-.133.433-.3.5-.5.2-.5.1-1-.1-1.4a1.506 1.506 0 0 0-.6-.5c-.2-.067-.4-.1-.6-.1-.5-.1-1 0-1.4.3-.4.3-.7.7-.8 1.1-.2.5-.2 1-.1 1.5.067.467.267.9.6 1.3a.657.657 0 0 0 .3.3l.6-.4a.888.888 0 0 1 .4-.1.887.887 0 0 1 .4-.1l.3-.1a.887.887 0 0 1 .4-.1c.533 0 1.067.067 1.6.2.467.133.933.333 1.4.6.267-.2.5-.433.7-.7a3.537 3.537 0 0 1-.7-1.3l-.1-.4a.883.883 0 0 1-.1-.4 1.617 1.617 0 0 1 0-.8c0-1 .3-2 .9-2.9l.1-.2.2.2c.2.2.333.4.4.6.133.267.267.5.4.7.2.533.3 1.067.3 1.6.1.5 0 1-.2 1.5-.2.533-.433 1-.7 1.4.2.267.433.5.7.7.4-.267.867-.467 1.4-.6 1-.3 2.1-.2 3 .2.267.133.5.267.7.4a.657.657 0 0 0 .3-.3c.333-.4.533-.867.6-1.4.1-.4.1-.9-.1-1.4-.1-.4-.4-.8-.8-1.1-.4-.3-.9-.4-1.4-.3-.267 0-.5.033-.7.1-.2.133-.367.3-.5.5-.3.4-.3.9-.2 1.4.133.2.3.367.5.5.133.067.233.1.3.1-.1-.1-.2-.3-.2-.5 0-.3.2-.5.5-.5s.6.2.6.5-.2.5-.4.6h-.1c-.267 0-.5-.033-.7-.1a1.305 1.305 0 0 1-.6-.6c-.2-.4-.1-1 .2-1.5.133-.2.3-.367.5-.5.267-.133.533-.2.8-.2.5-.1 1.1 0 1.5.3.5.3.8.7 1 1.2a4.33 4.33 0 0 1 .1 1.6 3.11 3.11 0 0 1-.5 1.3h.1l80.8.4c0 .067.033.167.1.3l-80.9.4h-.2c.267.4.467.833.6 1.3.067.467.033.967-.1 1.5-.2.5-.5 1-1 1.3-.4.2-1 .4-1.5.3-.267 0-.533-.067-.8-.2a1.507 1.507 0 0 1-.5-.6c-.3-.4-.4-1-.2-1.5.133-.2.333-.367.6-.5.2-.067.4-.1.6-.1.3 0 .6.2.6.5s-.3.6-.6.6-.5-.3-.5-.6c0-.133.067-.267.2-.4-.067 0-.167.033-.3.1-.2.067-.367.233-.5.5-.1.4-.1 1 .2 1.4.3.4.7.6 1.2.6.5.1 1-.1 1.4-.3.4-.3.7-.7.8-1.2.2-.4.2-.9.1-1.4a2.585 2.585 0 0 0-.6-1.3 1.582 1.582 0 0 0-.3-.4c-.2.2-.4.367-.6.5a.887.887 0 0 0-.4.1.888.888 0 0 1-.4.1l-.4.1h-.3a4.327 4.327 0 0 1-1.6-.1 6.33 6.33 0 0 1-1.4-.6c-.267.2-.5.433-.7.7.267.4.5.833.7 1.3l.1.3c0 .133.033.267.1.4v.8c0 1.1-.4 2.1-.9 3l-.2.2-.1-.2c-.2-.2-.367-.433-.5-.7a2.237 2.237 0 0 1-.3-.7 5.539 5.539 0 0 1-.4-1.5c0-.5.1-1.1.3-1.6.2-.467.433-.9.7-1.3a7.482 7.482 0 0 0-.7-.8 4.59 4.59 0 0 1-1.4.7c-1 .3-2.1.2-3.1-.2-.2-.133-.4-.3-.6-.5a1.582 1.582 0 0 0-.3.4c-.333.4-.533.833-.6 1.3-.1.5-.1 1 .1 1.5.1.4.4.8.8 1.1.4.2.9.4 1.4.3.2 0 .433-.067.7-.2.2-.067.367-.2.5-.4.2-.4.3-1 .1-1.4a.642.642 0 0 0-.5-.5c0-.067-.033-.1-.1-.1.133.133.2.267.2.4 0 .3-.3.6-.6.6s-.5-.3-.5-.6c0-.2.1-.4.3-.5h.2c.2 0 .4.033.6.1.267.133.433.3.5.5.3.5.2 1.1-.1 1.5a1.305 1.305 0 0 1-.6.6c-.2.133-.433.2-.7.2-.5.1-1.1-.1-1.5-.3-.5-.3-.8-.8-1-1.3a3.728 3.728 0 0 1-.1-1.5c.067-.467.233-.9.5-1.3Zm8-.6c.4.267.8.433 1.2.5.467.133.933.2 1.4.2h.4l.3-.1a.887.887 0 0 0 .4-.1c.133-.067.233-.1.3-.1.2-.133.367-.266.5-.4a1.254 1.254 0 0 0-.5-.3c-.133-.067-.233-.1-.3-.1a.887.887 0 0 0-.4-.1l-.3-.1h-.4a3.33 3.33 0 0 0-1.4.1c-.4.133-.8.3-1.2.5Zm-1.2 1.3a5.16 5.16 0 0 0-.7 1.2c-.133.467-.2.933-.2 1.4.1.8.4 1.7.9 2.4.4-.8.7-1.6.7-2.5V93c0-.133-.033-.233-.1-.3l-.1-.4c-.133-.4-.3-.767-.5-1.1Zm-.1-2.5c.267-.4.467-.8.6-1.2.2-.467.267-.933.2-1.4 0-.9-.4-1.7-.8-2.4-.5.7-.7 1.6-.8 2.5 0 .2.033.433.1.7 0 .133.033.233.1.3l.1.4c.133.4.3.767.5 1.1Zm-.6 1.2.7.7c.2-.267.4-.467.6-.6-.267-.2-.5-.433-.7-.7l-.6.6Zm-5.2 0 .6.4c.067 0 .167.034.3.1.133.067.267.1.4.1l.3.1h.4c.467 0 .933-.066 1.4-.2.4-.067.767-.233 1.1-.5-.333-.2-.7-.367-1.1-.5a3.731 3.731 0 0 0-1.5-.1h-.3l-.4.1c-.067 0-.167.033-.3.1-.133 0-.233.033-.3.1-.2.067-.4.167-.6.3ZM229.5 194.7c-.067.067-.1.167-.1.3l-80.8.4h-.2c.267.4.467.833.6 1.3a3.73 3.73 0 0 1-.1 1.5c-.2.5-.5 1-1 1.3-.4.3-1 .4-1.5.3a1.78 1.78 0 0 1-.8-.2c-.2-.133-.367-.3-.5-.5-.3-.5-.4-1.1-.2-1.6.133-.2.333-.367.6-.5.2-.067.4-.1.6-.1.3 0 .6.3.6.6s-.3.5-.6.5-.5-.2-.5-.5c0-.2.067-.367.2-.5-.067 0-.167.033-.3.1-.2.133-.367.3-.5.5-.1.4-.1 1 .2 1.4.3.4.7.6 1.2.6.5.1 1-.1 1.4-.3.4-.3.7-.7.8-1.1.2-.5.2-1 .1-1.5a2.584 2.584 0 0 0-.6-1.3.66.66 0 0 0-.3-.3l-.6.4a.883.883 0 0 1-.4.1.883.883 0 0 1-.4.1l-.4.1c-.133 0-.233.033-.3.1a6.591 6.591 0 0 1-1.6-.2 6.298 6.298 0 0 1-1.4-.6c-.267.2-.5.433-.7.7.267.4.5.833.7 1.3l.1.4c0 .133.033.267.1.4v.7c0 1.1-.4 2.1-.9 3l-.2.2-.1-.2c-.2-.2-.367-.4-.5-.6a3.948 3.948 0 0 1-.3-.8 5.547 5.547 0 0 1-.4-1.5c0-.5.1-1.1.3-1.5.2-.533.433-1 .7-1.4-.2-.267-.433-.5-.7-.7a6.298 6.298 0 0 1-1.4.6c-1 .3-2.1.2-3.1-.2l-.6-.4a.66.66 0 0 0-.3.3c-.333.4-.533.833-.6 1.3-.1.5-.1 1 .1 1.5.1.4.4.8.8 1.1.4.2.9.4 1.4.3.2 0 .433-.067.7-.2.2-.067.367-.2.5-.4.2-.4.3-1 .1-1.4-.067-.2-.233-.367-.5-.5l-.1-.1c.133.133.2.3.2.5 0 .3-.3.5-.6.5s-.5-.2-.5-.5.1-.5.3-.5v-.1h.2c.2 0 .4.033.6.1.267.133.433.3.5.5.3.5.2 1.1-.1 1.6-.133.2-.333.367-.6.5-.2.133-.433.2-.7.2-.5.1-1.1 0-1.5-.3-.5-.3-.8-.7-1-1.2a4.329 4.329 0 0 1-.1-1.6c.067-.467.233-.9.5-1.3l-80.9-.4c-.067-.133-.1-.233-.1-.3l81-.4a3.108 3.108 0 0 1-.5-1.3 3.73 3.73 0 0 1 .1-1.5c.2-.5.5-1 1-1.3.4-.3 1-.4 1.5-.3.267 0 .5.067.7.2.267.133.467.3.6.5.3.5.4 1.1.1 1.6-.067.2-.233.367-.5.5-.133.067-.3.1-.5.1h-.1c-.3 0-.5-.2-.5-.5s.2-.6.5-.6.6.3.6.6c0 .133-.067.267-.2.4l.1-.1c.267-.133.433-.3.5-.5.2-.4.1-1-.1-1.4-.133-.2-.333-.333-.6-.4-.2-.133-.4-.2-.6-.2-.5-.1-1 .1-1.4.3-.4.3-.7.7-.8 1.2-.2.4-.2.9-.1 1.4.067.467.267.9.6 1.3a.66.66 0 0 0 .3.3l.6-.4a.883.883 0 0 0 .4-.1.883.883 0 0 1 .4-.1l.3-.1a.883.883 0 0 0 .4-.1c.533 0 1.067.067 1.6.2.467.133.933.333 1.4.6.267-.2.5-.433.7-.7a3.534 3.534 0 0 1-.7-1.3l-.1-.4a.883.883 0 0 1-.1-.4c-.067-.2-.067-.433 0-.7 0-1.1.3-2.1.9-3l.1-.2.2.2c.2.2.333.433.4.7.133.2.267.433.4.7.2.467.3.967.3 1.5.1.5 0 1.1-.2 1.6-.2.467-.433.9-.7 1.3.2.267.433.5.7.7.4-.267.867-.467 1.4-.6 1-.3 2.1-.2 3 .2.267.133.5.267.7.4a.66.66 0 0 0 .3-.3c.333-.4.533-.833.6-1.3.1-.5.1-1-.1-1.5-.1-.4-.4-.8-.8-1.1-.4-.2-.9-.4-1.4-.3-.267 0-.5.067-.7.2-.2.067-.367.2-.5.4-.3.4-.3 1-.2 1.4.133.2.3.367.5.5.133.067.233.1.3.1-.1-.1-.2-.3-.2-.5 0-.3.2-.5.5-.5s.6.2.6.5-.2.5-.4.6h-.1c-.267.067-.5.033-.7-.1a1.502 1.502 0 0 1-.6-.5c-.2-.5-.1-1.1.2-1.6.133-.2.3-.367.5-.5.267-.133.533-.2.8-.2.5-.1 1.1 0 1.5.3.5.3.8.8 1 1.3.133.467.167.967.1 1.5-.067.467-.233.9-.5 1.3h.1l80.9.4Zm-89.1.1a5.5 5.5 0 0 0-1.1-.5 3.89 3.89 0 0 0-1.5-.1h-.3l-.4.1a.883.883 0 0 0-.4.1c-.067 0-.167.033-.3.1a1.26 1.26 0 0 0-.5.3c.2.133.367.267.5.4.133 0 .267.033.4.1.067.067.167.1.3.1l.4.1h.3c.533 0 1.033-.067 1.5-.2.4-.067.767-.233 1.1-.5Zm1.3-1.2c.267-.4.467-.8.6-1.2.133-.467.2-.933.2-1.4 0-.9-.4-1.7-.9-2.4-.4.7-.7 1.6-.7 2.5v.7c.067.133.1.233.1.3l.1.4c.133.4.333.767.6 1.1Zm0 2.5a3.367 3.367 0 0 0-.6 1.2c-.133.4-.2.867-.2 1.4.1.8.4 1.7.9 2.4.4-.8.7-1.6.7-2.5v-.7a.883.883 0 0 1-.1-.4l-.1-.3a3.523 3.523 0 0 0-.6-1.1Zm.7-1.2c-.267-.2-.5-.433-.7-.7-.2.2-.433.4-.7.6.267.2.5.433.7.7.2-.267.433-.467.7-.6Zm5.1-.1a1.26 1.26 0 0 0-.5-.3.883.883 0 0 0-.4-.1c-.067-.067-.167-.1-.3-.1l-.4-.1h-.3a3.73 3.73 0 0 0-1.5.1 5.5 5.5 0 0 0-1.1.5c.333.267.733.433 1.2.5.467.133.933.2 1.4.2h.4l.3-.1a.883.883 0 0 1 .4-.1c.067-.067.167-.1.3-.1.2-.133.367-.267.5-.4Z" fill="#FEFEFE"/><path fill-rule="evenodd" clip-rule="evenodd" d="M278.3 141.8c0 75.3-61.2 136.5-136.6 136.5-75.3 0-136.6-61.2-136.6-136.5C5.1 66.4 66.4 5.2 141.7 5.2c75.4 0 136.6 61.2 136.6 136.6Zm-4.3 0c0-73-59.3-132.3-132.3-132.3C68.8 9.5 9.5 68.8 9.5 141.8 9.5 214.7 68.8 274 141.7 274c73 0 132.3-59.3 132.3-132.2Z" fill="url('#paint1_linear_6_275')"/><path fill-rule="evenodd" clip-rule="evenodd" d="M141.7 283.5C63.6 283.5 0 219.9 0 141.8 0 63.6 63.6 0 141.7 0c78.2 0 141.8 63.6 141.8 141.8 0 78.1-63.6 141.7-141.8 141.7Zm0-278.3C66.4 5.2 5.1 66.4 5.1 141.8c0 75.3 61.3 136.5 136.6 136.5 75.4 0 136.6-61.2 136.6-136.5 0-75.4-61.2-136.6-136.6-136.6Z" fill="#050505"/><defs><linearGradient id="paint0_linear_6_275" x1="38.5" y1="245" x2="38.5" y2="38.5" gradientUnits="userSpaceOnUse"><stop stop-color="#AE8642"/><stop offset=".246" stop-color="#E4BF6F"/><stop offset=".5" stop-color="#FFFAD2"/><stop offset=".795" stop-color="#E4BF6F"/><stop offset="1" stop-color="#AE8642"/></linearGradient><linearGradient id="paint1_linear_6_275" x1="5.1" y1="278.3" x2="5.1" y2="5.2" gradientUnits="userSpaceOnUse"><stop offset=".032" stop-color="#EFA5A9"/><stop offset=".521" stop-color="#FEFEFE"/><stop offset="1" stop-color="#EFA5A9"/></linearGradient></defs></svg>