<svg version="1.1" id="Layer_1" xmlns="http://www.w3.org/2000/svg" x="0" y="0" viewBox="0 0 822.05 467.72" style="enable-background:new 0 0 822.05 467.72" xml:space="preserve"><style>.st1{fill:#efe1c8}</style><path d="M416.49 123.84c-1.86.17-3.43-1.42-3.17-3.26 3.08-22.31-1.13-42.24-12.36-57.38-11.74-15.82-29.88-24.53-51.07-24.53-13.58 0-28.1 3.71-42.36 10.78-19.59-15.83-48.24-24.16-83.41-24.16-67.86 0-145.52 30.81-184.65 73.26-19.47 21.12-28.85 44.47-27.16 67.57-.65 18.98 6.39 37.13 19.86 51.19 14.59 15.22 34.93 23.95 55.82 23.95 3.21 0 6.39-.21 9.54-.62-2.42 9.71-5.17 19.14-9.5 25.59l-.55.81-.21.51c-.8.44-2.72 1-4.03 1.39-2.74.81-6.12 1.8-9.26 3.78C63.2 278.36 54.13 287.18 50 298.8c-1.72 4.84-2.8 10.14-2.19 15.26 1.14 9.55 5.71 16.28 1.99 25.67-3.15 7.95-4.35 16.37-4.95 24.86l-.01.18c-.77 15.05 4.28 28.76 14.63 39.65 21.82 22.97 49.5 17.93 77.88 17.05l428.94-26.91a4.09 4.09 0 0 1 4.19 2.99c1.04 3.78 1.23 9.51 2.06 11.98 2.04 6.04 4.98 11.66 9.29 16.4 9.67 10.64 24.22 16.49 40.96 16.49 20.93 0 40.82-9.48 50.66-24.15 6.48-9.66 8.5-21.17 5.95-33.13 18.11-8.57 32.8-26.01 39.49-47.49 4.89-15.69 4.72-31.19-.21-44.61 17.19-2.06 37.18-11.3 54.91-25.57 20.88-16.82 34.02-36.58 36.04-54.2 2.53-22.07-11.95-34.05-25.63-40.38 6.12-8.02 10.16-18.32 11-29.13 1.12-14.25-3.3-26.86-12.25-35.56 2.57-13.76-.19-26.82-7.98-37.34-8.58-11.57-22.33-18.48-36.79-18.48-18.15 0-33.86 10.43-43.01 28.46-7.77 14.68-12.5 16.27-20.34 18.9l-258.14 24.1z" style="fill:#38415f"/><path class="st1" d="M293.21 105.15c.45-41.57-53.65-43.42-82.66-39.57-51.6 6.85-158.23 31.07-159.27 100.79-.32 21.46 17.35 37.15 38.13 35.62 20.31-1.49 45.75-17.74 48.1-36.55.26-2.05-1.07-3.64-3.56-3.48-1.78.11-7.48 2.81-12.11 3.07-9.26.52-14.89-4.55-14.61-14.99.94-35.38 50.03-59.41 80.53-64.3-9.62 7.43-19.76 15.58-26.01 39.06-12.76 47.9-17.03 100.66-32.78 146.21-5.67 16.38-11.76 18.89-11.76 23.25 0 2.69 2.14 4.31 5.7 4.21 9.98-.29 29.74-14.49 36.34-13.57 13.35 1.87 31.39 10.61 48.1 9.53 42.35-2.73 81.07-32.27 79.81-78.37-.72-26.33-25.82-46.7-50.95-48.16 29.62-5.56 56.67-31.7 57-62.75zm-94.06 171.7c-8.84.95-16.07-6.6-15.68-14.68 1.32-27.1 9.22-56.61 14.61-84.6 19.09-2.07 36.08 10.98 35.99 30.78-.11 22.47-6.91 65.48-34.92 68.5zm3.56-116.77c-3.18-3.33 10.51-57.08 25.3-79.32 11.76-1.33 18.02 9.07 18.17 22.71.27 25.18-42.26 57.88-43.47 56.61zM765.68 206.16c-2.14.01-3.92 1.61-6.41 3.86-5.56 5-12.83 12.29-19.95 12.42-8.55.16-13.9-3.84-13.9-15.17 0-12.46 4.58-31.96 7.48-42.93 2.41-9.11 6.41-12.33 15.32-12.57 4.18-.11 8.01-5.27 8.19-12.59.06-2.63-2.01-4.67-4.48-4.58-11.15.39-12.61-2.18-12.61-7.18 0-6.43 4.99-22.15 4.99-30.48 0-3.03-1.78-5.99-5.7-5.83-3.21.14-6.09 2.55-9.62 8.75-9.75 17.12-25.53 35.86-45.61 37.85-3.76.37-6.06 7.49-6.06 11.24 0 6.74 9.75 3.3 9.62 8.04-.53 19.77-9.66 38.99-10.97 59.32-.15.16.15-.17 0 0-4.63 5.1-7.92 8.7-13.97 9.04-6.41.35-11.81-3.5-11.4-12.75.74-17.02 9.4-34.47 9.98-51.72.46-13.69-8.48-23.52-27.44-21.39-18.96 2.14-36.47 15.43-48.46 30.51 0 0 2.85-10.94 2.85-16.83 0-6.26-4.28-9.16-12.11-8.37-20.67 2.08-39.91 9.67-39.91 17.69 0 4.74 2.49 5.2 2.49 11.4 0 9.42-3.42 25.95-7 42.07-1.02 4.58-3.3 8.86-6.49 12.41l-.06.06c-4.63 5.17-7.48 8.36-13.54 8.95-6.41.63-11.7-4.62-11.4-13.72.68-20.85 11.44-42.26 12.47-62.6.3-5.85-4.28-8.95-12.11-8.04-20.67 2.39-39.91 10.1-39.91 18.01 0 4.67 2.51 5.11 2.49 11.21-.03 15.37-5.44 33.65-12.47 47-4.69 8.91-13.54 16.12-21.38 16.95-4.99.53-8.82-2.96-8.55-8.01 1.17-22.04 12.16-45.85 13.18-67.91.27-5.79-4.28-8.78-12.11-7.82-20.67 2.51-39.91 10.16-39.91 17.94 0 4.6 2.81 5.37 2.49 11.04-.93 16.47-7.85 34.82-11.4 51.89-.34.35-.69.72-1.07 1.14-4.63 5.08-7.48 8.2-13.54 8.82-6.41.66-11.57-4.28-11.4-13.25.88-46.51 27.35-92.32 28.5-138.42.43-17.23-11.76-25.93-30.29-23.42-20.31 2.76-39.19 16.73-39.19 24.05 0 2.79 1.78 3.96 4.99 3.56 7.84-.99 14.23 4.17 13.9 15.38-1.31 44.7-25.93 88.36-27.44 133.6-.65 19.64 16.54 31.48 34.92 29.54 14.25-1.51 31.99-11.12 41.11-22.87 3.19 10.39 12.79 17.5 26.95 16.22 20.04-1.8 39.75-13.06 53.8-27.26 0 0 3.21 21.54 31.35 18.84 17.78-1.71 30.86-11.78 39.25-21.14-.7 4.02-1.13 7.33-1.13 9.58 0 6.18 2.85 7.74 7.48 7.33 5.34-.48 19.24-3.52 29.93-4.4 5.35-.44 7.66-2.3 7.84-8.34.59-19.6 7.3-41.25 15.32-59.35 7.4-16.72 16.39-23.94 22.45-24.46 4.99-.43 8.44 4 8.2 9.66-.76 17.47-11.16 34.3-11.4 52.64-.21 15.66 12.74 27.2 32.78 26.28 15.3-.7 33.43-11.13 42.6-23.56 4.45 12.37 16.11 21.3 34.36 20.16 21.79-1.36 42.22-17.85 54.87-35.31 2.15-2.97 2.85-5.72 2.85-7.62.02-2.31-1.76-4.58-4.61-4.56zM126.43 334.83c-7.64.18-13.93 4.44-16.13 6.72 1.53-7.38 9.34-17.49 9.34-25.49 0-8.01-5.43-12.33-14.43-12.16-9.68.19-18.68 5.53-18.68 8.87 0 1.27.85 1.9 2.55 1.89 3.57-.03 6.45 2.48 6.45 7.74 0 20.72-11.72 27.63-11.72 42.89 0 12.08 7.85 20.59 25.13 20.55 19.67-.05 35.12-15.9 35.32-35.08.13-11.79-7.13-16.18-17.83-15.93zm-16.98 43.65c-3.23.02-4.75-2.37-4.75-5.56 0-4.63 1.88-13.11 4.59-20.97 1.87-5.45 5.26-7.27 7.98-7.31 3.06-.05 5.43 1.66 5.43 5.67-.01 6.88-4.93 28.11-13.25 28.17zM262.45 328.55c-9.17.67-13.92 9.05-14.94 11.09.34-1.17 1.02-4.34 1.02-6.48 0-2.79-2.04-4.13-5.77-3.88-9.85.67-19.02 3.69-19.02 7.29 0 2.13 1.19 2.38 1.19 5.16 0 4.98-2.27 14.32-4.25 22.58-.69.22-1.3.74-2.21 1.66-2.21 2.24-3.57 3.62-6.45 3.76-3.06.16-5.77-2.16-5.77-6.4 0-12.71 5.94-25.76 5.94-29.68 0-1.79-1.02-2.39-2.55-2.3-3.9.23-11.21 3.72-14.09 3.87-2.72.14-5.4-2.65-14.26-2.38-18.74.59-34.51 14.32-34.47 33.6.02 12.38 8.15 18.66 18.17 18.36 12.4-.38 21.4-9.35 21.4-9.35s2.89 8.51 13.08 8.06c8.5-.37 14.85-4.7 18.89-8.78-.34 1.8-.55 3.31-.55 4.32 0 2.78 1.36 3.53 3.57 3.41 2.55-.13 9.17-1.3 14.26-1.58 2.55-.14 3.74-.87 3.74-3.66 0-6.4 3.9-20.27 6.96-26.04 2.53-4.76 4.76-7.05 5.77-7.45 0 2.96 2.38 6.09 7.13 5.77 6.96-.47 11.04-7.7 11.04-13.81-.02-4.91-3.07-7.49-7.83-7.14zm-78.96 37.3c-2.24 4.87-5.6 7.85-8.83 7.96-3.74.14-5.77-3.19-5.77-7.4 0-8.9 4.25-26.04 13.93-26.49 3.57-.17 5.09 1.55 5.09 4.47-.01 6.34-2.46 17.19-4.42 21.46zM313.74 323.84c-7.64.64-13.93 5.47-16.13 7.97 1.53-7.76 9.34-18.75 9.34-27.06 0-8.31-5.43-12.48-14.43-11.7-9.68.84-18.68 7.03-18.68 10.5 0 1.32.85 1.91 2.55 1.78 3.57-.29 6.45 2.12 6.45 7.58 0 21.51-11.72 29.53-11.72 45.38 0 12.55 7.85 20.85 25.13 19.59 20.27-1.47 35.1-18.88 35.32-38.52.13-12.23-7.13-16.42-17.83-15.52zm-16.99 46.37c-3.23.23-4.75-2.15-4.75-5.46 0-4.81 1.88-13.74 4.59-22.07 1.87-5.78 5.26-7.88 7.98-8.1 3.06-.25 5.43 1.39 5.43 5.55 0 7.15-4.92 29.48-13.25 30.08zM432.27 313.84c-9.17.85-13.92 9.61-14.94 11.74.34-1.22 1.02-4.51 1.02-6.72 0-2.89-2.04-4.23-5.77-3.88-9.85.91-19.02 4.29-19.02 8.01 0 2.2 1.19 2.43 1.19 5.3 0 4.81-1.97 13.57-3.84 21.71-.45.36-.92.76-1.42 1.24-3.74 3.36-9.68 9.43-18.34 10.15-8.15.67-12.74-3.49-12.74-9.37 16.98-2.76 28.36-13.04 28.36-22.67 0-7.26-5.34-11.75-16.81-10.79-18.23 1.52-35.61 14.8-35.83 33.96-.18 15.86 11.21 22.21 27.17 20.94 13.74-1.09 21.79-7.5 27.35-13.3-.61 3-1.02 5.47-1.02 6.96 0 2.87 1.36 3.61 3.57 3.43 2.55-.21 9.17-1.6 14.26-2.02 2.55-.21 3.74-.99 3.74-3.87 0-6.61 3.9-21.05 6.96-27.07 2.53-4.97 4.76-7.39 5.77-7.82 0 3.06 2.38 6.25 7.13 5.83 6.96-.61 11.04-8.14 11.04-14.45-.02-5.13-3.08-7.75-7.83-7.31zm-61.98 11.93c2.72-.24 4.07.98 4.07 3.51 0 4.04-6.28 13.02-15.96 15.69 0-9.91 6.79-18.75 11.89-19.2zM466.74 309.14c-12.74 1.15-23.43 7.6-23.43 18.36 0 12.8 16.81 12.9 16.81 23.01 0 3.08-1.36 4.74-3.74 4.93-3.06.25-4.59-2.53-4.59-6.8 0-4.1-2.72-6.1-7.3-5.7-3.91.34-7.81 3.91-7.81 9.37 0 9.21 9.34 14.07 22.08 13.04 14.94-1.2 23.77-9.46 23.77-20.64 0-12.56-18.68-12.34-18.68-22.45 0-3.26 2.72-5.9 4.93-6.1 1.87-.17 3.22.4 3.22 2.12 0 1.55-1.36 2.69-1.36 5.27 0 3.26 2.89 5.59 6.11 5.31 5.6-.48 7.98-4.81 7.98-9.46.01-7.05-5.59-11.38-17.99-10.26zM595.13 298.99c-19.62 1.24-36.14 16.64-36.34 36.43-.01 1.34.12 2.64.3 3.89-.15.16-.3.3-.47.49-2.21 2.42-3.56 3.91-6.45 4.11-3.06.21-5.27-1.72-5.27-5.55 0-7.83 5.1-15 5.1-23.71 0-7.5-5.1-11.47-14.44-10.72-9.68.78-17.66 7.34-21.9 12.53 2.38-7.81 9.85-22.34 9.85-32.05 0-8.67-5.43-13.05-14.43-12.23-9.68.88-18.68 7.42-18.68 11.04 0 1.38 1.02 1.97 2.55 1.83 3.57-.33 6.6 2.32 6.45 7.87-.59 22.57-13.64 44.65-14.94 66.1-.17 2.74 1.19 3.69 3.23 3.54 2.72-.21 9.51-1.6 14.77-2 2.38-.18 3.56-.96 3.56-3.9.17-3.64 4.17-21.61 7.13-27.71 3.44-7.08 7.13-11.31 10.7-11.6 2.38-.19 4.08 1.24 4.08 3.84 0 6.6-5.43 16.04-5.43 25.4 0 7.97 4.75 13 15.11 12.28 10.66-.74 17.94-7.96 21.52-12.91 3.71 7.39 11.66 11.41 22.29 10.79 20.3-1.19 33.03-19.19 32.94-38.46-.06-12.12-8.7-20.1-21.23-19.3zm-2.55 44.42c-6.62.39-11.04-4.42-11.04-12.31 0-9.99 4.08-16.78 8.32-20.53 2.36-2.09 4.08-2.72 4.76-2.77 1.02-.07 1.53.43 1.53 1.31 0 1.06-2.55 2.62-2.55 7.01 0 3.16 1.53 4.99 6.79 6.79 2.38.91 3.4 3.49 3.4 6.48 0 6.16-4.42 13.62-11.21 14.02zM665.94 295.87c-10.36.42-18.51 7.92-20.04 10.47 0 0 .51-2.15.51-4.99 0-3.02-2.04-4.52-5.77-4.33-9.85.5-19.02 3.68-19.02 7.56 0 2.3 1.19 2.58 1.19 5.58-.17 4.07-.28 10.01-4.08 28.64-3.5 17.14-9.9 34.7-10.02 52.31-.05 8.05 5.09 13.52 14.09 13.18 11.21-.42 19.02-7.38 19.02-10.22 0-1.42-.85-2.1-2.38-2.05-3.74.13-6.96-2.24-6.96-8.07 0-7.78 3.57-27.04 5.61-35.45 1.02 1.02 5.91 4.66 13.07 4.28 19.25-1.03 32-19.83 32.26-37.92.18-11.96-6.78-19.43-17.48-18.99zm-18.68 48.02c-3.57.14-5.43-1.73-5.43-4.92 0-7.45 2.79-17.87 4.75-22.55 2.24-5.33 5.77-8.95 9-9.09 3.74-.16 5.26 1.91 5.26 6.54 0 9.6-4.07 29.64-13.58 30.02z"/></svg>