<svg width="414" height="217" fill="none" xmlns="http://www.w3.org/2000/svg"><path d="M401 77c2.31-6.68 9.14-18.55 3.92-25.92-5.23-7.37-3.87-14.91-6.6-22.4C395.6 21.19 388.83 17.1 381 15c-7.83-2.1-18.23 2.59-23.23 8.77C352.76 29.94 351.2 38.25 342 39s-18.26 2.66-28 3c-9.74.34-19.01 1.56-28.98 2.02-9.96.47-18.88 2.17-29.02 2.98s-18.08 1.14-28 3c-9.92 1.86-20.99 1.59-19-10 1.99-11.59-4.76-15.45-9.75-22.25C194.26 10.96 186.84 9.4 179 7c-7.84-2.4-18.36 6.8-25.92 4.92-7.57-1.88-11.96-7.37-20.06-8.94C124.92 1.4 112.04.69 103 1c-9.04.31-18.71 1.9-26.93 4.07-8.21 2.18-15.46 5.06-23.05 7.95-7.58 2.9-13.35 6.82-19.99 11.01-6.65 4.19-12.01 8.52-17.78 14.22-5.78 5.7-9.14 11.57-11.93 19.07-2.79 7.5-3.97 19.51-1.25 27.61C4.8 93.02 8.5 97.98 15.3 103.7c6.81 5.71 12.59 7.7 22.7 8.3 10.1.61 2.81 15.23-4.75 16.25-7.57 1.01-12.16 10.55-13.47 17.53-1.31 6.98.78 20.68-1.78 28.22-2.57 7.54 1.22 16.21 5.97 21.03 4.75 4.83 9.25 9.65 18.03 10.97 8.78 1.32 20.64-.76 30-1s21.44-.17 31-1c9.55-.83 19.18-1.84 29-2 9.82-.16 19.15-1.49 29-2 9.85-.51 20.03-1.6 30-2 9.97-.4 19-1.15 29-2 10.01-.85 18.61-1.39 29-2 10.39-.61 18.58 1.39 29-2 10.42-3.39 12.75 5.95 16.03 13.97 3.27 8.03 12.7 9.51 20.97 10.03 8.27.52 17.69-1.72 24.25-6.75 6.55-5.04 8.53-15.37 7.75-23.25 17.24-7.95 23.39-28.22 21-47 23.34-3.91 53.87-30.01 43-56-3.63-1.55-6.72-3.79-10-6Zm-279-2c8.38 1.87 14.13 6.32 18.3 13.7 4.18 7.37 3.54 19.79-.08 27.52-3.61 7.74-8.78 12.39-15.92 17.08-7.13 4.69-16.5 6.28-25.3 6.7-8.8.42-19.1-7.88-27.69-2.69-8.6 5.19-18.85 5.9-12.56-3.56 6.3-9.46 4.3-15.35 7.25-24.75 2.94-9.4 4.25-17.79 5.93-27.07 1.68-9.29 3.6-18.4 5.85-27.15C80.03 46.02 82.51 39.57 89 33c-7.29 1.69-14.38 4.04-20.7 8.3-6.32 4.27-10.48 7.11-15.05 13.95C48.67 62.08 50.34 74.82 61 72c10.66-2.82 1.64 10.51-3.25 13.75C52.87 89 42.13 94.23 35 92c-7.13-2.23-12.73-7.42-13.93-15.07-1.19-7.66 2.08-16.47 6.23-22.63 4.16-6.15 9.25-9.61 15.4-13.6 6.14-4 12.27-6.99 19.38-9.62 7.1-2.64 14.93-4.55 22.59-6.41 7.67-1.85 17.06-3.66 25.33-3.67 8.27-.01 18.59-.33 25.68 3.32 7.08 3.65 11.13 10.11 11.31 17.69.18 7.58-4.17 14.49-8.74 20.24-4.57 5.74-11.02 8.12-16.25 12.75Zm135-9c4.43 6.58 1.92 17.15-1.78 24.22-3.69 7.07-1.71 24.03 7.47 18.47 9.19-5.55 7.17-14.43 9.09-22.91 1.91-8.48-2.52-18.51 8.24-20.76 10.77-2.24 20.3-6.6 17.98 6.98 6.74-3.98 11.14-9.63 19.22-11.78 8.08-2.14 19.16-.96 18.78 9.78-.38 10.74-3.18 15.55-4.93 26.07-1.74 10.53 14.21 8.65 13.71-1.29-.5-9.94 6.12-16.63 4.22-26.78-7.96-2.22-2.35-10.34 3.22-10.78 5.58-.43 8.75-6.18 13.03-8.97 4.28-2.79 3.69-11.43 9-13 5.3-1.58 7.82 7.1 3.76 13.76-4.07 6.66 7.91 6.54 7.98 12 .08 5.46-9.71 4.55-11.76 10.22-2.05 5.67-1.94 12.34-3.56 18.44-1.62 6.1.82 14.21 8.33 12.33 7.52-1.88 5.83-9.38 14-8-2.08 19.31-36 36-47 16-5.62 3.99-12.23 8.57-19.01 9.99-6.77 1.42-18.27.68-19.96-8.02-1.69-8.69-.71-15 2.96-23.98 3.68-8.97-1.21-15.91-8.24-8.24s-5.63 12.23-9.67 19.33c-4.05 7.1.1 20.47-6.76 23.24-6.86 2.77-21.97 6.02-20.32-4.32-8.77 8.19-29.14 15.4-35 1-6.91 3.37-11.5 6.64-18.69 10.31-7.2 3.66-16.18 2.15-22.06-2.56-5.89-4.71-11.88 7.47-19.26 7.24-7.37-.23-16.5 1.66-19.91-7.07-3.41-8.72-1.99-17.04.25-25.59s3.88-14.97 6.65-23.35c2.76-8.39 2.59-16.14 5.02-24.98 2.43-8.85-13.99-11.36-6.7-17.7 7.28-6.34 13.13-6.68 22.7-7.3 9.57-.62 12.19 10.9 10.67 18.67-1.52 7.77-3.93 16.12-5.6 23.4-1.66 7.29-6.31 16.69-6.4 23.6-.08 6.92-8.59 19.71.58 24.08 9.17 4.37 9.9-11.87 12.73-16.77 2.82-4.91-.19-19.74 3.28-23.72 3.46-3.98 17.29-7.53 22.81-5.33 5.53 2.19 1.11 18.03-1 23.14-2.11 5.12-5.74 22.1 3.93 18.93 9.67-3.17 7.67-11.09 11.98-18.02 4.3-6.94-.86-16.75 3.27-22.73 4.12-5.98 16.1-5.47 22.75-7.25Zm7 81c5.07-3.36 20.59-3.99 16 7s2.86 12.58 3.93 2.93c1.07-9.66 6.78-9.93 13.14-13.86 6.37-3.92 16.87.53 16.86 8-.02 7.47-2.57 14-8.63 18.23-6.06 4.24-15.66 3.59-21.3-1.3-2.08 6.63-21.24 8.07-18-2 3.25-10.08-.31-17.46-4.92-6.92-4.62 10.53-1.19 17.5-15.08 15.92-1.57-14.05 14.58-31.68 3-42 11.72-12.63 23.58 1.58 15 14Zm-113 9c16.1-6.86 17.9 10.13 11.25 19.25-6.66 9.11-23.09 11.87-27.22.72-4.13-11.15 13.89-24.82.97-30.97 2.1-4.73 9.55-8.29 15.07-5.07 5.53 3.22.24 11.3-.07 16.07Zm174 13c-1.21 6.69-7.24 18.69 2 22-1.21 5.74-15.91 9.84-17.77 1.77-1.86-8.07 2.23-16.03 3.7-23.84 1.46-7.82 4.15-17.31 3.07-25.93 3.94.14 11.69-5.44 13 1 9.41-9.28 21.92-.39 19 11-2.92 11.39-12.11 17.36-23 14Zm-272-7c4.41-1.31 14.53-3.52 15.92 3.08 1.39 6.59-.25 13.96-5.67 18.17-5.43 4.2-12.35 4.66-19.32 2.82-6.98-1.84-5.87-10.88-4.95-16.09.91-5.22 9.39-12.61 4.09-18.05-5.29-5.44 3.53-9.48 10.6-6.6 7.07 2.88 1.08 12.63-.67 16.67Zm186-4c15.83 10.38-8 26.29-17.75 15.75-9.74-10.55 11.83-10.98 8.75-2.75 2.31-7.02-12.31-14.33-.92-21.92 11.4-7.59 23.7 5.47 9.92 8.92Zm-28-5c13.33-12.03 14.79 13.98 0 7-1.64 5.54-4.9 10.72-4 17-3.21 1.44-12.02 4.8-12-1-6.54 5.69-25.46 8.62-27.31-2.69-1.84-11.32 5.69-20.55 18.32-21.3 12.63-.75 8.43 18.85-5.01 17.99 8.02 12 22.22-7.26 17-17 3.77-.5 12.45-6.57 13 0Zm-88 14c-1.01 4.69-3.94 10.12-4 15-.05 4.88-11.56 4.83-12 1-4.13 2.61-11.98 5.68-15 0-4.85 1.89-15.86 7.72-19.75.75-3.89-6.97-2.07-13.67 4-19.5 6.07-5.84 14.63-3.4 23.42-4.58 8.79-1.18.81 11.62 2.33 18.33 5.32 1.79 11.05-7.17 8.78-12.22-2.28-5.05 6.87-10.81 11.22-7.78 4.35 3.03 9.89-4.47 12.92 2.08 3.02 6.56-8.02 9.8-11.92 6.92Z" stroke="#38415E" stroke-width=".3"/><path d="M122 75c5.23-4.63 11.68-7.01 16.25-12.75 4.57-5.75 8.92-12.66 8.74-20.24-.18-7.58-4.23-14.04-11.31-17.69-7.09-3.65-17.41-3.33-25.68-3.32-8.27.01-17.66 1.82-25.33 3.67-7.66 1.86-15.49 3.77-22.59 6.41-7.11 2.63-13.24 5.62-19.38 9.62-6.15 3.99-11.24 7.45-15.4 13.6-4.15 6.16-7.42 14.97-6.23 22.63C22.27 84.58 27.87 89.77 35 92c7.13 2.23 17.87-3 22.75-6.25C62.64 82.51 71.66 69.18 61 72c-10.66 2.82-12.33-9.92-7.75-16.75 4.57-6.84 8.73-9.68 15.05-13.95 6.32-4.26 13.41-6.61 20.7-8.3-6.49 6.57-8.97 13.02-11.22 21.78-2.25 8.75-4.17 17.86-5.85 27.15C70.25 91.21 68.94 99.6 66 109c-2.95 9.4-.95 15.29-7.25 24.75-6.29 9.46 3.96 8.75 12.56 3.56C79.9 132.12 90.2 140.42 99 140c8.8-.42 18.17-2.01 25.3-6.7 7.14-4.69 12.31-9.34 15.92-17.08 3.62-7.73 4.26-20.15.08-27.52-4.17-7.38-9.92-11.83-18.3-13.7Zm-22-6c1.28-14.33 4.08-16.81 8.77-31.23 4.69-14.42 17.75.06 11.3 10.3C113.63 58.32 109.98 63.3 100 69Zm-3 11c20.85-3.24 16.83 18.28 16.67 30.67-.16 12.39-20.13 28.25-23.66 12.32C86.47 107.07 98.21 95.33 97 80ZM257 66c-6.65 1.78-18.63 1.27-22.75 7.25-4.13 5.98 1.03 15.79-3.27 22.73-4.31 6.93-2.31 14.85-11.98 18.02s-6.04-13.81-3.93-18.93c2.11-5.11 6.53-20.95 1-23.14-5.52-2.2-19.35 1.35-22.81 5.33-3.47 3.98-.46 18.81-3.28 23.72-2.83 4.9-3.56 21.14-12.73 16.77-9.17-4.37-.66-17.16-.58-24.08.09-6.91 4.74-16.31 6.4-23.6 1.67-7.28 4.08-15.63 5.6-23.4 1.52-7.77-1.1-19.29-10.67-18.67-9.57.62-15.42.96-22.7 7.3-7.29 6.34 9.13 8.85 6.7 17.7-2.43 8.84-2.26 16.59-5.02 24.98-2.77 8.38-4.41 14.8-6.65 23.35s-3.66 16.87-.25 25.59c3.41 8.73 12.54 6.84 19.91 7.07 7.38.23 13.37-11.95 19.26-7.24 5.88 4.71 14.86 6.22 22.06 2.56 7.19-3.67 11.78-6.94 18.69-10.31 5.86 14.4 26.23 7.19 35-1-1.65 10.34 13.46 7.09 20.32 4.32 6.86-2.77 2.71-16.14 6.76-23.24 4.04-7.1 2.64-11.66 9.67-19.33 7.03-7.67 11.92-.73 8.24 8.24-3.67 8.98-4.65 15.29-2.96 23.98 1.69 8.7 13.19 9.44 19.96 8.02 6.78-1.42 13.39-6 19.01-9.99 11 20 44.92 3.31 47-16-8.17-1.38-6.48 6.12-14 8-7.51 1.88-9.95-6.23-8.33-12.33 1.62-6.1 1.51-12.77 3.56-18.44 2.05-5.67 11.84-4.76 11.76-10.22-.07-5.46-12.05-5.34-7.98-12 4.06-6.66 1.54-15.34-3.76-13.76-5.31 1.57-4.72 10.21-9 13-4.28 2.79-7.45 8.54-13.03 8.97-5.57.44-11.18 8.56-3.22 10.78 1.9 10.15-4.72 16.84-4.22 26.78.5 9.94-15.45 11.82-13.71 1.29 1.75-10.52 4.55-15.33 4.93-26.07.38-10.74-10.7-11.92-18.78-9.78-8.08 2.15-12.48 7.8-19.22 11.78 2.32-13.58-7.21-9.22-17.98-6.98-10.76 2.25-6.33 12.28-8.24 20.76-1.92 8.48.1 17.36-9.09 22.91-9.18 5.56-11.16-11.4-7.47-18.47 3.7-7.07 6.21-17.64 1.78-24.22Z" stroke="#EFE1C6" stroke-width=".3"/><path d="M100 69c9.98-5.7 13.63-10.68 20.07-20.93 6.45-10.24-6.61-24.72-11.3-10.3-4.69 14.42-7.49 16.9-8.77 31.23ZM97 80c1.21 15.33-10.53 27.07-6.99 42.99 3.53 15.93 23.5.07 23.66-12.32.16-12.39 4.18-33.91-16.67-30.67Z" stroke="#38415E" stroke-width=".3"/><path d="M264 147c8.58-12.42-3.28-26.63-15-14 11.58 10.32-4.57 27.95-3 42 13.89 1.58 10.46-5.39 15.08-15.92 4.61-10.54 8.17-3.16 4.92 6.92-3.24 10.07 15.92 8.63 18 2 5.64 4.89 15.24 5.54 21.3 1.3 6.06-4.23 8.61-10.76 8.63-18.23.01-7.47-10.49-11.92-16.86-8-6.36 3.93-12.07 4.2-13.14 13.86-1.07 9.65-8.52 8.06-3.93-2.93s-10.93-10.36-16-7Zm38 1c-1.49 4.45 10.03 13.99-.23 16.77-10.26 2.78-6.11-16.83.23-16.77ZM151 156c.31-4.77 5.6-12.85.07-16.07-5.52-3.22-12.97.34-15.07 5.07 12.92 6.15-5.1 19.82-.97 30.97 4.13 11.15 20.56 8.39 27.22-.72 6.65-9.12 4.85-26.11-11.25-19.25Zm-5 22c-1.42-4.03 3.37-19.38 8.08-16.07 4.7 3.31-3.2 17.75-8.08 16.07ZM325 169c10.89 3.36 20.08-2.61 23-14 2.92-11.39-9.59-20.28-19-11-1.31-6.44-9.06-.86-13-1 1.08 8.62-1.61 18.11-3.07 25.93-1.47 7.81-5.56 15.77-3.7 23.84 1.86 8.07 16.56 3.97 17.77-1.77-9.24-3.31-3.21-15.31-2-22Zm10-22c4.18 2.55-1.51 19.83-6.68 17.66-5.17-2.17 2.27-20.35 6.68-17.66ZM53 162c1.75-4.04 7.74-13.79.67-16.67-7.07-2.88-15.89 1.16-10.6 6.6 5.3 5.44-3.18 12.83-4.09 18.05-.92 5.21-2.03 14.25 4.95 16.09 6.97 1.84 13.89 1.38 19.32-2.82 5.42-4.21 7.06-11.58 5.67-18.17-1.39-6.6-11.51-4.39-15.92-3.08Zm3 4c4.98 1.52-.28 17.51-5.01 15.99-4.72-1.52.93-17.24 5.01-15.99Z" stroke="#EFE1C6" stroke-width=".3"/><path d="M239 158c13.78-3.45 1.48-16.51-9.92-8.92-11.39 7.59 3.23 14.9.92 21.92 3.08-8.23-18.49-7.8-8.75 2.75C231 184.29 254.83 168.38 239 158Zm-3 0c-.43-1.97-2.13-5.14 1-6 1.47 1.09 2.05 6.4-1 6Z" stroke="#EFE1C6" stroke-width=".3"/><path d="M335 147c-4.41-2.69-11.85 15.49-6.68 17.66S339.18 149.55 335 147ZM302 148c-6.34-.06-10.49 19.55-.23 16.77 10.26-2.78-1.26-12.32.23-16.77Z" stroke="#38415E" stroke-width=".3"/><path d="M211 153c-.55-6.57-9.23-.5-13 0 5.22 9.74-8.98 29-17 17 13.44.86 17.64-18.74 5.01-17.99s-20.16 9.98-18.32 21.3c1.85 11.31 20.77 8.38 27.31 2.69-.02 5.8 8.79 2.44 12 1-.9-6.28 2.36-11.46 4-17 14.79 6.98 13.33-19.03 0-7Zm-23 4c-.5 3.4-3.49 7.35-7 8-.63-4.01 2.33-9.15 7-8Z" stroke="#EFE1C6" stroke-width=".3"/><path d="M236 158c3.05.4 2.47-4.91 1-6-3.13.86-1.43 4.03-1 6Z" stroke="#38415E" stroke-width=".3"/><path d="M123 167c3.9 2.88 14.94-.36 11.92-6.92-3.03-6.55-8.57.95-12.92-2.08-4.35-3.03-13.5 2.73-11.22 7.78 2.27 5.05-3.46 14.01-8.78 12.22-1.52-6.71 6.46-19.51-2.33-18.33-8.79 1.18-17.35-1.26-23.42 4.58-6.07 5.83-7.89 12.53-4 19.5 3.89 6.97 14.9 1.14 19.75-.75 3.02 5.68 10.87 2.61 15 0 .44 3.83 11.95 3.88 12-1 .06-4.88 2.99-10.31 4-15Zm-32-3c2.11 3.77-2.26 18.79-7.08 16.06-4.82-2.72.81-18.63 7.08-16.06Z" stroke="#EFE1C6" stroke-width=".3"/><path d="M188 157c-4.67-1.15-7.63 3.99-7 8 3.51-.65 6.5-4.6 7-8ZM146 178c4.88 1.68 12.78-12.76 8.08-16.07-4.71-3.31-9.5 12.04-8.08 16.07ZM91 164c-6.27-2.57-11.9 13.34-7.08 16.06 4.82 2.73 9.19-12.29 7.08-16.06ZM56 166c-4.08-1.25-9.73 14.47-5.01 15.99 4.73 1.52 9.99-14.47 5.01-15.99Z" stroke="#38415E" stroke-width=".3"/><path d="M401 77c2.31-6.68 9.14-18.55 3.92-25.92-5.23-7.37-3.87-14.91-6.6-22.4C395.6 21.19 388.83 17.1 381 15c-7.83-2.1-18.23 2.59-23.23 8.77C352.76 29.94 351.2 38.25 342 39s-18.26 2.66-28 3c-9.74.34-19.01 1.56-28.98 2.02-9.96.47-18.88 2.17-29.02 2.98s-18.08 1.14-28 3c-9.92 1.86-20.99 1.59-19-10 1.99-11.59-4.76-15.45-9.75-22.25C194.26 10.96 186.84 9.4 179 7c-7.84-2.4-18.36 6.8-25.92 4.92-7.57-1.88-11.96-7.37-20.06-8.94C124.92 1.4 112.04.69 103 1c-9.04.31-18.71 1.9-26.93 4.07-8.21 2.18-15.46 5.06-23.05 7.95-7.58 2.9-13.35 6.82-19.99 11.01-6.65 4.19-12.01 8.52-17.78 14.22-5.78 5.7-9.14 11.57-11.93 19.07-2.79 7.5-3.97 19.51-1.25 27.61C4.8 93.02 8.5 97.98 15.3 103.7c6.81 5.71 12.59 7.7 22.7 8.3 10.1.61 2.81 15.23-4.75 16.25-7.57 1.01-12.16 10.55-13.47 17.53-1.31 6.98.78 20.68-1.78 28.22-2.57 7.54 1.22 16.21 5.97 21.03 4.75 4.83 9.25 9.65 18.03 10.97 8.78 1.32 20.64-.76 30-1s21.44-.17 31-1c9.55-.83 19.18-1.84 29-2 9.82-.16 19.15-1.49 29-2 9.85-.51 20.03-1.6 30-2 9.97-.4 19-1.15 29-2 10.01-.85 18.61-1.39 29-2 10.39-.61 18.58 1.39 29-2 10.42-3.39 12.75 5.95 16.03 13.97 3.27 8.03 12.7 9.51 20.97 10.03 8.27.52 17.69-1.72 24.25-6.75 6.55-5.04 8.53-15.37 7.75-23.25 17.24-7.95 23.39-28.22 21-47 23.34-3.91 53.87-30.01 43-56-3.63-1.55-6.72-3.79-10-6Zm-279-2c8.38 1.87 14.13 6.32 18.3 13.7 4.18 7.37 3.54 19.79-.08 27.52-3.61 7.74-8.78 12.39-15.92 17.08-7.13 4.69-16.5 6.28-25.3 6.7-8.8.42-19.1-7.88-27.69-2.69-8.6 5.19-18.85 5.9-12.56-3.56 6.3-9.46 4.3-15.35 7.25-24.75 2.94-9.4 4.25-17.79 5.93-27.07 1.68-9.29 3.6-18.4 5.85-27.15C80.03 46.02 82.51 39.57 89 33c-7.29 1.69-14.38 4.04-20.7 8.3-6.32 4.27-10.48 7.11-15.05 13.95C48.67 62.08 50.34 74.82 61 72c10.66-2.82 1.64 10.51-3.25 13.75C52.87 89 42.13 94.23 35 92c-7.13-2.23-12.73-7.42-13.93-15.07-1.19-7.66 2.08-16.47 6.23-22.63 4.16-6.15 9.25-9.61 15.4-13.6 6.14-4 12.27-6.99 19.38-9.62 7.1-2.64 14.93-4.55 22.59-6.41 7.67-1.85 17.06-3.66 25.33-3.67 8.27-.01 18.59-.33 25.68 3.32 7.08 3.65 11.13 10.11 11.31 17.69.18 7.58-4.17 14.49-8.74 20.24-4.57 5.74-11.02 8.12-16.25 12.75Zm135-9c4.43 6.58 1.92 17.15-1.78 24.22-3.69 7.07-1.71 24.03 7.47 18.47 9.19-5.55 7.17-14.43 9.09-22.91 1.91-8.48-2.52-18.51 8.24-20.76 10.77-2.24 20.3-6.6 17.98 6.98 6.74-3.98 11.14-9.63 19.22-11.78 8.08-2.14 19.16-.96 18.78 9.78-.38 10.74-3.18 15.55-4.93 26.07-1.74 10.53 14.21 8.65 13.71-1.29-.5-9.94 6.12-16.63 4.22-26.78-7.96-2.22-2.35-10.34 3.22-10.78 5.58-.43 8.75-6.18 13.03-8.97 4.28-2.79 3.69-11.43 9-13 5.3-1.58 7.82 7.1 3.76 13.76-4.07 6.66 7.91 6.54 7.98 12 .08 5.46-9.71 4.55-11.76 10.22-2.05 5.67-1.94 12.34-3.56 18.44-1.62 6.1.82 14.21 8.33 12.33 7.52-1.88 5.83-9.38 14-8-2.08 19.31-36 36-47 16-5.62 3.99-12.23 8.57-19.01 9.99-6.77 1.42-18.27.68-19.96-8.02-1.69-8.69-.71-15 2.96-23.98 3.68-8.97-1.21-15.91-8.24-8.24s-5.63 12.23-9.67 19.33c-4.05 7.1.1 20.47-6.76 23.24-6.86 2.77-21.97 6.02-20.32-4.32-8.77 8.19-29.14 15.4-35 1-6.91 3.37-11.5 6.64-18.69 10.31-7.2 3.66-16.18 2.15-22.06-2.56-5.89-4.71-11.88 7.47-19.26 7.24-7.37-.23-16.5 1.66-19.91-7.07-3.41-8.72-1.99-17.04.25-25.59s3.88-14.97 6.65-23.35c2.76-8.39 2.59-16.14 5.02-24.98 2.43-8.85-13.99-11.36-6.7-17.7 7.28-6.34 13.13-6.68 22.7-7.3 9.57-.62 12.19 10.9 10.67 18.67-1.52 7.77-3.93 16.12-5.6 23.4-1.66 7.29-6.31 16.69-6.4 23.6-.08 6.92-8.59 19.71.58 24.08 9.17 4.37 9.9-11.87 12.73-16.77 2.82-4.91-.19-19.74 3.28-23.72 3.46-3.98 17.29-7.53 22.81-5.33 5.53 2.19 1.11 18.03-1 23.14-2.11 5.12-5.74 22.1 3.93 18.93 9.67-3.17 7.67-11.09 11.98-18.02 4.3-6.94-.86-16.75 3.27-22.73 4.12-5.98 16.1-5.47 22.75-7.25Zm7 81c5.07-3.36 20.59-3.99 16 7s2.86 12.58 3.93 2.93c1.07-9.66 6.78-9.93 13.14-13.86 6.37-3.92 16.87.53 16.86 8-.02 7.47-2.57 14-8.63 18.23-6.06 4.24-15.66 3.59-21.3-1.3-2.08 6.63-21.24 8.07-18-2 3.25-10.08-.31-17.46-4.92-6.92-4.62 10.53-1.19 17.5-15.08 15.92-1.57-14.05 14.58-31.68 3-42 11.72-12.63 23.58 1.58 15 14Zm-113 9c16.1-6.86 17.9 10.13 11.25 19.25-6.66 9.11-23.09 11.87-27.22.72-4.13-11.15 13.89-24.82.97-30.97 2.1-4.73 9.55-8.29 15.07-5.07 5.53 3.22.24 11.3-.07 16.07Zm174 13c-1.21 6.69-7.24 18.69 2 22-1.21 5.74-15.91 9.84-17.77 1.77-1.86-8.07 2.23-16.03 3.7-23.84 1.46-7.82 4.15-17.31 3.07-25.93 3.94.14 11.69-5.44 13 1 9.41-9.28 21.92-.39 19 11-2.92 11.39-12.11 17.36-23 14Zm-272-7c4.41-1.31 14.53-3.52 15.92 3.08 1.39 6.59-.25 13.96-5.67 18.17-5.43 4.2-12.35 4.66-19.32 2.82-6.98-1.84-5.87-10.88-4.95-16.09.91-5.22 9.39-12.61 4.09-18.05-5.29-5.44 3.53-9.48 10.6-6.6 7.07 2.88 1.08 12.63-.67 16.67Zm186-4c15.83 10.38-8 26.29-17.75 15.75-9.74-10.55 11.83-10.98 8.75-2.75 2.31-7.02-12.31-14.33-.92-21.92 11.4-7.59 23.7 5.47 9.92 8.92Zm-28-5c13.33-12.03 14.79 13.98 0 7-1.64 5.54-4.9 10.72-4 17-3.21 1.44-12.02 4.8-12-1-6.54 5.69-25.46 8.62-27.31-2.69-1.84-11.32 5.69-20.55 18.32-21.3 12.63-.75 8.43 18.85-5.01 17.99 8.02 12 22.22-7.26 17-17 3.77-.5 12.45-6.57 13 0Zm-88 14c-1.01 4.69-3.94 10.12-4 15-.05 4.88-11.56 4.83-12 1-4.13 2.61-11.98 5.68-15 0-4.85 1.89-15.86 7.72-19.75.75-3.89-6.97-2.07-13.67 4-19.5 6.07-5.84 14.63-3.4 23.42-4.58 8.79-1.18.81 11.62 2.33 18.33 5.32 1.79 11.05-7.17 8.78-12.22-2.28-5.05 6.87-10.81 11.22-7.78 4.35 3.03 9.89-4.47 12.92 2.08 3.02 6.56-8.02 9.8-11.92 6.92Z" fill="#38415E"/><path d="M122 75c5.23-4.63 11.68-7.01 16.25-12.75 4.57-5.75 8.92-12.66 8.74-20.24-.18-7.58-4.23-14.04-11.31-17.69-7.09-3.65-17.41-3.33-25.68-3.32-8.27.01-17.66 1.82-25.33 3.67-7.66 1.86-15.49 3.77-22.59 6.41-7.11 2.63-13.24 5.62-19.38 9.62-6.15 3.99-11.24 7.45-15.4 13.6-4.15 6.16-7.42 14.97-6.23 22.63C22.27 84.58 27.87 89.77 35 92c7.13 2.23 17.87-3 22.75-6.25C62.64 82.51 71.66 69.18 61 72c-10.66 2.82-12.33-9.92-7.75-16.75 4.57-6.84 8.73-9.68 15.05-13.95 6.32-4.26 13.41-6.61 20.7-8.3-6.49 6.57-8.97 13.02-11.22 21.78-2.25 8.75-4.17 17.86-5.85 27.15C70.25 91.21 68.94 99.6 66 109c-2.95 9.4-.95 15.29-7.25 24.75-6.29 9.46 3.96 8.75 12.56 3.56C79.9 132.12 90.2 140.42 99 140c8.8-.42 18.17-2.01 25.3-6.7 7.14-4.69 12.31-9.34 15.92-17.08 3.62-7.73 4.26-20.15.08-27.52-4.17-7.38-9.92-11.83-18.3-13.7Zm-22-6c1.28-14.33 4.08-16.81 8.77-31.23 4.69-14.42 17.75.06 11.3 10.3C113.63 58.32 109.98 63.3 100 69Zm-3 11c20.85-3.24 16.83 18.28 16.67 30.67-.16 12.39-20.13 28.25-23.66 12.32C86.47 107.07 98.21 95.33 97 80ZM257 66c-6.65 1.78-18.63 1.27-22.75 7.25-4.13 5.98 1.03 15.79-3.27 22.73-4.31 6.93-2.31 14.85-11.98 18.02s-6.04-13.81-3.93-18.93c2.11-5.11 6.53-20.95 1-23.14-5.52-2.2-19.35 1.35-22.81 5.33-3.47 3.98-.46 18.81-3.28 23.72-2.83 4.9-3.56 21.14-12.73 16.77-9.17-4.37-.66-17.16-.58-24.08.09-6.91 4.74-16.31 6.4-23.6 1.67-7.28 4.08-15.63 5.6-23.4 1.52-7.77-1.1-19.29-10.67-18.67-9.57.62-15.42.96-22.7 7.3-7.29 6.34 9.13 8.85 6.7 17.7-2.43 8.84-2.26 16.59-5.02 24.98-2.77 8.38-4.41 14.8-6.65 23.35s-3.66 16.87-.25 25.59c3.41 8.73 12.54 6.84 19.91 7.07 7.38.23 13.37-11.95 19.26-7.24 5.88 4.71 14.86 6.22 22.06 2.56 7.19-3.67 11.78-6.94 18.69-10.31 5.86 14.4 26.23 7.19 35-1-1.65 10.34 13.46 7.09 20.32 4.32 6.86-2.77 2.71-16.14 6.76-23.24 4.04-7.1 2.64-11.66 9.67-19.33 7.03-7.67 11.92-.73 8.24 8.24-3.67 8.98-4.65 15.29-2.96 23.98 1.69 8.7 13.19 9.44 19.96 8.02 6.78-1.42 13.39-6 19.01-9.99 11 20 44.92 3.31 47-16-8.17-1.38-6.48 6.12-14 8-7.51 1.88-9.95-6.23-8.33-12.33 1.62-6.1 1.51-12.77 3.56-18.44 2.05-5.67 11.84-4.76 11.76-10.22-.07-5.46-12.05-5.34-7.98-12 4.06-6.66 1.54-15.34-3.76-13.76-5.31 1.57-4.72 10.21-9 13-4.28 2.79-7.45 8.54-13.03 8.97-5.57.44-11.18 8.56-3.22 10.78 1.9 10.15-4.72 16.84-4.22 26.78.5 9.94-15.45 11.82-13.71 1.29 1.75-10.52 4.55-15.33 4.93-26.07.38-10.74-10.7-11.92-18.78-9.78-8.08 2.15-12.48 7.8-19.22 11.78 2.32-13.58-7.21-9.22-17.98-6.98-10.76 2.25-6.33 12.28-8.24 20.76-1.92 8.48.1 17.36-9.09 22.91-9.18 5.56-11.16-11.4-7.47-18.47 3.7-7.07 6.21-17.64 1.78-24.22Z" fill="#EFE1C6"/><path d="M100 69c9.98-5.7 13.63-10.68 20.07-20.93 6.45-10.24-6.61-24.72-11.3-10.3-4.69 14.42-7.49 16.9-8.77 31.23ZM97 80c1.21 15.33-10.53 27.07-6.99 42.99 3.53 15.93 23.5.07 23.66-12.32.16-12.39 4.18-33.91-16.67-30.67Z" fill="#38415E"/><path d="M264 147c8.58-12.42-3.28-26.63-15-14 11.58 10.32-4.57 27.95-3 42 13.89 1.58 10.46-5.39 15.08-15.92 4.61-10.54 8.17-3.16 4.92 6.92-3.24 10.07 15.92 8.63 18 2 5.64 4.89 15.24 5.54 21.3 1.3 6.06-4.23 8.61-10.76 8.63-18.23.01-7.47-10.49-11.92-16.86-8-6.36 3.93-12.07 4.2-13.14 13.86-1.07 9.65-8.52 8.06-3.93-2.93s-10.93-10.36-16-7Zm38 1c-1.49 4.45 10.03 13.99-.23 16.77-10.26 2.78-6.11-16.83.23-16.77ZM151 156c.31-4.77 5.6-12.85.07-16.07-5.52-3.22-12.97.34-15.07 5.07 12.92 6.15-5.1 19.82-.97 30.97 4.13 11.15 20.56 8.39 27.22-.72 6.65-9.12 4.85-26.11-11.25-19.25Zm-5 22c-1.42-4.03 3.37-19.38 8.08-16.07 4.7 3.31-3.2 17.75-8.08 16.07ZM325 169c10.89 3.36 20.08-2.61 23-14 2.92-11.39-9.59-20.28-19-11-1.31-6.44-9.06-.86-13-1 1.08 8.62-1.61 18.11-3.07 25.93-1.47 7.81-5.56 15.77-3.7 23.84 1.86 8.07 16.56 3.97 17.77-1.77-9.24-3.31-3.21-15.31-2-22Zm10-22c4.18 2.55-1.51 19.83-6.68 17.66-5.17-2.17 2.27-20.35 6.68-17.66ZM53 162c1.75-4.04 7.74-13.79.67-16.67-7.07-2.88-15.89 1.16-10.6 6.6 5.3 5.44-3.18 12.83-4.09 18.05-.92 5.21-2.03 14.25 4.95 16.09 6.97 1.84 13.89 1.38 19.32-2.82 5.42-4.21 7.06-11.58 5.67-18.17-1.39-6.6-11.51-4.39-15.92-3.08Zm3 4c4.98 1.52-.28 17.51-5.01 15.99-4.72-1.52.93-17.24 5.01-15.99Z" fill="#EFE1C6"/><path d="M239 158c13.78-3.45 1.48-16.51-9.92-8.92-11.39 7.59 3.23 14.9.92 21.92 3.08-8.23-18.49-7.8-8.75 2.75C231 184.29 254.83 168.38 239 158Zm-3 0c-.43-1.97-2.13-5.14 1-6 1.47 1.09 2.05 6.4-1 6Z" fill="#EFE1C6"/><path d="M335 147c-4.41-2.69-11.85 15.49-6.68 17.66S339.18 149.55 335 147ZM302 148c-6.34-.06-10.49 19.55-.23 16.77 10.26-2.78-1.26-12.32.23-16.77Z" fill="#38415E"/><path d="M211 153c-.55-6.57-9.23-.5-13 0 5.22 9.74-8.98 29-17 17 13.44.86 17.64-18.74 5.01-17.99s-20.16 9.98-18.32 21.3c1.85 11.31 20.77 8.38 27.31 2.69-.02 5.8 8.79 2.44 12 1-.9-6.28 2.36-11.46 4-17 14.79 6.98 13.33-19.03 0-7Zm-23 4c-.5 3.4-3.49 7.35-7 8-.63-4.01 2.33-9.15 7-8Z" fill="#EFE1C6"/><path d="M236 158c3.05.4 2.47-4.91 1-6-3.13.86-1.43 4.03-1 6Z" fill="#38415E"/><path d="M123 167c3.9 2.88 14.94-.36 11.92-6.92-3.03-6.55-8.57.95-12.92-2.08-4.35-3.03-13.5 2.73-11.22 7.78 2.27 5.05-3.46 14.01-8.78 12.22-1.52-6.71 6.46-19.51-2.33-18.33-8.79 1.18-17.35-1.26-23.42 4.58-6.07 5.83-7.89 12.53-4 19.5 3.89 6.97 14.9 1.14 19.75-.75 3.02 5.68 10.87 2.61 15 0 .44 3.83 11.95 3.88 12-1 .06-4.88 2.99-10.31 4-15Zm-32-3c2.11 3.77-2.26 18.79-7.08 16.06-4.82-2.72.81-18.63 7.08-16.06Z" fill="#EFE1C6"/><path d="M188 157c-4.67-1.15-7.63 3.99-7 8 3.51-.65 6.5-4.6 7-8ZM146 178c4.88 1.68 12.78-12.76 8.08-16.07-4.71-3.31-9.5 12.04-8.08 16.07ZM91 164c-6.27-2.57-11.9 13.34-7.08 16.06 4.82 2.73 9.19-12.29 7.08-16.06ZM56 166c-4.08-1.25-9.73 14.47-5.01 15.99 4.73 1.52 9.99-14.47 5.01-15.99Z" fill="#38415E"/></svg>