<svg fill="#000" height="800" width="800" version="1.1" id="Capa_1" xmlns="http://www.w3.org/2000/svg" viewBox="0 0 58 58" xml:space="preserve"><path d="M55 5V0H3v5H0v53h58V5h-3zM5 2h48v3H5V2zm35 16c0 1.654-1.346 3-3 3s-3-1.346-3-3v-5h6v5zm-16 0c0 1.654-1.346 3-3 3s-3-1.346-3-3v-5h6v5zM8 18c0 1.654-1.346 3-3 3s-3-1.346-3-3v-5h6v5zm10.293 23.293 8-8a.999.999 0 1 1 1.414 1.414l-8 8a.997.997 0 0 1-1.414 0 .999.999 0 0 1 0-1.414zm0-6 2-2a.999.999 0 1 1 1.414 1.414l-2 2a.997.997 0 0 1-1.414 0 .999.999 0 0 1 0-1.414zm0 12 8-8a.999.999 0 1 1 1.414 1.414l-8 8a.997.997 0 0 1-1.414 0 .999.999 0 0 1 0-1.414zm16-6 8-8a.999.999 0 1 1 1.414 1.414l-8 8a.997.997 0 0 1-1.414 0 .999.999 0 0 1 0-1.414zm0-6 2-2a.999.999 0 1 1 1.414 1.414l-2 2a.997.997 0 0 1-1.414 0 .999.999 0 0 1 0-1.414zm0 12 8-8a.999.999 0 1 1 1.414 1.414l-8 8a.997.997 0 0 1-1.414 0 .999.999 0 0 1 0-1.414zM49 56V26H32v30h-2V26H13v30h-3v-5.586L4.414 56H2V21.974A4.948 4.948 0 0 0 5 23c1.641 0 3.088-.806 4-2.031C9.912 22.194 11.359 23 13 23s3.088-.806 4-2.031C17.912 22.194 19.359 23 21 23s3.088-.806 4-2.031C25.912 22.194 27.359 23 29 23s3.088-.806 4-2.031C33.912 22.194 35.359 23 37 23s3.088-.806 4-2.031C41.912 22.194 43.359 23 45 23s3.088-.806 4-2.031C49.912 22.194 51.359 23 53 23c1.13 0 2.162-.391 3-1.026V56h-7zm7-38c0 1.654-1.346 3-3 3s-3-1.346-3-3v-5h6v5zm-6-7H2V7h54v4h-6z"/><path d="M11 29c0-2.206-1.794-4-4-4s-4 1.794-4 4c0 1.859 1.279 3.411 3 3.858V34H4v7.586l6-6V34H8v-1.142c1.721-.447 3-1.999 3-3.858zm-6 0c0-1.103.897-2 2-2s2 .897 2 2-.897 2-2 2-2-.897-2-2zM4 53.586l6-6v-3.172l-6 6zM4 47.586l6-6v-3.172l-6 6z"/></svg>