<svg height="800" width="800" version="1.1" id="_x32_" xmlns="http://www.w3.org/2000/svg" viewBox="0 0 512 512" xml:space="preserve"><style>.st0{fill:#000}</style><path class="st0" d="m256.003 438.031 22.748-62.111-12.691-64.66 10.195-6.798v-14.349h-40.51v14.349l10.196 6.797-12.692 64.661z"/><path class="st0" d="m463.212 422.569-3.824-24.35a64.216 64.216 0 0 0-34.475-47.361l-80.472-40.693c-10.813-5.46-13.678-22.243-13.678-22.243a3.199 3.199 0 0 0-3.213-1.488 3.209 3.209 0 0 0-2.637 2.359l-9.432 36.254-59.478 162.406-59.486-162.406-9.43-36.254a3.205 3.205 0 0 0-2.637-2.359 3.2 3.2 0 0 0-3.213 1.488s-2.865 16.783-13.678 22.243l-80.473 40.693a64.211 64.211 0 0 0-34.475 47.361l-3.826 24.35c-1.361 8.692.438 21.448 8.225 27.825C67.419 458.907 105.875 512 256.003 512c150.123 0 188.578-53.093 198.986-61.606 7.79-6.377 9.587-19.133 8.223-27.825zM154.757 135.219c15.49-1.012 84.242-9.59 129.408-82.978 16.65 30.279 59.047 74.821 73.008 83.54l3.686-29.089C365.814 44.768 315.281 0 256.003 0c-59.285 0-109.814 44.768-104.861 106.692l3.615 28.527zM335.919 212.081c-23.976 15.987-38.363-33.566-79.922-33.566-41.558 0-55.943 49.553-79.92 33.566 1.601 14.386 47.951 43.155 79.92-4.796 31.969 47.951 78.321 19.182 79.922 4.796z"/></svg>