<svg width="320" height="320" fill="none" xmlns="http://www.w3.org/2000/svg"><g clip-path="url('#clip0_1337_21')"><path d="M160 .011c-43.449 0-48.896.276-65.96.979-17.029.777-28.636 3.442-38.811 7.399-10.521 4.087-19.48 9.582-28.374 18.476C17.961 35.76 12.517 44.67 8.43 55.19 4.474 65.365 1.758 77.02.98 94.05.201 111.112 0 116.56 0 160.008c0 43.451.2 48.896.981 65.959.778 17.029 3.493 28.636 7.449 38.813 4.088 10.52 9.531 19.429 18.425 28.324 8.894 8.894 17.853 14.384 28.374 18.474 10.175 3.954 21.782 6.671 38.811 7.449 17.064.778 22.511.928 65.96.928s48.896-.25 65.96-.928c17.028-.778 28.685-3.495 38.86-7.449 10.521-4.09 19.431-9.58 28.325-18.474 8.894-8.895 14.337-17.804 18.425-28.324 3.956-10.177 6.672-21.784 7.449-38.813.78-17.063.981-22.508.981-65.959 0-43.449-.201-48.896-.981-65.96-.778-17.029-3.493-28.683-7.449-38.86-4.088-10.52-9.531-19.43-18.425-28.324-8.894-8.894-17.804-14.39-28.325-18.476-10.175-3.957-21.832-6.622-38.86-7.4C208.896.213 203.449.012 160 .012Zm0 28.814c42.718 0 47.766.25 64.637.928 15.597.703 24.108 3.347 29.745 5.538 7.468 2.902 12.779 6.36 18.377 11.957 5.599 5.598 9.056 10.91 11.957 18.377 2.19 5.637 4.825 14.148 5.538 29.744.767 16.871.93 21.921.93 64.637 0 42.719-.175 47.77-.93 64.638-.713 15.598-3.348 24.059-5.538 29.697-2.901 7.466-6.358 12.823-11.957 18.423-5.598 5.598-10.909 9.055-18.377 11.958-5.637 2.183-14.148 4.78-29.745 5.49-16.868.778-21.916.928-64.637.928-42.721 0-47.769-.25-64.637-.928-15.597-.703-24.059-3.299-29.696-5.49-7.468-2.903-12.828-6.36-18.426-11.958-5.597-5.6-9.054-10.957-11.957-18.423-2.19-5.638-4.776-14.099-5.488-29.697-.768-16.868-.931-21.919-.931-64.638 0-42.716.175-47.766.93-64.637.713-15.596 3.299-24.107 5.49-29.745 2.902-7.466 6.359-12.778 11.956-18.376 5.598-5.597 10.958-9.055 18.426-11.957 5.637-2.183 14.099-4.825 29.696-5.538 16.871-.778 21.919-.928 64.637-.928Zm85.415 26.56c-10.603 0-19.21 8.606-19.21 19.21 0 10.602 8.607 19.208 19.21 19.208 10.603 0 19.209-8.606 19.209-19.209s-8.606-19.209-19.209-19.209ZM160 77.828c-45.372 0-82.131 36.81-82.131 82.181 0 45.373 36.759 82.13 82.131 82.13s82.18-36.757 82.18-82.13c0-45.371-36.808-82.18-82.18-82.18Zm0 28.864c29.452 0 53.317 23.866 53.317 53.317 0 29.453-23.865 53.317-53.317 53.317s-53.317-23.864-53.317-53.317c0-29.451 23.865-53.317 53.317-53.317Z" fill="#EFE1C6"/></g><defs><clipPath id="clip0_1337_21"><path fill="#fff" d="M0 0h320v320H0z"/></clipPath></defs></svg>