<svg xmlns="http://www.w3.org/2000/svg" id="Layer_1" xml:space="preserve" overflow="visible" viewBox="0 0 317.147 436.483" version="1.1"><g clip-rule="evenodd" fill-rule="evenodd"><path fill="#4C721D" d="M133.02 11.151c16.974 15.568 23.936 49.703 22.302 76.464 2.936 2.842 1.005-3.675 4.779-2.39-.223 1.815.192 2.994 1.593 3.186-2.768 2.431-9.962-.058-15.93.796-.753-7.211-4.125-11.805-7.965-15.93-5.01-20.399 1.08-44.398-4.78-62.126zm15.13 75.668c-1.14-21.149-.916-49.877-10.354-65.313 6.88 15.368 6.92 44.12 10.35 65.313z"/><path d="M156.12 14.337c4.177 4.319-.477 17.468 2.389 23.099-1.568 1.817-2.676.927-4.779 3.186-2.524-1.737-.917-6.029 3.186-5.576-.99-6.186-.86-13.481-.8-20.709zM137.8 21.505c9.439 15.437 9.215 44.165 10.354 65.313-3.43-21.192-3.47-49.944-10.35-65.313z"/><path fill="#4C721D" d="M192.75 39.825c.914.281 2.019 1.402.797 1.593-7.656 14.115-15.952 27.591-17.523 47.79-3.337.987-8.819-.179-12.744 0-5.38-25.489 16.7-36.776 29.46-49.383zm-8.76 13.541c-.09-.972-.238-1.886-1.593-1.593-5.991 9.938-13.165 18.695-15.133 32.657 4.94-10.988 8.75-23.106 16.72-31.064z"/><path d="M167.27 84.429c1.969-13.961 9.142-22.718 15.133-32.657 1.355-.293 1.503.621 1.593 1.593-7.97 7.959-11.78 20.077-16.72 31.064z"/><path fill="#4C721D" d="M161.69 57.348c-2.754.63-3.362-.885-4.779-1.593.49-2.853 5.09-1.058 4.78 1.593z"/><path d="M130.63 57.348c2.593.062 1.7 3.61 2.39 5.576-1.362.167-2.063-1.358-2.39 0-1.97-.769 1.09-3.059 0-5.576z"/><path fill="#4C721D" d="M161.69 59.738c.778 3.208-4.76 3.208-3.982 0 1.98-.088 2.46-1.493 3.98 0z"/><path fill="#4C721D" d="M158.5 62.924h3.186c.152 3.629-2.074 5.355-4.779 3.982.34-1.519 2.28-1.441 1.59-3.982zM161.69 66.906c2.549.187 1.826 5.167-.796 4.779-.1-1.963-.12-3.837.8-4.779zM180.81 73.278c2.541-.683 2.463 1.253 3.982 1.593-1.149 2.568-1.718 5.716-5.575 5.576.89-3.186 2.78-3.606 1.59-7.169zM158.5 74.075c3.643-.697 3.189 6.288-.796 4.779-1.39-2.821.54-1.959.8-4.779z"/><path d="M151.34 93.987c2.38.274 3.171 2.139 3.982 3.982-2.3-.351-3.63-1.678-3.98-3.982zM170.45 94.784c-1.015 1.906-2.598 3.243-5.576 3.186.43-2.495 2.98-2.87 5.58-3.186zM122.66 101.95c5.698.674 3.824 8.92 8.761 10.354-1.251 2.5-1.624 2.16-.796 5.576-4.89-3.07-5.82-10.1-7.96-15.93zM158.5 105.94c4.668-.069 10.426 9.641 11.151 13.541-4.88-3.35-7.19-9.27-11.15-13.54zM178.42 105.14h3.186c.92 2.76-4.46 3.7-3.19 0zM150.54 107.53c-3.098 3.008-7.334 4.879-8.762 9.558-3.03-3.23 4.02-8.92 8.76-9.56zM199.12 108.32c-3.228 2.613-6.433 5.249-10.354 7.168 2.64-3.2 5.18-6.5 10.35-7.17zM118.68 117.09c1.401.192 1.816 1.37 1.593 3.186h-2.39c-.34-1.67.55-2.12.8-3.19zM116.29 119.48c.207 2.597-.946 3.833-3.186 3.983-.2-2.6.95-3.84 3.19-3.98zM152.13 119.48c1.287-.224 1.372.753 2.39.797-.142 3.575-1.107 6.326-4.779 6.372-.45-3.65 1.95-4.43 2.39-7.17zM221.43 119.48c.64.421 1.293.831 2.389.797-.101 2.288-.996 3.782-3.982 3.186-.13-1.99 1.25-2.48 1.59-3.99zM101.95 122.66c4.283 2.621 3.587 10.219 7.965 12.744-.117 1.741-2.007 1.71-3.982 1.593-1.14-4.58-5.15-10.04-3.99-14.33zM136.2 123.46c4.635 4.923 8.036 11.08 11.151 17.523-6.1-3.46-9.13-9.98-11.15-17.52zM203.11 123.46h2.389c1.585 2.167.894 7.379-2.389 7.168-1.53-1.96 2.22-4.21 0-7.17zM175.23 126.64c-1.482 4.432-7.068 12.045-14.337 15.134 3.77-6.05 8.59-11.05 14.34-15.13zM179.21 127.44c6.704 2.593 11.676 13.808 20.709 16.727-8.26 2.02-15.36-10.55-20.71-16.73zM127.44 129.83c.713 1.089-4.739 12.883-9.558 11.151 3.06-3.85 5.95-7.85 9.56-11.15zM227.8 131.42c1.439 1.365-.244 3.132-2.389 3.186-.22-2.08.29-3.43 2.39-3.19zM234.17 133.81c2.551 1.838-1.386 3.861-3.982 3.186.19-2.2 2.96-1.82 3.98-3.19zM216.65 141.78c-4.263 1.578-2.505 9.177-8.762 8.762 2.59-2.88 3.43-11.22 8.76-8.76zM239.75 141.78c.8-2.004 3.521.634 3.186 2.39-2.976-.852-2.27 1.978-4.778 1.593-1.58-2.99 4.08-2.7 1.59-3.98zM94.784 142.57c2.614 1.248 3.512 1.184 5.576 1.593.58 2.173-1.583 1.603-1.593 3.186-2.425-.49-4.073-1.77-3.983-4.78zM234.97 143.37c2.396-.803 1.411 1.775 1.593 3.186h-2.39c-.34-1.67.55-2.11.8-3.19zM152.93 144.17c3.751 4.818 9.78 11.361 11.151 15.93-5.105-2.329-7.343-7.524-9.558-12.744-5.793 3.5-6.712 11.873-12.744 15.133 2.03-7.8 7.56-12.09 11.15-18.32zM227.8 144.17h2.39c.88 2.297 1.931 7.858-2.39 7.168 1.3-2.57.38-4.32 0-7.17zM176.82 146.56c4.479 1.661-3.734 5.006 0 8.762-3.339.419-3.157-2.684-3.982-4.779 1.64-1.02 4.04-1.27 3.98-3.98zM120.27 148.15c3.041 5.19 7.977 8.484 10.354 14.337-4.77-3.01-11.45-8.08-10.35-14.34zM85.226 149.74c2.516 3.591 4.632 7.581 7.169 11.151-4.725-.99-8.145-7.05-7.169-11.15zM113.1 153.72c-2.203 6.293-7.009 9.982-9.558 15.93.21 4.569 4.867 4.691 5.575 8.762-5.885.044-6.515-5.167-8.761-8.762 4.78-4.78 5.73-13.38 12.74-15.93zM203.11 154.52c-4.335 4.692-8.589 9.465-11.151 15.93-1.97-4.87 4.16-14.77 11.15-15.93zM79.65 165.67h4.779c-2.026 1.957-2.246 5.719-3.186 8.762-2.937-1.15-.713-4.51-1.593-8.76zM117.09 165.67c2.42.982-.864 2.739 0 4.779h-3.186c-.14-2.79 2.69-2.62 3.19-4.78zM153.72 201.52c-14.9-.233-11.335-18.932-18.32-27.081-27.493 1.181-20.929 36.418-40.622 45.4 10.725-9.877 16.522-44.512 32.657-48.586 6.826-1.724 9.854 2.103 13.541 5.575.7 11.78 5.17 19.8 12.74 24.7z"/><path fill="#F4DC00" d="M258.86 171.25c.122 1.981-1.252 2.466-1.594 3.982-1.83-.63-.77-4.93 1.59-3.98z"/><path d="M143.37 176.03c4.457 2.446 7.734 6.072 11.151 9.558-1.13-.068-2.255-.131-2.39.796-4.44-1.94-6.95-5.8-8.76-10.36zM94.784 177.62c3.233 1.225-1.464 5.146-3.186 6.372-2.748 3.889-2.784 10.491-7.965 11.947 3.214-6.61 6.031-13.62 11.151-18.32zM261.25 178.42c1.579.547 2.429 5.821-.796 5.576.01-2.12-.29-4.56.8-5.58zM73.278 181.6c1.167 6.619 7.318 12.211 7.965 16.727-6.253-3.039-6.934-11.651-11.947-15.93.727-2.68 1.48-.4 3.982-.8zM94.784 192.75c3.338-.948 1.422 3.357 3.186 3.982-.551 1.573-2.125 2.124-3.982 2.39-.974-1.06.07-4.6.796-6.37zM60.534 195.14c2.571-.713 1.119 2.598 2.39 3.186-1.204 2.513-2.985 4.449-3.982 7.168-3.974-1.95 1.496-7.27 1.592-10.36z"/><path fill="#F4DC00" d="M274.79 206.29c3.154 3.007 3.348 6.801 1.593 11.151 5.426.646 1.021-8.538 6.372-7.965.102-1.429-.975-1.68-.796-3.186-3.881 3.854-4.185-3.877-6.372-6.372 7.421 3.465 11.506 10.265 14.337 18.32-3.012 1.153-1.528-2.188-3.982-1.593-1.327 1.329-1.478 3.833-3.187 4.779.356 3.643 3.427-1.214 3.982.796.24 2.099-1.103 2.614-3.186 2.39 1.184 4.264-2.064 8.46 1.593 10.354 1.816-1.104.297-5.544.797-7.965 1.786.869 1.399 3.91 3.186 4.779-2.239 2.251-1.064 7.603-1.593 9.558-6.47-9.7-17.13-19.16-12.74-35.05zm9.56 9.56c1.788-1.075.744-5.991-.796-6.372 1.28 2.76-2.99 6.12.8 6.37z"/><path d="M73.278 206.29c-.026 6.442-7.6 17.441-17.523 19.116-3.318-3.585-4.601-9.206-7.169-13.541 2.274 1.192 8.345 5.451 9.558 10.354 6.062-4.29 9.327-11.38 15.134-15.93zM224.61 266.83c-2.641-.015-.809-4.501-2.39-5.575-18.92 14.809-50.618-12.736-51.772-32.657-.77-13.281 4.858-22.185 18.319-19.913 13.724 2.316 31.066 19.579 35.046 33.453 2.85 9.92-.95 17.57.79 24.69zm-23.09-48.59c.621-.176.926-.667.796-1.593-3.969.236-1.001 6.181-2.389 7.169-.367-2.554-3.616-2.225-3.983-4.779 1.976.117 3.866.148 3.983-1.593-.963-.168-.49-.884 0-1.593-1.488-1.559-2.917-.246-4.779 0 .044-1.018 1.021-1.103.796-2.39-3.686-1.214-12.523-4.461-15.93-.796 5.86 3.656 9.913 5.415 15.133 6.372-2.501.402-3.254-1.877-3.982.796 3.893 1.354 5.122 8.028 10.354 5.576-.01 1.583-2.173 1.013-1.593 3.186 4.05 1.502 6.414 9.64 10.354 6.372 1.046 7.413 7.84 12.272 12.744 19.913.612-3.002-.972-3.808-.797-6.372-1.565-.238-1.579 1.075-2.389 1.593-1.082-3.471 1.897-2.882 2.389-4.779-4.62-11-11.65-23.11-20.7-27.09zm-7.17 8.76c-.372 2.04 2.817 4.516.796 5.576-4.105-2.268-3.195-9.549-7.965-11.151-1.036 1.978 2.337 3.306 0 3.982-5.321-2.784-4.766-13.395-12.744-11.151-1.238 2.831 2.705.48 2.39 2.389-5.331 6.05-3.508 21.376 2.39 25.488 7.012-23.205 33.344 2.821 23.098 19.912 5.675 1.138 13.9 1.556 17.523-1.593-2.037-3.805-4.272-7.41-5.576-11.947-2.73-.142.07 2.69-3.186 3.186-1.283-4.558-1.619-10.062-4.779-12.744-.864 2.04 2.419 3.798 0 4.779-5.54-7.46-5.94-10.54-11.94-16.74zm-1.6 27.88c2.732-3.27 1.769-7.384-3.186-7.965-2.89 2.23-.44 7.57 3.19 7.96zM283.56 209.48c1.54.381 2.584 5.297.796 6.372-3.8-.25.47-3.61-.8-6.37zM250.9 215.85c3.606.523 1.067 6.982-2.389 5.576.74-1.92 1.45-3.86 2.39-5.58z"/><path fill="#FFF" d="M144.96 218.24h1.593c7.648 5.839 5.169 23.931-.796 29.47-7.69-24.569-38.615-.121-27.878 19.116-6.676 1.246-11.858.735-15.133-3.186 1.027-2.159 1.949-4.423 1.593-7.966 4.621-1.485 7.951-4.262 8.762-9.558 1.836-.244.885 2.301 2.389 2.39 1.833-1.618 2.138-4.766 2.39-7.965 4.172 2.503 4.422-2.751 5.576-5.576 5.785 2.113 5.615-7.31 9.558-9.558 2.334.675-.476 2.564 0 3.982 5.77-.071 3.606-8.076 8.761-8.761 1.849 1.836-1.474 2.568-.796 5.575 3.31-.68 2.38-5.59 3.99-7.96z"/><path d="M124.25 220.63c-1.342 2.657.506 2.719.796 5.575-3.011-.175-3.868-2.504-6.372-3.186 1.53-2.55 3.05-.49 5.57-2.38zM215.06 232.58c-.803 3.103-2.742.123-5.576.796.105-1.964.121-3.837-.796-4.779-2.127-.003-1.731 2.517-3.982 2.389 3.135-4.49-4.126-6.624-2.39-9.558 1.66 1.526 3.319 3.053 3.983 5.575 5.64-2.66 3.06 6.09 8.77 5.58z"/><path fill="#F4DC00" d="M292.32 221.43c-.15 3.036-1.132 5.241-3.982 5.575-.88-1.45-.49-6.97 3.98-5.57z"/><path d="M78.057 226.21c.975 3.629-2.185 3.125-1.593 6.373h-3.982c1.55-2.43 1.448-6.52 5.575-6.37zM93.987 229.39c1.002.197.803 1.584 0 1.593-6.329 5.354-6.188 17.176-14.337 20.709 4.956-7.25 7.709-16.71 14.337-22.3zM50.976 230.98c-2.147 3.959-6.381 5.832-8.761 9.559-.9-3.83 5.259-7.47 8.761-9.56zM60.534 234.97c6.035 7.24 10.879 15.671 15.134 24.692-6.827-6.45-11.755-14.8-15.134-24.69zM234.17 238.15c4.728 2.979 8.16 11.478 10.354 14.337-6.14-2.09-7.32-9.13-10.35-14.34zM270.81 243.73h2.39c-.481 3.136 1.174 4.137 2.39 5.576-.905 1.75-2.664 2.646-3.187 4.778-3.27-2.02.29-6.49-1.59-10.36z"/><path fill="#FFF" d="M189.57 246.92c4.954.581 5.917 4.695 3.186 7.965-3.64-.39-6.09-5.73-3.19-7.96zM135.4 250.9c1.549 4.37-2.126 6.409-5.575 7.965-1.09-2.76.09-9.23 5.58-7.96z"/><path d="M35.046 253.29c4.254 14.613 13.474 28.452 16.727 41.418-8.192-12.93-13.378-24.49-16.727-41.42zM245.32 253.29c2.592 2.109-2.167 9.099-7.168 8.761 2.14-3.18 5.82-4.8 7.17-8.76zM290.72 259.66c4.455-1.27.312 6.061 3.982 5.575-2.11 4.11-4.95-1.66-3.98-5.58zM168.06 269.22c-2.436.578-2.343-1.374-4.779-.797.19-2.55 5.17-1.82 4.78.8zM289.93 269.22c3.222.897-.061 4.646 0 7.169 2.981-.092 7.697 3.502 6.372 7.168-2.823-.324-1.574-3.483-4.779-1.593 1.811-2.863-.596-5.27-2.39-2.39-2.231-.424-1.473-3.838-2.39-5.575 2.68.02 2.15-3.16 3.19-4.78zM172.04 270.02c-.097 2.026-1.159 3.089-3.186 3.186-.54-2.68 1.35-2.92 3.19-3.19zM162.49 270.81h2.389c2.45 3.88-1.32 7.44-3.982 8.762-.066-1.261.383-3.038-.796-3.186.628-2.986 2.786-.05 3.982-1.594.59-2.45-2.19-1.53-1.59-3.98zM182.4 272.4c.074 2.464-2.405 2.374-4.779 2.39-.03-2.41 2.8-1.98 4.78-2.39zM70.092 273.2c-3.841 5.186-6.843 11.211-10.354 16.727-.294-6.15 3.965-14.62 10.354-16.73zM173.64 274c3.079 3.252-1.44 12.238-7.168 11.947 2.97-3.5 7.19-7.86 7.17-11.95zM183.99 282.76c-1.892-.498-3.708-1.071-3.982-3.187 2.15-2.05 3.84.84 3.98 3.19zM289.13 281.16c3.308.619 1.418 8.492 0 9.559-3.113-4.134-3.665-.631-7.965 0-.639-3.294 2.893-2.417 2.39-5.576 2.959.792 2.082 1.701 5.575.797.984-2.577-2.577-.608-1.593-3.186.72-.35 1.43-.69 1.6-1.59zM166.47 282.76c-.941 1.183-.689 3.559-3.186 3.186-2.15-1.88 1.32-5.35 3.19-3.19zM159.3 283.56c.98.348 1.636 1.02 1.593 2.39-1.657.45-2.574 2.275-3.982.797-.7-2.57 2.07-1.66 2.39-3.19z"/><path fill="#7E543A" d="M187.98 283.56c1.577 2.909-1.399 3.884-2.39 6.372-3.53-1.39.39-5.6 2.39-6.37z"/><path d="M249.3 283.56c3.383 2.301 1.868 7.205 2.39 8.762-.197.865-1.584.54-1.593 1.593-3.27-2.07-.2-7.77-.8-10.35z"/><path fill="#7E543A" d="M155.32 292.32c.641.422 1.293.831 2.39.797-.424 2.231-3.837 1.472-5.576 2.389.08-2.05 3.11-1.15 3.19-3.19z"/><path d="M30.267 294.71c6.135 3.72 4.642 18.312 12.744 17.522-1.155 1.501-1.171 4.14-3.186 4.779-6.062-4.56-6.416-14.83-9.558-22.3z"/><path fill="#F4DC00" d="M294.71 294.71c.557 2.945-1.26 3.519-3.982 3.186.14-2.25 1.38-3.4 3.98-3.19z"/><path d="M82.04 298.69c-1.847.254-3.058-.128-3.982-.797.146-2.45 4.289-1.67 3.982.8z"/><path fill="#F4DC00" d="M296.3 301.08c.865.196.54 1.584 1.593 1.593-1.313 6.367-1.535 9.442-3.187 15.93-5.604-1.275-2.312-4.089-3.186-7.965.709-.618 1.799-.856 3.186-.796-.32-3.78.39-6.52 1.6-8.76z"/><path d="M53.366 306.65c-5.654 4.966-7.948 13.292-11.948 19.913-.349-7.3 4.339-20.54 11.948-19.91zM236.56 307.45c3.092 2.218 5.276 5.344 7.169 8.762-3.98-1.33-5.8-4.82-7.17-8.76zM60.534 310.64c4.321 3.987 9.361 11.243 9.558 16.727-4.203-4.57-7.302-10.23-9.558-16.73zM278.78 315.42c-3.263.72-.821 7.144-5.575 6.372 1.854-3.125-.975-2.961-.797-6.372 3.58 1.68 3.56-1.8 6.38 0zM288.33 319.4c2.098-.24 2.613 1.103 2.389 3.186h-2.389v-3.19zM281.17 320.99c3.259.367 1.13 7.629-2.39 6.372-1.64-2.03 2.41-3.48 2.39-6.37zM222.22 321.79h2.39c.737 3.222 1.836 8.496-2.39 8.762 1.08-3.45.38-5.06 0-8.76zM41.418 328.96c3.428 6.453 9.462 14.356 9.558 21.506-3.81-4.25-8.565-12.06-9.558-21.51zM251.7 329.75c5.72 4.104 6.758 12.889 13.541 15.93-1.915 3.737 2.795 4.981 4.778 7.169.934-.129.672-1.452.797-2.39 7.246 4.396-4.933 9.449-.797 15.931-.709.618-1.799.855-3.186.796-.178 2.377 2.94 2.708.796 4.779-.979-.348-1.636-1.02-1.593-2.39-5.059 3.172-4.833 11.628-12.744 11.947-.235-3.422 3.779-2.592 4.779-4.778-2.208-2.8-5.538 2.867-7.169.796.029-3.954 5.866-2.1 7.169-4.779-.335-1.789-4.227-.021-4.779-1.593 1.276-2.304 2.978-.962 4.779 0 1.505-3.008.687-8.341 4.779-8.762.798 2.003-1.883 6.318-3.187 8.762 6.289 2.307 3.671-7.755 5.576-13.54.635-1.931 2.514-2.319 2.389-3.187-.304-2.111-5.652-6.2-7.168-9.558-2.41-5.32-8.91-10.09-8.77-15.14zM97.97 330.55h3.186c-1.077 2.64-1.066 6.367-4.779 6.372-2.125-2.35 2.953-2.34 1.589-6.37zM271.61 332.94c-2.174-.072-1.604 1.326-3.187 0a1.704 1.704 0 0 1 3.19 0zM115.49 332.14c3.447 1.888-5.809 4.062-3.982 9.558-5.159 4.134-5.579 13.006-12.744 15.134 5.044-8.76 9.024-18.59 16.724-24.69zM68.499 332.94c3.447 1.704-4.875 5.849-1.593 10.354-6.536 7.271-9.837 17.774-15.134 26.284 2.736-15.05 10.953-24.62 16.727-36.63zM289.93 332.94h2.39c.762 1.483-2.386 2.661 0 3.186-1.54 2.73-3.26-.91-2.39-3.19zM80.447 336.92c5.417 6.265 9.45 13.914 15.93 19.115-7.348-1.21-13.547-10.31-15.93-19.12zM31.86 337.72c1.202.387 3.207 9.992-1.593 8.762-.331-3.78.387-6.52 1.593-8.76z"/><path fill="#EE3224" d="M183.2 342.5c-3.771 11.894-7.542 23.787-18.32 28.674-19.599.482-25.531-12.7-29.471-27.877 6.348 1.748 13.275 2.393 19.116 7.965 2.265 6.557.338 13.416 7.168 14.337 1.25-13.16 8.25-24.56 21.5-23.1z"/><path d="M248.51 348.07c4.279 1.868 6.328 7.918 0 8.762 1.67-4.27-2.17-4.98 0-8.76zM199.92 348.87c4.049 2.315 1.085 14.506-3.983 10.354.629-1.761 2.786-1.993 3.983-3.187-.246-1.878-2.766-1.481-2.39-3.982 2.2.35.75-2.97 2.39-3.18z"/><path fill="#F1E5C8" d="M302.67 350.46c2.173-.58 1.603 1.583 3.186 1.593.438 1.767-1.521 1.135-1.593 2.39 2.396 3.507 5.359 2.561 10.354 2.39-.786 4.343-10.373 4.088-11.947.797-2.391 3.528 3.709 5.789 7.168 3.982-1.045 4.15-10.521 7.073-11.947 1.593-2.521 2.316.964 5.363 3.982 4.779.373 2.496-2.003 2.245-3.186 3.186-2.027-.097-3.089-1.159-3.187-3.186-3.129.763-.723 4.759 2.39 3.982-.117 1.741-2.007 1.71-3.982 1.593-1.979-.94-.8-5.042-3.187-5.575-2.428.974 1.165 3.04-.796 3.982-1.877-.018-2.346 1.372-4.779.796.224-2.696 1.268-4.573.797-7.965 9.61-.76 14.4-6.33 16.74-14.34z"/><path d="M75.668 354.44c1.286-.225 1.371.753 2.389.797-.922 2.529-.421 6.481-3.982 6.372-1.729-2.13 1.451-4.44 1.593-7.17z"/><path fill="#F1E5C8" d="M5.576 355.24c3.136.05.542 5.829 3.982 5.575 3.14.22 2.436-3.405 5.575-3.186 2.154 4.749 6.112 7.694 12.744 7.965.7 2.949 2.917 6.633 0 8.762-2.083-.307-2.225-2.555-5.575-1.594-2.21-1.191 1.382-3.258-.797-3.982-2.525 2.722-4.792 8.359-9.558 6.372 1.817-3.758 7.31-3.84 7.965-8.761-4.381 1.375-8.291 9.293-12.744 5.575.548-3.435 6.385-1.58 7.168-4.779-2.785-1.953-6.013 2.456-10.354 1.593-.335-1.522-.289-3.428-2.39-3.186 2.008-2.924 3.443-1.468 7.965-1.593-.316-2.871-3.941-2.431-5.576-3.982.264-1.87.959-3.3 1.595-4.79z"/><path d="M125.05 356.04c4.673-.862 5.299 6.671.796 6.372-.48-1.91-1.15-3.64-.8-6.37zM271.61 360.82h2.389v3.187c-2.66.79-2.62-1.11-2.39-3.19zM60.534 363.2c4.487 6.133 8.271 12.969 11.948 19.913-5.03-5.58-9.611-11.62-11.948-19.91zM102.75 363.2c4.521 7.467 13.243 14.845 16.727 20.709-8.14-4.34-13.68-11.28-16.73-20.71zM92.395 366.39c-3.976 6.113-10.086 10.092-12.744 17.522-3.782-2.364-3.244 2.685-7.168 2.39 2.26-5.772 9.958-12.825 14.337-19.116.852 2.976-1.978 2.271-1.593 4.779 3.314-.93 3.308-5.18 7.168-5.57zM252.49 366.39c1.4.191 1.815 1.37 1.593 3.186h-2.39c-.33-1.67.55-2.11.8-3.19zM147.35 370.37c-7.388 6.152-10.424 16.656-19.913 20.709 6.32-7.22 10.57-16.5 19.91-20.71zM180.01 371.97c5.518 3.514 9.947 9.609 10.354 15.93-3.8-2.22-6.52-9.95-10.35-15.93zM59.738 375.15c3.08-.229 4.98 8.195.796 7.966.558-3.48-1.354-4.49-.796-7.97zM268.42 376.75c1.286-.225 1.371.752 2.39.796-.695 1.164-.633 3.085-3.187 2.39-.1-1.44.98-1.69.8-3.19zM221.43 380.73c4.423 1.649-.982 8.073.796 14.337-2.115-.009-4.549.301-5.575-.797 4.65-1.44 2.93-9.27 4.77-13.54zM263.64 380.73c1.265 4.528-5.473 3.608-5.575.796 2.97-.55 2.09-.39 5.58-.8zM269.22 381.52c.057 2.387-2.344 4.042-3.982 2.39.72-1.39 1.48-2.76 3.98-2.39z"/><path fill="#F4DC00" d="M273.2 383.91c1.286-.225 1.371.753 2.39.797-.098 2.026-1.159 3.089-3.187 3.186-.25-1.85.13-3.06.8-3.99z"/><path d="M262.05 385.51c2.281-.156 4.347-.099 3.982 2.39-2.28.15-4.35.1-3.98-2.39zM159.3 399.84c-.596-4.048.794-6.109 3.187-7.169-.462-2.192-1.983-3.327-2.39-5.575 5.41-1.27 6.32 12.58-.8 12.74zM101.95 388.69h2.39c.972 1.205 1.564 6.86 0 7.965-3.04-.41-1.04-5.86-2.39-7.97zM71.685 391.88c-.873 2.845-2.731 4.703-5.575 5.576.873-2.85 2.731-4.71 5.575-5.58zM83.633 392.68c6.385 6.359 10.227 15.261 17.523 20.709-.941.917-2.815.901-4.779.797-2.25-9.16-14.8-12.91-12.748-21.51zM191.16 394.27c-9.091 7.37-15.035 17.888-26.285 23.099 8.39-9.68 15.55-16.91 26.28-23.1zM122.66 396.66c-6.063 4.87-10.426 15.529-17.523 16.727 5.21-6.21 8.85-13.98 17.52-16.73zM249.3 396.66v2.39c-1.411-.182-3.988.803-3.186-1.593.72-.62 1.81-.86 3.19-.8z"/><path fill="#F4DC00" d="M261.25 399.05c2.506-.912 1.936 1.25 3.187 1.593-3.324.394-.931 6.504-5.575 5.575.21-2.99 1.92-4.46 2.39-7.17z"/><path d="M246.92 402.23c-.552 2.634-1.893 4.479-2.39 7.169-5.01-.66-.04-6.6 2.39-7.17zM78.854 409.4c1.996-.138 1.933 1.783 3.186 2.39-.953 3.778-8.204 5.795-10.354 1.593 2.335-4.65 6.445 1.85 7.168-3.98zM202.31 414.18c.254 1.847-.128 3.058-.796 3.982-1.837.243-.885-2.302-2.39-2.39.2-1.4 1.38-1.81 3.19-1.59zM196.74 418.96c-.003 3.189.418 5.954 3.982 5.576-1.327 1.582.072 1.013 0 3.186-3.115-1.664-5.713-3.845-6.372-7.965-2.142 1.575-3.925 3.509-7.965 3.186.179-2.74 3.283-2.558 4.779-3.982-.204-1.653-3.5-.217-3.982-1.593 2.96-4.67 5.1 2.7 9.56 1.58zM123.46 416.57c2.256.83 3.319.83 5.576 0 .155 2.05-.996 8.873-5.576 8.761 1.05-3.57 2.32-5.59 0-8.76zM204.7 416.57c2.303.352 3.631 1.679 3.982 3.982-3.254-.24.134 1.103-.796 3.186-4.44-.64-.38-4.88-3.18-7.17zM178.42 418.96c2.807 1.177 3.522 4.443 7.168 4.779-2.632 2.321-6.169-1.23-7.168-3.186-2.733.557-5.497 4.079-7.965 2.389 1.02-2.95 5.79-2.16 7.96-3.98zM146.56 421.35c-2.586-.462-3.706.543-5.576.797.518.81 1.832.823 1.593 2.39-2.87-.316-5.075-1.298-5.575-3.982 3.67 1.41 8.46-3.2 9.56.79zM135.4 423.74c1.249 2.737-5.333 3.78-4.779.797.95-.92 2.82-.9 4.78-.8z"/><path fill="#F4DC00" d="M163.28 431.7c-1.625 1.601-1.562-.352-3.186-.796.15-2.3 3.79-1.91 3.19.8zM143.37 431.7c-.178 2.478-3.964 1.346-6.372 1.594.42-2.92 4.29-2.39 6.37-1.59zM221.43 434.09h-7.965c.61-2.12 8.1-4.31 7.97 0z"/><path fill="#4C721D" d="M223.02 436.48H111.51c1.41-3.887 16.503-1.671 24.692-1.593 26.72.25 67.46-.01 86.82 1.59z"/><path d="M240.54 436.48h-17.522c-19.366-1.604-60.104-1.34-86.819-1.593-8.189-.078-23.282-2.294-24.692 1.593h-3.982c-2.891-4.277-12.651-1.686-19.116-2.39 2.287-8.748-11.446-8.135-15.133-13.54-2.332-.208-2.447 1.801-4.779 1.593.219-7.375-7.287-11.096-6.372-21.506-6.669-.5-6.099-8.238-12.744-8.762.963-11.968-10.764-17.822-11.151-31.063-3.798.45-1.95 6.547-7.965 4.779 2.749 5.409 1.064 10.991-4.779 11.947-2.989.6-1.737-3.042-3.983-3.186-10.164 8.06-16.872-3.17-21.508-6.37v-4.779c1.624-.444 1.562-2.396 3.186-.797-.154-3.87-.181-7.614 1.593-9.558 1.876-.018 2.345 1.372 4.779.797 2.471 2.133-2.088 3.028 0 4.778 2.5.377 2.104-2.144 3.982-2.39-2.487-2.823-2.627-7.993-4.779-11.15 4.092-7.06 10.85-11.452 12.744-20.709 2.509-.893 1.804-.072 4.779 0-4.866-4.824-3.899-12.487-4.779-19.913 1.665.338 2.109-.546 3.186-.796 1.838-13.655.092-24.721-3.982-35.843 6.258-.899 7.491-9.301 7.168-14.337 4.042 1.386 1.853-3.457 4.779-3.187-2.802-11.181 2.264-20.085.796-29.47 12.224-7.585 14.685-19.695 13.541-34.25 13.511-6.401 21.169-18.656 23.099-36.639 8.354-1.47 12.249-7.398 14.337-15.133 11.069-4.064 13.024-17.244 22.302-23.099.385-2.509-2.445-1.803-1.593-4.779 12.012-.135 18.346-12.307 27.081-18.32-5.463-15.511-12.412-29.537-25.488-37.436 4.173-3.381 8.809 4.436 12.744 6.372 1.902-1.443.449-6.237 0-7.965 4.284-8.155-1.058-19.327-3.186-23.098 7.928 2.161 13.047 7.131 16.727 13.541 2.486-12.931-.827-22.891-3.982-33.453 9.314 2.898 13.192 11.233 16.727 19.913 2.785-9.368 9.623-18.237 11.151-26.285 3.103.083 2.913 3.459 3.186 6.372 3.877 7.008 8.842 12.929 10.354 22.302 3.485-3.152 4.212-9.062 8.762-11.151-1.49-2.907-.401-6.329 1.593-7.965.795 10.199 2.92 24.736 3.186 35.046 7.152-2.937 10.258-9.92 17.523-12.744-1.709 7.052-7.174 10.349-9.558 16.727 3.717 1.307 6.243-5.424 10.354-6.372-6.753 13.957-10.084 31.333-21.505 40.622 1.899 2.208 4.306 2.613 1.593 5.576 2.027.411 3.089 1.357 3.186-1.593 10.288 2.457 14.019 11.469 19.913 18.319 6.875-.502 9.686 3.058 11.948 7.168 5.568-1.055 5.669 3.358 9.558 3.982-.791 10.88 10.133 10.045 12.744 17.523 1.919.326 1.731-1.455 3.982-.797 3.866 11.533 11.699 19.099 19.912 26.285-2.988 10.497 5.89 15.827 12.744 19.116-1.493 4.981.982 11.225 4.779 15.133-.524 1.069-1.702 1.484-3.187 1.593 4.934 8.43 13.292 16.535 16.727 28.674-2.429 2.369-1.892 10.076-.796 13.54.372 2.497-2.003 2.245-3.187 3.187.181 1.147 2.378.277 2.39 1.593-3.128 6.632 3.171 10.141 4.779 16.727 1.747 7.151-1.379 15.899 3.186 23.896-4.424 6.342-2.713 16.805 0 23.895-6.38 10.179-7.358 28.112 3.983 35.843-.263 1.861-.958 3.291-1.594 4.779 2.719 1.529 4.526 3.97 4.779 7.965 2.927.259 7.052-.68 8.762.796 1.324 4.74-7.128 6.676-11.947 11.151-3.712 3.446-7.116 12.782-14.338 5.575-1.932 1.254-3.401 2.971-7.168 2.39-1.495 3.55-2.554 7.536-2.39 12.744-10.095 1.322-11.978 10.856-17.523 16.727-.794 3.449.89 4.421 1.594 6.372-3.242 4.988-10.511 5.951-14.338 10.354-.325 1.919 1.455 1.731.797 3.982-5.142 3.048-11.01 5.119-14.337 7.966.53 1.65 4.05.25 3.21 3.21zm-54.16-363.2c2.332-5.622 9.931-13.616 6.372-19.913 1.19-1.2 4.541-.238 3.983-3.186-3.695-.575-8.358 4.24-8.762 9.558 3.009-.177 2.277-4.095 4.779-4.779-2.862 4.027-3.989 9.439-5.575 12.744-2.324.2-2.748-1.5-3.982-2.39-.636 1.488-1.331 2.917-1.593 4.779 2.324.199 2.748-1.5 3.982-2.39-.09 2.678-1.6 4.215.79 5.577zm-37.43-46.993c6.871 1.921 1.457 4.629 3.983 7.965-1.816-.223-2.994.192-3.186 1.593 1.824 1.362 1.883 4.489 2.389 7.169 3.206-1.891 1.956 1.269 4.779 1.593 2.163.57-.57-3.756 1.593-3.186 2.646.925 1.256 5.534-.796 6.372-2.554-.367-2.225-3.616-4.779-3.982-.426 3.081 1.421 3.888.796 7.168 3.188 1.9 4.484.782 7.965 2.39-1.452-7.151 4.497-10.396.797-15.134h3.186c6.794-11.611-2.755-23.711-8.761-31.86-1.84 7.448-7.59 10.989-7.96 19.912zM137.8 73.28c3.84 4.125 7.212 8.718 7.965 15.93 5.968-.854 13.162 1.635 15.93-.796-1.401-.192-1.815-1.371-1.593-3.186-3.774-1.286-1.843 5.231-4.779 2.39 1.634-26.762-5.328-60.896-22.302-76.464 5.86 17.727-.23 41.726 4.78 62.126zm26.28-8.761c3.012-.439 3.246-3.657 4.779-5.576-.688-8.841 3.733-25.143 8.762-33.453-.418 9.008-9.762 19.585-4.779 26.285-3.496-.575-3.186 2.656-3.186 5.576 4.87-3.095 7.27-8.661 12.744-11.151.217-10.041-2.688-16.959-3.186-26.285-8.52 11.582-18.44 25.86-15.12 44.604zm-41.42-5.576c2.127 3.788 10.932 9.065 12.744 4.779-3.499-2.102.546-10.345-3.982-11.151-.136 1.192.285 2.939-.796 3.186.89-4.076-3.172-3.2-3.186-6.372 2.726-1.299 2.394.095 3.982 1.593.961-1.238 2.545-3.104.796-4.779-2.505-.913-1.935 1.25-3.186 1.593-.167-4.628-4.249-9.536-3.983-11.948 2.48 1.769 3.455 5.041 3.983 8.762 1.82-.653 1.509-1.797 3.186-3.982-3.671-2.182-6.079-9.835-11.151-7.965 5.71 8.055-2.34 19.26 1.6 26.284zm40.62 30.267c3.925-.179 9.407.987 12.744 0 1.572-20.199 9.867-33.675 17.523-47.79 1.222-.191.117-1.312-.797-1.593C180 52.434 157.92 63.721 163.29 89.21zm-6.37-33.453c1.417.708 2.024 2.224 4.779 1.593.31-2.651-4.29-4.446-4.78-1.593zm.8 3.983c-.777 3.208 4.76 3.208 3.982 0-1.52-1.493-2-.088-3.98 0zM137.8 88.414c.593 1.796 4.468.312 6.372.796-3.899-12.298-12.443-24.193-23.099-27.081 6.6 7.472 9.902 18.241 15.134 27.081.327-6.444-6.369-16.984-7.965-21.505 4.68 5.4 6.7 13.469 9.56 20.709zm19.11-21.506c2.705 1.373 4.931-.353 4.779-3.982h-3.186c.69 2.541-1.25 2.463-1.59 3.982zm3.98 4.779c2.622.388 3.345-4.592.796-4.779-.92.942-.9 2.816-.8 4.779zm18.32 8.762c3.857.14 4.426-3.008 5.575-5.576-1.519-.339-1.441-2.276-3.982-1.593 1.2 3.563-.69 3.983-1.59 7.169zm-21.5-1.593c3.986 1.509 4.439-5.476.796-4.779-.27 2.82-2.2 1.958-.8 4.779zm54.96 346.48c-.672 1.505-4.106 4.318-4.779 3.187 1.204-1.982 2.73-3.642 5.576-3.982.401-2.601-3.961-1.688-1.593-3.982 2.137 3.407 6.276 1.606 8.762-.797-7.708-4.986-17.357-13.023-18.32-19.912 8.227 6.787 12.431 19.694 24.692 15.93 1.558-7.639 11.464-17.595 17.522-20.709-4.457 8.645-15.894 13.847-15.133 23.099-1.365 1.374-3.133-1.171-3.187 2.39-.358 2.217 4.342-.625 3.982 1.593-.645 3.868-5.758 3.269-7.168 6.372-.354-1.506 1.083-4.801-1.593-3.982-1.398 3.381-6.813 2.745-7.965 6.372 3.406-.046 5.834-1.069 8.761-1.594 1.746 2.335 2.886 3.507 6.372 2.39-.044 1.019-1.021 1.104-.797 2.39h4.779c.975-4.426-3.649-3.253-5.575-4.779 1.457-4.118 8.595-2.556 10.354-6.372-1.388-.735-4.275.027-3.982-2.389 4.713-.466 7.598.897 10.354 2.389 1.953-1.061-1.436-2.403.796-3.186 2.155 2.691 5.143 2.534 6.372-.797-3.92-3.616-9.737 4.137-11.15-1.593 2.817-.7 4.104 2.046 4.778-.796-2.372-2.169 1.628-4.699 3.983-4.779.533-2.974-2.207-4.674 1.593-4.779-.163 2.492.537 5.848-.797 7.169 1.657.467 2.574 1.674 3.982 2.39 1.213-3.74 2.061-9.357 7.965-5.576 1.263-4.713-4.183-2.72-5.575-4.779-.926 1.51-2.214 6.752-4.779 3.983 2.074-4.299 6.742-6.003 8.762-10.354-3.021-2.819-6.285-5.397-8.762-8.762 3.438.015 2.936 3.968 6.372 3.982 1.893-.849-1.707-3.669.797-4.779 1.076.782 1.592 2.125 2.39 3.187-1.164.694-3.085.632-2.39 3.186 2.809-.469 3.563-.54 6.372-1.593.598-2.722-3.236-1.012-2.39-3.982 3.303-.913 3.104 1.675 5.575 1.593.868-1.533-1.056-5.053 3.187-4.779.984-2.577-2.577-.608-1.593-3.186 1.687-1.765 3.396-3.507 4.778-5.576 2.064 2.353 3.678.204 5.576 2.39-2.305-2.058 1.726-6.306-1.594-6.372-2.162-.569.57 3.756-1.593 3.187-1.748-.725 2.352-5.658-2.39-4.779-2.021.567 1.927 4.547-1.593 4.779-.913-1.008-1.6-6.28 0-7.169 1.907.566 2.933.374 6.372.797.628-3.282-3.813-1.497-3.186-4.779.995-1.439 5.768-3.197 6.372-2.39.8 2.659-1.105 2.612-3.187 2.39.58 3.836 2.862 1.019 4.779 3.187 1.925-9.276-9.922-14.874-8.762-26.285.903-8.88 8.436-17.636 19.116-16.727 1.222-6.532-2.139-8.481-4.779-11.15-2 1.451-1.748 5.154-5.575 4.778-.104-3.819 4.396-3.038 3.982-7.168-1.94-.941-5.04 1.791-7.169 0v-2.39c2.907-.708 4.243 1.406 5.576 0-3.051-7.305-7.905-12.804-11.151-19.913-10.196 5.999-11.448 20.943-21.506 27.081 2.67-11.594 18.337-20.711 17.523-35.842-5.077-5.017-12.135-12.285-13.541-18.32 2.66 2.65 4.788 5.833 6.372 9.559 1.506.179 1.758-.898 3.187-.797 1.856 3.719 4.498 6.652 7.965 8.762 5.46-5.957 7.781-15.052 12.744-21.506.683-2.541-1.254-2.463-1.593-3.982 2.533-.892 7.6-6.939 3.186-9.558-1.853.536-.6 4.179-3.982 3.186.003-.799-.646-.948-.797-1.593 1.047-2.14 3.512-2.86 4.779-4.779-8.229-3.984-10.483-13.942-15.93-20.709-2.979 2.353-4.118.04-6.372.797-3.592 9.42-7.768 22.495-15.931 24.691 5.192-6.225 8.241-14.593 13.541-20.709-1.191-.136-2.939.284-3.187-.797 13.763-11.993-1.844-27.546-11.15-35.046-3.046 6.512-7.312 11.805-11.947 16.727-1.478-3.373 5.069-4.799 4.778-9.558-4.78.265-3.113 6.976-7.168 7.965 1.149-5.646 3.35-9.079 7.168-13.541.851.743.248 2.938 2.39 2.39 1.979-2.722.27-4.855 2.39-7.965-3.324-4.642-7.528-8.402-10.354-13.541 7.119.315 6.81 8.058 11.151 11.151 1.388-2.72 3.129-3.79 5.575-1.593 1.048-2.139 2.139-4.234 3.186-6.372-6.178-2.39.845-11.014 0-11.948-.728 2.166-1.48-2.122-3.982-.796-3.011 2.117-.458 5.807-3.186 7.168-2.673-1.42-.414-3.646-1.593-7.168 2.251.658 2.063-1.123 3.982-.796v-6.372c-1.976.117-3.865.148-3.982-1.593.401-2.501-1.878-3.254.796-3.982.812 2.534 1.543 5.142 4.779 3.186 1.114 3.109 3.351 8.53 7.168 6.372-.74-6.005-14.289-8.869-9.558-12.744-5.399-3.097-7.334-9.658-11.947-13.541-2.21 1.191 1.382 3.258-.797 3.982-1.157-.436-4.116.931-3.982-.796 2.909.242 3.035-4.696 1.593-6.372-3.526-.871-3.961 1.349-6.372 1.593 1.155-5.521-6.126-10.217-4.778-15.93-4.039-2.014-6.096-3.2-9.559-2.39.794-7.511-13.688-9.777-17.523-12.744.524-2.913-1.723-3.055-1.593-5.575-16.799-10.354-37.673-4.641-62.924-6.372-9.046 5.822-15.063 14.673-25.488 19.116-6.067 9.863-11.781 20.079-21.505 26.285.806 6.117-6.113 4.507-4.779 11.151-5.359-.05-5.845 4.775-9.558 6.372-3.223 15.894-11.642 26.59-22.302 35.046-.75 10.557-1.991 13.994-2.39 21.505-6.193 1.506-5.647 9.752-11.151 11.948-1.64 19.155-3.761 34.932-11.948 48.586 2.442 3.93.379 12.365 3.983 15.134-.917 13.086-7.159 27.95-.797 39.028 12.958 4.53 19.475 22.847 10.354 34.25 8.203 14.365 12.649 32.485 26.285 41.418-1.381 8.815 5.058 9.811 5.576 16.727 8.559.729 11.664 9.364 20.709 7.169 1.611-3.699 5.072-5.549 8.762-7.169-.889 5.749-8.505 4.771-8.762 11.151 4.24.539 6.588 2.97 10.354 3.982.326-1.919-1.455-1.731-.796-3.982-3.485-1.162-6.041 1.414-5.576-3.982 1.963 3.348 11.292-.672 10.354 5.575 2.914-1.055 2.976-2.589 5.576-2.39-1.305-3.49-8.643-5.142-5.576-10.354 3.087 5.144 7.432 9.029 11.948 12.744-1.015 1.109-3.902.347-3.982 2.39 6.1-1.275 9.978 1.308 12.744-.797-1.954-.533-2.439-4.635-1.593-5.575 2.073 3.156 3.544 2.11 6.372 3.982-.242-2.101 1.663-2.054 3.186-2.39 2.047.077 1.139 3.109 3.186 3.187 1.113-4.367 6.066-.344 7.965-3.187.125-1.231 4.029-5.507 7.168-6.372.767-2.891-3.579-.669-3.186-3.186 3-.839 3.627 3.451 4.779 0-9.183-4.36-17.877-13.449-19.913-22.303 6.408 8.46 13.232 16.505 22.302 22.303-1.742 2.351-.835 3.225-3.186 5.575 1.65.474 5.232-.984 5.575.797-2.789 1.989-10.735-1.178-9.558 4.778 2.623.563 1.34 5.033 5.576 3.983 2.312-2.895-2.583-3.902-3.186-6.372 6.251-.134 14.077 2.369 19.116.796-.941-1.979-5.042-.799-5.576-3.186 4.17-2.036 8.273 2.146 10.354 4.778 4.014 1.437 7.859-1.908 8.762 2.39-1.505.354-4.8-1.083-3.982 1.594 1.382-.663 8.301 2.109 8.761-.797-.625-1.765-4.931.151-3.982-3.187 5.124-1.907 6.359 4.221 9.558 1.594-1.18-.148-.73-1.925-.796-3.187-1.771-.618-4.319-.46-4.779-2.39 3.17.582 3.202.582 6.372 0-.846 6.688 3.852 7.831 8.762 8.762-2.393-3.398-.084-3.467 1.593-6.372 3.156.246-.891 2.767 2.39 2.39 2.31-.38 6.42-3.09 4.78-4.79zm74.87-183.99c.528-1.955-.646-7.307 1.593-9.558-1.786-.869-1.399-3.91-3.186-4.779-.5 2.421 1.02 6.861-.797 7.965-3.657-1.894-.409-6.09-1.593-10.354 2.083.224 3.426-.291 3.186-2.39-.556-2.01-3.626 2.847-3.982-.796 1.709-.946 1.859-3.451 3.187-4.779 2.454-.595.971 2.746 3.982 1.593-2.831-8.055-6.916-14.855-14.337-18.32 2.188 2.495 2.491 10.226 6.372 6.372-.179 1.506.897 1.757.796 3.186-5.352-.573-.946 8.612-6.372 7.965 1.755-4.351 1.562-8.145-1.593-11.151-4.4 15.89 6.26 25.35 12.74 35.05zm-14.34-47.79c-1.094-3.75-4.493-1.681-7.169-.796a7.177 7.177 0 0 1-3.186-3.186c2.07-2.145 2.402.974 4.778.797 1.493-1.517.088-2.001 0-3.983 3.347-2.075 3.283.652 5.576 1.593 1.1-4.179 2.07-9.362-3.982-8.762-.326 1.919 1.454 1.731.796 3.982-3.606-1.482-1.385 2.863-3.186 3.186h-2.39c.669-.924 1.051-2.135.797-3.982 2.573.822 3.563-4.764 3.186-6.372-1.418-.476-3.308 2.334-3.982 0-.244-1.836 2.301-.885 2.39-2.389-5.252-1.027-3.351-4.331-6.372-7.169-3.983 3.421 1.617 6.146.796 11.151-5.592 1.841-3.317 11.55-7.168 15.133 7.004 3.085 7.88 12.298 15.134 15.134 1.991-3.487-3.561-8.747.796-12.744v3.982c2.854.463 2.422-2.357 2.39-4.779 2.495-.89 4.398.795 5.575-2.39-2.15-2.14-3.05 1.02-4.8 1.6zm-15.93-18.32c.342-1.517 1.716-2.001 1.594-3.982-2.36-.95-3.42 3.35-1.59 3.98zm31.06 51.77c2.851-.334 3.832-2.54 3.982-5.575-4.46-1.39-4.85 4.13-3.98 5.58zm-1.59 81.25c2.357-4.444 1.819-6.89 3.187-11.947-1.523-.335-3.429-.288-3.187-2.39 5.527.704 4.87-5.184 10.354-2.39.23-8.319 2.684-13.552-1.593-19.116.223 1.816-.191 2.995-1.593 3.187-.367-6.686 5.8-15.311-1.593-21.506-4.348 5.957-6.923 15.816-10.354 23.896-1.461 3.438-5.365 6.253-5.576 9.558-.517 8.115 8.795 9.288 8.762 16.727-.19-.865-1.312-1.912-1.593-.796 1.62 1.02.84 4.47 3.18 4.78zm3.98-10.36c2.723.333 4.539-.24 3.982-3.186-2.59-.2-3.83.95-3.98 3.19zm3.99 11.95c-1.387-.061-2.477.178-3.186.796.874 3.876-2.419 6.689 3.186 7.965 1.651-6.487 1.873-9.562 3.187-15.93-1.053-.009-.728-1.396-1.593-1.593-1.22 2.24-1.93 4.98-1.6 8.76zm-256.48 28.67c.003-4.981-2.789.803-3.982-1.593.088-1.505 2.633-.553 2.39-2.39-3.878-3.024-6.724-7.082-12.744-7.965.5 6.24-9.762 10.136-11.151 16.727-2.243 10.643 11.557 24.901 19.913 17.522-3.172-.014-5.61-.762-7.168-2.39 1.053-.009.728-1.396 1.593-1.593 2.477 1.239 6.103 4.058 7.965 0-3.828 3.242-7.134-5.52-2.389-6.372.228 1.388-2.544 4.275.796 3.982-1.498-6.808 4.015-6.604 7.168-8.762-.79-2.396-.589-5.782-3.186-6.372-2.125 2.137 3.923 3.526 0 5.576-2.853.463-2.421-2.357-2.39-4.779 2.172.58 1.602-1.59 3.185-1.6zm248.51 23.9c10.683-2.768 12.739-9.458 15.931-19.115-3.646-1.257-1.473 3.306-3.982 3.186-2.357-2.812-1.314-5.924.796-7.965-2.179-2.518-3.396 2.517-5.575 0 .714-1.675 1.238-3.541 2.39-4.779-2.376-.811-3.504-2.868-5.576-3.982-14.19.75-17.57 26.09-3.99 32.65zm-.8 2.39c.471 3.392-.573 5.269-.797 7.965 2.434.576 2.902-.813 4.779-.796 1.961-.942-1.632-3.009.796-3.982 2.387.533 1.207 4.635 3.187 5.575 1.976.117 3.865.148 3.982-1.593-3.112.776-5.519-3.22-2.39-3.982.098 2.026 1.159 3.089 3.187 3.186 1.183-.94 3.559-.689 3.186-3.186-3.019.584-6.503-2.463-3.982-4.779 1.427 5.48 10.902 2.558 11.947-1.593-3.459 1.807-9.559-.454-7.168-3.982 1.574 3.291 11.161 3.546 11.947-.797-4.995.171-7.959 1.117-10.354-2.39.072-1.255 2.031-.623 1.593-2.39-1.583-.01-1.013-2.173-3.186-1.593-2.35 8-7.14 13.57-16.74 14.33zm-281.96-4.78c1.634 1.552 5.26 1.111 5.576 3.982-4.522.125-5.957-1.331-7.965 1.593 2.101-.242 2.054 1.663 2.39 3.186 4.342.863 7.569-3.546 10.354-1.593-.784 3.199-6.621 1.345-7.168 4.779 4.454 3.718 8.363-4.2 12.744-5.575-.655 4.921-6.148 5.003-7.965 8.761 4.766 1.987 7.032-3.65 9.558-6.372 2.179.725-1.414 2.791.797 3.982 3.35-.961 3.493 1.287 5.575 1.594 2.917-2.129.7-5.812 0-8.762-6.632-.271-10.59-3.216-12.744-7.965-3.14-.22-2.436 3.405-5.575 3.186-3.44.254-.847-5.525-3.982-5.575-.637 1.47-1.332 2.9-1.595 4.76zm268.42 27.88c2.027-.097 3.089-1.159 3.187-3.186-1.019-.044-1.104-1.021-2.39-.797-.67.93-1.05 2.14-.8 3.99zm-13.54 18.32c4.645.929 2.251-5.182 5.575-5.575-1.251-.343-.681-2.505-3.187-1.593-.47 2.71-2.18 4.18-2.39 7.17zm-17.52 21.5c-1.864-.204-.459-3.499 0-3.982h-3.186c-.918.941-.902 2.815-.797 4.779 2.51-.55 3.26.09 3.99-.8zm-81.24 3.19c1.624.444 1.562 2.396 3.186.796.59-2.72-3.05-3.11-3.19-.8zm-23.1 2.39c2.408-.248 6.194.884 6.372-1.594-2.08-.81-5.95-1.34-6.37 1.59zm76.46.79h7.965c.14-4.31-7.35-2.12-7.96 0z"/><path fill="#4C721D" d="M185.58 67.703c-1.234.89-1.659 2.589-3.982 2.39.262-1.862.958-3.291 1.593-4.779 1.234.89 1.659 2.589 3.982 2.39 1.586-3.305 2.713-8.717 5.575-12.744-2.502.684-1.77 4.603-4.779 4.779.403-5.318 5.067-10.133 8.762-9.558.558 2.948-2.792 1.986-3.983 3.186 3.56 6.296-4.04 14.291-6.372 19.913-2.38-1.364-.87-2.901-.79-5.577zM128.24 67.703c1.597 4.521 8.292 15.061 7.965 21.505-5.232-8.84-8.534-19.609-15.134-27.081 10.655 2.888 19.2 14.783 23.099 27.081-1.904-.485-5.779 1-6.372-.796-2.86-7.24-4.88-15.309-9.56-20.709z"/><path fill="#F4DC00" d="M207.89 430.11c-3.28.377.767-2.144-2.39-2.39-1.677 2.905-3.985 2.974-1.593 6.372-4.91-.931-9.607-2.074-8.762-8.762-3.17.582-3.202.582-6.372 0 .46 1.93 3.008 1.771 4.779 2.39.066 1.262-.383 3.038.796 3.187-3.199 2.627-4.434-3.501-9.558-1.594-.948 3.338 3.357 1.422 3.982 3.187-.46 2.906-7.379.134-8.761.797-.818-2.677 2.477-1.24 3.982-1.594-.903-4.298-4.748-.953-8.762-2.39-2.082-2.633-6.184-6.814-10.354-4.778.534 2.387 4.635 1.206 5.576 3.186-5.039 1.573-12.865-.93-19.116-.796.603 2.47 5.498 3.478 3.186 6.372-4.236 1.05-2.953-3.42-5.576-3.983-1.177-5.956 6.769-2.789 9.558-4.778-.343-1.781-3.925-.323-5.575-.797 2.351-2.351 1.444-3.225 3.186-5.575-9.07-5.798-15.894-13.843-22.302-22.303 2.036 8.854 10.729 17.942 19.913 22.303-1.152 3.451-1.779-.839-4.779 0-.393 2.517 3.953.295 3.186 3.186-3.139.865-7.043 5.141-7.168 6.372-1.899 2.843-6.852-1.181-7.965 3.187-2.047-.077-1.139-3.109-3.186-3.187-1.523.336-3.428.289-3.186 2.39-2.828-1.872-4.299-.826-6.372-3.982-.847.94-.361 5.042 1.593 5.575-2.766 2.104-6.644-.479-12.744.797.081-2.043 2.968-1.28 3.982-2.39-4.516-3.715-8.861-7.601-11.948-12.744-3.067 5.213 4.271 6.864 5.576 10.354-2.6-.199-2.662 1.335-5.576 2.39.937-6.247-8.392-2.228-10.354-5.575-.465 5.396 2.09 2.82 5.576 3.982-.658 2.251 1.123 2.063.796 3.982-3.766-1.013-6.114-3.443-10.354-3.982.256-6.381 7.873-5.402 8.762-11.151-3.69 1.62-7.15 3.47-8.762 7.169-9.045 2.195-12.15-6.439-20.709-7.169-.518-6.916-6.957-7.911-5.576-16.727-13.635-8.933-18.082-27.053-26.285-41.418 9.121-11.403 2.604-29.72-10.354-34.25-6.362-11.078-.121-25.942.797-39.028-3.604-2.769-1.541-11.204-3.983-15.134 8.187-13.654 10.308-29.432 11.948-48.586 5.503-2.196 4.958-10.441 11.151-11.948.399-7.512 1.64-10.949 2.39-21.505 10.66-8.456 19.08-19.152 22.302-35.046 3.713-1.597 4.198-6.422 9.558-6.372-1.334-6.644 5.585-5.035 4.779-11.151 9.724-6.206 15.438-16.421 21.505-26.285 10.425-4.442 16.442-13.294 25.488-19.116 25.25 1.731 46.125-3.982 62.924 6.372-.13 2.52 2.117 2.662 1.593 5.575 3.835 2.967 18.317 5.233 17.523 12.744 3.463-.811 5.52.376 9.559 2.39-1.348 5.713 5.934 10.409 4.778 15.93 2.411-.244 2.846-2.464 6.372-1.593 1.442 1.676 1.316 6.614-1.593 6.372-.134 1.727 2.825.361 3.982.796 2.179-.725-1.413-2.791.797-3.982 4.613 3.883 6.548 10.444 11.947 13.541-4.731 3.875 8.817 6.739 9.558 12.744-3.817 2.158-6.054-3.263-7.168-6.372-3.236 1.956-3.968-.652-4.779-3.186-2.674.728-.395 1.481-.796 3.982.117 1.741 2.007 1.71 3.982 1.593v6.372c-1.919-.326-1.731 1.455-3.982.796 1.179 3.523-1.08 5.749 1.593 7.168 2.728-1.361.175-5.052 3.186-7.168 2.502-1.326 3.255 2.962 3.982.796.845.934-6.178 9.558 0 11.948-1.047 2.138-2.138 4.233-3.186 6.372-2.446-2.197-4.188-1.127-5.575 1.593-4.342-3.093-4.032-10.836-11.151-11.151 2.826 5.138 7.03 8.899 10.354 13.541-2.12 3.109-.411 5.243-2.39 7.965-2.142.549-1.539-1.646-2.39-2.39-3.818 4.462-6.019 7.895-7.168 13.541 4.055-.989 2.388-7.701 7.168-7.965.291 4.759-6.256 6.185-4.778 9.558 4.636-4.922 8.901-10.214 11.947-16.727 9.307 7.5 24.913 23.053 11.15 35.046.247 1.081 1.995.661 3.187.797-5.3 6.116-8.349 14.484-13.541 20.709 8.163-2.196 12.339-15.271 15.931-24.691 2.254-.757 3.393 1.556 6.372-.797 5.446 6.767 7.701 16.725 15.93 20.709-1.268 1.919-3.732 2.64-4.779 4.779.151.645.8.794.797 1.593 3.383.993 2.13-2.649 3.982-3.186 4.414 2.618-.652 8.666-3.186 9.558.339 1.52 2.275 1.441 1.593 3.982-4.963 6.454-7.284 15.549-12.744 21.506-3.467-2.109-6.108-5.043-7.965-8.762-1.429-.102-1.681.976-3.187.797-1.584-3.726-3.712-6.908-6.372-9.559 1.406 6.035 8.464 13.304 13.541 18.32.813 15.131-14.854 24.248-17.523 35.842 10.058-6.138 11.31-21.082 21.506-27.081 3.246 7.109 8.101 12.608 11.151 19.913-1.333 1.406-2.669-.708-5.576 0v2.39c2.129 1.791 5.229-.941 7.169 0 .413 4.13-4.086 3.349-3.982 7.168 3.827.376 3.575-3.327 5.575-4.778 2.641 2.669 6.001 4.618 4.779 11.15-10.681-.909-18.213 7.847-19.116 16.727-1.16 11.411 10.687 17.009 8.762 26.285-1.917-2.168-4.199.649-4.779-3.187 2.081.223 3.986.27 3.187-2.39-.604-.808-5.377.95-6.372 2.39-.628 3.282 3.813 1.497 3.186 4.779-3.439-.423-4.465-.23-6.372-.797-1.6.889-.913 6.161 0 7.169 3.52-.232-.429-4.212 1.593-4.779 4.741-.879.642 4.055 2.39 4.779 2.163.569-.569-3.756 1.593-3.187 3.319.066-.711 4.314 1.594 6.372-1.898-2.186-3.512-.037-5.576-2.39-1.382 2.069-3.092 3.812-4.778 5.576-.984 2.577 2.577.608 1.593 3.186-4.242-.273-2.318 3.246-3.187 4.779-2.472.082-2.272-2.506-5.575-1.593-.847 2.971 2.987 1.261 2.39 3.982-2.809 1.053-3.563 1.124-6.372 1.593-.695-2.554 1.226-2.491 2.39-3.186-.798-1.062-1.313-2.404-2.39-3.187-2.504 1.11 1.096 3.931-.797 4.779-3.437-.015-2.935-3.968-6.372-3.982 2.477 3.364 5.74 5.942 8.762 8.762-2.02 4.352-6.688 6.056-8.762 10.354 2.565 2.769 3.854-2.474 4.779-3.983 1.393 2.06 6.838.066 5.575 4.779-5.904-3.781-6.752 1.836-7.965 5.576-1.408-.716-2.325-1.923-3.982-2.39 1.334-1.321.634-4.677.797-7.169-3.8.105-1.06 1.806-1.593 4.779-2.355.08-6.355 2.61-3.983 4.779-.675 2.842-1.961.096-4.778.796 1.413 5.729 7.23-2.023 11.15 1.593-1.229 3.331-4.217 3.488-6.372.797-2.231.782 1.157 2.125-.796 3.186-2.757-1.491-5.642-2.854-10.354-2.389-.293 2.416 2.595 1.653 3.982 2.389-1.76 3.816-8.897 2.254-10.354 6.372 1.926 1.526 6.55.354 5.575 4.779h-4.779c-.224-1.286.753-1.371.797-2.39-3.486 1.117-4.626-.055-6.372-2.39-2.927.524-5.355 1.548-8.761 1.594 1.152-3.627 6.567-2.991 7.965-6.372 2.676-.818 1.239 2.477 1.593 3.982 1.41-3.104 6.523-2.504 7.168-6.372.359-2.218-4.341.624-3.982-1.593.054-3.561 1.821-1.016 3.187-2.39-.761-9.252 10.676-14.454 15.133-23.099-6.059 3.114-15.965 13.07-17.522 20.709-12.261 3.765-16.465-9.143-24.692-15.93.963 6.889 10.611 14.926 18.32 19.912-2.485 2.403-6.625 4.204-8.762.797-2.368 2.294 1.994 1.382 1.593 3.982-2.845.341-4.372 2-5.576 3.982.672 1.132 4.106-1.682 4.779-3.187 1.63 1.7-2.48 4.41-4.79 4.78zm35.04-284.35c-.093 5.769-8.818 8.309-8.762 16.727.191 1.494 1.312-.452 1.594.796-2.076 1.11-1.858 4.514-5.576 3.983-5.765-3.533-10.415-12.411-15.93-13.541 4.624 5.996 9.667 11.573 15.93 15.93-3.294 5.467-5.388 12.135-11.947 14.337.172-8.373-6.079-17.775-14.337-17.523-16.966.517-17.296 32.8-31.86 36.639 18.562 2.372 15.898-36.192 35.046-32.656 2.474.457 4.866 3.456 6.372 6.372 5.854 11.335 5.174 35.133 17.523 41.418-3.843-9.515-12.293-22.642-9.558-33.453 2.162-.57-.57 3.756 1.593 3.186 2.516-11.291 12.96-14.652 15.93-25.488 1.256.072.624 2.032 2.39 1.593-1.435-4.403 1.469-7.675 1.593-12.744 1.507-1.414 5.571-.271 4.779-3.982-1.47-.65-2.89-1.35-4.76-1.61zm-87.61-47.79c-.811-1.844-1.602-3.708-3.982-3.982.35 2.303 1.68 3.63 3.98 3.982zm9.56 0c2.978.057 4.561-1.28 5.576-3.186-2.61.316-5.16.691-5.58 3.186zm-34.25 19.91c-.828-3.416-.455-3.076.796-5.576-4.937-1.435-3.063-9.68-8.761-10.354 2.13 5.83 3.06 12.86 7.96 15.93zm39.03 1.6c-.725-3.9-6.483-13.609-11.151-13.541 3.95 4.27 6.26 10.19 11.15 13.54zm11.94-14.34h-3.186c-1.26 3.7 4.12 2.76 3.19 0zm-39.82 11.95c1.428-4.679 5.664-6.55 8.762-9.558-4.74.64-11.79 6.33-8.76 9.56zm46.99-1.6c3.921-1.92 7.127-4.555 10.354-7.168-5.17.67-7.71 3.97-10.35 7.17zm-70.89 4.78h2.39c.223-1.816-.192-2.994-1.593-3.186-.25 1.08-1.14 1.53-.8 3.19zm-4.78 3.19c2.24-.149 3.393-1.386 3.186-3.983-2.24.14-3.39 1.38-3.19 3.98zm36.64 3.18c3.671-.045 4.637-2.796 4.779-6.372-1.018-.044-1.103-1.021-2.39-.797-.44 2.75-2.84 3.53-2.39 7.17zm70.1-3.18c2.986.596 3.881-.898 3.982-3.186-1.096.034-1.749-.375-2.389-.797-.34 1.52-1.72 2.01-1.59 3.99zM105.94 137c1.976.117 3.865.148 3.982-1.593-4.378-2.525-3.683-10.124-7.965-12.744-1.17 4.28 2.84 9.74 3.98 14.33zm41.41 3.98c-3.115-6.443-6.516-12.6-11.151-17.523 2.02 7.54 5.05 14.06 11.15 17.52zm55.76-10.35c3.283.21 3.975-5.002 2.389-7.168h-2.389c2.22 2.96-1.53 5.21 0 7.17zm-42.22 11.15c7.269-3.088 12.854-10.702 14.337-15.134-5.75 4.07-10.57 9.07-14.34 15.13zm39.03 2.39c-9.033-2.918-14.005-14.134-20.709-16.727 5.35 6.18 12.45 18.75 20.71 16.73zm-82.04-3.19c4.819 1.732 10.271-10.062 9.558-11.151-3.61 3.3-6.5 7.3-9.56 11.15zm107.53-6.37c2.145-.054 3.828-1.821 2.389-3.186-2.1-.24-2.61 1.11-2.39 3.19zm4.78 2.39c2.597.675 6.533-1.348 3.982-3.186-1.02 1.37-3.79.99-3.98 3.19zm-22.3 13.54c6.257.416 4.499-7.184 8.762-8.762-5.33-2.46-6.17 5.88-8.76 8.76zm30.27-4.78c2.509.385 1.803-2.444 4.778-1.593.336-1.755-2.386-4.394-3.186-2.39 2.49 1.28-3.17.99-1.59 3.98zm-139.39 1.59c.011-1.583 2.173-1.013 1.593-3.186-2.064-.41-2.961-.346-5.576-1.593-.09 3.01 1.558 4.29 3.982 4.78zm135.4-.79h2.39c-.182-1.411.803-3.989-1.593-3.186-.25 1.08-1.14 1.52-.8 3.19zm-92.39 15.93c6.032-3.26 6.951-11.634 12.744-15.133 2.215 5.219 4.453 10.415 9.558 12.744-1.371-4.569-7.4-11.112-11.151-15.93-3.59 6.23-9.12 10.52-11.15 18.32zm86.02-11.15c4.32.689 3.27-4.872 2.39-7.168h-2.39c.38 2.85 1.3 4.6 0 7.17zm-54.96-.8c.826 2.095.643 5.198 3.982 4.779-3.734-3.755 4.479-7.101 0-8.762.06 2.71-2.34 2.96-3.98 3.98zm-42.21 11.95c-2.377-5.853-7.314-9.147-10.354-14.337-1.11 6.26 5.57 11.33 10.35 14.34zm-38.235-1.6c-2.537-3.57-4.653-7.56-7.169-11.151-.976 4.1 2.444 10.16 7.169 11.15zm7.965 8.77c2.246 3.595 2.876 8.806 8.761 8.762-.708-4.07-5.365-4.193-5.575-8.762 2.549-5.947 7.355-9.636 9.558-15.93-7.01 2.54-7.96 11.14-12.74 15.93zm91.6.79c2.562-6.465 6.816-11.238 11.151-15.93-6.99 1.16-13.12 11.06-11.15 15.93zm-110.72 3.98c.94-3.042 1.16-6.805 3.186-8.762h-4.779c.88 4.25-1.344 7.61 1.593 8.76zm32.657-3.98h3.186c-.864-2.04 2.42-3.797 0-4.779-.5 2.16-3.33 1.99-3.19 4.78zm27.08 6.37c-3.686-3.473-6.715-7.299-13.541-5.575-16.135 4.075-21.932 38.709-32.657 48.586 19.692-8.982 13.128-44.22 40.622-45.4 6.984 8.149 3.419 26.848 18.32 27.081-7.57-4.89-12.04-12.91-12.74-24.69zm11.15 9.56c.134-.928 1.259-.865 2.39-.796-3.417-3.486-6.694-7.112-11.151-9.558 1.81 4.57 4.32 8.43 8.76 10.36zm-68.497 9.56c5.181-1.457 5.217-8.058 7.965-11.947 1.722-1.226 6.419-5.147 3.186-6.372-5.12 4.7-7.937 11.71-11.151 18.32zM69.293 182.4c5.014 4.279 5.694 12.891 11.947 15.93-.646-4.515-6.798-10.108-7.965-16.727-2.502.4-3.255-1.88-3.982.8zm24.691 16.72c1.858-.266 3.432-.816 3.982-2.39-1.764-.625.152-4.931-3.186-3.982-.725 1.77-1.769 5.31-.796 6.37zm-35.046 6.38c.998-2.719 2.778-4.656 3.982-7.168-1.271-.588.182-3.899-2.39-3.186-.095 3.09-5.565 8.41-1.592 10.36zm-.796 16.72c-1.213-4.904-7.284-9.162-9.558-10.354 2.568 4.335 3.851 9.956 7.169 13.541 9.923-1.675 17.497-12.674 17.523-19.116-5.808 4.55-9.073 11.64-15.134 15.93zm35.046-4.78c.134-.928 1.259-.865 2.39-.797-2.503-3.338-3.51-8.172-7.169-10.354-.125.938.137 2.261-.796 2.39.238-1.294-1.075-2.148-1.593-.796 3.289 2.29 4.057 7.1 7.168 9.56zm130.63 24.7c-3.98-13.874-21.322-31.137-35.046-33.453-13.461-2.272-19.089 6.632-18.319 19.913 1.155 19.92 32.852 47.465 51.772 32.657 1.581 1.074-.251 5.561 2.39 5.575-1.74-7.13 2.06-14.78-.79-24.7zm-97.18 24.69c11.038-4.749 25.438-18.704 27.081-31.063 1.775-13.354-2.725-23.357-16.727-23.895-20.171-.775-41.951 19.6-40.622 41.418.121 1.985.81 3.889.796 5.575-.028 3.57-2.718 7.572.796 9.558 2.255.131-.662-4.909 1.593-4.778 5.077 8.13 18.077 7.05 27.087 3.17zm121.87-45.4c3.456 1.407 5.995-5.052 2.389-5.576-.94 1.72-1.65 3.66-2.39 5.58zm-176.03 11.15h3.982c-.592-3.248 2.567-2.743 1.593-6.373-4.127-.15-4.025 3.94-5.575 6.37zm7.168 19.11c8.148-3.533 8.008-15.355 14.337-20.709.803-.009 1.002-1.396 0-1.593-6.628 5.59-9.381 15.05-14.337 22.3zm-37.435-11.15c2.38-3.727 6.614-5.6 8.761-9.559-3.502 2.09-9.661 5.73-8.761 9.56zm33.453 19.12c-4.254-9.021-9.099-17.452-15.134-24.692 3.379 9.89 8.307 18.24 15.134 24.69zm168.86-7.17c-2.194-2.859-5.627-11.357-10.354-14.337 3.02 5.21 4.2 12.25 10.35 14.34zm27.87 1.59c.522-2.133 2.281-3.028 3.187-4.778-1.216-1.439-2.871-2.44-2.39-5.576h-2.39c1.88 3.88-1.68 8.35 1.59 10.36zm-221.42 1.6c3.455 1.325 1.57 7.988 5.576 8.762-1.451-6.734.493-8.902-1.593-12.744-.784 1.87-3.988 1.32-3.983 3.98zm.796 39.03c-3.252-12.97-12.472-26.81-16.726-41.42 3.349 16.93 8.535 28.49 16.726 41.42zm186.39-32.66c5.001.338 9.76-6.651 7.168-8.761-1.36 3.96-5.04 5.58-7.17 8.76zm-106.74 23.89c3.283 17.197 49.43 17.901 57.348 4.779 4.494-7.447 1.863-21.401-3.186-27.081-4.683-5.269-17.219-7.926-26.285-7.169-18.34 1.53-31.35 11.29-27.88 29.47zm105.14 31.86c-5.46-13.47-11.587-31.278-3.982-46.994-.176-.62-.667-.926-1.593-.796-7.93 15-9.94 39.61 5.57 47.79zM59.74 289.93c3.511-5.516 6.513-11.541 10.354-16.727-6.389 2.11-10.648 10.58-10.354 16.73zm30.267-10.36c2.418 8.412 6.716 18.503 4.779 27.878-1.226 5.934-5.74 8.325-6.372 12.744 8.997-2.42 10.312-12.521 11.948-22.303 20.961-.352 21.406 15.499 27.877 31.86 3.739 9.453 6.369 18.84 7.965 26.284 1.066 4.975 13.628 16.406 18.319 17.523 10.336 2.461 18.944-3.984 22.302-8.762 11.237-15.987 12.465-48.953 26.285-60.534 6.013-3.811 14.067-5.579 19.116-10.354-26.929 5.123-31.66 26.671-58.145 29.471-12.281 1.299-25.107-2.058-31.86-7.168-9.053-6.853-10.792-17.809-21.505-20.71-4.261-1.153-7.292.539-11.948 0-.945-6.84-3.485-16.05-8.767-15.93zm160.1 14.34c.009-1.053 1.396-.728 1.593-1.593-.521-1.557.993-6.461-2.39-8.762.6 2.58-2.47 8.28.8 10.35zm-210.28 23.1c2.015-.64 2.031-3.278 3.186-4.779-8.103.789-6.609-13.803-12.744-17.522 3.142 7.47 3.496 17.74 9.558 22.3zm38.232-19.12c.925.669 2.136 1.051 3.982.797.308-2.47-3.835-3.25-3.982-.8zM41.42 326.57c4-6.621 6.294-14.947 11.948-19.913-7.609-.64-12.297 12.6-11.948 19.91zm202.31-10.36c-1.893-3.418-4.077-6.544-7.169-8.762 1.37 3.94 3.19 7.43 7.17 8.76zM70.09 327.36c-.197-5.483-5.237-12.739-9.558-16.727 2.256 6.51 5.355 12.17 9.558 16.73zm202.31-11.94c-.178 3.411 2.65 3.247.797 6.372 4.754.771 2.312-5.652 5.575-6.372-2.82-1.8-2.8 1.68-6.38 0zm15.93 7.16h2.389c.225-2.083-.291-3.426-2.389-3.186v3.19zm-9.55 4.78c3.52 1.257 5.648-6.005 2.39-6.372.02 2.89-4.03 4.34-2.39 6.37zm-56.56 3.19c4.226-.266 3.127-5.54 2.39-8.762h-2.39c.38 3.7 1.08 5.31 0 8.76zM50.98 350.46c-.096-7.149-6.13-15.053-9.558-21.506.993 9.46 5.748 17.27 9.558 21.51zm209.48-5.57c1.516 3.357 6.864 7.446 7.168 9.558.125.867-1.754 1.256-2.389 3.187-1.905 5.785.713 15.847-5.576 13.54 1.304-2.443 3.984-6.759 3.187-8.762-4.093.421-3.274 5.754-4.779 8.762-1.802-.962-3.503-2.304-4.779 0 .553 1.571 4.444-.196 4.779 1.593-1.303 2.68-7.14.825-7.169 4.779 1.631 2.071 4.961-3.596 7.169-.796-1 2.187-5.015 1.356-4.779 4.778 7.911-.319 7.686-8.775 12.744-11.947-.043 1.37.613 2.042 1.593 2.39 2.145-2.071-.974-2.402-.796-4.779 1.387.06 2.477-.178 3.186-.796-4.136-6.481 8.043-11.535.797-15.931-.125.938.137 2.261-.797 2.39-1.983-2.188-6.693-3.432-4.778-7.169-6.783-3.041-7.821-11.826-13.541-15.93-.13 5.05 6.37 9.82 8.77 15.14zm-164.08-7.97c3.712-.005 3.702-3.732 4.779-6.372h-3.186c1.36 4.03-3.718 4.02-1.597 6.37zm172.04-3.98c1.583 1.326 1.013-.072 3.187 0a1.704 1.704 0 0 0-3.19 0zM98.77 356.83c7.165-2.128 7.585-11 12.744-15.134-1.826-5.496 7.429-7.67 3.982-9.558-7.7 6.1-11.68 15.93-16.724 24.69zm125.84-3.98c-1.125-1.204-3.869-2.516-5.576-.797-3.517-6.306-8.097-11.55-11.947-17.522-4.432 7.088 8.938 9.655 9.558 16.727.145 1.647-3.009 4.587.796 5.575-3.609.905-3.346 5.682-7.168 6.372 2.059 6.34-7.824 12.29-11.948 17.523 7.124.154 13.034-10.98 15.134-15.931 4.807.028 5.803-3.755 11.151-3.186v3.186c8.562 4.713 10.008 16.543 19.116 20.709-4.927-10.737-15.594-15.735-16.727-30.267 4.997-6.192 17.981-16.042 15.93-23.099-4.9 9.22-11.71 14.91-18.31 20.71zM51.77 369.58c5.296-8.51 8.598-19.014 15.134-26.284-3.282-4.506 5.04-8.65 1.593-10.354-5.774 12-13.991 21.57-16.727 36.63zm44.605-13.54c-6.48-5.201-10.513-12.851-15.93-19.115 2.383 8.81 8.582 17.91 15.93 19.12zm152.13.79c6.328-.844 4.279-6.894 0-8.762-2.17 3.78 1.67 4.49 0 8.76zm-50.98-4.78c-.376 2.501 2.144 2.104 2.39 3.982-1.197 1.193-3.354 1.426-3.983 3.187 5.068 4.151 8.032-8.039 3.983-10.354-1.64.21-.19 3.53-2.39 3.18zm-123.46 9.56c3.562.109 3.061-3.843 3.982-6.372-1.018-.044-1.103-1.021-2.389-.797-.142 2.73-3.322 5.04-1.593 7.17zm51.775.8c4.503.299 3.877-7.234-.796-6.372-.35 2.73.32 4.46.8 6.37zM273.99 364v-3.187h-2.389c-.23 2.09-.27 3.99 2.39 3.19zM72.47 383.12c-3.676-6.944-7.461-13.78-11.948-19.913 2.337 8.28 6.918 14.32 11.948 19.91zm46.998.79c-3.483-5.864-12.206-13.242-16.727-20.709 3.05 9.43 8.59 16.37 16.73 20.71zm-34.254-11.94c-.385-2.509 2.445-1.804 1.593-4.779-4.379 6.291-12.077 13.344-14.337 19.116 3.924.295 3.386-4.754 7.168-2.39 2.658-7.431 8.769-11.409 12.744-17.522-3.859.38-3.853 4.63-7.168 5.57zm166.47-2.39h2.39c.223-1.815-.192-2.994-1.593-3.186-.26 1.08-1.14 1.52-.8 3.19zm-124.26 21.5c9.488-4.053 12.525-14.557 19.913-20.709-9.34 4.21-13.59 13.49-19.91 20.71zm62.92-3.18c-.408-6.32-4.836-12.416-10.354-15.93 3.83 5.98 6.55 13.71 10.35 15.93zm-129.83-4.78c4.184.229 2.283-8.195-.796-7.966-.558 3.48 1.354 4.49.796 7.97zm207.09-3.19c2.554.695 2.491-1.226 3.187-2.39-1.019-.044-1.104-1.021-2.39-.796.18 1.51-.9 1.76-.8 3.19zm-50.97 14.34c1.026 1.098 3.46.788 5.575.797-1.778-6.264 3.627-12.688-.796-14.337-1.83 4.27-.11 12.1-4.77 13.54zm41.42-12.75c.103 2.812 6.84 3.732 5.575-.796-3.49.42-2.61.26-5.57.8zm7.17 2.39c1.639 1.652 4.039-.003 3.982-2.39-2.5-.37-3.26 1-3.98 2.39zm.79 3.99c.364-2.488-1.701-2.546-3.982-2.39-.37 2.49 1.7 2.54 3.98 2.39zm-105.93-.8c.406 2.248 1.927 3.383 2.39 5.575-2.392 1.06-3.782 3.121-3.187 7.169 7.12-.17 6.21-14.02.8-12.75zm-55.76 9.56c1.564-1.104.972-6.76 0-7.965h-2.39c1.35 2.1-.65 7.55 2.39 7.96zm-38.23.8c2.844-.873 4.702-2.731 5.575-5.576-2.844.87-4.702 2.73-5.575 5.58zm30.267 16.72c1.963.104 3.837.12 4.779-.797-7.296-5.448-11.138-14.35-17.523-20.709-2.056 8.61 10.494 12.36 12.74 21.51zm68.503 3.19c11.25-5.211 17.194-15.729 26.285-23.099-10.73 6.19-17.89 13.42-26.28 23.1zm-59.74-3.99c7.097-1.197 11.46-11.856 17.523-16.727-8.67 2.76-12.31 10.53-17.52 16.73zm140.98-15.92c-.803 2.396 1.774 1.411 3.186 1.593v-2.39c-1.39-.06-2.48.18-3.19.8zm-1.59 11.94c.497-2.689 1.838-4.535 2.39-7.169-2.43.57-7.4 6.51-2.39 7.17zm-172.84 3.98c2.151 4.202 9.401 2.186 10.354-1.593-1.252-.606-1.19-2.527-3.186-2.39-.722 5.83-4.832-.67-7.168 3.98zm127.44 2.39c1.505.088.553 2.633 2.39 2.39.668-.925 1.051-2.136.796-3.982-1.81-.22-2.99.19-3.19 1.59zm-11.94 1.6c.483 1.376 3.778-.061 3.982 1.593-1.496 1.425-4.6 1.242-4.779 3.982 4.04.323 5.823-1.61 7.965-3.186.659 4.12 3.257 6.301 6.372 7.965.072-2.173-1.327-1.604 0-3.186-3.564.378-3.986-2.387-3.982-5.576-4.45 1.13-6.59-6.24-9.55-1.58zm-63.72 7.96c4.58.112 5.73-6.711 5.576-8.761-2.257.83-3.319.83-5.576 0 2.32 3.17 1.05 5.19 0 8.76zm84.43-1.59c.931-2.083-2.458-3.426.796-3.186-.352-2.304-1.679-3.631-3.982-3.982 2.79 2.29-1.27 6.53 3.18 7.17zm-37.44-.8c2.468 1.69 5.232-1.832 7.965-2.389 1 1.955 4.536 5.507 7.168 3.186-3.646-.336-4.362-3.603-7.168-4.779-2.17 1.82-6.94 1.03-7.97 3.98zm-33.45-2.39c.5 2.685 2.706 3.666 5.575 3.982.239-1.566-1.075-1.58-1.593-2.39 1.87-.254 2.99-1.259 5.576-.797-1.11-3.98-5.9.63-9.57-.79zm-6.37 3.99c-.554 2.983 6.027 1.94 4.779-.797-1.97-.1-3.84-.12-4.78.8z"/><path fill="#F4DC00" d="M277.98 191.96c-1.177 3.185-3.08 1.5-5.575 2.39.032 2.421.464 5.242-2.39 4.779v-3.982c-4.356 3.998 1.195 9.257-.796 12.744-7.254-2.835-8.13-12.048-15.134-15.134 3.851-3.583 1.576-13.292 7.168-15.133.821-5.005-4.779-7.73-.796-11.151 3.021 2.838 1.12 6.142 6.372 7.169-.089 1.504-2.634.553-2.39 2.389.675 2.334 2.564-.476 3.982 0 .378 1.608-.612 7.194-3.186 6.372.254 1.847-.128 3.058-.797 3.982h2.39c1.801-.323-.421-4.668 3.186-3.186.658-2.251-1.122-2.063-.796-3.982 6.053-.601 5.082 4.583 3.982 8.762-2.293-.941-2.229-3.668-5.576-1.593.088 1.981 1.493 2.466 0 3.983-2.376.177-2.708-2.941-4.778-.797a7.172 7.172 0 0 0 3.186 3.186c2.676-.885 6.075-2.954 7.169.796 1.77-.59 2.67-3.75 4.8-1.6zm-17.52-7.97c3.225.245 2.375-5.029.796-5.576-1.1 1.03-.8 3.47-.8 5.58z"/><path d="M86.022 207.89c.518-1.352 1.831-.498 1.593.796.934-.128.672-1.452.796-2.39 3.659 2.183 4.666 7.017 7.169 10.354-1.131-.068-2.256-.131-2.39.797-3.11-2.47-3.878-7.28-7.168-9.56z"/><path fill="#7E543A" d="M222.22 245.32c-.492 1.897-3.471 1.309-2.389 4.779.81-.518.824-1.831 2.389-1.593-.175 2.564 1.409 3.37.797 6.372-4.904-7.641-11.698-12.5-12.744-19.913-3.94 3.269-6.304-4.869-10.354-6.372-.58-2.173 1.583-1.604 1.593-3.186-5.232 2.453-6.462-4.222-10.354-5.576.728-2.673 1.481-.395 3.982-.796-5.221-.957-9.273-2.716-15.133-6.372 3.407-3.665 12.244-.418 15.93.796.225 1.287-.752 1.372-.796 2.39 1.862-.246 3.291-1.559 4.779 0-.49.709-.963 1.425 0 1.593-.117 1.741-2.007 1.71-3.983 1.593.367 2.554 3.616 2.225 3.983 4.779 1.388-.988-1.58-6.933 2.389-7.169.13.926-.176 1.417-.796 1.593 9.05 3.99 16.08 16.1 20.7 27.09zM206.29 227c-.664-2.522-2.323-4.049-3.983-5.575-1.737 2.934 5.524 5.067 2.39 9.558 2.251.128 1.855-2.393 3.982-2.389.917.941.902 2.815.796 4.779 2.834-.673 4.773 2.307 5.576-.796-5.71.52-3.13-8.23-8.77-5.57z"/><path d="M99.563 263.64c-2.255-.131.662 4.909-1.593 4.778-3.515-1.985-.824-5.987-.796-9.558.013-1.687-.676-3.59-.796-5.575-1.33-21.818 20.45-42.193 40.622-41.418 14.002.538 18.501 10.541 16.727 23.895-1.643 12.359-16.043 26.314-27.081 31.063-9.02 3.89-22.02 4.97-27.087-3.18zm42.217-46.2v-2.39c-2.564.175-3.37-1.409-6.372-.796-.125.937.137 2.261-.796 2.389-8.786-3.777-18.524 4.671-23.895 9.558.972.09 1.886.238 1.593 1.593-4.504-1.492-7.556 4.062-3.983 7.965-4.51-2.142-7.634 1.905-7.965 6.372 2.251-.658 2.063 1.122 3.982.797-.136-3.323 2.395-3.978 3.982-5.576.045.486.119.943.796.797-2.559.893-1.019 5.884-3.186 7.168-1.445-1.889-3.405-.833-6.372-2.389 1.049 2.469-2.361 4.418 0 5.575.56-1.361 4.578-3.302 4.779-2.39-1.264 3.78-6.922 3.167-5.576 9.558 4.567-3.925 13.919-11.295 11.151-15.133 8.597-.067 12.3-11.472 19.913-15.134-1.561.385-2.565-3.651-.796-3.982 2.749 5.102 8.579-1.595 11.151-3.982-.972-.09-1.886-.238-1.593-1.593 1.58 0 1.01 2.16 3.19 1.58zm-.8 8.77c-.678-3.007 2.645-3.739.796-5.575-5.155.685-2.992 8.69-8.761 8.761-.476-1.418 2.334-3.308 0-3.982-3.943 2.248-3.773 11.671-9.558 9.558-1.154 2.825-1.404 8.079-5.576 5.576-.252 3.199-.557 6.347-2.39 7.965-1.504-.089-.553-2.634-2.389-2.39-.811 5.296-4.141 8.072-8.762 9.558.356 3.543-.566 5.807-1.593 7.966 3.275 3.921 8.457 4.432 15.133 3.186-10.737-19.237 20.188-43.685 27.878-19.116 5.966-5.539 8.445-23.631.796-29.47h-1.593c-1.62 2.35-.69 7.26-3.99 7.95zm-11.15 32.65c3.449-1.556 7.125-3.595 5.575-7.965-5.49-1.27-6.67 5.2-5.57 7.96z"/><path fill="#FFF" d="M206.29 243.73c2.419-.981-.864-2.739 0-4.779 3.16 2.682 3.496 8.187 4.779 12.744 3.256-.495.456-3.327 3.186-3.186 1.304 4.537 3.539 8.143 5.576 11.947-3.624 3.148-11.848 2.73-17.523 1.593 10.246-17.091-16.086-43.117-23.098-19.912-5.897-4.112-7.721-19.438-2.39-25.488.315-1.909-3.628.442-2.39-2.389 7.978-2.244 7.423 8.367 12.744 11.151 2.337-.677-1.036-2.004 0-3.982 4.77 1.602 3.86 8.884 7.965 11.151 2.021-1.061-1.168-3.536-.796-5.576 6.01 6.21 6.41 9.29 11.95 16.74z"/><path fill="#F4DC00" d="M283.56 303.47c.281-1.116 1.402-.069 1.593.796.033-7.438-9.278-8.611-8.762-16.727.211-3.305 4.115-6.119 5.576-9.558 3.432-8.079 6.007-17.938 10.354-23.896 7.393 6.195 1.226 14.82 1.593 21.506 1.401-.191 1.815-1.37 1.593-3.187 4.276 5.564 1.823 10.797 1.593 19.116-5.484-2.794-4.827 3.094-10.354 2.39-.242 2.102 1.663 2.055 3.187 2.39-1.367 5.058-.829 7.503-3.187 11.947-2.34-.31-1.56-3.76-3.18-4.78zm11.15-38.23c-3.671.485.473-6.845-3.982-5.575-.98 3.92 1.86 9.69 3.98 5.58zm-7.97 8.76c.917 1.737.158 5.151 2.39 5.575 1.794-2.88 4.2-.474 2.39 2.39 3.205-1.891 1.956 1.269 4.779 1.593 1.325-3.666-3.391-7.26-6.372-7.168-.061-2.522 3.222-6.271 0-7.169-1.04 1.62-.51 4.8-3.19 4.78zm.8 8.76c-.984 2.577 2.577.608 1.593 3.186-3.493.904-2.616-.005-5.575-.797.503 3.159-3.028 2.282-2.39 5.576 4.3-.631 4.852-4.134 7.965 0 1.418-1.066 3.308-8.939 0-9.559-.18.89-.89 1.23-1.6 1.59zM237.36 428.52c-.105-1.964-.121-3.838.797-4.779h3.186c-.459.483-1.864 3.778 0 3.982-.74.89-1.49.25-3.99.8z"/><path fill="#4C721D" d="M156.91 6.372c6.006 8.149 15.556 20.249 8.761 31.86h-3.186c3.7 4.737-2.249 7.982-.797 15.134-3.48-1.608-4.777-.489-7.965-2.39.625-3.28-1.223-4.087-.796-7.168 2.554.366 2.225 3.616 4.779 3.982 2.052-.838 3.443-5.447.796-6.372-2.163-.57.57 3.756-1.593 3.186-2.823-.324-1.574-3.483-4.779-1.593-.506-2.68-.565-5.807-2.389-7.169.192-1.401 1.37-1.815 3.186-1.593-2.526-3.336 2.888-6.043-3.983-7.965.37-8.922 6.12-12.463 7.96-19.912zm0 28.674c-4.103-.454-5.71 3.839-3.186 5.576 2.103-2.259 3.211-1.369 4.779-3.186-2.866-5.63 1.788-18.779-2.389-23.099-.05 7.228-.18 14.523.8 20.709z"/><path fill="#4C721D" d="M179.21 19.913c.498 9.326 3.402 16.244 3.186 26.285-5.474 2.49-7.874 8.056-12.744 11.151 0-2.919-.31-6.151 3.186-5.576-4.983-6.7 4.36-17.277 4.779-26.285-5.029 8.31-9.45 24.612-8.762 33.453-1.533 1.918-1.767 5.137-4.779 5.576-3.33-18.744 6.59-33.022 15.12-44.604zM121.07 32.656c5.072-1.87 7.48 5.784 11.151 7.965-1.676 2.185-1.366 3.33-3.186 3.982-.528-3.721-1.503-6.993-3.983-8.762-.266 2.412 3.815 7.32 3.983 11.948 1.25-.342.681-2.505 3.186-1.593 1.749 1.675.165 3.541-.796 4.779-1.589-1.498-1.257-2.893-3.982-1.593.014 3.172 4.076 2.296 3.186 6.372 1.081-.247.661-1.994.796-3.186 4.528.806.483 9.049 3.982 11.151-1.812 4.286-10.616-.991-12.744-4.779-3.95-7.023 4.1-18.228-1.6-26.284zm9.56 30.268c.327-1.358 1.027.167 2.39 0-.689-1.966.204-5.514-2.39-5.576 1.09 2.517-1.97 4.807 0 5.576z"/><path d="M247.71 147.35c.792 3.712-3.272 2.568-4.779 3.982-.124 5.069-3.027 8.341-1.593 12.744-1.766.438-1.134-1.521-2.39-1.593-2.97 10.836-13.414 14.198-15.93 25.488-2.163.57.569-3.756-1.593-3.186-2.735 10.811 5.715 23.938 9.558 33.453-12.349-6.285-11.669-30.083-17.523-41.418-1.506-2.916-3.898-5.915-6.372-6.372-19.148-3.536-16.484 35.028-35.046 32.656 14.564-3.839 14.894-36.122 31.86-36.639 8.258-.251 14.509 9.151 14.337 17.523 6.56-2.202 8.653-8.87 11.947-14.337-6.263-4.356-11.306-9.934-15.93-15.93 5.515 1.13 10.165 10.007 15.93 13.541 3.718.531 3.5-2.873 5.576-3.983-.282-1.248-1.402.698-1.594-.796-.057-8.417 8.669-10.958 8.762-16.727 1.85.28 3.27.98 4.76 1.61z"/><path fill="#7E543A" d="M138.59 215.85c-.292 1.355.622 1.503 1.593 1.593-2.572 2.387-8.402 9.084-11.151 3.982-1.769.331-.765 4.367.796 3.982-7.613 3.662-11.315 15.066-19.913 15.134 2.768 3.838-6.584 11.208-11.151 15.133-1.346-6.391 4.312-5.777 5.576-9.558-.201-.912-4.219 1.028-4.779 2.39-2.361-1.157 1.049-3.106 0-5.575 2.967 1.556 4.927.5 6.372 2.389 2.167-1.284.627-6.275 3.186-7.168-.677.146-.751-.311-.796-.797-1.587 1.599-4.119 2.253-3.982 5.576-1.919.325-1.731-1.455-3.982-.797.331-4.467 3.455-8.514 7.965-6.372-3.573-3.902-.521-9.457 3.983-7.965.292-1.355-.622-1.503-1.593-1.593 5.371-4.887 15.109-13.335 23.895-9.558.934-.128.672-1.452.796-2.389 3.002-.612 3.808.972 6.372.796v2.39c-2.17.59-1.6-1.57-3.18-1.58zm-19.91 7.17c2.504.682 3.361 3.011 6.372 3.186-.291-2.856-2.139-2.918-.796-5.575-2.52 1.88-4.04-.18-5.57 2.38z"/><path d="M54.958 251.69c2.086 3.842.143 6.01 1.593 12.744-4.005-.773-2.121-7.437-5.576-8.762-.004-2.65 3.2-2.1 3.983-3.98z"/><path fill="#7E543A" d="M174.43 263.64v3.982c2.472.082 2.273-2.506 5.576-1.593.101 1.428-.975 1.68-.796 3.186 3.029 1.171.156-3.561 3.186-2.39.19 4.323 3.699 5.328 5.576 7.965-2.71 3.714-1.324 7.008-3.982 11.151-5.621-1.903-.983 6.45-6.372 4.779-.08-2.47.974-3.806 1.593-5.576.134-1.727-2.825-.36-3.983-.796 2.048 3.686.696 4.515-.796 7.965.677 1.182 2.004 1.713 3.982 1.593-2.83 3.697-7.134-.85-10.354-1.593.234-1.624 2.155-1.562 2.39-3.187-.129-.933-1.452-.671-2.39-.796-2.371 3.401-.826 5.385.796 7.965-2.722.333-4.539-.24-3.982-3.186-2.063.856-2.961 2.88-5.576 3.186-.675-3.33 2.157-3.153 3.187-4.779-4.157-2.899-12.265 3.955-18.32-.796-2.646 1.686 2.391 2.312 1.593 4.778-11.457-4.949-15.1-23.708-4.779-31.063 9.47-6.76 21.63-3.14 33.44-.8zm-11.15 4.78c2.436-.577 2.343 1.375 4.779.797.39-2.62-4.59-3.35-4.78-.8zm5.58 4.78c2.027-.097 3.089-1.159 3.186-3.186-1.85.28-3.74.52-3.19 3.19zm-4.78 1.59c-1.197 1.544-3.354-1.393-3.982 1.594 1.18.147.73 1.925.796 3.186 2.663-1.321 6.432-4.882 3.982-8.762h-2.389c-.6 2.45 2.18 1.53 1.59 3.98zm13.54 0c2.374-.016 4.853.074 4.779-2.39-1.98.41-4.81-.02-4.78 2.39zm-11.15 11.15c5.729.291 10.247-8.695 7.168-11.947.02 4.1-4.2 8.46-7.17 11.95zm13.54-6.37c.274 2.115 2.09 2.688 3.982 3.187-.14-2.35-1.83-5.24-3.98-3.19zm-16.73 6.37c2.497.373 2.245-2.003 3.186-3.186-1.87-2.15-5.34 1.32-3.19 3.19zm-6.37.8c1.408 1.479 2.325-.347 3.982-.797.043-1.37-.613-2.042-1.593-2.39-.32 1.54-3.09.63-2.39 3.19z"/><path d="M98.766 295.5c4.655.539 7.687-1.153 11.948 0 10.713 2.901 12.452 13.857 21.505 20.71 6.753 5.11 19.579 8.467 31.86 7.168 26.484-2.8 31.216-24.348 58.145-29.471-5.048 4.775-13.103 6.544-19.116 10.354-13.82 11.581-15.047 44.547-26.285 60.534-3.358 4.777-11.966 11.223-22.302 8.762-4.691-1.117-17.253-12.549-18.319-17.523-1.597-7.444-4.226-16.831-7.965-26.284-6.471-16.361-6.916-32.212-27.877-31.86-1.636 9.781-2.951 19.883-11.948 22.303.632-4.419 5.146-6.811 6.372-12.744 1.938-9.375-2.36-19.466-4.779-27.878 5.282-.12 7.822 9.09 8.761 15.93zm62.924 70.1c-6.831-.921-4.903-7.78-7.168-14.337-5.841-5.572-12.768-6.217-19.116-7.965 3.939 15.177 9.872 28.359 29.471 27.877 10.778-4.887 14.549-16.78 18.32-28.674-13.24-1.47-20.24 9.93-21.5 23.09z"/><path d="M159.3 256.47c9.065-.757 21.602 1.9 26.285 7.169 5.049 5.68 7.68 19.634 3.186 27.081-7.918 13.122-54.065 12.418-57.348-4.779-3.47-18.18 9.54-27.94 27.88-29.47zm-18.32 7.97c-10.32 7.355-6.677 26.114 4.779 31.063.797-2.466-4.239-3.093-1.593-4.778 6.055 4.751 14.163-2.104 18.32.796-1.03 1.626-3.862 1.449-3.187 4.779 2.615-.306 3.512-2.329 5.576-3.186-.556 2.945 1.26 3.519 3.982 3.186-1.622-2.58-3.167-4.563-.796-7.965.938.125 2.261-.137 2.39.796-.234 1.625-2.155 1.562-2.39 3.187 3.221.743 7.524 5.29 10.354 1.593-1.978.12-3.306-.411-3.982-1.593 1.492-3.45 2.844-4.279.796-7.965 1.158.436 4.117-.931 3.983.796-.62 1.771-1.673 3.106-1.593 5.576 5.389 1.671.751-6.683 6.372-4.779 2.658-4.144 1.272-7.438 3.982-11.151-1.876-2.637-5.385-3.642-5.576-7.965-3.029-1.171-.156 3.561-3.186 2.39-.179-1.506.897-1.758.796-3.186-3.303-.913-3.104 1.675-5.576 1.593v-3.982c-11.8-2.35-23.96-5.97-33.44.79zm44.6 25.49c.99-2.488 3.967-3.463 2.39-6.372-1.99.77-5.91 4.98-2.39 6.37zm-33.45 5.57c1.738-.917 5.152-.157 5.576-2.389-1.097.034-1.749-.375-2.39-.797-.08 2.05-3.11 1.15-3.19 3.19zM230.99 270.02c.926-.13 1.417.176 1.593.796-7.604 15.716-1.478 33.524 3.982 46.994-15.51-8.19-13.5-32.8-5.57-47.79z"/><path fill="#7E543A" d="M290.72 329.75c2.072 1.114 3.2 3.172 5.576 3.982-1.151 1.238-1.676 3.104-2.39 4.779 2.179 2.517 3.396-2.518 5.575 0-2.11 2.041-3.153 5.152-.796 7.965 2.51.12.336-4.442 3.982-3.186-3.191 9.657-5.248 16.348-15.931 19.115-13.57-6.55-10.19-31.89 3.99-32.65zm1.6 6.37c-2.386-.524.762-1.702 0-3.186h-2.39c-.87 2.29.85 5.93 2.39 3.19zM35.046 340.11c-.032 2.422-.463 5.242 2.39 4.779 3.923-2.05-2.125-3.439 0-5.576 2.597.59 2.396 3.977 3.186 6.372-3.153 2.157-8.667 1.954-7.168 8.762-3.34.293-.568-2.595-.796-3.982-4.745.853-1.439 9.614 2.389 6.372-1.862 4.058-5.488 1.239-7.965 0-.865.197-.54 1.584-1.593 1.593 1.559 1.628 3.997 2.376 7.168 2.39-8.356 7.379-22.155-6.88-19.913-17.522 1.389-6.591 11.65-10.486 11.151-16.727 6.021.883 8.866 4.94 12.744 7.965.244 1.837-2.301.885-2.39 2.39 1.194 2.396 3.986-3.389 3.982 1.593-1.582.02-1.012 2.19-3.185 1.61zm-4.779 6.37c4.8 1.23 2.794-8.375 1.593-8.762-1.206 2.24-1.924 4.98-1.593 8.76z"/><path d="M242.93 332.14c2.052 7.057-10.933 16.906-15.93 23.099 1.133 14.531 11.8 19.529 16.727 30.267-9.108-4.166-10.554-15.996-19.116-20.709v-3.186c-5.348-.569-6.344 3.214-11.151 3.186-2.1 4.95-8.01 16.085-15.134 15.931 4.124-5.233 14.007-11.184 11.948-17.523 3.822-.69 3.56-5.467 7.168-6.372-3.805-.988-.652-3.928-.796-5.575-.62-7.071-13.99-9.639-9.558-16.727 3.85 5.973 8.43 11.217 11.947 17.522 1.707-1.719 4.451-.407 5.576.797 6.59-5.8 13.4-11.49 18.31-20.71z"/></g></svg>