<svg id="visual" width="960" height="540" xmlns="http://www.w3.org/2000/svg" version="1.1"><path d="m0 195 32-7.2c32-7.1 96-21.5 160-23.1 64-1.7 128 9.3 192 3 64-6.4 128-30 192-25.5s128 37.1 192 41.6 128-19.1 160-31l32-11.8V0H0Z" fill="#212529"/><path d="m0 287 32-7.2c32-7.1 96-21.5 160-17.8 64 3.7 128 25.3 192 20.8s128-35.1 192-34.3c64 .8 128 33.2 192 38.5 64 5.3 128-16.3 160-27.2l32-10.8V139l-32 11.8c-32 11.9-96 35.5-160 31s-128-37.1-192-41.6-128 19.1-192 25.5c-64 6.3-128-4.7-192-3-64 1.6-128 16-160 23.1L0 193Z" fill="#232b34"/><path d="m0 357 32-13.5c32-13.5 96-40.5 160-43.2 64-2.6 128 19 192 21.9 64 2.8 128-13.2 192-7.7 64 5.5 128 32.5 192 37.8 64 5.4 128-11 160-19.1l32-8.2v-78l-32 10.8c-32 10.9-96 32.5-160 27.2-64-5.3-128-37.7-192-38.5-64-.8-128 29.8-192 34.3-64 4.5-128-17.1-192-20.8-64-3.7-128 10.7-160 17.8L0 285Z" fill="#26313e"/><path d="m0 417 32-4.5c32-4.5 96-13.5 160-7.2 64 6.4 128 28 192 30.7 64 2.7 128-13.7 192-15.5 64-1.8 128 10.8 192 14.5 64 3.7 128-1.7 160-4.3l32-2.7V323l-32 8.2c-32 8.1-96 24.5-160 19.1-64-5.3-128-32.3-192-37.8s-128 10.5-192 7.7c-64-2.9-128-24.5-192-21.9C128 301 64 328 32 341.5L0 355Z" fill="#29374a"/><path d="m0 455 32-1c32-1 96-3 160 2.3 64 5.4 128 18 192 21.7 64 3.7 128-1.7 192 2s128 16.3 192 14.5c64-1.8 128-18.2 160-26.3l32-8.2v-34l-32 2.7c-32 2.6-96 8-160 4.3s-128-16.3-192-14.5c-64 1.8-128 18.2-192 15.5-64-2.7-128-24.3-192-30.7-64-6.3-128 2.7-160 7.2L0 415Z" fill="#2d3c55"/><path d="M0 541h960v-83l-32 8.2c-32 8.1-96 24.5-160 26.3-64 1.8-128-10.8-192-14.5-64-3.7-128 1.7-192-2s-128-16.3-192-21.7C128 449 64 451 32 452l-32 1Z" fill="#344161"/></svg>