<svg id="visual" viewBox="0 0 960 540" width="960" height="540" xmlns="http://www.w3.org/2000/svg" xmlns:xlink="http://www.w3.org/1999/xlink" version="1.1"><rect x="0" y="0" width="960" height="540" fill="#ffffff"></rect><defs><linearGradient id="grad1_0" x1="43.8%" y1="0%" x2="100%" y2="100%"><stop offset="14.444444444444446%" stop-color="#ffffff" stop-opacity="1"></stop><stop offset="85.55555555555554%" stop-color="#ffffff" stop-opacity="1"></stop></linearGradient></defs><defs><linearGradient id="grad2_0" x1="0%" y1="0%" x2="56.3%" y2="100%"><stop offset="14.444444444444446%" stop-color="#ffffff" stop-opacity="1"></stop><stop offset="85.55555555555554%" stop-color="#ffffff" stop-opacity="1"></stop></linearGradient></defs><g transform="translate(960, 0)"><path d="M0 378C-37.6 359.3 -75.3 340.7 -101.7 312.9C-128 285.1 -143.2 248.3 -164 225.7C-184.8 203.1 -211.3 194.8 -249.2 181C-287 167.2 -336.1 147.9 -359.5 116.8C-382.9 85.7 -380.4 42.9 -378 0L0 0Z" fill="#000000"></path></g><g transform="translate(0, 540)"><path d="M0 -378C37.9 -358.3 75.8 -338.5 102 -313.8C128.1 -289.2 142.4 -259.6 180.5 -248.4C218.5 -237.2 280.1 -244.4 305.8 -222.2C331.5 -199.9 321.1 -148.2 327.2 -106.3C333.2 -64.4 355.6 -32.2 378 0L0 0Z" fill="#000000"></path></g></svg>