<svg id="visual" viewBox="0 0 960 540" width="960" height="540" xmlns="http://www.w3.org/2000/svg" xmlns:xlink="http://www.w3.org/1999/xlink" version="1.1"><path d="M0 50L22.8 55.3C45.7 60.7 91.3 71.3 137 77.5C182.7 83.7 228.3 85.3 274 80.8C319.7 76.3 365.3 65.7 411.2 64.8C457 64 503 73 548.8 73.8C594.7 74.7 640.3 67.3 686 65.5C731.7 63.7 777.3 67.3 823 70.2C868.7 73 914.3 75 937.2 76L960 77L960 0L937.2 0C914.3 0 868.7 0 823 0C777.3 0 731.7 0 686 0C640.3 0 594.7 0 548.8 0C503 0 457 0 411.2 0C365.3 0 319.7 0 274 0C228.3 0 182.7 0 137 0C91.3 0 45.7 0 22.8 0L0 0Z" fill="#fffffff"></path><path d="M0 109L22.8 114.3C45.7 119.7 91.3 130.3 137 136.7C182.7 143 228.3 145 274 137.8C319.7 130.7 365.3 114.3 411.2 112.5C457 110.7 503 123.3 548.8 127.8C594.7 132.3 640.3 128.7 686 124.2C731.7 119.7 777.3 114.3 823 117C868.7 119.7 914.3 130.3 937.2 135.7L960 141L960 75L937.2 74C914.3 73 868.7 71 823 68.2C777.3 65.3 731.7 61.7 686 63.5C640.3 65.3 594.7 72.7 548.8 71.8C503 71 457 62 411.2 62.8C365.3 63.7 319.7 74.3 274 78.8C228.3 83.3 182.7 81.7 137 75.5C91.3 69.3 45.7 58.7 22.8 53.3L0 48Z" fill="#ffffff"></path><path d="M0 249L22.8 250C45.7 251 91.3 253 137 255.8C182.7 258.7 228.3 262.3 274 254.2C319.7 246 365.3 226 411.2 224.2C457 222.3 503 238.7 548.8 249.5C594.7 260.3 640.3 265.7 686 262C731.7 258.3 777.3 245.7 823 246.5C868.7 247.3 914.3 261.7 937.2 268.8L960 276L960 139L937.2 133.7C914.3 128.3 868.7 117.7 823 115C777.3 112.3 731.7 117.7 686 122.2C640.3 126.7 594.7 130.3 548.8 125.8C503 121.3 457 108.7 411.2 110.5C365.3 112.3 319.7 128.7 274 135.8C228.3 143 182.7 141 137 134.7C91.3 128.3 45.7 117.7 22.8 112.3L0 107Z" fill="#ffffff"></path><path d="M0 374L22.8 378.5C45.7 383 91.3 392 137 401C182.7 410 228.3 419 274 419.8C319.7 420.7 365.3 413.3 411.2 407C457 400.7 503 395.3 548.8 390.8C594.7 386.3 640.3 382.7 686 385.3C731.7 388 777.3 397 823 405.2C868.7 413.3 914.3 420.7 937.2 424.3L960 428L960 274L937.2 266.8C914.3 259.7 868.7 245.3 823 244.5C777.3 243.7 731.7 256.3 686 260C640.3 263.7 594.7 258.3 548.8 247.5C503 236.7 457 220.3 411.2 222.2C365.3 224 319.7 244 274 252.2C228.3 260.3 182.7 256.7 137 253.8C91.3 251 45.7 249 22.8 248L0 247Z" fill="#ffffff"></path><path d="M0 438L22.8 442.5C45.7 447 91.3 456 137 461.5C182.7 467 228.3 469 274 468.2C319.7 467.3 365.3 463.7 411.2 461.8C457 460 503 460 548.8 456.3C594.7 452.7 640.3 445.3 686 447.2C731.7 449 777.3 460 823 465.5C868.7 471 914.3 471 937.2 471L960 471L960 426L937.2 422.3C914.3 418.7 868.7 411.3 823 403.2C777.3 395 731.7 386 686 383.3C640.3 380.7 594.7 384.3 548.8 388.8C503 393.3 457 398.7 411.2 405C365.3 411.3 319.7 418.7 274 417.8C228.3 417 182.7 408 137 399C91.3 390 45.7 381 22.8 376.5L0 372Z" fill="#ffffff"></path><path d="M0 541L22.8 541C45.7 541 91.3 541 137 541C182.7 541 228.3 541 274 541C319.7 541 365.3 541 411.2 541C457 541 503 541 548.8 541C594.7 541 640.3 541 686 541C731.7 541 777.3 541 823 541C868.7 541 914.3 541 937.2 541L960 541L960 469L937.2 469C914.3 469 868.7 469 823 463.5C777.3 458 731.7 447 686 445.2C640.3 443.3 594.7 450.7 548.8 454.3C503 458 457 458 411.2 459.8C365.3 461.7 319.7 465.3 274 466.2C228.3 467 182.7 465 137 459.5C91.3 454 45.7 445 22.8 440.5L0 436Z" fill="#fffffff"></path></svg>