<svg width="798" height="418" viewBox="0 0 798 418" fill="none" xmlns="http://www.w3.org/2000/svg">
<path d="M404.49 98.84C402.63 99.01 401.06 97.42 401.32 95.58C404.4 73.27 400.19 53.34 388.96 38.2C377.22 22.38 359.08 13.67 337.89 13.67C324.31 13.67 309.79 17.38 295.53 24.45C275.94 8.61998 247.29 0.289978 212.12 0.289978C144.26 0.289978 66.5999 31.1 27.4699 73.55C7.99991 94.67 -1.38009 118.02 0.309908 141.12C-0.340092 160.1 6.6999 178.25 20.1699 192.31C34.7599 207.53 55.0999 216.26 75.9899 216.26C79.1999 216.26 82.3799 216.05 85.5299 215.64C83.1099 225.35 80.3599 234.78 76.0299 241.23L75.4799 242.04L75.2699 242.55C74.4699 242.99 72.5499 243.55 71.2399 243.94C68.4999 244.75 65.1199 245.74 61.9799 247.72C51.1999 253.36 42.1299 262.18 37.9999 273.8C36.2799 278.64 35.1999 283.94 35.8099 289.06C36.9499 298.61 41.5199 305.34 37.7999 314.73C34.6499 322.68 33.4499 331.1 32.8499 339.59L32.8399 339.77C32.0699 354.82 37.1199 368.53 47.4699 379.42C69.2899 402.39 96.9699 397.35 125.35 396.47L554.29 369.56C556.22 369.44 557.96 370.69 558.48 372.55C559.52 376.33 559.71 382.06 560.54 384.53C562.58 390.57 565.52 396.19 569.83 400.93C579.5 411.57 594.05 417.42 610.79 417.42C631.72 417.42 651.61 407.94 661.45 393.27C667.93 383.61 669.95 372.1 667.4 360.14C685.51 351.57 700.2 334.13 706.89 312.65C711.78 296.96 711.61 281.46 706.68 268.04C723.87 265.98 743.86 256.74 761.59 242.47C782.47 225.65 795.61 205.89 797.63 188.27C800.16 166.2 785.68 154.22 772 147.89C778.12 139.87 782.16 129.57 783 118.76C784.12 104.51 779.7 91.9 770.75 83.2C773.32 69.44 770.56 56.38 762.77 45.86C754.19 34.29 740.44 27.38 725.98 27.38C707.83 27.38 692.12 37.81 682.97 55.84C675.2 70.52 670.47 72.11 662.63 74.74L404.49 98.84Z" fill="black"></path>
<path d="M281.21 80.15C281.66 38.58 227.56 36.73 198.55 40.58C146.95 47.43 40.3197 71.6499 39.2797 141.37C38.9597 162.83 56.6297 178.52 77.4097 176.99C97.7197 175.5 123.16 159.25 125.51 140.44C125.77 138.39 124.44 136.8 121.95 136.96C120.17 137.07 114.47 139.77 109.84 140.03C100.58 140.55 94.9497 135.48 95.2297 125.04C96.1697 89.6599 145.26 65.63 175.76 60.74C166.14 68.17 156 76.32 149.75 99.8C136.99 147.7 132.72 200.46 116.97 246.01C111.3 262.39 105.21 264.9 105.21 269.26C105.21 271.95 107.35 273.57 110.91 273.47C120.89 273.18 140.65 258.98 147.25 259.9C160.6 261.77 178.64 270.51 195.35 269.43C237.7 266.7 276.42 237.16 275.16 191.06C274.44 164.73 249.34 144.36 224.21 142.9C253.83 137.34 280.88 111.2 281.21 80.15ZM187.15 251.85C178.31 252.8 171.08 245.25 171.47 237.17C172.79 210.07 180.69 180.56 186.08 152.57C205.17 150.5 222.16 163.55 222.07 183.35C221.96 205.82 215.16 248.83 187.15 251.85ZM190.71 135.08C187.53 131.75 201.22 78 216.01 55.76C227.77 54.43 234.03 64.83 234.18 78.47C234.45 103.65 191.92 136.35 190.71 135.08Z" fill="white"></path>
<path d="M753.68 181.16C751.54 181.17 749.76 182.77 747.27 185.02C741.71 190.02 734.44 197.31 727.32 197.44C718.77 197.6 713.42 193.6 713.42 182.27C713.42 169.81 718 150.31 720.9 139.34C723.31 130.23 727.31 127.01 736.22 126.77C740.4 126.66 744.23 121.5 744.41 114.18C744.47 111.55 742.4 109.51 739.93 109.6C728.78 109.99 727.32 107.42 727.32 102.42C727.32 95.9899 732.31 80.2699 732.31 71.9399C732.31 68.9099 730.53 65.9499 726.61 66.1099C723.4 66.2499 720.52 68.6599 716.99 74.8599C707.24 91.9799 691.46 110.72 671.38 112.71C667.62 113.08 665.32 120.2 665.32 123.95C665.32 130.69 675.07 127.25 674.94 131.99C674.41 151.76 665.28 170.98 663.97 191.31C664.12 191.14 663.82 191.47 663.97 191.31C659.34 196.41 656.05 200.01 650 200.35C643.59 200.7 638.19 196.85 638.6 187.6C639.34 170.58 648 153.13 648.58 135.88C649.04 122.19 640.1 112.36 621.14 114.49C602.18 116.63 584.67 129.92 572.68 145C572.68 145 575.53 134.06 575.53 128.17C575.53 121.91 571.25 119.01 563.42 119.8C542.75 121.88 523.51 129.47 523.51 137.49C523.51 142.23 526 142.69 526 148.89C526 158.31 522.58 174.84 519 190.96C517.98 195.54 515.7 199.82 512.51 203.37C512.49 203.39 512.47 203.41 512.45 203.43C507.82 208.6 504.97 211.79 498.91 212.38C492.5 213.01 487.21 207.76 487.51 198.66C488.19 177.81 498.95 156.4 499.98 136.06C500.28 130.21 495.7 127.11 487.87 128.02C467.2 130.41 447.96 138.12 447.96 146.03C447.96 150.7 450.47 151.14 450.45 157.24C450.42 172.61 445.01 190.89 437.98 204.24C433.29 213.15 424.44 220.36 416.6 221.19C411.61 221.72 407.78 218.23 408.05 213.18C409.22 191.14 420.21 167.33 421.23 145.27C421.5 139.48 416.95 136.49 409.12 137.45C388.45 139.96 369.21 147.61 369.21 155.39C369.21 159.99 372.02 160.76 371.7 166.43C370.77 182.9 363.85 201.25 360.3 218.32C359.96 218.67 359.61 219.04 359.23 219.46C354.6 224.54 351.75 227.66 345.69 228.28C339.28 228.94 334.12 224 334.29 215.03C335.17 168.52 361.64 122.71 362.79 76.6099C363.22 59.3799 351.03 50.6799 332.5 53.1899C312.19 55.9499 293.31 69.9199 293.31 77.2399C293.31 80.0299 295.09 81.1999 298.3 80.7999C306.14 79.8099 312.53 84.9699 312.2 96.1799C310.89 140.88 286.27 184.54 284.76 229.78C284.11 249.42 301.3 261.26 319.68 259.32C333.93 257.81 351.67 248.2 360.79 236.45C363.98 246.84 373.58 253.95 387.74 252.67C407.78 250.87 427.49 239.61 441.54 225.41C441.54 225.41 444.75 246.95 472.89 244.25C490.67 242.54 503.75 232.47 512.14 223.11C511.44 227.13 511.01 230.44 511.01 232.69C511.01 238.87 513.86 240.43 518.49 240.02C523.83 239.54 537.73 236.5 548.42 235.62C553.77 235.18 556.08 233.32 556.26 227.28C556.85 207.68 563.56 186.03 571.58 167.93C578.98 151.21 587.97 143.99 594.03 143.47C599.02 143.04 602.47 147.47 602.23 153.13C601.47 170.6 591.07 187.43 590.83 205.77C590.62 221.43 603.57 232.97 623.61 232.05C638.91 231.35 657.04 220.92 666.21 208.49C670.66 220.86 682.32 229.79 700.57 228.65C722.36 227.29 742.79 210.8 755.44 193.34C757.59 190.37 758.29 187.62 758.29 185.72C758.31 183.41 756.53 181.14 753.68 181.16Z" fill="white"></path>
<path d="M114.43 309.83C106.79 310.01 100.5 314.27 98.2996 316.55C99.8296 309.17 107.64 299.06 107.64 291.06C107.64 283.05 102.21 278.73 93.2096 278.9C83.5296 279.09 74.5296 284.43 74.5296 287.77C74.5296 289.04 75.3796 289.67 77.0796 289.66C80.6496 289.63 83.5296 292.14 83.5296 297.4C83.5296 318.12 71.8096 325.03 71.8096 340.29C71.8096 352.37 79.6596 360.88 96.9396 360.84C116.61 360.79 132.06 344.94 132.26 325.76C132.39 313.97 125.13 309.58 114.43 309.83ZM97.4496 353.48C94.2196 353.5 92.6996 351.11 92.6996 347.92C92.6996 343.29 94.5796 334.81 97.2896 326.95C99.1596 321.5 102.55 319.68 105.27 319.64C108.33 319.59 110.7 321.3 110.7 325.31C110.69 332.19 105.77 353.42 97.4496 353.48Z" fill="white"></path>
<path d="M250.449 303.55C241.279 304.22 236.529 312.6 235.509 314.64C235.849 313.47 236.529 310.3 236.529 308.16C236.529 305.37 234.489 304.03 230.759 304.28C220.909 304.95 211.739 307.97 211.739 311.57C211.739 313.7 212.929 313.95 212.929 316.73C212.929 321.71 210.659 331.05 208.679 339.31C207.989 339.53 207.379 340.05 206.469 340.97C204.259 343.21 202.899 344.59 200.019 344.73C196.959 344.89 194.249 342.57 194.249 338.33C194.249 325.62 200.189 312.57 200.189 308.65C200.189 306.86 199.169 306.26 197.639 306.35C193.739 306.58 186.429 310.07 183.549 310.22C180.829 310.36 178.149 307.57 169.289 307.84C150.549 308.43 134.779 322.16 134.819 341.44C134.839 353.82 142.969 360.1 152.989 359.8C165.389 359.42 174.389 350.45 174.389 350.45C174.389 350.45 177.279 358.96 187.469 358.51C195.969 358.14 202.319 353.81 206.359 349.73C206.019 351.53 205.809 353.04 205.809 354.05C205.809 356.83 207.169 357.58 209.379 357.46C211.929 357.33 218.549 356.16 223.639 355.88C226.189 355.74 227.379 355.01 227.379 352.22C227.379 345.82 231.279 331.95 234.339 326.18C236.869 321.42 239.099 319.13 240.109 318.73C240.109 321.69 242.489 324.82 247.239 324.5C254.199 324.03 258.279 316.8 258.279 310.69C258.259 305.78 255.209 303.2 250.449 303.55ZM171.489 340.85C169.249 345.72 165.889 348.7 162.659 348.81C158.919 348.95 156.889 345.62 156.889 341.41C156.889 332.51 161.139 315.37 170.819 314.92C174.389 314.75 175.909 316.47 175.909 319.39C175.899 325.73 173.449 336.58 171.489 340.85Z" fill="white"></path>
<path d="M301.74 298.84C294.1 299.48 287.81 304.31 285.61 306.81C287.14 299.05 294.95 288.06 294.95 279.75C294.95 271.44 289.52 267.27 280.52 268.05C270.84 268.89 261.84 275.08 261.84 278.55C261.84 279.87 262.69 280.46 264.39 280.33C267.96 280.04 270.84 282.45 270.84 287.91C270.84 309.42 259.12 317.44 259.12 333.29C259.12 345.84 266.97 354.14 284.25 352.88C304.52 351.41 319.35 334 319.57 314.36C319.7 302.13 312.44 297.94 301.74 298.84ZM284.75 345.21C281.52 345.44 280 343.06 280 339.75C280 334.94 281.88 326.01 284.59 317.68C286.46 311.9 289.85 309.8 292.57 309.58C295.63 309.33 298 310.97 298 315.13C298 322.28 293.08 344.61 284.75 345.21Z" fill="white"></path>
<path d="M420.27 288.84C411.1 289.69 406.35 298.45 405.33 300.58C405.67 299.36 406.35 296.07 406.35 293.86C406.35 290.97 404.31 289.63 400.58 289.98C390.73 290.89 381.56 294.27 381.56 297.99C381.56 300.19 382.75 300.42 382.75 303.29C382.75 308.1 380.78 316.86 378.91 325C378.46 325.36 377.99 325.76 377.49 326.24C373.75 329.6 367.81 335.67 359.15 336.39C351 337.06 346.41 332.9 346.41 327.02C363.39 324.26 374.77 313.98 374.77 304.35C374.77 297.09 369.43 292.6 357.96 293.56C339.73 295.08 322.35 308.36 322.13 327.52C321.95 343.38 333.34 349.73 349.3 348.46C363.04 347.37 371.09 340.96 376.65 335.16C376.04 338.16 375.63 340.63 375.63 342.12C375.63 344.99 376.99 345.73 379.2 345.55C381.75 345.34 388.37 343.95 393.46 343.53C396.01 343.32 397.2 342.54 397.2 339.66C397.2 333.05 401.1 318.61 404.16 312.59C406.69 307.62 408.92 305.2 409.93 304.77C409.93 307.83 412.31 311.02 417.06 310.6C424.02 309.99 428.1 302.46 428.1 296.15C428.08 291.02 425.02 288.4 420.27 288.84ZM358.29 300.77C361.01 300.53 362.36 301.75 362.36 304.28C362.36 308.32 356.08 317.3 346.4 319.97C346.4 310.06 353.19 301.22 358.29 300.77Z" fill="white"></path>
<path d="M454.74 284.14C442 285.29 431.31 291.74 431.31 302.5C431.31 315.3 448.12 315.4 448.12 325.51C448.12 328.59 446.76 330.25 444.38 330.44C441.32 330.69 439.79 327.91 439.79 323.64C439.79 319.54 437.07 317.54 432.49 317.94C428.58 318.28 424.68 321.85 424.68 327.31C424.68 336.52 434.02 341.38 446.76 340.35C461.7 339.15 470.53 330.89 470.53 319.71C470.53 307.15 451.85 307.37 451.85 297.26C451.85 294 454.57 291.36 456.78 291.16C458.65 290.99 460 291.56 460 293.28C460 294.83 458.64 295.97 458.64 298.55C458.64 301.81 461.53 304.14 464.75 303.86C470.35 303.38 472.73 299.05 472.73 294.4C472.74 287.35 467.14 283.02 454.74 284.14Z" fill="white"></path>
<path d="M583.13 273.99C563.51 275.23 546.99 290.63 546.79 310.42C546.78 311.76 546.91 313.06 547.09 314.31C546.94 314.47 546.79 314.61 546.62 314.8C544.41 317.22 543.06 318.71 540.17 318.91C537.11 319.12 534.9 317.19 534.9 313.36C534.9 305.53 540 298.36 540 289.65C540 282.15 534.9 278.18 525.56 278.93C515.88 279.71 507.9 286.27 503.66 291.46C506.04 283.65 513.51 269.12 513.51 259.41C513.51 250.74 508.08 246.36 499.08 247.18C489.4 248.06 480.4 254.6 480.4 258.22C480.4 259.6 481.42 260.19 482.95 260.05C486.52 259.72 489.55 262.37 489.4 267.92C488.81 290.49 475.76 312.57 474.46 334.02C474.29 336.76 475.65 337.71 477.69 337.56C480.41 337.35 487.2 335.96 492.46 335.56C494.84 335.38 496.02 334.6 496.02 331.66C496.19 328.02 500.19 310.05 503.15 303.95C506.59 296.87 510.28 292.64 513.85 292.35C516.23 292.16 517.93 293.59 517.93 296.19C517.93 302.79 512.5 312.23 512.5 321.59C512.5 329.56 517.25 334.59 527.61 333.87C538.27 333.13 545.55 325.91 549.13 320.96C552.84 328.35 560.79 332.37 571.42 331.75C591.72 330.56 604.45 312.56 604.36 293.29C604.3 281.17 595.66 273.19 583.13 273.99ZM580.58 318.41C573.96 318.8 569.54 313.99 569.54 306.1C569.54 296.11 573.62 289.32 577.86 285.57C580.22 283.48 581.94 282.85 582.62 282.8C583.64 282.73 584.15 283.23 584.15 284.11C584.15 285.17 581.6 286.73 581.6 291.12C581.6 294.28 583.13 296.11 588.39 297.91C590.77 298.82 591.79 301.4 591.79 304.39C591.79 310.55 587.37 318.01 580.58 318.41Z" fill="white"></path>
<path d="M653.939 270.87C643.579 271.29 635.429 278.79 633.899 281.34C633.899 281.34 634.409 279.19 634.409 276.35C634.409 273.33 632.369 271.83 628.639 272.02C618.789 272.52 609.619 275.7 609.619 279.58C609.619 281.88 610.809 282.16 610.809 285.16C610.639 289.23 610.529 295.17 606.729 313.8C603.229 330.94 596.829 348.5 596.709 366.11C596.659 374.16 601.799 379.63 610.799 379.29C622.009 378.87 629.819 371.91 629.819 369.07C629.819 367.65 628.969 366.97 627.439 367.02C623.699 367.15 620.479 364.78 620.479 358.95C620.479 351.17 624.049 331.91 626.089 323.5C627.109 324.52 631.999 328.16 639.159 327.78C658.409 326.75 671.159 307.95 671.419 289.86C671.599 277.9 664.639 270.43 653.939 270.87ZM635.259 318.89C631.689 319.03 629.829 317.16 629.829 313.97C629.829 306.52 632.619 296.1 634.579 291.42C636.819 286.09 640.349 282.47 643.579 282.33C647.319 282.17 648.839 284.24 648.839 288.87C648.839 298.47 644.769 318.51 635.259 318.89Z" fill="white"></path>
</svg>
