<svg width="414" height="217" viewBox="0 0 414 217" fill="none" xmlns="http://www.w3.org/2000/svg">
<path d="M401 77C403.31 70.32 410.14 58.45 404.92 51.08C399.69 43.71 401.05 36.17 398.32 28.68C395.6 21.19 388.83 17.1 381 15C373.17 12.9 362.77 17.59 357.77 23.77C352.76 29.94 351.2 38.25 342 39C332.8 39.75 323.74 41.66 314 42C304.26 42.34 294.99 43.56 285.02 44.02C275.06 44.49 266.14 46.19 256 47C245.86 47.81 237.92 48.14 228 50C218.08 51.86 207.01 51.59 209 40C210.99 28.41 204.24 24.55 199.25 17.75C194.26 10.96 186.84 9.4 179 7C171.16 4.6 160.64 13.8 153.08 11.92C145.51 10.04 141.12 4.55 133.02 2.98C124.92 1.4 112.04 0.69 103 1C93.96 1.31 84.29 2.9 76.07 5.07C67.86 7.25 60.61 10.13 53.02 13.02C45.44 15.92 39.67 19.84 33.03 24.03C26.38 28.22 21.02 32.55 15.25 38.25C9.46997 43.95 6.10997 49.82 3.31997 57.32C0.529971 64.82 -0.650029 76.83 2.06997 84.93C4.79997 93.02 8.49997 97.98 15.3 103.7C22.11 109.41 27.89 111.4 38 112C48.1 112.61 40.81 127.23 33.25 128.25C25.68 129.26 21.09 138.8 19.78 145.78C18.47 152.76 20.56 166.46 18 174C15.43 181.54 19.22 190.21 23.97 195.03C28.72 199.86 33.22 204.68 42 206C50.78 207.32 62.64 205.24 72 205C81.36 204.76 93.44 204.83 103 204C112.55 203.17 122.18 202.16 132 202C141.82 201.84 151.15 200.51 161 200C170.85 199.49 181.03 198.4 191 198C200.97 197.6 210 196.85 220 196C230.01 195.15 238.61 194.61 249 194C259.39 193.39 267.58 195.39 278 192C288.42 188.61 290.75 197.95 294.03 205.97C297.3 214 306.73 215.48 315 216C323.27 216.52 332.69 214.28 339.25 209.25C345.8 204.21 347.78 193.88 347 186C364.24 178.05 370.39 157.78 368 139C391.34 135.09 421.87 108.99 411 83C407.37 81.45 404.28 79.21 401 77ZM122 75C130.38 76.87 136.13 81.32 140.3 88.7C144.48 96.07 143.84 108.49 140.22 116.22C136.61 123.96 131.44 128.61 124.3 133.3C117.17 137.99 107.8 139.58 99 140C90.2 140.42 79.9 132.12 71.31 137.31C62.71 142.5 52.46 143.21 58.75 133.75C65.05 124.29 63.05 118.4 66 109C68.94 99.6 70.25 91.21 71.93 81.93C73.61 72.64 75.53 63.53 77.78 54.78C80.03 46.02 82.51 39.57 89 33C81.71 34.69 74.62 37.04 68.3 41.3C61.98 45.57 57.82 48.41 53.25 55.25C48.67 62.08 50.34 74.82 61 72C71.66 69.18 62.64 82.51 57.75 85.75C52.87 89 42.13 94.23 35 92C27.87 89.77 22.27 84.58 21.07 76.93C19.88 69.27 23.15 60.46 27.3 54.3C31.46 48.15 36.55 44.69 42.7 40.7C48.84 36.7 54.97 33.71 62.08 31.08C69.18 28.44 77.01 26.53 84.67 24.67C92.34 22.82 101.73 21.01 110 21C118.27 20.99 128.59 20.67 135.68 24.32C142.76 27.97 146.81 34.43 146.99 42.01C147.17 49.59 142.82 56.5 138.25 62.25C133.68 67.99 127.23 70.37 122 75ZM257 66C261.43 72.58 258.92 83.15 255.22 90.22C251.53 97.29 253.51 114.25 262.69 108.69C271.88 103.14 269.86 94.26 271.78 85.78C273.69 77.3 269.26 67.27 280.02 65.02C290.79 62.78 300.32 58.42 298 72C304.74 68.02 309.14 62.37 317.22 60.22C325.3 58.08 336.38 59.26 336 70C335.62 80.74 332.82 85.55 331.07 96.07C329.33 106.6 345.28 104.72 344.78 94.78C344.28 84.84 350.9 78.15 349 68C341.04 65.78 346.65 57.66 352.22 57.22C357.8 56.79 360.97 51.04 365.25 48.25C369.53 45.46 368.94 36.82 374.25 35.25C379.55 33.67 382.07 42.35 378.01 49.01C373.94 55.67 385.92 55.55 385.99 61.01C386.07 66.47 376.28 65.56 374.23 71.23C372.18 76.9 372.29 83.57 370.67 89.67C369.05 95.77 371.49 103.88 379 102C386.52 100.12 384.83 92.62 393 94C390.92 113.31 357 130 346 110C340.38 113.99 333.77 118.57 326.99 119.99C320.22 121.41 308.72 120.67 307.03 111.97C305.34 103.28 306.32 96.97 309.99 87.99C313.67 79.02 308.78 72.08 301.75 79.75C294.72 87.42 296.12 91.98 292.08 99.08C288.03 106.18 292.18 119.55 285.32 122.32C278.46 125.09 263.35 128.34 265 118C256.23 126.19 235.86 133.4 230 119C223.09 122.37 218.5 125.64 211.31 129.31C204.11 132.97 195.13 131.46 189.25 126.75C183.36 122.04 177.37 134.22 169.99 133.99C162.62 133.76 153.49 135.65 150.08 126.92C146.67 118.2 148.09 109.88 150.33 101.33C152.57 92.78 154.21 86.36 156.98 77.98C159.74 69.59 159.57 61.84 162 53C164.43 44.15 148.01 41.64 155.3 35.3C162.58 28.96 168.43 28.62 178 28C187.57 27.38 190.19 38.9 188.67 46.67C187.15 54.44 184.74 62.79 183.07 70.07C181.41 77.36 176.76 86.76 176.67 93.67C176.59 100.59 168.08 113.38 177.25 117.75C186.42 122.12 187.15 105.88 189.98 100.98C192.8 96.07 189.79 81.24 193.26 77.26C196.72 73.28 210.55 69.73 216.07 71.93C221.6 74.12 217.18 89.96 215.07 95.07C212.96 100.19 209.33 117.17 219 114C228.67 110.83 226.67 102.91 230.98 95.98C235.28 89.04 230.12 79.23 234.25 73.25C238.37 67.27 250.35 67.78 257 66ZM264 147C269.07 143.64 284.59 143.01 280 154C275.41 164.99 282.86 166.58 283.93 156.93C285 147.27 290.71 147 297.07 143.07C303.44 139.15 313.94 143.6 313.93 151.07C313.91 158.54 311.36 165.07 305.3 169.3C299.24 173.54 289.64 172.89 284 168C281.92 174.63 262.76 176.07 266 166C269.25 155.92 265.69 148.54 261.08 159.08C256.46 169.61 259.89 176.58 246 175C244.43 160.95 260.58 143.32 249 133C260.72 120.37 272.58 134.58 264 147ZM151 156C167.1 149.14 168.9 166.13 162.25 175.25C155.59 184.36 139.16 187.12 135.03 175.97C130.9 164.82 148.92 151.15 136 145C138.1 140.27 145.55 136.71 151.07 139.93C156.6 143.15 151.31 151.23 151 156ZM325 169C323.79 175.69 317.76 187.69 327 191C325.79 196.74 311.09 200.84 309.23 192.77C307.37 184.7 311.46 176.74 312.93 168.93C314.39 161.11 317.08 151.62 316 143C319.94 143.14 327.69 137.56 329 144C338.41 134.72 350.92 143.61 348 155C345.08 166.39 335.89 172.36 325 169ZM53 162C57.41 160.69 67.53 158.48 68.92 165.08C70.31 171.67 68.67 179.04 63.25 183.25C57.82 187.45 50.9 187.91 43.93 186.07C36.95 184.23 38.06 175.19 38.98 169.98C39.89 164.76 48.37 157.37 43.07 151.93C37.78 146.49 46.6 142.45 53.67 145.33C60.74 148.21 54.75 157.96 53 162ZM239 158C254.83 168.38 231 184.29 221.25 173.75C211.51 163.2 233.08 162.77 230 171C232.31 163.98 217.69 156.67 229.08 149.08C240.48 141.49 252.78 154.55 239 158ZM211 153C224.33 140.97 225.79 166.98 211 160C209.36 165.54 206.1 170.72 207 177C203.79 178.44 194.98 181.8 195 176C188.46 181.69 169.54 184.62 167.69 173.31C165.85 161.99 173.38 152.76 186.01 152.01C198.64 151.26 194.44 170.86 181 170C189.02 182 203.22 162.74 198 153C201.77 152.5 210.45 146.43 211 153ZM123 167C121.99 171.69 119.06 177.12 119 182C118.95 186.88 107.44 186.83 107 183C102.87 185.61 95.02 188.68 92 183C87.15 184.89 76.14 190.72 72.25 183.75C68.36 176.78 70.18 170.08 76.25 164.25C82.32 158.41 90.88 160.85 99.67 159.67C108.46 158.49 100.48 171.29 102 178C107.32 179.79 113.05 170.83 110.78 165.78C108.5 160.73 117.65 154.97 122 158C126.35 161.03 131.89 153.53 134.92 160.08C137.94 166.64 126.9 169.88 123 167Z" stroke="#38415E" stroke-width="0.3"></path>
<path d="M122 75C127.23 70.37 133.68 67.99 138.25 62.25C142.82 56.5 147.17 49.59 146.99 42.01C146.81 34.43 142.76 27.97 135.68 24.32C128.59 20.67 118.27 20.99 110 21C101.73 21.01 92.34 22.82 84.67 24.67C77.01 26.53 69.18 28.44 62.08 31.08C54.97 33.71 48.84 36.7 42.7 40.7C36.55 44.69 31.46 48.15 27.3 54.3C23.15 60.46 19.88 69.27 21.07 76.93C22.27 84.58 27.87 89.77 35 92C42.13 94.23 52.87 89 57.75 85.75C62.64 82.51 71.66 69.18 61 72C50.34 74.82 48.67 62.08 53.25 55.25C57.82 48.41 61.98 45.57 68.3 41.3C74.62 37.04 81.71 34.69 89 33C82.51 39.57 80.03 46.02 77.78 54.78C75.53 63.53 73.61 72.64 71.93 81.93C70.25 91.21 68.94 99.6 66 109C63.05 118.4 65.05 124.29 58.75 133.75C52.46 143.21 62.71 142.5 71.31 137.31C79.9 132.12 90.2 140.42 99 140C107.8 139.58 117.17 137.99 124.3 133.3C131.44 128.61 136.61 123.96 140.22 116.22C143.84 108.49 144.48 96.07 140.3 88.7C136.13 81.32 130.38 76.87 122 75ZM100 69C101.28 54.67 104.08 52.19 108.77 37.77C113.46 23.35 126.52 37.83 120.07 48.07C113.63 58.32 109.98 63.3 100 69ZM97 80C117.85 76.76 113.83 98.28 113.67 110.67C113.51 123.06 93.54 138.92 90.01 122.99C86.47 107.07 98.21 95.33 97 80Z" stroke="#EFE1C6" stroke-width="0.3"></path>
<path d="M257 66C250.35 67.78 238.37 67.27 234.25 73.25C230.12 79.23 235.28 89.04 230.98 95.98C226.67 102.91 228.67 110.83 219 114C209.33 117.17 212.96 100.19 215.07 95.07C217.18 89.96 221.6 74.12 216.07 71.93C210.55 69.73 196.72 73.28 193.26 77.26C189.79 81.24 192.8 96.07 189.98 100.98C187.15 105.88 186.42 122.12 177.25 117.75C168.08 113.38 176.59 100.59 176.67 93.67C176.76 86.76 181.41 77.36 183.07 70.07C184.74 62.79 187.15 54.44 188.67 46.67C190.19 38.9 187.57 27.38 178 28C168.43 28.62 162.58 28.96 155.3 35.3C148.01 41.64 164.43 44.15 162 53C159.57 61.84 159.74 69.59 156.98 77.98C154.21 86.36 152.57 92.78 150.33 101.33C148.09 109.88 146.67 118.2 150.08 126.92C153.49 135.65 162.62 133.76 169.99 133.99C177.37 134.22 183.36 122.04 189.25 126.75C195.13 131.46 204.11 132.97 211.31 129.31C218.5 125.64 223.09 122.37 230 119C235.86 133.4 256.23 126.19 265 118C263.35 128.34 278.46 125.09 285.32 122.32C292.18 119.55 288.03 106.18 292.08 99.08C296.12 91.98 294.72 87.42 301.75 79.75C308.78 72.08 313.67 79.02 309.99 87.99C306.32 96.97 305.34 103.28 307.03 111.97C308.72 120.67 320.22 121.41 326.99 119.99C333.77 118.57 340.38 113.99 346 110C357 130 390.92 113.31 393 94C384.83 92.62 386.52 100.12 379 102C371.49 103.88 369.05 95.77 370.67 89.67C372.29 83.57 372.18 76.9 374.23 71.23C376.28 65.56 386.07 66.47 385.99 61.01C385.92 55.55 373.94 55.67 378.01 49.01C382.07 42.35 379.55 33.67 374.25 35.25C368.94 36.82 369.53 45.46 365.25 48.25C360.97 51.04 357.8 56.79 352.22 57.22C346.65 57.66 341.04 65.78 349 68C350.9 78.15 344.28 84.84 344.78 94.78C345.28 104.72 329.33 106.6 331.07 96.07C332.82 85.55 335.62 80.74 336 70C336.38 59.26 325.3 58.08 317.22 60.22C309.14 62.37 304.74 68.02 298 72C300.32 58.42 290.79 62.78 280.02 65.02C269.26 67.27 273.69 77.3 271.78 85.78C269.86 94.26 271.88 103.14 262.69 108.69C253.51 114.25 251.53 97.29 255.22 90.22C258.92 83.15 261.43 72.58 257 66Z" stroke="#EFE1C6" stroke-width="0.3"></path>
<path d="M100 69C109.98 63.3 113.63 58.32 120.07 48.07C126.52 37.83 113.46 23.35 108.77 37.77C104.08 52.19 101.28 54.67 100 69Z" stroke="#38415E" stroke-width="0.3"></path>
<path d="M97 80C98.21 95.33 86.47 107.07 90.01 122.99C93.54 138.92 113.51 123.06 113.67 110.67C113.83 98.28 117.85 76.76 97 80Z" stroke="#38415E" stroke-width="0.3"></path>
<path d="M264 147C272.58 134.58 260.72 120.37 249 133C260.58 143.32 244.43 160.95 246 175C259.89 176.58 256.46 169.61 261.08 159.08C265.69 148.54 269.25 155.92 266 166C262.76 176.07 281.92 174.63 284 168C289.64 172.89 299.24 173.54 305.3 169.3C311.36 165.07 313.91 158.54 313.93 151.07C313.94 143.6 303.44 139.15 297.07 143.07C290.71 147 285 147.27 283.93 156.93C282.86 166.58 275.41 164.99 280 154C284.59 143.01 269.07 143.64 264 147ZM302 148C300.51 152.45 312.03 161.99 301.77 164.77C291.51 167.55 295.66 147.94 302 148Z" stroke="#EFE1C6" stroke-width="0.3"></path>
<path d="M151 156C151.31 151.23 156.6 143.15 151.07 139.93C145.55 136.71 138.1 140.27 136 145C148.92 151.15 130.9 164.82 135.03 175.97C139.16 187.12 155.59 184.36 162.25 175.25C168.9 166.13 167.1 149.14 151 156ZM146 178C144.58 173.97 149.37 158.62 154.08 161.93C158.78 165.24 150.88 179.68 146 178Z" stroke="#EFE1C6" stroke-width="0.3"></path>
<path d="M325 169C335.89 172.36 345.08 166.39 348 155C350.92 143.61 338.41 134.72 329 144C327.69 137.56 319.94 143.14 316 143C317.08 151.62 314.39 161.11 312.93 168.93C311.46 176.74 307.37 184.7 309.23 192.77C311.09 200.84 325.79 196.74 327 191C317.76 187.69 323.79 175.69 325 169ZM335 147C339.18 149.55 333.49 166.83 328.32 164.66C323.15 162.49 330.59 144.31 335 147Z" stroke="#EFE1C6" stroke-width="0.3"></path>
<path d="M52.9999 162C54.7499 157.96 60.7399 148.21 53.6699 145.33C46.5999 142.45 37.7799 146.49 43.0699 151.93C48.3699 157.37 39.8899 164.76 38.9799 169.98C38.0599 175.19 36.9499 184.23 43.9299 186.07C50.8999 187.91 57.8199 187.45 63.2499 183.25C68.6699 179.04 70.3099 171.67 68.9199 165.08C67.5299 158.48 57.4099 160.69 52.9999 162ZM55.9999 166C60.9799 167.52 55.7199 183.51 50.9899 181.99C46.2699 180.47 51.9199 164.75 55.9999 166Z" stroke="#EFE1C6" stroke-width="0.3"></path>
<path d="M239 158C252.78 154.55 240.48 141.49 229.08 149.08C217.69 156.67 232.31 163.98 230 171C233.08 162.77 211.51 163.2 221.25 173.75C231 184.29 254.83 168.38 239 158ZM236 158C235.57 156.03 233.87 152.86 237 152C238.47 153.09 239.05 158.4 236 158Z" stroke="#EFE1C6" stroke-width="0.3"></path>
<path d="M335 147C330.59 144.31 323.15 162.49 328.32 164.66C333.49 166.83 339.18 149.55 335 147Z" stroke="#38415E" stroke-width="0.3"></path>
<path d="M302 148C295.66 147.94 291.51 167.55 301.77 164.77C312.03 161.99 300.51 152.45 302 148Z" stroke="#38415E" stroke-width="0.3"></path>
<path d="M211 153C210.45 146.43 201.77 152.5 198 153C203.22 162.74 189.02 182 181 170C194.44 170.86 198.64 151.26 186.01 152.01C173.38 152.76 165.85 161.99 167.69 173.31C169.54 184.62 188.46 181.69 195 176C194.98 181.8 203.79 178.44 207 177C206.1 170.72 209.36 165.54 211 160C225.79 166.98 224.33 140.97 211 153ZM188 157C187.5 160.4 184.51 164.35 181 165C180.37 160.99 183.33 155.85 188 157Z" stroke="#EFE1C6" stroke-width="0.3"></path>
<path d="M236 158C239.05 158.4 238.47 153.09 237 152C233.87 152.86 235.57 156.03 236 158Z" stroke="#38415E" stroke-width="0.3"></path>
<path d="M123 167C126.9 169.88 137.94 166.64 134.92 160.08C131.89 153.53 126.35 161.03 122 158C117.65 154.97 108.5 160.73 110.78 165.78C113.05 170.83 107.32 179.79 102 178C100.48 171.29 108.46 158.49 99.67 159.67C90.88 160.85 82.32 158.41 76.25 164.25C70.18 170.08 68.36 176.78 72.25 183.75C76.14 190.72 87.15 184.89 92 183C95.02 188.68 102.87 185.61 107 183C107.44 186.83 118.95 186.88 119 182C119.06 177.12 121.99 171.69 123 167ZM91 164C93.11 167.77 88.74 182.79 83.92 180.06C79.1 177.34 84.73 161.43 91 164Z" stroke="#EFE1C6" stroke-width="0.3"></path>
<path d="M188 157C183.33 155.85 180.37 160.99 181 165C184.51 164.35 187.5 160.4 188 157Z" stroke="#38415E" stroke-width="0.3"></path>
<path d="M146 178C150.88 179.68 158.78 165.24 154.08 161.93C149.37 158.62 144.58 173.97 146 178Z" stroke="#38415E" stroke-width="0.3"></path>
<path d="M91 164C84.73 161.43 79.1 177.34 83.92 180.06C88.74 182.79 93.11 167.77 91 164Z" stroke="#38415E" stroke-width="0.3"></path>
<path d="M55.9999 166C51.92 164.75 46.27 180.47 50.99 181.99C55.72 183.51 60.9799 167.52 55.9999 166Z" stroke="#38415E" stroke-width="0.3"></path>
<path d="M401 77C403.31 70.32 410.14 58.45 404.92 51.08C399.69 43.71 401.05 36.17 398.32 28.68C395.6 21.19 388.83 17.1 381 15C373.17 12.9 362.77 17.59 357.77 23.77C352.76 29.94 351.2 38.25 342 39C332.8 39.75 323.74 41.66 314 42C304.26 42.34 294.99 43.56 285.02 44.02C275.06 44.49 266.14 46.19 256 47C245.86 47.81 237.92 48.14 228 50C218.08 51.86 207.01 51.59 209 40C210.99 28.41 204.24 24.55 199.25 17.75C194.26 10.96 186.84 9.4 179 7C171.16 4.6 160.64 13.8 153.08 11.92C145.51 10.04 141.12 4.55 133.02 2.98C124.92 1.4 112.04 0.69 103 1C93.96 1.31 84.29 2.9 76.07 5.07C67.86 7.25 60.61 10.13 53.02 13.02C45.44 15.92 39.67 19.84 33.03 24.03C26.38 28.22 21.02 32.55 15.25 38.25C9.46997 43.95 6.10997 49.82 3.31997 57.32C0.529971 64.82 -0.650029 76.83 2.06997 84.93C4.79997 93.02 8.49997 97.98 15.3 103.7C22.11 109.41 27.89 111.4 38 112C48.1 112.61 40.81 127.23 33.25 128.25C25.68 129.26 21.09 138.8 19.78 145.78C18.47 152.76 20.56 166.46 18 174C15.43 181.54 19.22 190.21 23.97 195.03C28.72 199.86 33.22 204.68 42 206C50.78 207.32 62.64 205.24 72 205C81.36 204.76 93.44 204.83 103 204C112.55 203.17 122.18 202.16 132 202C141.82 201.84 151.15 200.51 161 200C170.85 199.49 181.03 198.4 191 198C200.97 197.6 210 196.85 220 196C230.01 195.15 238.61 194.61 249 194C259.39 193.39 267.58 195.39 278 192C288.42 188.61 290.75 197.95 294.03 205.97C297.3 214 306.73 215.48 315 216C323.27 216.52 332.69 214.28 339.25 209.25C345.8 204.21 347.78 193.88 347 186C364.24 178.05 370.39 157.78 368 139C391.34 135.09 421.87 108.99 411 83C407.37 81.45 404.28 79.21 401 77ZM122 75C130.38 76.87 136.13 81.32 140.3 88.7C144.48 96.07 143.84 108.49 140.22 116.22C136.61 123.96 131.44 128.61 124.3 133.3C117.17 137.99 107.8 139.58 99 140C90.2 140.42 79.9 132.12 71.31 137.31C62.71 142.5 52.46 143.21 58.75 133.75C65.05 124.29 63.05 118.4 66 109C68.94 99.6 70.25 91.21 71.93 81.93C73.61 72.64 75.53 63.53 77.78 54.78C80.03 46.02 82.51 39.57 89 33C81.71 34.69 74.62 37.04 68.3 41.3C61.98 45.57 57.82 48.41 53.25 55.25C48.67 62.08 50.34 74.82 61 72C71.66 69.18 62.64 82.51 57.75 85.75C52.87 89 42.13 94.23 35 92C27.87 89.77 22.27 84.58 21.07 76.93C19.88 69.27 23.15 60.46 27.3 54.3C31.46 48.15 36.55 44.69 42.7 40.7C48.84 36.7 54.97 33.71 62.08 31.08C69.18 28.44 77.01 26.53 84.67 24.67C92.34 22.82 101.73 21.01 110 21C118.27 20.99 128.59 20.67 135.68 24.32C142.76 27.97 146.81 34.43 146.99 42.01C147.17 49.59 142.82 56.5 138.25 62.25C133.68 67.99 127.23 70.37 122 75ZM257 66C261.43 72.58 258.92 83.15 255.22 90.22C251.53 97.29 253.51 114.25 262.69 108.69C271.88 103.14 269.86 94.26 271.78 85.78C273.69 77.3 269.26 67.27 280.02 65.02C290.79 62.78 300.32 58.42 298 72C304.74 68.02 309.14 62.37 317.22 60.22C325.3 58.08 336.38 59.26 336 70C335.62 80.74 332.82 85.55 331.07 96.07C329.33 106.6 345.28 104.72 344.78 94.78C344.28 84.84 350.9 78.15 349 68C341.04 65.78 346.65 57.66 352.22 57.22C357.8 56.79 360.97 51.04 365.25 48.25C369.53 45.46 368.94 36.82 374.25 35.25C379.55 33.67 382.07 42.35 378.01 49.01C373.94 55.67 385.92 55.55 385.99 61.01C386.07 66.47 376.28 65.56 374.23 71.23C372.18 76.9 372.29 83.57 370.67 89.67C369.05 95.77 371.49 103.88 379 102C386.52 100.12 384.83 92.62 393 94C390.92 113.31 357 130 346 110C340.38 113.99 333.77 118.57 326.99 119.99C320.22 121.41 308.72 120.67 307.03 111.97C305.34 103.28 306.32 96.97 309.99 87.99C313.67 79.02 308.78 72.08 301.75 79.75C294.72 87.42 296.12 91.98 292.08 99.08C288.03 106.18 292.18 119.55 285.32 122.32C278.46 125.09 263.35 128.34 265 118C256.23 126.19 235.86 133.4 230 119C223.09 122.37 218.5 125.64 211.31 129.31C204.11 132.97 195.13 131.46 189.25 126.75C183.36 122.04 177.37 134.22 169.99 133.99C162.62 133.76 153.49 135.65 150.08 126.92C146.67 118.2 148.09 109.88 150.33 101.33C152.57 92.78 154.21 86.36 156.98 77.98C159.74 69.59 159.57 61.84 162 53C164.43 44.15 148.01 41.64 155.3 35.3C162.58 28.96 168.43 28.62 178 28C187.57 27.38 190.19 38.9 188.67 46.67C187.15 54.44 184.74 62.79 183.07 70.07C181.41 77.36 176.76 86.76 176.67 93.67C176.59 100.59 168.08 113.38 177.25 117.75C186.42 122.12 187.15 105.88 189.98 100.98C192.8 96.07 189.79 81.24 193.26 77.26C196.72 73.28 210.55 69.73 216.07 71.93C221.6 74.12 217.18 89.96 215.07 95.07C212.96 100.19 209.33 117.17 219 114C228.67 110.83 226.67 102.91 230.98 95.98C235.28 89.04 230.12 79.23 234.25 73.25C238.37 67.27 250.35 67.78 257 66ZM264 147C269.07 143.64 284.59 143.01 280 154C275.41 164.99 282.86 166.58 283.93 156.93C285 147.27 290.71 147 297.07 143.07C303.44 139.15 313.94 143.6 313.93 151.07C313.91 158.54 311.36 165.07 305.3 169.3C299.24 173.54 289.64 172.89 284 168C281.92 174.63 262.76 176.07 266 166C269.25 155.92 265.69 148.54 261.08 159.08C256.46 169.61 259.89 176.58 246 175C244.43 160.95 260.58 143.32 249 133C260.72 120.37 272.58 134.58 264 147ZM151 156C167.1 149.14 168.9 166.13 162.25 175.25C155.59 184.36 139.16 187.12 135.03 175.97C130.9 164.82 148.92 151.15 136 145C138.1 140.27 145.55 136.71 151.07 139.93C156.6 143.15 151.31 151.23 151 156ZM325 169C323.79 175.69 317.76 187.69 327 191C325.79 196.74 311.09 200.84 309.23 192.77C307.37 184.7 311.46 176.74 312.93 168.93C314.39 161.11 317.08 151.62 316 143C319.94 143.14 327.69 137.56 329 144C338.41 134.72 350.92 143.61 348 155C345.08 166.39 335.89 172.36 325 169ZM53 162C57.41 160.69 67.53 158.48 68.92 165.08C70.31 171.67 68.67 179.04 63.25 183.25C57.82 187.45 50.9 187.91 43.93 186.07C36.95 184.23 38.06 175.19 38.98 169.98C39.89 164.76 48.37 157.37 43.07 151.93C37.78 146.49 46.6 142.45 53.67 145.33C60.74 148.21 54.75 157.96 53 162ZM239 158C254.83 168.38 231 184.29 221.25 173.75C211.51 163.2 233.08 162.77 230 171C232.31 163.98 217.69 156.67 229.08 149.08C240.48 141.49 252.78 154.55 239 158ZM211 153C224.33 140.97 225.79 166.98 211 160C209.36 165.54 206.1 170.72 207 177C203.79 178.44 194.98 181.8 195 176C188.46 181.69 169.54 184.62 167.69 173.31C165.85 161.99 173.38 152.76 186.01 152.01C198.64 151.26 194.44 170.86 181 170C189.02 182 203.22 162.74 198 153C201.77 152.5 210.45 146.43 211 153ZM123 167C121.99 171.69 119.06 177.12 119 182C118.95 186.88 107.44 186.83 107 183C102.87 185.61 95.02 188.68 92 183C87.15 184.89 76.14 190.72 72.25 183.75C68.36 176.78 70.18 170.08 76.25 164.25C82.32 158.41 90.88 160.85 99.67 159.67C108.46 158.49 100.48 171.29 102 178C107.32 179.79 113.05 170.83 110.78 165.78C108.5 160.73 117.65 154.97 122 158C126.35 161.03 131.89 153.53 134.92 160.08C137.94 166.64 126.9 169.88 123 167Z" fill="#38415E"></path>
<path d="M122 75C127.23 70.37 133.68 67.99 138.25 62.25C142.82 56.5 147.17 49.59 146.99 42.01C146.81 34.43 142.76 27.97 135.68 24.32C128.59 20.67 118.27 20.99 110 21C101.73 21.01 92.34 22.82 84.67 24.67C77.01 26.53 69.18 28.44 62.08 31.08C54.97 33.71 48.84 36.7 42.7 40.7C36.55 44.69 31.46 48.15 27.3 54.3C23.15 60.46 19.88 69.27 21.07 76.93C22.27 84.58 27.87 89.77 35 92C42.13 94.23 52.87 89 57.75 85.75C62.64 82.51 71.66 69.18 61 72C50.34 74.82 48.67 62.08 53.25 55.25C57.82 48.41 61.98 45.57 68.3 41.3C74.62 37.04 81.71 34.69 89 33C82.51 39.57 80.03 46.02 77.78 54.78C75.53 63.53 73.61 72.64 71.93 81.93C70.25 91.21 68.94 99.6 66 109C63.05 118.4 65.05 124.29 58.75 133.75C52.46 143.21 62.71 142.5 71.31 137.31C79.9 132.12 90.2 140.42 99 140C107.8 139.58 117.17 137.99 124.3 133.3C131.44 128.61 136.61 123.96 140.22 116.22C143.84 108.49 144.48 96.07 140.3 88.7C136.13 81.32 130.38 76.87 122 75ZM100 69C101.28 54.67 104.08 52.19 108.77 37.77C113.46 23.35 126.52 37.83 120.07 48.07C113.63 58.32 109.98 63.3 100 69ZM97 80C117.85 76.76 113.83 98.28 113.67 110.67C113.51 123.06 93.54 138.92 90.01 122.99C86.47 107.07 98.21 95.33 97 80Z" fill="#EFE1C6"></path>
<path d="M257 66C250.35 67.78 238.37 67.27 234.25 73.25C230.12 79.23 235.28 89.04 230.98 95.98C226.67 102.91 228.67 110.83 219 114C209.33 117.17 212.96 100.19 215.07 95.07C217.18 89.96 221.6 74.12 216.07 71.93C210.55 69.73 196.72 73.28 193.26 77.26C189.79 81.24 192.8 96.07 189.98 100.98C187.15 105.88 186.42 122.12 177.25 117.75C168.08 113.38 176.59 100.59 176.67 93.67C176.76 86.76 181.41 77.36 183.07 70.07C184.74 62.79 187.15 54.44 188.67 46.67C190.19 38.9 187.57 27.38 178 28C168.43 28.62 162.58 28.96 155.3 35.3C148.01 41.64 164.43 44.15 162 53C159.57 61.84 159.74 69.59 156.98 77.98C154.21 86.36 152.57 92.78 150.33 101.33C148.09 109.88 146.67 118.2 150.08 126.92C153.49 135.65 162.62 133.76 169.99 133.99C177.37 134.22 183.36 122.04 189.25 126.75C195.13 131.46 204.11 132.97 211.31 129.31C218.5 125.64 223.09 122.37 230 119C235.86 133.4 256.23 126.19 265 118C263.35 128.34 278.46 125.09 285.32 122.32C292.18 119.55 288.03 106.18 292.08 99.08C296.12 91.98 294.72 87.42 301.75 79.75C308.78 72.08 313.67 79.02 309.99 87.99C306.32 96.97 305.34 103.28 307.03 111.97C308.72 120.67 320.22 121.41 326.99 119.99C333.77 118.57 340.38 113.99 346 110C357 130 390.92 113.31 393 94C384.83 92.62 386.52 100.12 379 102C371.49 103.88 369.05 95.77 370.67 89.67C372.29 83.57 372.18 76.9 374.23 71.23C376.28 65.56 386.07 66.47 385.99 61.01C385.92 55.55 373.94 55.67 378.01 49.01C382.07 42.35 379.55 33.67 374.25 35.25C368.94 36.82 369.53 45.46 365.25 48.25C360.97 51.04 357.8 56.79 352.22 57.22C346.65 57.66 341.04 65.78 349 68C350.9 78.15 344.28 84.84 344.78 94.78C345.28 104.72 329.33 106.6 331.07 96.07C332.82 85.55 335.62 80.74 336 70C336.38 59.26 325.3 58.08 317.22 60.22C309.14 62.37 304.74 68.02 298 72C300.32 58.42 290.79 62.78 280.02 65.02C269.26 67.27 273.69 77.3 271.78 85.78C269.86 94.26 271.88 103.14 262.69 108.69C253.51 114.25 251.53 97.29 255.22 90.22C258.92 83.15 261.43 72.58 257 66Z" fill="#EFE1C6"></path>
<path d="M100 69C109.98 63.3 113.63 58.32 120.07 48.07C126.52 37.83 113.46 23.35 108.77 37.77C104.08 52.19 101.28 54.67 100 69Z" fill="#38415E"></path>
<path d="M97 80C98.21 95.33 86.47 107.07 90.01 122.99C93.54 138.92 113.51 123.06 113.67 110.67C113.83 98.28 117.85 76.76 97 80Z" fill="#38415E"></path>
<path d="M264 147C272.58 134.58 260.72 120.37 249 133C260.58 143.32 244.43 160.95 246 175C259.89 176.58 256.46 169.61 261.08 159.08C265.69 148.54 269.25 155.92 266 166C262.76 176.07 281.92 174.63 284 168C289.64 172.89 299.24 173.54 305.3 169.3C311.36 165.07 313.91 158.54 313.93 151.07C313.94 143.6 303.44 139.15 297.07 143.07C290.71 147 285 147.27 283.93 156.93C282.86 166.58 275.41 164.99 280 154C284.59 143.01 269.07 143.64 264 147ZM302 148C300.51 152.45 312.03 161.99 301.77 164.77C291.51 167.55 295.66 147.94 302 148Z" fill="#EFE1C6"></path>
<path d="M151 156C151.31 151.23 156.6 143.15 151.07 139.93C145.55 136.71 138.1 140.27 136 145C148.92 151.15 130.9 164.82 135.03 175.97C139.16 187.12 155.59 184.36 162.25 175.25C168.9 166.13 167.1 149.14 151 156ZM146 178C144.58 173.97 149.37 158.62 154.08 161.93C158.78 165.24 150.88 179.68 146 178Z" fill="#EFE1C6"></path>
<path d="M325 169C335.89 172.36 345.08 166.39 348 155C350.92 143.61 338.41 134.72 329 144C327.69 137.56 319.94 143.14 316 143C317.08 151.62 314.39 161.11 312.93 168.93C311.46 176.74 307.37 184.7 309.23 192.77C311.09 200.84 325.79 196.74 327 191C317.76 187.69 323.79 175.69 325 169ZM335 147C339.18 149.55 333.49 166.83 328.32 164.66C323.15 162.49 330.59 144.31 335 147Z" fill="#EFE1C6"></path>
<path d="M52.9999 162C54.7499 157.96 60.7399 148.21 53.6699 145.33C46.5999 142.45 37.7799 146.49 43.0699 151.93C48.3699 157.37 39.8899 164.76 38.9799 169.98C38.0599 175.19 36.9499 184.23 43.9299 186.07C50.8999 187.91 57.8199 187.45 63.2499 183.25C68.6699 179.04 70.3099 171.67 68.9199 165.08C67.5299 158.48 57.4099 160.69 52.9999 162ZM55.9999 166C60.9799 167.52 55.7199 183.51 50.9899 181.99C46.2699 180.47 51.9199 164.75 55.9999 166Z" fill="#EFE1C6"></path>
<path d="M239 158C252.78 154.55 240.48 141.49 229.08 149.08C217.69 156.67 232.31 163.98 230 171C233.08 162.77 211.51 163.2 221.25 173.75C231 184.29 254.83 168.38 239 158ZM236 158C235.57 156.03 233.87 152.86 237 152C238.47 153.09 239.05 158.4 236 158Z" fill="#EFE1C6"></path>
<path d="M335 147C330.59 144.31 323.15 162.49 328.32 164.66C333.49 166.83 339.18 149.55 335 147Z" fill="#38415E"></path>
<path d="M302 148C295.66 147.94 291.51 167.55 301.77 164.77C312.03 161.99 300.51 152.45 302 148Z" fill="#38415E"></path>
<path d="M211 153C210.45 146.43 201.77 152.5 198 153C203.22 162.74 189.02 182 181 170C194.44 170.86 198.64 151.26 186.01 152.01C173.38 152.76 165.85 161.99 167.69 173.31C169.54 184.62 188.46 181.69 195 176C194.98 181.8 203.79 178.44 207 177C206.1 170.72 209.36 165.54 211 160C225.79 166.98 224.33 140.97 211 153ZM188 157C187.5 160.4 184.51 164.35 181 165C180.37 160.99 183.33 155.85 188 157Z" fill="#EFE1C6"></path>
<path d="M236 158C239.05 158.4 238.47 153.09 237 152C233.87 152.86 235.57 156.03 236 158Z" fill="#38415E"></path>
<path d="M123 167C126.9 169.88 137.94 166.64 134.92 160.08C131.89 153.53 126.35 161.03 122 158C117.65 154.97 108.5 160.73 110.78 165.78C113.05 170.83 107.32 179.79 102 178C100.48 171.29 108.46 158.49 99.67 159.67C90.88 160.85 82.32 158.41 76.25 164.25C70.18 170.08 68.36 176.78 72.25 183.75C76.14 190.72 87.15 184.89 92 183C95.02 188.68 102.87 185.61 107 183C107.44 186.83 118.95 186.88 119 182C119.06 177.12 121.99 171.69 123 167ZM91 164C93.11 167.77 88.74 182.79 83.92 180.06C79.1 177.34 84.73 161.43 91 164Z" fill="#EFE1C6"></path>
<path d="M188 157C183.33 155.85 180.37 160.99 181 165C184.51 164.35 187.5 160.4 188 157Z" fill="#38415E"></path>
<path d="M146 178C150.88 179.68 158.78 165.24 154.08 161.93C149.37 158.62 144.58 173.97 146 178Z" fill="#38415E"></path>
<path d="M91 164C84.73 161.43 79.1 177.34 83.92 180.06C88.74 182.79 93.11 167.77 91 164Z" fill="#38415E"></path>
<path d="M55.9999 166C51.92 164.75 46.27 180.47 50.99 181.99C55.72 183.51 60.9799 167.52 55.9999 166Z" fill="#38415E"></path>
</svg>
