<svg id="visual" viewBox="0 0 960 540" width="960" height="540" xmlns="http://www.w3.org/2000/svg" xmlns:xlink="http://www.w3.org/1999/xlink" version="1.1"><rect x="0" y="0" width="960" height="540" fill="#001220"></rect><path d="M0 336L17.8 322.2C35.7 308.3 71.3 280.7 106.8 274.5C142.3 268.3 177.7 283.7 213.2 277.2C248.7 270.7 284.3 242.3 320 253.8C355.7 265.3 391.3 316.7 426.8 321.7C462.3 326.7 497.7 285.3 533.2 276.7C568.7 268 604.3 292 640 296.7C675.7 301.3 711.3 286.7 746.8 292C782.3 297.3 817.7 322.7 853.2 323.5C888.7 324.3 924.3 300.7 942.2 288.8L960 277L960 0L942.2 0C924.3 0 888.7 0 853.2 0C817.7 0 782.3 0 746.8 0C711.3 0 675.7 0 640 0C604.3 0 568.7 0 533.2 0C497.7 0 462.3 0 426.8 0C391.3 0 355.7 0 320 0C284.3 0 248.7 0 213.2 0C177.7 0 142.3 0 106.8 0C71.3 0 35.7 0 17.8 0L0 0Z" fill="#212529"></path><path d="M0 144L17.8 146.2C35.7 148.3 71.3 152.7 106.8 176.5C142.3 200.3 177.7 243.7 213.2 242.5C248.7 241.3 284.3 195.7 320 199C355.7 202.3 391.3 254.7 426.8 279.3C462.3 304 497.7 301 533.2 284.7C568.7 268.3 604.3 238.7 640 236C675.7 233.3 711.3 257.7 746.8 261.3C782.3 265 817.7 248 853.2 222.8C888.7 197.7 924.3 164.3 942.2 147.7L960 131L960 0L942.2 0C924.3 0 888.7 0 853.2 0C817.7 0 782.3 0 746.8 0C711.3 0 675.7 0 640 0C604.3 0 568.7 0 533.2 0C497.7 0 462.3 0 426.8 0C391.3 0 355.7 0 320 0C284.3 0 248.7 0 213.2 0C177.7 0 142.3 0 106.8 0C71.3 0 35.7 0 17.8 0L0 0Z" fill="#252d36"></path><path d="M0 245L17.8 225C35.7 205 71.3 165 106.8 165.2C142.3 165.3 177.7 205.7 213.2 211C248.7 216.3 284.3 186.7 320 170.5C355.7 154.3 391.3 151.7 426.8 161.5C462.3 171.3 497.7 193.7 533.2 194.2C568.7 194.7 604.3 173.3 640 158.3C675.7 143.3 711.3 134.7 746.8 133.3C782.3 132 817.7 138 853.2 140.7C888.7 143.3 924.3 142.7 942.2 142.3L960 142L960 0L942.2 0C924.3 0 888.7 0 853.2 0C817.7 0 782.3 0 746.8 0C711.3 0 675.7 0 640 0C604.3 0 568.7 0 533.2 0C497.7 0 462.3 0 426.8 0C391.3 0 355.7 0 320 0C284.3 0 248.7 0 213.2 0C177.7 0 142.3 0 106.8 0C71.3 0 35.7 0 17.8 0L0 0Z" fill="#293443"></path><path d="M0 126L17.8 117.8C35.7 109.7 71.3 93.3 106.8 93.3C142.3 93.3 177.7 109.7 213.2 123.5C248.7 137.3 284.3 148.7 320 151.8C355.7 155 391.3 150 426.8 148.3C462.3 146.7 497.7 148.3 533.2 140C568.7 131.7 604.3 113.3 640 102.7C675.7 92 711.3 89 746.8 89.2C782.3 89.3 817.7 92.7 853.2 91.3C888.7 90 924.3 84 942.2 81L960 78L960 0L942.2 0C924.3 0 888.7 0 853.2 0C817.7 0 782.3 0 746.8 0C711.3 0 675.7 0 640 0C604.3 0 568.7 0 533.2 0C497.7 0 462.3 0 426.8 0C391.3 0 355.7 0 320 0C284.3 0 248.7 0 213.2 0C177.7 0 142.3 0 106.8 0C71.3 0 35.7 0 17.8 0L0 0Z" fill="#2f3b51"></path><path d="M0 57L17.8 53.3C35.7 49.7 71.3 42.3 106.8 50.2C142.3 58 177.7 81 213.2 93.8C248.7 106.7 284.3 109.3 320 104.2C355.7 99 391.3 86 426.8 75.5C462.3 65 497.7 57 533.2 61.5C568.7 66 604.3 83 640 80.5C675.7 78 711.3 56 746.8 43.5C782.3 31 817.7 28 853.2 35.3C888.7 42.7 924.3 60.3 942.2 69.2L960 78L960 0L942.2 0C924.3 0 888.7 0 853.2 0C817.7 0 782.3 0 746.8 0C711.3 0 675.7 0 640 0C604.3 0 568.7 0 533.2 0C497.7 0 462.3 0 426.8 0C391.3 0 355.7 0 320 0C284.3 0 248.7 0 213.2 0C177.7 0 142.3 0 106.8 0C71.3 0 35.7 0 17.8 0L0 0Z" fill="#38415e"></path></svg>