<svg id="visual" viewBox="0 0 960 540" width="960" height="540" xmlns="http://www.w3.org/2000/svg" xmlns:xlink="http://www.w3.org/1999/xlink" version="1.1"><path d="M0 131L22.8 131C45.7 131 91.3 131 137 121C182.7 111 228.3 91 274 92.7C319.7 94.3 365.3 117.7 411.2 119.5C457 121.3 503 101.7 548.8 93.7C594.7 85.7 640.3 89.3 686 85.7C731.7 82 777.3 71 823 76.3C868.7 81.7 914.3 103.3 937.2 114.2L960 125L960 0L937.2 0C914.3 0 868.7 0 823 0C777.3 0 731.7 0 686 0C640.3 0 594.7 0 548.8 0C503 0 457 0 411.2 0C365.3 0 319.7 0 274 0C228.3 0 182.7 0 137 0C91.3 0 45.7 0 22.8 0L0 0Z" fill="#212529"></path><path d="M0 222L22.8 223C45.7 224 91.3 226 137 209C182.7 192 228.3 156 274 154.2C319.7 152.3 365.3 184.7 411.2 194.5C457 204.3 503 191.7 548.8 178.2C594.7 164.7 640.3 150.3 686 142.3C731.7 134.3 777.3 132.7 823 140.8C868.7 149 914.3 167 937.2 176L960 185L960 123L937.2 112.2C914.3 101.3 868.7 79.7 823 74.3C777.3 69 731.7 80 686 83.7C640.3 87.3 594.7 83.7 548.8 91.7C503 99.7 457 119.3 411.2 117.5C365.3 115.7 319.7 92.3 274 90.7C228.3 89 182.7 109 137 119C91.3 129 45.7 129 22.8 129L0 129Z" fill="#242d36"></path><path d="M0 347L22.8 343.3C45.7 339.7 91.3 332.3 137 318.8C182.7 305.3 228.3 285.7 274 299.2C319.7 312.7 365.3 359.3 411.2 374.5C457 389.7 503 373.3 548.8 356.2C594.7 339 640.3 321 686 303C731.7 285 777.3 267 823 262.5C868.7 258 914.3 267 937.2 271.5L960 276L960 183L937.2 174C914.3 165 868.7 147 823 138.8C777.3 130.7 731.7 132.3 686 140.3C640.3 148.3 594.7 162.7 548.8 176.2C503 189.7 457 202.3 411.2 192.5C365.3 182.7 319.7 150.3 274 152.2C228.3 154 182.7 190 137 207C91.3 224 45.7 222 22.8 221L0 220Z" fill="#273444"></path><path d="M0 503L22.8 500.3C45.7 497.7 91.3 492.3 137 488.8C182.7 485.3 228.3 483.7 274 486.3C319.7 489 365.3 496 411.2 496.8C457 497.7 503 492.3 548.8 487C594.7 481.7 640.3 476.3 686 478.2C731.7 480 777.3 489 823 489.8C868.7 490.7 914.3 483.3 937.2 479.7L960 476L960 274L937.2 269.5C914.3 265 868.7 256 823 260.5C777.3 265 731.7 283 686 301C640.3 319 594.7 337 548.8 354.2C503 371.3 457 387.7 411.2 372.5C365.3 357.3 319.7 310.7 274 297.2C228.3 283.7 182.7 303.3 137 316.8C91.3 330.3 45.7 337.7 22.8 341.3L0 345Z" fill="#2c3b53"></path><path d="M0 541L22.8 541C45.7 541 91.3 541 137 541C182.7 541 228.3 541 274 541C319.7 541 365.3 541 411.2 541C457 541 503 541 548.8 541C594.7 541 640.3 541 686 541C731.7 541 777.3 541 823 541C868.7 541 914.3 541 937.2 541L960 541L960 474L937.2 477.7C914.3 481.3 868.7 488.7 823 487.8C777.3 487 731.7 478 686 476.2C640.3 474.3 594.7 479.7 548.8 485C503 490.3 457 495.7 411.2 494.8C365.3 494 319.7 487 274 484.3C228.3 481.7 182.7 483.3 137 486.8C91.3 490.3 45.7 495.7 22.8 498.3L0 501Z" fill="#344161"></path></svg>