<svg id="visual" viewBox="0 0 960 540" width="960" height="540" xmlns="http://www.w3.org/2000/svg" xmlns:xlink="http://www.w3.org/1999/xlink" version="1.1"><path d="M757 540L768.3 522C779.7 504 802.3 468 820 432C837.7 396 850.3 360 843.8 324C837.3 288 811.7 252 816.5 216C821.3 180 856.7 144 866.3 108C876 72 860 36 852 18L844 0L960 0L960 18C960 36 960 72 960 108C960 144 960 180 960 216C960 252 960 288 960 324C960 360 960 396 960 432C960 468 960 504 960 522L960 540Z" fill="#212529"></path><path d="M633 540L641 522C649 504 665 468 692.2 432C719.3 396 757.7 360 751.2 324C744.7 288 693.3 252 683.7 216C674 180 706 144 715.7 108C725.3 72 712.7 36 706.3 18L700 0L845 0L853 18C861 36 877 72 867.3 108C857.7 144 822.3 180 817.5 216C812.7 252 838.3 288 844.8 324C851.3 360 838.7 396 821 432C803.3 468 780.7 504 769.3 522L758 540Z" fill="#26323f"></path><path d="M527 540L538.2 522C549.3 504 571.7 468 605.3 432C639 396 684 360 682.5 324C681 288 633 252 618.5 216C604 180 623 144 634.2 108C645.3 72 648.7 36 650.3 18L652 0L701 0L707.3 18C713.7 36 726.3 72 716.7 108C707 144 675 180 684.7 216C694.3 252 745.7 288 752.2 324C758.7 360 720.3 396 693.2 432C666 468 650 504 642 522L634 540Z" fill="#2e3d57"></path><path d="M383 540L381.3 522C379.7 504 376.3 468 394 432C411.7 396 450.3 360 444 324C437.7 288 386.3 252 391 216C395.7 180 456.3 144 483.5 108C510.7 72 504.3 36 501.2 18L498 0L653 0L651.3 18C649.7 36 646.3 72 635.2 108C624 144 605 180 619.5 216C634 252 682 288 683.5 324C685 360 640 396 606.3 432C572.7 468 550.3 504 539.2 522L528 540Z" fill="#344161"></path><path d="M335 540L325.3 522C315.7 504 296.3 468 306 432C315.7 396 354.3 360 348 324C341.7 288 290.3 252 293.5 216C296.7 180 354.3 144 384.7 108C415 72 418 36 419.5 18L421 0L499 0L502.2 18C505.3 36 511.7 72 484.5 108C457.3 144 396.7 180 392 216C387.3 252 438.7 288 445 324C451.3 360 412.7 396 395 432C377.3 468 380.7 504 382.3 522L384 540Z" fill="#2e3d57"></path><path d="M229 540L221 522C213 504 197 468 208.3 432C219.7 396 258.3 360 255.2 324C252 288 207 252 213.3 216C219.7 180 277.3 144 301.3 108C325.3 72 315.7 36 310.8 18L306 0L422 0L420.5 18C419 36 416 72 385.7 108C355.3 144 297.7 180 294.5 216C291.3 252 342.7 288 349 324C355.3 360 316.7 396 307 432C297.3 468 316.7 504 326.3 522L336 540Z" fill="#26323f"></path><path d="M0 540L0 522C0 504 0 468 0 432C0 396 0 360 0 324C0 288 0 252 0 216C0 180 0 144 0 108C0 72 0 36 0 18L0 0L307 0L311.8 18C316.7 36 326.3 72 302.3 108C278.3 144 220.7 180 214.3 216C208 252 253 288 256.2 324C259.3 360 220.7 396 209.3 432C198 468 214 504 222 522L230 540Z" fill="#212529"></path></svg>