<svg id="visual" viewBox="0 0 960 540" width="960" height="540" xmlns="http://www.w3.org/2000/svg" xmlns:xlink="http://www.w3.org/1999/xlink" version="1.1"><path d="M0 152L22.8 151.2C45.7 150.3 91.3 148.7 137 141.5C182.7 134.3 228.3 121.7 274 121.7C319.7 121.7 365.3 134.3 411.2 133.5C457 132.7 503 118.3 548.8 123.7C594.7 129 640.3 154 686 160.2C731.7 166.3 777.3 153.7 823 150.2C868.7 146.7 914.3 152.3 937.2 155.2L960 158L960 0L937.2 0C914.3 0 868.7 0 823 0C777.3 0 731.7 0 686 0C640.3 0 594.7 0 548.8 0C503 0 457 0 411.2 0C365.3 0 319.7 0 274 0C228.3 0 182.7 0 137 0C91.3 0 45.7 0 22.8 0L0 0Z" fill="#212529"></path><path d="M0 303L22.8 304.8C45.7 306.7 91.3 310.3 137 311.3C182.7 312.3 228.3 310.7 274 306.2C319.7 301.7 365.3 294.3 411.2 299.7C457 305 503 323 548.8 325.7C594.7 328.3 640.3 315.7 686 304.8C731.7 294 777.3 285 823 292.3C868.7 299.7 914.3 323.3 937.2 335.2L960 347L960 156L937.2 153.2C914.3 150.3 868.7 144.7 823 148.2C777.3 151.7 731.7 164.3 686 158.2C640.3 152 594.7 127 548.8 121.7C503 116.3 457 130.7 411.2 131.5C365.3 132.3 319.7 119.7 274 119.7C228.3 119.7 182.7 132.3 137 139.5C91.3 146.7 45.7 148.3 22.8 149.2L0 150Z" fill="#242d36"></path><path d="M0 433L22.8 424.8C45.7 416.7 91.3 400.3 137 394C182.7 387.7 228.3 391.3 274 390.5C319.7 389.7 365.3 384.3 411.2 392.5C457 400.7 503 422.3 548.8 426C594.7 429.7 640.3 415.3 686 404.5C731.7 393.7 777.3 386.3 823 389.8C868.7 393.3 914.3 407.7 937.2 414.8L960 422L960 345L937.2 333.2C914.3 321.3 868.7 297.7 823 290.3C777.3 283 731.7 292 686 302.8C640.3 313.7 594.7 326.3 548.8 323.7C503 321 457 303 411.2 297.7C365.3 292.3 319.7 299.7 274 304.2C228.3 308.7 182.7 310.3 137 309.3C91.3 308.3 45.7 304.7 22.8 302.8L0 301Z" fill="#273444"></path><path d="M0 471L22.8 470C45.7 469 91.3 467 137 465.2C182.7 463.3 228.3 461.7 274 458.2C319.7 454.7 365.3 449.3 411.2 453.8C457 458.3 503 472.7 548.8 473.5C594.7 474.3 640.3 461.7 686 457.2C731.7 452.7 777.3 456.3 823 458.2C868.7 460 914.3 460 937.2 460L960 460L960 420L937.2 412.8C914.3 405.7 868.7 391.3 823 387.8C777.3 384.3 731.7 391.7 686 402.5C640.3 413.3 594.7 427.7 548.8 424C503 420.3 457 398.7 411.2 390.5C365.3 382.3 319.7 387.7 274 388.5C228.3 389.3 182.7 385.7 137 392C91.3 398.3 45.7 414.7 22.8 422.8L0 431Z" fill="#2c3b53"></path><path d="M0 541L22.8 541C45.7 541 91.3 541 137 541C182.7 541 228.3 541 274 541C319.7 541 365.3 541 411.2 541C457 541 503 541 548.8 541C594.7 541 640.3 541 686 541C731.7 541 777.3 541 823 541C868.7 541 914.3 541 937.2 541L960 541L960 458L937.2 458C914.3 458 868.7 458 823 456.2C777.3 454.3 731.7 450.7 686 455.2C640.3 459.7 594.7 472.3 548.8 471.5C503 470.7 457 456.3 411.2 451.8C365.3 447.3 319.7 452.7 274 456.2C228.3 459.7 182.7 461.3 137 463.2C91.3 465 45.7 467 22.8 468L0 469Z" fill="#344161"></path></svg>