<svg id="visual" viewBox="0 0 960 540" width="960" height="540" xmlns="http://www.w3.org/2000/svg" xmlns:xlink="http://www.w3.org/1999/xlink" version="1.1"><path d="M0 82L26.7 84.7C53.3 87.3 106.7 92.7 160 84.5C213.3 76.3 266.7 54.7 320 50.2C373.3 45.7 426.7 58.3 480 58.3C533.3 58.3 586.7 45.7 640 39.3C693.3 33 746.7 33 800 42C853.3 51 906.7 69 933.3 78L960 87L960 0L933.3 0C906.7 0 853.3 0 800 0C746.7 0 693.3 0 640 0C586.7 0 533.3 0 480 0C426.7 0 373.3 0 320 0C266.7 0 213.3 0 160 0C106.7 0 53.3 0 26.7 0L0 0Z" fill="#212529"></path><path d="M0 174L26.7 183.8C53.3 193.7 106.7 213.3 160 206.2C213.3 199 266.7 165 320 162.3C373.3 159.7 426.7 188.3 480 206.3C533.3 224.3 586.7 231.7 640 244.3C693.3 257 746.7 275 800 258.7C853.3 242.3 906.7 191.7 933.3 166.3L960 141L960 85L933.3 76C906.7 67 853.3 49 800 40C746.7 31 693.3 31 640 37.3C586.7 43.7 533.3 56.3 480 56.3C426.7 56.3 373.3 43.7 320 48.2C266.7 52.7 213.3 74.3 160 82.5C106.7 90.7 53.3 85.3 26.7 82.7L0 80Z" fill="#242d36"></path><path d="M0 228L26.7 243.3C53.3 258.7 106.7 289.3 160 280.3C213.3 271.3 266.7 222.7 320 216.3C373.3 210 426.7 246 480 269.3C533.3 292.7 586.7 303.3 640 318.7C693.3 334 746.7 354 800 341.5C853.3 329 906.7 284 933.3 261.5L960 239L960 139L933.3 164.3C906.7 189.7 853.3 240.3 800 256.7C746.7 273 693.3 255 640 242.3C586.7 229.7 533.3 222.3 480 204.3C426.7 186.3 373.3 157.7 320 160.3C266.7 163 213.3 197 160 204.2C106.7 211.3 53.3 191.7 26.7 181.8L0 172Z" fill="#273444"></path><path d="M0 314L26.7 321.2C53.3 328.3 106.7 342.7 160 340.8C213.3 339 266.7 321 320 322.8C373.3 324.7 426.7 346.3 480 358.2C533.3 370 586.7 372 640 384.7C693.3 397.3 746.7 420.7 800 419.7C853.3 418.7 906.7 393.3 933.3 380.7L960 368L960 237L933.3 259.5C906.7 282 853.3 327 800 339.5C746.7 352 693.3 332 640 316.7C586.7 301.3 533.3 290.7 480 267.3C426.7 244 373.3 208 320 214.3C266.7 220.7 213.3 269.3 160 278.3C106.7 287.3 53.3 256.7 26.7 241.3L0 226Z" fill="#2c3b53"></path><path d="M0 541L26.7 541C53.3 541 106.7 541 160 541C213.3 541 266.7 541 320 541C373.3 541 426.7 541 480 541C533.3 541 586.7 541 640 541C693.3 541 746.7 541 800 541C853.3 541 906.7 541 933.3 541L960 541L960 366L933.3 378.7C906.7 391.3 853.3 416.7 800 417.7C746.7 418.7 693.3 395.3 640 382.7C586.7 370 533.3 368 480 356.2C426.7 344.3 373.3 322.7 320 320.8C266.7 319 213.3 337 160 338.8C106.7 340.7 53.3 326.3 26.7 319.2L0 312Z" fill="#344161"></path></svg>