<svg id="visual" viewBox="0 0 960 540" width="960" height="540" xmlns="http://www.w3.org/2000/svg" xmlns:xlink="http://www.w3.org/1999/xlink" version="1.1"><path d="M0 82L22.8 80.2C45.7 78.3 91.3 74.7 137 72.8C182.7 71 228.3 71 274 71C319.7 71 365.3 71 411.2 71C457 71 503 71 548.8 67.5C594.7 64 640.3 57 686 54.3C731.7 51.7 777.3 53.3 823 58.7C868.7 64 914.3 73 937.2 77.5L960 82L960 0L937.2 0C914.3 0 868.7 0 823 0C777.3 0 731.7 0 686 0C640.3 0 594.7 0 548.8 0C503 0 457 0 411.2 0C365.3 0 319.7 0 274 0C228.3 0 182.7 0 137 0C91.3 0 45.7 0 22.8 0L0 0Z" fill="#212529"></path><path d="M0 201L22.8 198.3C45.7 195.7 91.3 190.3 137 195.7C182.7 201 228.3 217 274 218.7C319.7 220.3 365.3 207.7 411.2 198.7C457 189.7 503 184.3 548.8 187.2C594.7 190 640.3 201 686 202.8C731.7 204.7 777.3 197.3 823 195.5C868.7 193.7 914.3 197.3 937.2 199.2L960 201L960 80L937.2 75.5C914.3 71 868.7 62 823 56.7C777.3 51.3 731.7 49.7 686 52.3C640.3 55 594.7 62 548.8 65.5C503 69 457 69 411.2 69C365.3 69 319.7 69 274 69C228.3 69 182.7 69 137 70.8C91.3 72.7 45.7 76.3 22.8 78.2L0 80Z" fill="#242d36"></path><path d="M0 276L22.8 273.3C45.7 270.7 91.3 265.3 137 269.8C182.7 274.3 228.3 288.7 274 289.7C319.7 290.7 365.3 278.3 411.2 267.7C457 257 503 248 548.8 254.2C594.7 260.3 640.3 281.7 686 288.8C731.7 296 777.3 289 823 284.5C868.7 280 914.3 278 937.2 277L960 276L960 199L937.2 197.2C914.3 195.3 868.7 191.7 823 193.5C777.3 195.3 731.7 202.7 686 200.8C640.3 199 594.7 188 548.8 185.2C503 182.3 457 187.7 411.2 196.7C365.3 205.7 319.7 218.3 274 216.7C228.3 215 182.7 199 137 193.7C91.3 188.3 45.7 193.7 22.8 196.3L0 199Z" fill="#273444"></path><path d="M0 374L22.8 374.8C45.7 375.7 91.3 377.3 137 382.7C182.7 388 228.3 397 274 396.2C319.7 395.3 365.3 384.7 411.2 376.5C457 368.3 503 362.7 548.8 362.7C594.7 362.7 640.3 368.3 686 367.5C731.7 366.7 777.3 359.3 823 358.3C868.7 357.3 914.3 362.7 937.2 365.3L960 368L960 274L937.2 275C914.3 276 868.7 278 823 282.5C777.3 287 731.7 294 686 286.8C640.3 279.7 594.7 258.3 548.8 252.2C503 246 457 255 411.2 265.7C365.3 276.3 319.7 288.7 274 287.7C228.3 286.7 182.7 272.3 137 267.8C91.3 263.3 45.7 268.7 22.8 271.3L0 274Z" fill="#2c3b53"></path><path d="M0 541L22.8 541C45.7 541 91.3 541 137 541C182.7 541 228.3 541 274 541C319.7 541 365.3 541 411.2 541C457 541 503 541 548.8 541C594.7 541 640.3 541 686 541C731.7 541 777.3 541 823 541C868.7 541 914.3 541 937.2 541L960 541L960 366L937.2 363.3C914.3 360.7 868.7 355.3 823 356.3C777.3 357.3 731.7 364.7 686 365.5C640.3 366.3 594.7 360.7 548.8 360.7C503 360.7 457 366.3 411.2 374.5C365.3 382.7 319.7 393.3 274 394.2C228.3 395 182.7 386 137 380.7C91.3 375.3 45.7 373.7 22.8 372.8L0 372Z" fill="#344161"></path></svg>