<svg id="visual" viewBox="0 0 960 540" width="960" height="540" xmlns="http://www.w3.org/2000/svg" xmlns:xlink="http://www.w3.org/1999/xlink" version="1.1"><path d="M863 540L861.3 522C859.7 504 856.3 468 862.7 432C869 396 885 360 885 324C885 288 869 252 857.8 216C846.7 180 840.3 144 838.8 108C837.3 72 840.7 36 842.3 18L844 0L960 0L960 18C960 36 960 72 960 108C960 144 960 180 960 216C960 252 960 288 960 324C960 360 960 396 960 432C960 468 960 504 960 522L960 540Z" fill="#344161"></path><path d="M738 540L739.7 522C741.3 504 744.7 468 744.7 432C744.7 396 741.3 360 726.8 324C712.3 288 686.7 252 667.5 216C648.3 180 635.7 144 632.5 108C629.3 72 635.7 36 638.8 18L642 0L845 0L843.3 18C841.7 36 838.3 72 839.8 108C841.3 144 847.7 180 858.8 216C870 252 886 288 886 324C886 360 870 396 863.7 432C857.3 468 860.7 504 862.3 522L864 540Z" fill="#283649"></path><path d="M613 540L614.7 522C616.3 504 619.7 468 619.7 432C619.7 396 616.3 360 611.5 324C606.7 288 600.3 252 584.3 216C568.3 180 542.7 144 544.3 108C546 72 575 36 589.5 18L604 0L643 0L639.8 18C636.7 36 630.3 72 633.5 108C636.7 144 649.3 180 668.5 216C687.7 252 713.3 288 727.8 324C742.3 360 745.7 396 745.7 432C745.7 468 742.3 504 740.7 522L739 540Z" fill="#232a32"></path><path d="M489 540L481 522C473 504 457 468 444.2 432C431.3 396 421.7 360 412 324C402.3 288 392.7 252 383 216C373.3 180 363.7 144 376.5 108C389.3 72 424.7 36 442.3 18L460 0L605 0L590.5 18C576 36 547 72 545.3 108C543.7 144 569.3 180 585.3 216C601.3 252 607.7 288 612.5 324C617.3 360 620.7 396 620.7 432C620.7 468 617.3 504 615.7 522L614 540Z" fill="#212529"></path><path d="M345 540L345 522C345 504 345 468 338.5 432C332 396 319 360 312.5 324C306 288 306 252 291.7 216C277.3 180 248.7 144 250.3 108C252 72 284 36 300 18L316 0L461 0L443.3 18C425.7 36 390.3 72 377.5 108C364.7 144 374.3 180 384 216C393.7 252 403.3 288 413 324C422.7 360 432.3 396 445.2 432C458 468 474 504 482 522L490 540Z" fill="#232a32"></path><path d="M57 540L58.5 522C60 504 63 468 64.5 432C66 396 66 360 62.8 324C59.7 288 53.3 252 48.5 216C43.7 180 40.3 144 48.3 108C56.3 72 75.7 36 85.3 18L95 0L317 0L301 18C285 36 253 72 251.3 108C249.7 144 278.3 180 292.7 216C307 252 307 288 313.5 324C320 360 333 396 339.5 432C346 468 346 504 346 522L346 540Z" fill="#283649"></path><path d="M0 540L0 522C0 504 0 468 0 432C0 396 0 360 0 324C0 288 0 252 0 216C0 180 0 144 0 108C0 72 0 36 0 18L0 0L96 0L86.3 18C76.7 36 57.3 72 49.3 108C41.3 144 44.7 180 49.5 216C54.3 252 60.7 288 63.8 324C67 360 67 396 65.5 432C64 468 61 504 59.5 522L58 540Z" fill="#344161"></path></svg>