<svg id="visual" viewBox="0 0 675 400" width="675" height="400" xmlns="http://www.w3.org/2000/svg" xmlns:xlink="http://www.w3.org/1999/xlink" version="1.1"><path d="M0 57L18.8 52.3C37.7 47.7 75.3 38.3 112.8 38.3C150.3 38.3 187.7 47.7 225.2 49.7C262.7 51.7 300.3 46.3 337.8 42.3C375.3 38.3 412.7 35.7 450.2 39C487.7 42.3 525.3 51.7 562.8 53.7C600.3 55.7 637.7 50.3 656.3 47.7L675 45L675 0L656.3 0C637.7 0 600.3 0 562.8 0C525.3 0 487.7 0 450.2 0C412.7 0 375.3 0 337.8 0C300.3 0 262.7 0 225.2 0C187.7 0 150.3 0 112.8 0C75.3 0 37.7 0 18.8 0L0 0Z" fill="#212529"></path><path d="M0 125L18.8 114.3C37.7 103.7 75.3 82.3 112.8 76.3C150.3 70.3 187.7 79.7 225.2 86.3C262.7 93 300.3 97 337.8 97C375.3 97 412.7 93 450.2 91.7C487.7 90.3 525.3 91.7 562.8 91C600.3 90.3 637.7 87.7 656.3 86.3L675 85L675 43L656.3 45.7C637.7 48.3 600.3 53.7 562.8 51.7C525.3 49.7 487.7 40.3 450.2 37C412.7 33.7 375.3 36.3 337.8 40.3C300.3 44.3 262.7 49.7 225.2 47.7C187.7 45.7 150.3 36.3 112.8 36.3C75.3 36.3 37.7 45.7 18.8 50.3L0 55Z" fill="#232b34"></path><path d="M0 189L18.8 183C37.7 177 75.3 165 112.8 170.3C150.3 175.7 187.7 198.3 225.2 203.7C262.7 209 300.3 197 337.8 189C375.3 181 412.7 177 450.2 175C487.7 173 525.3 173 562.8 179.7C600.3 186.3 637.7 199.7 656.3 206.3L675 213L675 83L656.3 84.3C637.7 85.7 600.3 88.3 562.8 89C525.3 89.7 487.7 88.3 450.2 89.7C412.7 91 375.3 95 337.8 95C300.3 95 262.7 91 225.2 84.3C187.7 77.7 150.3 68.3 112.8 74.3C75.3 80.3 37.7 101.7 18.8 112.3L0 123Z" fill="#26313e"></path><path d="M0 217L18.8 213C37.7 209 75.3 201 112.8 207C150.3 213 187.7 233 225.2 238.3C262.7 243.7 300.3 234.3 337.8 225C375.3 215.7 412.7 206.3 450.2 202.3C487.7 198.3 525.3 199.7 562.8 209.7C600.3 219.7 637.7 238.3 656.3 247.7L675 257L675 211L656.3 204.3C637.7 197.7 600.3 184.3 562.8 177.7C525.3 171 487.7 171 450.2 173C412.7 175 375.3 179 337.8 187C300.3 195 262.7 207 225.2 201.7C187.7 196.3 150.3 173.7 112.8 168.3C75.3 163 37.7 175 18.8 181L0 187Z" fill="#29374a"></path><path d="M0 321L18.8 322.3C37.7 323.7 75.3 326.3 112.8 330.3C150.3 334.3 187.7 339.7 225.2 344.3C262.7 349 300.3 353 337.8 353.7C375.3 354.3 412.7 351.7 450.2 349.7C487.7 347.7 525.3 346.3 562.8 343C600.3 339.7 637.7 334.3 656.3 331.7L675 329L675 255L656.3 245.7C637.7 236.3 600.3 217.7 562.8 207.7C525.3 197.7 487.7 196.3 450.2 200.3C412.7 204.3 375.3 213.7 337.8 223C300.3 232.3 262.7 241.7 225.2 236.3C187.7 231 150.3 211 112.8 205C75.3 199 37.7 207 18.8 211L0 215Z" fill="#2d3c55"></path><path d="M0 401L18.8 401C37.7 401 75.3 401 112.8 401C150.3 401 187.7 401 225.2 401C262.7 401 300.3 401 337.8 401C375.3 401 412.7 401 450.2 401C487.7 401 525.3 401 562.8 401C600.3 401 637.7 401 656.3 401L675 401L675 327L656.3 329.7C637.7 332.3 600.3 337.7 562.8 341C525.3 344.3 487.7 345.7 450.2 347.7C412.7 349.7 375.3 352.3 337.8 351.7C300.3 351 262.7 347 225.2 342.3C187.7 337.7 150.3 332.3 112.8 328.3C75.3 324.3 37.7 321.7 18.8 320.3L0 319Z" fill="#344161"></path></svg>