<svg id="visual" viewBox="0 0 960 540" width="960" height="540" xmlns="http://www.w3.org/2000/svg" xmlns:xlink="http://www.w3.org/1999/xlink" version="1.1"><path d="M892 540L872.8 510C853.7 480 815.3 420 775.3 360C735.3 300 693.7 240 668 180C642.3 120 632.7 60 627.8 30L623 0L960 0L960 30C960 60 960 120 960 180C960 240 960 300 960 360C960 420 960 480 960 510L960 540Z" fill="#212529"></path><path d="M642 540L642 510C642 480 642 420 600.5 360C559 300 476 240 442.5 180C409 120 425 60 433 30L441 0L624 0L628.8 30C633.7 60 643.3 120 669 180C694.7 240 736.3 300 776.3 360C816.3 420 854.7 480 873.8 510L893 540Z" fill="#242d36"></path><path d="M585 540L572.2 510C559.3 480 533.7 420 472.8 360C412 300 316 240 290.3 180C264.7 120 309.3 60 331.7 30L354 0L442 0L434 30C426 60 410 120 443.5 180C477 240 560 300 601.5 360C643 420 643 480 643 510L643 540Z" fill="#273444"></path><path d="M364 540L357.5 510C351 480 338 420 299.5 360C261 300 197 240 163.5 180C130 120 127 60 125.5 30L124 0L355 0L332.7 30C310.3 60 265.7 120 291.3 180C317 240 413 300 473.8 360C534.7 420 560.3 480 573.2 510L586 540Z" fill="#2c3b53"></path><path d="M0 540L0 510C0 480 0 420 0 360C0 300 0 240 0 180C0 120 0 60 0 30L0 0L125 0L126.5 30C128 60 131 120 164.5 180C198 240 262 300 300.5 360C339 420 352 480 358.5 510L365 540Z" fill="#344161"></path></svg>